<?xml version="1.0" encoding="UTF-8"?>
<svg width="420px" height="480px" viewBox="0 0 420 480" version="1.1" xmlns="http://www.w3.org/2000/svg" xmlns:xlink="http://www.w3.org/1999/xlink">
    <!-- Generator: Sketch 55.2 (78181) - https://sketchapp.com -->
    <title>lsb-guide-cover/cdd</title>
    <desc>Created with Sketch.</desc>
    <defs>
        <linearGradient x1="31.4915359%" y1="0%" x2="72.1227594%" y2="100%" id="linearGradient-1">
            <stop stop-color="#FFFFFF" stop-opacity="0.8" offset="0%"></stop>
            <stop stop-color="#FFFFFF" stop-opacity="0.1" offset="100%"></stop>
        </linearGradient>
    </defs>
    <g id="lsb-guide-cover/cdd" stroke="none" stroke-width="1" fill="none" fill-rule="evenodd">
        <path d="M244.791473,174.285487 C236.294802,174.285487 229.40689,167.397575 229.40689,158.900905 C229.40689,150.404234 236.294802,143.516322 244.791473,143.516322 C253.288143,143.516322 260.176055,150.404234 260.176055,158.900905 C260.176055,167.397575 253.288143,174.285487 244.791473,174.285487 Z M244.791473,164.951022 C248.13286,164.951022 250.84159,162.242292 250.84159,158.900905 C250.84159,155.559518 248.13286,152.850788 244.791473,152.850788 C241.450086,152.850788 238.741356,155.559518 238.741356,158.900905 C238.741356,162.242292 241.450086,164.951022 244.791473,164.951022 Z M302.354578,434.681797 C291.430287,434.681797 282.5744,425.825909 282.5744,414.901619 C282.5744,403.977329 291.430287,395.121441 302.354578,395.121441 C313.278868,395.121441 322.134755,403.977329 322.134755,414.901619 C322.134755,425.825909 313.278868,434.681797 302.354578,434.681797 Z M302.354578,422.680341 C306.650647,422.680341 310.133299,419.197688 310.133299,414.901619 C310.133299,410.60555 306.650647,407.122897 302.354578,407.122897 C298.058508,407.122897 294.575856,410.60555 294.575856,414.901619 C294.575856,419.197688 298.058508,422.680341 302.354578,422.680341 Z M357.49767,130.499319 C347.483737,130.499319 339.365841,122.381422 339.365841,112.367489 C339.365841,102.353556 347.483737,94.2356598 357.49767,94.2356598 C367.511603,94.2356598 375.6295,102.353556 375.6295,112.367489 C375.6295,122.381422 367.511603,130.499319 357.49767,130.499319 Z M357.49767,119.497984 C361.435734,119.497984 364.628165,116.305553 364.628165,112.367489 C364.628165,108.429426 361.435734,105.236995 357.49767,105.236995 C353.559607,105.236995 350.367175,108.429426 350.367175,112.367489 C350.367175,116.305553 353.559607,119.497984 357.49767,119.497984 Z M94.7017828,121.68578 C88.32928,121.68578 83.1633458,116.519845 83.1633458,110.147343 C83.1633458,103.77484 88.32928,98.6089056 94.7017828,98.6089056 C101.074286,98.6089056 106.24022,103.77484 106.24022,110.147343 C106.24022,116.519845 101.074286,121.68578 94.7017828,121.68578 Z M94.7017828,114.68493 C97.2078232,114.68493 99.2393703,112.653383 99.2393703,110.147343 C99.2393703,107.641302 97.2078232,105.609755 94.7017828,105.609755 C92.1957423,105.609755 90.1641952,107.641302 90.1641952,110.147343 C90.1641952,112.653383 92.1957423,114.68493 94.7017828,114.68493 Z M187.362157,71.0489746 C178.865487,71.0489746 171.977575,64.1610624 171.977575,55.6643921 C171.977575,47.1677217 178.865487,40.2798095 187.362157,40.2798095 C195.858828,40.2798095 202.74674,47.1677217 202.74674,55.6643921 C202.74674,64.1610624 195.858828,71.0489746 187.362157,71.0489746 Z M187.362157,61.7145088 C190.703545,61.7145088 193.412274,59.0057793 193.412274,55.6643921 C193.412274,52.3230048 190.703545,49.6142753 187.362157,49.6142753 C184.02077,49.6142753 181.312041,52.3230048 181.312041,55.6643921 C181.312041,59.0057793 184.02077,61.7145088 187.362157,61.7145088 Z M56.7367802,247.985325 C44.9021322,247.985325 35.3082545,238.391447 35.3082545,226.556799 C35.3082545,214.722151 44.9021322,205.128274 56.7367802,205.128274 C68.5714282,205.128274 78.165306,214.722151 78.165306,226.556799 C78.165306,238.391447 68.5714282,247.985325 56.7367802,247.985325 Z M56.7367802,234.983748 C61.3908553,234.983748 65.1637285,231.210874 65.1637285,226.556799 C65.1637285,221.902724 61.3908553,218.129851 56.7367802,218.129851 C52.0827052,218.129851 48.3098319,221.902724 48.3098319,226.556799 C48.3098319,231.210874 52.0827052,234.983748 56.7367802,234.983748 Z M141.351984,218.307999 C129.517336,218.307999 119.923459,208.714121 119.923459,196.879473 C119.923459,185.044825 129.517336,175.450948 141.351984,175.450948 C153.186632,175.450948 162.78051,185.044825 162.78051,196.879473 C162.78051,208.714121 153.186632,218.307999 141.351984,218.307999 Z M141.351984,205.306422 C146.006059,205.306422 149.778933,201.533548 149.778933,196.879473 C149.778933,192.225398 146.006059,188.452525 141.351984,188.452525 C136.697909,188.452525 132.925036,192.225398 132.925036,196.879473 C132.925036,201.533548 136.697909,205.306422 141.351984,205.306422 Z M106.594717,306.47777 C92.939354,306.47777 81.869495,295.407911 81.869495,281.752548 C81.869495,268.097185 92.939354,257.027326 106.594717,257.027326 C120.25008,257.027326 131.319939,268.097185 131.319939,281.752548 C131.319939,295.407911 120.25008,306.47777 106.594717,306.47777 Z M298.976577,379.257749 C285.321214,379.257749 274.251355,368.18789 274.251355,354.532527 C274.251355,340.877164 285.321214,329.807305 298.976577,329.807305 C312.63194,329.807305 323.701799,340.877164 323.701799,354.532527 C323.701799,368.18789 312.63194,379.257749 298.976577,379.257749 Z M89.9794753,169.845516 L115.880767,195.746808 L102.589315,209.03826 L89.6386688,196.087614 L76.3472163,209.379067 L50.4459242,183.477775 L63.7373768,170.186322 L76.6880228,183.136968 L89.9794753,169.845516 Z M369.057948,318.773525 L394.95924,344.674817 L381.667788,357.966269 L368.717142,345.015623 L355.425689,358.307076 L329.524397,332.405784 L342.81585,319.114331 L355.766496,332.064977 L369.057948,318.773525 Z M346.829641,186.739673 L368.400924,174.285487 L374.791888,185.354961 L364.006247,191.582054 L370.397211,202.651528 L348.825928,215.105714 L342.434964,204.03624 L353.220605,197.809147 L346.829641,186.739673 Z M4.39467756,215.369303 L25.9659603,202.915117 L32.3569241,213.984591 L21.5712828,220.211684 L27.9622466,231.281158 L6.39096382,243.735344 L-4.70556927e-12,232.66587 L10.7856414,226.438777 L4.39467756,215.369303 Z M82.1652027,235.435294 L92.9508441,229.208201 L96.146326,234.742938 L90.7535053,237.856484 L93.9489872,243.391221 L83.1633458,249.618314 L79.9678639,244.083577 L85.3606846,240.970031 L82.1652027,235.435294 Z M191.054908,307.160889 L201.84055,300.933796 L205.036032,306.468533 L199.643211,309.582079 L202.838693,315.116816 L192.053052,321.343909 L188.85757,315.809172 L194.25039,312.695626 L191.054908,307.160889 Z M314.30146,377.484815 L325.087101,371.257722 L328.282583,376.792459 L322.889762,379.906005 L326.085244,385.440742 L315.299603,391.667835 L312.104121,386.133098 L317.496942,383.019552 L314.30146,377.484815 Z M182.966463,423.080745 L193.752104,416.853652 L196.947586,422.388389 L191.554765,425.501936 L194.750247,431.036673 L183.964606,437.263766 L180.769124,431.729029 L186.161945,428.615482 L182.966463,423.080745 Z M55.1981213,100.927931 L65.9837627,94.7008379 L69.1792446,100.235575 L63.7864239,103.349121 L66.9819058,108.883858 L56.1962645,115.110951 L53.0007826,109.576214 L58.3936032,106.462668 L55.1981213,100.927931 Z M247.902727,115.27361 L222.097993,133.342279 L212.825912,120.100376 L225.728279,111.066041 L216.456199,97.824138 L242.260934,79.7554682 L251.533014,92.9973716 L238.630647,102.031706 L247.902727,115.27361 Z M173.857982,67.9644683 L182.011238,98.3928361 L166.396681,102.576744 L162.320053,87.3625602 L146.705496,91.5464682 L138.552239,61.1181004 L154.166796,56.9341924 L158.243425,72.1483763 L173.857982,67.9644683 Z M143.147419,152.509543 L174.263917,153.596155 L173.702501,169.673012 L127.027754,168.043094 L128.150586,135.88938 L143.708835,136.432686 L143.147419,152.509543 Z M230.555035,332.093538 L261.671533,333.18015 L261.110117,349.257007 L214.43537,347.627089 L215.558202,315.473375 L231.116451,316.016681 L230.555035,332.093538 Z M269.952114,66.6787645 L301.068612,67.7653765 L300.507196,83.8422337 L253.832449,82.2123157 L254.955282,50.0586012 L270.513531,50.6019072 L269.952114,66.6787645 Z M144.270252,423.255878 L175.386749,424.34249 L174.825333,440.419347 L128.150586,438.789429 L129.273419,406.635715 L144.831668,407.179021 L144.270252,423.255878 Z M267.798243,289.212437 L298.914741,290.299049 L298.353325,306.375906 L251.678578,304.745988 L252.80141,272.592273 L268.359659,273.135579 L267.798243,289.212437 Z M270.858493,115.279987 L298.349477,100.662772 L305.901704,114.866447 L264.665229,136.79227 L249.560773,108.38492 L263.306265,101.076313 L270.858493,115.279987 Z M174.71325,184.692932 L185.709644,178.846046 L188.730535,184.527516 L172.235944,193.297845 L166.194162,181.934905 L171.692359,179.011462 L174.71325,184.692932 Z M213.015775,36.2877483 L200.591927,35.4189882 L201.040787,29 L219.676559,30.3031401 L218.77884,43.1411165 L212.566916,42.7067365 L213.015775,36.2877483 Z M269.234476,323.037393 L280.230869,317.190507 L283.25176,322.871977 L266.75717,331.642306 L260.715388,320.279366 L266.213585,317.355923 L269.234476,323.037393 Z M109.061782,360.366739 L107.543999,348.005385 L113.930699,347.221197 L116.207374,365.763228 L103.433974,367.331604 L102.675083,361.150927 L109.061782,360.366739 Z M111.947956,418.653579 L122.94435,412.806693 L125.965241,418.488163 L109.470651,427.258492 L103.428868,415.895552 L108.927065,412.972109 L111.947956,418.653579 Z M308.395666,94.3640473 L316.233339,104.042768 L311.232667,108.092232 L299.476157,93.5741516 L309.477501,85.4752227 L313.396338,90.3145828 L308.395666,94.3640473 Z M382.222892,254.270319 L420.684349,231.449855 L420.684349,277.090783 L382.222892,254.270319 Z M155.947928,221.977395 L189.348389,192.237415 L198.057089,237.039791 L155.947928,221.977395 Z M4.21791024,198.361863 L16.0652963,157.89398 L45.4136466,189.366233 L4.21791024,198.361863 Z M148.870313,146.807901 L149.898929,102.097733 L188.604631,126.28374 L148.870313,146.807901 Z M330.240448,408.072993 L331.269063,363.362824 L369.974765,387.548831 L330.240448,408.072993 Z M91.7275777,415.96789 L92.7561932,371.257722 L131.461896,395.443729 L91.7275777,415.96789 Z M221.16576,83.0977931 L221.988652,47.3296583 L252.953214,66.678464 L221.16576,83.0977931 Z M195.699772,130.58397 L207.388527,123.648642 L207.388527,137.519298 L195.699772,130.58397 Z M236.285634,293.977644 L247.974389,287.042316 L247.974389,300.912972 L236.285634,293.977644 Z M237.405534,40.5004058 L249.094289,33.565078 L249.094289,47.4357337 L237.405534,40.5004058 Z M107.605665,173.164576 L119.294419,166.229248 L119.294419,180.099904 L107.605665,173.164576 Z M196.542759,329.807305 L208.231514,322.871977 L208.231514,336.742633 L196.542759,329.807305 Z M288.603287,133.736123 L305.086768,123.955924 L305.086768,143.516322 L288.603287,133.736123 Z M318.784767,100.638551 L335.268248,90.8583524 L335.268248,110.41875 L318.784767,100.638551 Z M311.681292,168.911875 L342.450457,150.655504 L342.450457,187.168247 L311.681292,168.911875 Z M275.020802,253.450228 L275.795984,234.299339 L292.200714,244.952695 L275.020802,253.450228 Z M349.593299,244.67327 C343.220796,244.67327 338.054862,239.507336 338.054862,233.134833 C338.054862,226.76233 343.220796,221.596396 349.593299,221.596396 C355.965801,221.596396 361.131736,226.76233 361.131736,233.134833 C361.131736,239.507336 355.965801,244.67327 349.593299,244.67327 Z M233.909272,247.985325 C228.750579,247.985325 224.568632,243.803378 224.568632,238.644686 C224.568632,233.485993 228.750579,229.304046 233.909272,229.304046 C239.067964,229.304046 243.249911,233.485993 243.249911,238.644686 C243.249911,243.803378 239.067964,247.985325 233.909272,247.985325 Z M244.546822,326.690174 C239.388129,326.690174 235.206183,322.508227 235.206183,317.349534 C235.206183,312.190841 239.388129,308.008895 244.546822,308.008895 C249.705515,308.008895 253.887461,312.190841 253.887461,317.349534 C253.887461,322.508227 249.705515,326.690174 244.546822,326.690174 Z M358.832129,319.042704 C353.673437,319.042704 349.49149,314.860757 349.49149,309.702064 C349.49149,304.543372 353.673437,300.361425 358.832129,300.361425 C363.990822,300.361425 368.172769,304.543372 368.172769,309.702064 C368.172769,314.860757 363.990822,319.042704 358.832129,319.042704 Z M271.983574,102.942579 C267.431786,102.942579 263.741833,99.2526256 263.741833,94.7008379 C263.741833,90.1490503 267.431786,86.4590973 271.983574,86.4590973 C276.535362,86.4590973 280.225315,90.1490503 280.225315,94.7008379 C280.225315,99.2526256 276.535362,102.942579 271.983574,102.942579 Z M398.675641,172.705544 C394.123853,172.705544 390.4339,169.015591 390.4339,164.463803 C390.4339,159.912016 394.123853,156.222063 398.675641,156.222063 C403.227429,156.222063 406.917382,159.912016 406.917382,164.463803 C406.917382,169.015591 403.227429,172.705544 398.675641,172.705544 Z M186.221814,152.176853 C181.973478,152.176853 178.529522,148.732896 178.529522,144.484561 C178.529522,140.236226 181.973478,136.79227 186.221814,136.79227 C190.470149,136.79227 193.914105,140.236226 193.914105,144.484561 C193.914105,148.732896 190.470149,152.176853 186.221814,152.176853 Z M147.202333,54.0228244 C142.953997,54.0228244 139.510041,50.5788682 139.510041,46.3305331 C139.510041,42.0821979 142.953997,38.6382418 147.202333,38.6382418 C151.450668,38.6382418 154.894624,42.0821979 154.894624,46.3305331 C154.894624,50.5788682 151.450668,54.0228244 147.202333,54.0228244 Z M66.7134641,383.611278 C62.465129,383.611278 59.0211728,380.167322 59.0211728,375.918986 C59.0211728,371.670651 62.465129,368.226695 66.7134641,368.226695 C70.9617993,368.226695 74.4057554,371.670651 74.4057554,375.918986 C74.4057554,380.167322 70.9617993,383.611278 66.7134641,383.611278 Z M282.152165,58.5256991 C277.90383,58.5256991 274.459874,55.081743 274.459874,50.8334078 C274.459874,46.5850727 277.90383,43.1411165 282.152165,43.1411165 C286.4005,43.1411165 289.844456,46.5850727 289.844456,50.8334078 C289.844456,55.081743 286.4005,58.5256991 282.152165,58.5256991 Z M68.6365369,261.222358 C65.4502856,261.222358 62.8673185,258.639391 62.8673185,255.45314 C62.8673185,252.266889 65.4502856,249.683921 68.6365369,249.683921 C71.8227883,249.683921 74.4057554,252.266889 74.4057554,255.45314 C74.4057554,258.639391 71.8227883,261.222358 68.6365369,261.222358 Z M28.8436635,156.699447 C25.6574121,156.699447 23.074445,154.11648 23.074445,150.930229 C23.074445,147.743977 25.6574121,145.16101 28.8436635,145.16101 C32.0299149,145.16101 34.612882,147.743977 34.612882,150.930229 C34.612882,154.11648 32.0299149,156.699447 28.8436635,156.699447 Z M203.136951,418.66366 C199.9507,418.66366 197.367733,416.080693 197.367733,412.894442 C197.367733,409.70819 199.9507,407.125223 203.136951,407.125223 C206.323202,407.125223 208.906169,409.70819 208.906169,412.894442 C208.906169,416.080693 206.323202,418.66366 203.136951,418.66366 Z M174.825333,277.15639 C171.639082,277.15639 169.056115,274.573423 169.056115,271.387172 C169.056115,268.200921 171.639082,265.617953 174.825333,265.617953 C178.011585,265.617953 180.594552,268.200921 180.594552,271.387172 C180.594552,274.573423 178.011585,277.15639 174.825333,277.15639 Z M215.770082,364.483766 C212.583831,364.483766 210.000864,361.900798 210.000864,358.714547 C210.000864,355.528296 212.583831,352.945329 215.770082,352.945329 C218.956333,352.945329 221.539301,355.528296 221.539301,358.714547 C221.539301,361.900798 218.956333,364.483766 215.770082,364.483766 Z M393.619373,277.15639 C390.433121,277.15639 387.850154,274.573423 387.850154,271.387172 C387.850154,268.200921 390.433121,265.617953 393.619373,265.617953 C396.805624,265.617953 399.388591,268.200921 399.388591,271.387172 C399.388591,274.573423 396.805624,277.15639 393.619373,277.15639 Z M335.170253,277.090783 L280.225315,277.090783 C280.225315,261.918157 292.525158,249.618314 307.697784,249.618314 C322.870409,249.618314 335.170253,261.918157 335.170253,277.090783 Z M248.859043,451 L193.914105,451 C193.914105,435.827374 206.213948,423.527531 221.386574,423.527531 C236.559199,423.527531 248.859043,435.827374 248.859043,451 Z M96.9331799,363.362824 L41.9882421,363.362824 C41.9882421,348.190199 54.2880854,335.890355 69.460711,335.890355 C84.6333366,335.890355 96.9331799,348.190199 96.9331799,363.362824 Z M75.9347439,78.3058767 L123.518456,50.8334078 C131.104769,63.9732871 126.602714,80.7751855 113.462834,88.3614983 C100.322955,95.9478111 83.5210567,91.445756 75.9347439,78.3058767 Z M175.544528,370.606627 L175.544528,413.463678 C163.70988,413.463678 154.116002,403.869801 154.116002,392.035153 C154.116002,380.200505 163.70988,370.606627 175.544528,370.606627 Z M358.613426,215.959362 L390.639389,196.716223 L409.882529,228.742185 C392.195078,239.369878 369.241119,233.646813 358.613426,215.959362 Z M280.225315,210.137026 L292.439062,197.489321 L305.086768,209.703068 C298.341302,216.688203 287.21045,216.882493 280.225315,210.137026 Z M157.40893,42.6663389 L166.569241,33.1805595 L176.05502,42.3408702 C170.995921,47.5797214 162.647782,47.7254387 157.40893,42.6663389 Z M377.157155,184.903471 L389.370903,172.255765 L402.018609,184.469513 C395.273142,191.454648 384.14229,191.648937 377.157155,184.903471 Z M150.342349,349.748352 L176.296562,322.871977 L203.172937,348.826191 C188.838821,363.669603 165.185761,364.082468 150.342349,349.748352 Z M394.503813,331.299734 L376.390086,298.621704 L409.068115,280.507977 C419.07205,298.555554 412.55139,321.295798 394.503813,331.299734 Z M84.3927128,211.947848 L98.5718998,210.206862 L100.312885,224.386049 C92.4819363,225.347569 85.3542324,219.778796 84.3927128,211.947848 Z M4.01248844,286.114069 L16.5556154,284.573966 L18.0957177,297.117093 C11.16834,297.967668 4.86306348,293.041446 4.01248844,286.114069 Z M146.261741,276.46737 L160.440928,274.726384 L162.181914,288.905571 C154.350965,289.867091 147.223261,284.298318 146.261741,276.46737 Z M125.119781,376.15351 L144.752502,373.742915 L147.163097,393.375636 C136.320245,394.706971 126.451116,386.996362 125.119781,376.15351 Z M338.973583,146.025758 L309.65155,138.714954 L316.962354,109.392921 C333.156465,113.430566 343.011228,129.831646 338.973583,146.025758 Z M176.400756,240.752278 L190.579942,239.011293 L192.320928,253.19048 C184.489979,254.151999 177.362275,248.583227 176.400756,240.752278 Z M235.919227,414.621862 L250.098414,412.880877 L251.839399,427.060064 C244.00845,428.021583 236.880746,422.452811 235.919227,414.621862 Z M4.53908929,277.15639 L4.53908929,246.387225 L35.3082545,246.387225 L35.3082545,277.15639 L4.53908929,277.15639 Z M131.461896,125.782388 L117.475198,111.795691 L131.461896,97.808993 L145.448593,111.795691 L131.461896,125.782388 Z M298.141035,247.985325 L292.200714,220.03831 L320.147729,214.097989 L326.08805,242.045004 L298.141035,247.985325 Z M330.225208,254.563359 L330.225208,244.67327 L340.115297,244.67327 L340.115297,254.563359 L330.225208,254.563359 Z M341.861641,90.3917367 L341.861641,80.5016479 L351.751729,80.5016479 L351.751729,90.3917367 L341.861641,90.3917367 Z M250.872037,141.538676 L240.879458,135.769457 L246.648676,125.776878 L256.641256,131.546096 L250.872037,141.538676 Z M79.8960656,175.442231 L69.9034861,169.673012 L75.6727046,159.680433 L85.6652841,165.449651 L79.8960656,175.442231 Z M133.740823,93.3561217 L123.748243,87.5869032 L129.517462,77.5943237 L139.510041,83.3635422 L133.740823,93.3561217 Z M216.677526,242.817889 L205.905467,246.952895 L201.770461,236.180836 L212.54252,232.04583 L216.677526,242.817889 Z M49.5199468,202.317424 L38.7478879,206.45243 L34.612882,195.680371 L45.3849408,191.545365 L49.5199468,202.317424 Z M61.2179831,304.749703 L50.4459242,308.884709 L46.3109183,298.11265 L57.0829771,293.977644 L61.2179831,304.749703 Z M372.599696,381.250301 L359.276257,373.55801 L366.968548,360.234571 L380.291988,367.926862 L372.599696,381.250301 Z M411.994209,207.4819 L402.00163,201.712682 L407.770848,191.720102 L417.763428,197.489321 L411.994209,207.4819 Z M340.267361,363.815673 L330.274782,358.046454 L336.044,348.053875 L346.03658,353.823093 L340.267361,363.815673 Z M264.50908,381.560229 L254.516501,375.79101 L260.285719,365.798431 L270.278299,371.567649 L264.50908,381.560229 Z M200.143068,82.6994454 L191.984161,90.8583524 L183.825254,82.6994454 L191.984161,74.5405384 L200.143068,82.6994454 Z M259.072465,192.750178 L277.731239,196.716223 L262.537725,268.196087 L243.87895,264.230042 L259.072465,192.750178 Z M73.074566,281.311568 L83.3558914,329.681401 L70.7296534,332.365191 L60.4483279,283.995358 L73.074566,281.311568 Z M136.819609,289.037856 L155.478383,293.003901 L140.284869,364.483766 L121.626095,360.517721 L136.819609,289.037856 Z M190.369041,362.857438 L200.189448,364.94483 L192.192862,402.565812 L182.372454,400.47842 L190.369041,362.857438 Z M208.0153,49.7618 L218.030645,50.4621411 L215.347709,88.8299074 L205.332365,88.1295663 L208.0153,49.7618 Z M292.504433,382.325677 L294.075004,392.241871 L256.087072,398.258568 L254.516501,388.342374 L292.504433,382.325677 Z M340.152899,73.39519 L333.669334,83.3790059 L295.422351,58.5411249 L301.905917,48.5573089 L340.152899,73.39519 Z M214.057502,156.506397 L224.48219,166.931086 L213.671403,177.741873 L203.246714,167.317185 L192.435927,178.127973 L182.011238,167.703285 L214.443602,135.270921 L224.86829,145.69561 L214.057502,156.506397 Z M330.035333,299.003869 L340.460022,309.428557 L329.649234,320.239345 L319.224546,309.814657 L308.413758,320.625445 L297.98907,310.200756 L330.421433,277.768393 L340.846121,288.193081 L330.035333,299.003869 Z M157.488554,243.342726 L171.509728,247.898482 L166.785241,262.438959 L152.764066,257.883204 L148.039579,272.423681 L134.018404,267.867925 L148.191867,224.246493 L162.213041,228.802249 L157.488554,243.342726 Z M110.519818,141.696546 L122.59735,146.092408 L118.038678,158.617256 L105.961146,154.221394 L101.402474,166.746242 L89.3249421,162.35038 L103.000958,124.775836 L115.07849,129.171698 L110.519818,141.696546 Z M371.412104,255.534815 L381.836793,265.959503 L371.026005,276.770291 L360.601317,266.345603 L349.790529,277.15639 L339.365841,266.731702 L371.798204,234.299339 L382.222892,244.724027 L371.412104,255.534815 Z M378.994073,145.567989 L389.418762,155.992677 L378.607974,166.803465 L368.183286,156.378777 L357.372498,167.189564 L346.94781,156.764876 L379.380173,124.332513 L389.804861,134.757201 L378.994073,145.567989 Z M48.5024347,264.128005 L41.9882421,257.613812 L48.269785,251.33227 L67.8123629,270.874847 L61.53082,277.15639 L55.0166274,270.642198 L48.7350845,276.923741 L42.2208918,270.409548 L48.5024347,264.128005 Z M264.018604,430.719824 L257.504412,424.205631 L263.785954,417.924088 L283.328532,437.466666 L277.046989,443.748209 L270.532797,437.234016 L264.251254,443.515559 L257.737061,437.001367 L264.018604,430.719824 Z M27.7615864,307.582447 L21.7877909,293.509067 L35.3585504,287.748621 L53.2799369,329.968762 L39.7091773,335.729208 L33.7353818,321.655828 L20.1646223,327.416273 L14.1908268,313.342893 L27.7615864,307.582447 Z M326.325214,194.584122 L334.408828,198.70293 L330.137473,207.085937 L322.053858,202.96713 L317.782502,211.350138 L309.698888,207.23133 L322.512955,182.082308 L330.59657,186.201115 L326.325214,194.584122 Z M260.805095,185.585969 L268.982606,143.516322 L311.052252,151.693833 L302.874741,193.76348 L260.805095,185.585969 Z M203.141821,227.775978 L195.699772,185.570022 L237.905728,178.127973 L245.347777,220.333929 L203.141821,227.775978 Z M211.681505,413.463678 L204.239456,371.257722 L246.445413,363.815673 L253.887461,406.021629 L211.681505,413.463678 Z M184.29687,282.750968 L211.267686,249.444784 L244.57387,276.4156 L217.603054,309.721785 L184.29687,282.750968 Z M44.4034475,161.51613 L37.5338639,122.556785 L76.4932084,115.687201 L83.362792,154.646546 L44.4034475,161.51613 Z M105.088325,246.920334 L105.088325,220.546764 L131.461896,220.546764 L131.461896,246.920334 L105.088325,246.920334 Z M89.9191534,341.228486 L89.9191534,314.854916 L116.292724,314.854916 L116.292724,341.228486 L89.9191534,341.228486 Z M188.604631,117.777712 L188.604631,94.7008379 L211.681505,94.7008379 L211.681505,117.777712 L188.604631,117.777712 Z M163.28197,318.475791 L163.28197,295.398917 L186.358844,295.398917 L186.358844,318.475791 L163.28197,318.475791 Z" id="Combined-Shape-Copy" fill="url(#linearGradient-1)"></path>
    </g>
</svg>