<svg width="420" height="480" viewBox="0 0 420 480" fill="none" xmlns="http://www.w3.org/2000/svg">
<g id="lsb-guide-cover/addons">
<path id="Path 2" fill-rule="evenodd" clip-rule="evenodd" d="M207.652 157.044C206.438 157.672 204.292 158.291 201.758 158.922H109.154C100.375 158.922 93.2578 166.042 93.2578 174.825V238.339C92.5385 243.12 91.7084 247.355 90.5135 249.17C87.0289 254.462 80.5364 257.01 73.468 257.01C65.7077 257.01 58.7972 253.37 54.3494 247.704C48.8092 242.764 41.5047 239.762 33.4993 239.762C16.1862 239.762 2.15125 253.802 2.15125 271.122C2.15125 288.441 16.1862 302.481 33.4993 302.481C40.4747 302.481 48.0539 301.147 52.1256 296.348C57.794 289.667 64.2584 283.666 73.468 283.666C80.5364 283.666 88.8344 286.663 91.3393 291.505C91.9808 292.746 92.6131 294.957 93.2578 297.561V365.656C93.2578 374.438 100.375 381.558 109.154 381.558H352.255C361.034 381.558 368.151 374.438 368.151 365.656V174.825C368.151 166.042 361.034 158.922 352.255 158.922H260.548C255.875 158.212 251.763 157.391 249.982 156.218C244.691 152.733 242.143 146.239 242.143 139.17C242.143 131.409 245.783 124.497 251.448 120.049C256.388 114.508 259.389 107.202 259.389 99.196C259.389 81.8808 245.351 67.844 228.033 67.844C210.716 67.844 196.677 81.8808 196.677 99.196C196.677 106.172 198.012 113.753 202.81 117.825C209.49 123.494 215.491 129.959 215.491 139.17C215.491 146.239 212.494 154.538 207.652 157.044ZM146.576 195.151H205.036C210.202 195.151 214.39 199.366 214.39 204.565C214.39 209.765 210.202 213.979 205.036 213.979H146.576C141.41 213.979 137.222 209.765 137.222 204.565C137.222 199.366 141.41 195.151 146.576 195.151ZM186.329 261.049H282.203C287.369 261.049 291.557 265.264 291.557 270.464C291.557 275.663 287.369 279.878 282.203 279.878H186.329C181.163 279.878 176.975 275.663 176.975 270.464C176.975 265.264 181.163 261.049 186.329 261.049ZM245.185 228.1H163.341C158.175 228.1 153.988 232.315 153.988 237.514C153.988 242.714 158.175 246.928 163.341 246.928H245.185C250.351 246.928 254.539 242.714 254.539 237.514C254.539 232.315 250.351 228.1 245.185 228.1ZM186.329 293.999H321.956C327.122 293.999 331.31 298.213 331.31 303.413C331.31 308.612 327.122 312.827 321.956 312.827H186.329C181.163 312.827 176.975 308.612 176.975 303.413C176.975 298.213 181.163 293.999 186.329 293.999ZM196.079 326.948H163.341C158.175 326.948 153.988 331.162 153.988 336.362C153.988 341.561 158.175 345.776 163.341 345.776H196.079C201.245 345.776 205.432 341.561 205.432 336.362C205.432 331.162 201.245 326.948 196.079 326.948ZM224.76 326.948H245.805C250.971 326.948 255.159 331.162 255.159 336.362C255.159 341.561 250.971 345.776 245.805 345.776H224.76C219.594 345.776 215.406 341.561 215.406 336.362C215.406 331.162 219.594 326.948 224.76 326.948Z" fill="white"/>
</g>
</svg>
