<?xml version="1.0" encoding="UTF-8"?>
<svg width="420px" height="480px" viewBox="0 0 420 480" version="1.1" xmlns="http://www.w3.org/2000/svg" xmlns:xlink="http://www.w3.org/1999/xlink">
    <!-- Generator: Sketch 55.2 (78181) - https://sketchapp.com -->
    <title>lsb-guide-cover/design-system</title>
    <desc>Created with Sketch.</desc>
    <defs>
        <linearGradient x1="-3.98456788%" y1="-9.13616888%" x2="105.601965%" y2="102.960453%" id="linearGradient-1">
            <stop stop-color="#FFFFFF" offset="0%"></stop>
            <stop stop-color="#FFFFFF" stop-opacity="0.3" offset="100%"></stop>
        </linearGradient>
    </defs>
    <g id="lsb-guide-cover/design-system" stroke="none" stroke-width="1" fill="none" fill-rule="evenodd">
        <path d="M249.146548,412.35 C249.992118,407.285312 254.395247,403.425 259.7,403.425 C265.004753,403.425 269.407882,407.285312 270.253452,412.35 L386.675,412.35 C388.097133,412.35 389.25,413.502867 389.25,414.925 C389.25,416.347133 388.097133,417.5 386.675,417.5 L269.856844,417.5 C268.443442,421.755667 264.430162,424.825 259.7,424.825 C254.969838,424.825 250.956558,421.755667 249.543156,417.5 L222.325,417.5 C220.902867,417.5 219.75,416.347133 219.75,414.925 C219.75,413.502867 220.902867,412.35 222.325,412.35 L249.146548,412.35 Z M342.811876,372.666667 C343.964548,368.001029 348.178285,364.541667 353.2,364.541667 C358.221715,364.541667 362.435452,368.001029 363.588124,372.666667 L386.675,372.666667 C388.097133,372.666667 389.25,373.819533 389.25,375.241667 C389.25,376.6638 388.097133,377.816667 386.675,377.816667 L363.588124,377.816667 C362.435452,382.482304 358.221715,385.941667 353.2,385.941667 C348.178285,385.941667 343.964548,382.482304 342.811876,377.816667 L222.325,377.816667 C220.902867,377.816667 219.75,376.6638 219.75,375.241667 C219.75,373.819533 220.902867,372.666667 222.325,372.666667 L342.811876,372.666667 Z M294.111876,332.983333 C295.264548,328.317696 299.478285,324.858333 304.5,324.858333 C309.521715,324.858333 313.735452,328.317696 314.888124,332.983333 L386.675,332.983333 C388.097133,332.983333 389.25,334.1362 389.25,335.558333 C389.25,336.980467 388.097133,338.133333 386.675,338.133333 L314.888124,338.133333 C313.735452,342.798971 309.521715,346.258333 304.5,346.258333 C299.478285,346.258333 295.264548,342.798971 294.111876,338.133333 L222.325,338.133333 C220.902867,338.133333 219.75,336.980467 219.75,335.558333 C219.75,334.1362 220.902867,332.983333 222.325,332.983333 L294.111876,332.983333 Z M240.838124,293.3 L386.675,293.3 C388.097133,293.3 389.25,294.452867 389.25,295.875 C389.25,297.297133 388.097133,298.45 386.675,298.45 L240.838124,298.45 C239.685452,303.115638 235.471715,306.575 230.45,306.575 C224.540553,306.575 219.75,301.784447 219.75,295.875 C219.75,289.965553 224.540553,285.175 230.45,285.175 C235.471715,285.175 239.685452,288.634362 240.838124,293.3 Z M33.9174432,179.240306 L383.631729,179.240306 C388.690206,179.240306 392.790913,183.341012 392.790913,188.39949 L392.790913,201.470572 C392.790913,206.529049 388.690206,210.629755 383.631729,210.629755 L33.9174432,210.629755 C28.8589657,210.629755 24.7582595,206.529049 24.7582595,201.470572 L24.7582595,188.39949 C24.7582595,183.341012 28.8589657,179.240306 33.9174432,179.240306 Z M33.9174432,184.236224 C31.6181353,184.236224 29.7541779,186.100182 29.7541779,188.39949 L29.7541779,201.470572 C29.7541779,203.76988 31.6181353,205.633837 33.9174432,205.633837 L383.631729,205.633837 C385.931037,205.633837 387.794994,203.76988 387.794994,201.470572 L387.794994,188.39949 C387.794994,186.100182 385.931037,184.236224 383.631729,184.236224 L33.9174432,184.236224 Z M309.3397,90.9174036 C299.469707,90.9174036 291.468498,82.916194 291.468498,73.0462018 C291.468498,63.1762096 299.469707,55.175 309.3397,55.175 C319.209692,55.175 327.210901,63.1762096 327.210901,73.0462018 C327.210901,82.916194 319.209692,90.9174036 309.3397,90.9174036 Z M309.3397,80.1946825 C313.287697,80.1946825 316.48818,76.9941987 316.48818,73.0462018 C316.48818,69.0982049 313.287697,65.8977211 309.3397,65.8977211 C305.391703,65.8977211 302.191219,69.0982049 302.191219,73.0462018 C302.191219,76.9941987 305.391703,80.1946825 309.3397,80.1946825 Z M387.547409,129.599792 L387.547409,150.097449 C387.547409,151.017172 386.801826,151.762755 385.882103,151.762755 L376.985051,151.762755 C376.065328,151.762755 375.319745,151.017172 375.319745,150.097449 L375.319745,141.513927 C375.319745,140.594204 374.574162,139.848621 373.654439,139.848621 L364.757387,139.848621 C363.837664,139.848621 363.092081,139.103038 363.092081,138.183314 L363.092081,117.685658 C363.092081,116.765934 363.837664,116.020351 364.757387,116.020351 L373.654439,116.020351 C374.574162,116.020351 375.319745,116.765934 375.319745,117.685658 L375.319745,126.26918 C375.319745,127.188903 376.065328,127.934486 376.985051,127.934486 L385.882103,127.934486 C386.801826,127.934486 387.547409,128.680069 387.547409,129.599792 Z M259.349677,117.901531 L259.349677,149.881576 L227.369632,149.881576 C227.369632,132.219485 241.687586,117.901531 259.349677,117.901531 Z M312.656263,120.341684 L328.556406,147.371926 C329.022724,148.164667 328.758106,149.185336 327.965365,149.651654 C327.709446,149.802195 327.417933,149.881576 327.121021,149.881576 L295.320736,149.881576 C294.401013,149.881576 293.65543,149.135993 293.65543,148.21627 C293.65543,147.919358 293.734812,147.627845 293.885352,147.371926 L309.785494,120.341684 C310.251813,119.548943 311.272482,119.284325 312.065223,119.750643 C312.309279,119.894206 312.5127,120.097627 312.656263,120.341684 Z M231.209087,55.175 L253.629042,55.175 C257.307935,55.175 260.290267,58.1573318 260.290267,61.8362245 L260.290267,84.2561791 C260.290267,87.9350718 257.307935,90.9174036 253.629042,90.9174036 L231.209087,90.9174036 C227.530195,90.9174036 224.547863,87.9350718 224.547863,84.2561791 L224.547863,61.8362245 C224.547863,58.1573318 227.530195,55.175 231.209087,55.175 Z M358.17326,55.175 L390.585051,55.175 C391.504774,55.175 392.250357,55.9205829 392.250357,56.8403061 L392.250357,89.2520975 C392.250357,90.1718207 391.504774,90.9174036 390.585051,90.9174036 L358.17326,90.9174036 C357.253537,90.9174036 356.507954,90.1718207 356.507954,89.2520975 L356.507954,56.8403061 C356.507954,55.9205829 357.253537,55.175 358.17326,55.175 Z M33.9174432,227.492289 L193.786831,227.492289 C198.845308,227.492289 202.946015,231.592995 202.946015,236.651473 L202.946015,249.722555 C202.946015,254.781032 198.845308,258.881739 193.786831,258.881739 L33.9174432,258.881739 C28.8589657,258.881739 24.7582595,254.781032 24.7582595,249.722555 L24.7582595,236.651473 C24.7582595,231.592995 28.8589657,227.492289 33.9174432,227.492289 Z M33.9174432,232.488208 C31.6181353,232.488208 29.7541779,234.352165 29.7541779,236.651473 L29.7541779,249.722555 C29.7541779,252.021863 31.6181353,253.88582 33.9174432,253.88582 L193.786831,253.88582 C196.086139,253.88582 197.950096,252.021863 197.950096,249.722555 L197.950096,236.651473 C197.950096,234.352165 196.086139,232.488208 193.786831,232.488208 L33.9174432,232.488208 Z M276.758626,227.492289 L337.542299,227.492289 C342.600777,227.492289 346.701483,231.592995 346.701483,236.651473 L346.701483,249.722555 C346.701483,254.781032 342.600777,258.881739 337.542299,258.881739 L276.758626,258.881739 C271.700148,258.881739 267.599442,254.781032 267.599442,249.722555 L267.599442,236.651473 C267.599442,231.592995 271.700148,227.492289 276.758626,227.492289 Z M276.758626,232.488208 C274.459318,232.488208 272.59536,234.352165 272.59536,236.651473 L272.59536,249.722555 C272.59536,252.021863 274.459318,253.88582 276.758626,253.88582 L337.542299,253.88582 C339.841607,253.88582 341.705565,252.021863 341.705565,249.722555 L341.705565,236.651473 C341.705565,234.352165 339.841607,232.488208 337.542299,232.488208 L276.758626,232.488208 Z M233.754178,259.175 C225.016808,259.175 217.93377,252.091962 217.93377,243.354592 C217.93377,234.617222 225.016808,227.534184 233.754178,227.534184 C242.491548,227.534184 249.574586,234.617222 249.574586,243.354592 C249.574586,252.091962 242.491548,259.175 233.754178,259.175 Z M233.754178,254.179082 C239.732379,254.179082 244.578668,249.332792 244.578668,243.354592 C244.578668,237.376391 239.732379,232.530102 233.754178,232.530102 C227.775977,232.530102 222.929688,237.376391 222.929688,243.354592 C222.929688,249.332792 227.775977,254.179082 233.754178,254.179082 Z M379.421332,259.175 C370.683962,259.175 363.600924,252.091962 363.600924,243.354592 C363.600924,234.617222 370.683962,227.534184 379.421332,227.534184 C388.158702,227.534184 395.24174,234.617222 395.24174,243.354592 C395.24174,252.091962 388.158702,259.175 379.421332,259.175 Z M379.421332,254.179082 C385.399533,254.179082 390.245822,249.332792 390.245822,243.354592 C390.245822,237.376391 385.399533,232.530102 379.421332,232.530102 C373.443132,232.530102 368.596843,237.376391 368.596843,243.354592 C368.596843,249.332792 373.443132,254.179082 379.421332,254.179082 Z M56.9048834,114.160747 L69.7418611,77.5387071 L72.3673427,77.5387071 L84.7902243,114.160747 L56.9048834,114.160747 Z M61.6016492,110.830135 L80.1433969,110.830135 L71.0245046,83.9480919 L61.6016492,110.830135 Z M71.0461993,79.2472757 L70.9227777,79.2891427 L70.9227777,80.8693194 L71.173735,80.8693194 L71.173735,79.2919803 L71.0461993,79.2472757 Z M55.2926028,129.02753 L48.2658002,149.231106 L24.8567218,149.231106 L59.9796847,55.175 L82.4977681,55.175 L117.230476,149.231106 L93.1893204,149.231106 L86.413475,129.02753 L55.2926028,129.02753 Z M62.2912064,58.5056122 L29.6557156,145.900494 L45.8978804,145.900494 L52.924683,125.696917 L88.8093928,125.696917 L95.5852382,145.900494 L112.450112,145.900494 L80.177238,58.5056122 L62.2912064,58.5056122 Z M152.346966,149.030171 C148.34016,150.265066 144.243215,150.882971 140.061496,150.882971 C136.815992,150.882971 133.776768,150.481534 130.947317,149.67568 C128.061213,148.853691 125.519405,147.566704 123.335026,145.81552 C121.122766,144.041984 119.394188,141.801405 118.158134,139.112577 C116.922102,136.423797 116.311953,133.265794 116.311953,129.649421 C116.311953,125.665143 117.01658,122.327603 118.455069,119.649168 C119.871748,117.011342 121.716875,114.88595 123.983903,113.293004 C126.194464,111.739735 128.712416,110.578658 131.529164,109.808964 C134.222931,109.072876 136.938522,108.48824 139.675758,108.055134 C142.384818,107.626487 145.052455,107.283453 147.67875,107.026079 C150.193086,106.779677 152.412146,106.411963 154.333793,105.925471 C156.116146,105.474244 157.48277,104.836914 158.44572,104.035909 C159.190403,103.416465 159.539794,102.504716 159.476598,101.059454 C159.476598,99.3692099 159.217222,98.0909387 158.740792,97.2225135 C158.251559,96.3307495 157.618294,95.6574063 156.826517,95.1763283 C155.975011,94.6589594 154.970182,94.3080818 153.799805,94.128508 C152.505985,93.9299939 151.105277,93.8301042 149.597871,93.8301042 C146.422217,93.8301042 144.012045,94.4957423 142.323503,95.7781743 C140.728807,96.9893317 139.755238,99.1019531 139.460871,102.231917 L139.318917,103.741293 L118.218021,103.741293 L118.322527,101.977489 C118.589826,97.4661162 119.718979,93.6698892 121.730939,90.6137578 C123.709267,87.6087139 126.235463,85.1875936 129.296442,83.3642318 C132.305859,81.5715845 135.682071,80.2978628 139.417235,79.5413765 C143.081059,78.7993388 146.767897,78.4281728 150.476221,78.4281728 C153.816196,78.4281728 157.19714,78.6665337 160.618694,79.1429509 C164.136058,79.6327087 167.359585,80.5941182 170.282918,82.0294279 C173.28465,83.5032307 175.754121,85.5640104 177.671378,88.1989308 C179.653186,90.9225622 180.625174,94.4613142 180.625174,98.772257 L180.625174,132.95315 C180.625174,135.851196 180.788466,138.620957 181.114544,141.262593 C181.422364,143.756315 181.94571,145.573352 182.635612,146.691163 L184.203238,149.231106 L161.944522,149.231106 L161.567748,148.086482 C161.211735,147.004928 160.922541,145.901095 160.700203,144.775336 C160.688879,144.717999 160.677729,144.660606 160.666752,144.603157 C158.193592,146.606 155.417328,148.083888 152.346966,149.030171 Z M136.342738,100.41068 C136.895181,97.1778102 138.204552,94.7241726 140.309061,93.1258166 C142.635856,91.3586369 145.746687,90.499492 149.597871,90.499492 C151.269273,90.499492 152.838195,90.6113777 154.304919,90.8364208 C155.895086,91.0804042 157.316152,91.5766282 158.555967,92.3299309 C159.855511,93.1195244 160.895277,94.2250946 161.660836,95.6205394 C162.439199,97.0393229 162.80721,98.8529727 162.805535,100.98478 C162.91132,103.341495 162.173241,105.267538 160.575644,106.596456 C159.196315,107.743815 157.384179,108.588912 155.151196,109.154222 C153.057507,109.684268 150.675731,110.078945 148.003591,110.340812 C145.443411,110.591707 142.840998,110.926354 140.196277,111.344821 C137.579732,111.75883 134.983448,112.317781 132.407087,113.021787 C129.953707,113.692188 127.787171,114.69122 125.898743,116.01814 C124.066782,117.305382 122.565846,119.034303 121.389287,121.225029 C120.234539,123.375146 119.642566,126.179092 119.642566,129.649421 C119.642566,132.809963 120.161713,135.496961 121.184308,137.721445 C122.20688,139.945879 123.615236,141.771388 125.418312,143.216887 C127.249269,144.684737 129.391949,145.769635 131.859626,146.472452 C134.383956,147.191404 137.116691,147.552358 140.061496,147.552358 C143.910449,147.552358 147.676752,146.984321 151.366006,145.847296 C154.942076,144.745153 158.043759,142.821332 160.693018,140.059641 L163.27301,137.370158 L163.555298,141.086338 C163.633967,142.121978 163.771463,143.136409 163.967698,144.130004 C164.085716,144.727561 164.225002,145.317694 164.385567,145.900494 L178.676911,145.900494 C178.294962,144.694599 178.008408,143.28591 177.80902,141.670621 C177.465875,138.890725 177.294562,135.984906 177.294562,132.95315 L177.294562,98.772257 C177.294562,95.1203249 176.509867,92.2634594 174.978255,90.1585391 C173.382094,87.9649076 171.33438,86.256085 168.815025,85.0191219 C166.217271,83.7436656 163.334233,82.8838065 160.159371,82.4417386 C156.888698,81.98633 153.661168,81.758785 150.476221,81.758785 C146.990403,81.758785 143.525031,82.1076554 140.078364,82.8057121 C136.703037,83.4893202 133.679904,84.6298382 131.000929,86.2256483 C128.373515,87.790744 126.215223,89.8592623 124.512826,92.4451732 C123.098951,94.5928247 122.192326,97.2428929 121.805659,100.41068 L136.342738,100.41068 Z M160.027779,114.180243 L162.80721,111.678373 L162.80721,122.152496 C162.80721,123.247654 162.697755,124.666408 162.48097,126.422638 C162.244821,128.335732 161.611086,130.213459 160.58906,132.048161 C159.523311,133.961352 157.897987,135.583039 155.741798,136.912111 C153.519503,138.28193 150.508237,138.938718 146.711863,138.938718 C145.18663,138.938718 143.702402,138.802081 142.260422,138.528288 C140.722672,138.236311 139.354701,137.71683 138.167068,136.965166 C136.915785,136.173217 135.922796,135.088277 135.20321,133.734991 C134.480193,132.375254 134.129917,130.753727 134.129917,128.887022 C134.129917,126.937934 134.478124,125.275615 135.20321,123.911986 C135.902707,122.59648 136.836971,121.496974 137.997038,120.628682 C139.109579,119.795963 140.40151,119.141823 141.865748,118.663511 C143.22996,118.217874 144.616432,117.861298 146.042472,117.590631 C147.496339,117.330819 148.950412,117.114279 150.404696,116.941021 C151.786265,116.776427 153.104532,116.57105 154.359453,116.325089 C155.585898,116.084708 156.72805,115.785586 157.786033,115.428462 C158.708564,115.11706 159.45114,114.699298 160.027779,114.180243 Z M158.851237,118.584142 C157.650594,118.989421 156.36685,119.325626 155.000057,119.593514 C153.661741,119.855821 152.261332,120.073995 150.798705,120.248246 C149.408792,120.413835 148.018711,120.620845 146.646073,120.866042 C145.377532,121.106903 144.128979,121.428009 142.899954,121.829486 C141.770953,122.198288 140.804292,122.687736 139.992818,123.295111 C139.22887,123.866914 138.615579,124.588676 138.143937,125.475667 C137.697884,126.314536 137.460529,127.447652 137.460529,128.887022 C137.460529,130.239351 137.695814,131.328549 138.143937,132.17131 C138.595491,133.020521 139.191882,133.672139 139.948267,134.150862 C140.768301,134.669869 141.742574,135.039845 142.881715,135.256137 C144.116625,135.490613 145.392899,135.608106 146.711863,135.608106 C149.942327,135.608106 152.368413,135.078951 153.994148,134.076851 C155.685989,133.034003 156.904819,131.817899 157.679433,130.427344 C158.497768,128.9583 158.993329,127.489975 159.175445,126.014611 C159.376924,124.382384 159.476598,123.090413 159.476598,122.152496 L159.476598,118.353368 C159.2732,118.435161 159.064727,118.512079 158.851237,118.584142 Z M34.525,285.175 L193.725,285.175 C197.9914,285.175 201.45,288.6336 201.45,292.9 L201.45,417.1 C201.45,421.3664 197.9914,424.825 193.725,424.825 L34.525,424.825 C30.2586003,424.825 26.8,421.3664 26.8,417.1 L26.8,292.9 C26.8,288.6336 30.2586003,285.175 34.525,285.175 Z M34.525,290.325 C33.1028668,290.325 31.95,291.477867 31.95,292.9 L31.95,417.1 C31.95,418.522133 33.1028668,419.675 34.525,419.675 L193.725,419.675 C195.147133,419.675 196.3,418.522133 196.3,417.1 L196.3,292.9 C196.3,291.477867 195.147133,290.325 193.725,290.325 L34.525,290.325 Z M114.125,350.0709 L149.197496,314.998404 C150.203096,313.992804 151.833496,313.992804 152.839096,314.998404 C153.844696,316.004004 153.844696,317.634404 152.839096,318.640004 L117.7666,353.7125 L152.839096,388.784996 C153.844696,389.790596 153.844696,391.420996 152.839096,392.426596 C151.833496,393.432196 150.203096,393.432196 149.197496,392.426596 L114.125,357.3541 L79.0525037,392.426596 C78.0469036,393.432196 76.4165038,393.432196 75.4109037,392.426596 C74.4053037,391.420996 74.4053037,389.790596 75.4109037,388.784996 L110.4834,353.7125 L75.4109037,318.640004 C74.4053037,317.634404 74.4053037,316.004004 75.4109037,314.998404 C76.4165038,313.992804 78.0469036,313.992804 79.0525037,314.998404 L114.125,350.0709 Z" id="Combined-Shape" fill="url(#linearGradient-1)"></path>
    </g>
</svg>