<?xml version="1.0" encoding="UTF-8"?>
<svg width="420px" height="480px" viewBox="0 0 420 480" version="1.1" xmlns="http://www.w3.org/2000/svg" xmlns:xlink="http://www.w3.org/1999/xlink">
    <!-- Generator: Sketch 55.2 (78181) - https://sketchapp.com -->
    <title>lsb-guide-cover/intro</title>
    <desc>Created with Sketch.</desc>
    <g id="lsb-guide-cover/intro" stroke="none" stroke-width="1" fill="none" fill-rule="evenodd">
        <path d="M0.525897831,386.635009 L54.8083329,270.225952 C56.4038011,266.804459 60.4708512,265.324174 63.8923437,266.919642 L215.349694,337.545364 C218.771186,339.140832 220.251471,343.207883 218.656003,346.629375 L164.373568,463.038433 C162.7781,466.459925 158.71105,467.94021 155.289557,466.344742 L3.83220736,395.71902 C0.410714886,394.123552 -1.06957031,390.056502 0.525897831,386.635009 Z" id="Rectangle-61-Copy-7" fill="#FFFFFF" opacity="0.0299999993"></path>
        <path d="M2.50562032,294.91185 L88.3389827,192.619632 C90.861795,189.613061 95.3442456,189.220897 98.3508162,191.74371 L231.441046,303.419673 C234.447617,305.942485 234.83978,310.424935 232.316968,313.431506 L146.483606,415.723724 C143.960793,418.730295 139.478343,419.122458 136.471772,416.599646 L3.38154225,304.923683 C0.374971614,302.400871 -0.0171919916,297.91842 2.50562032,294.91185 Z" id="Rectangle-61-Copy-6" fill="#FFFFFF" opacity="0.049999997"></path>
        <path d="M2.93505976,237.581799 L119.224353,164.916184 C122.642326,162.780398 127.144536,163.819815 129.280323,167.237787 L223.82401,318.539314 C225.959796,321.957287 224.920379,326.459498 221.502406,328.595284 L105.213113,401.260899 C101.795141,403.396685 97.2929297,402.357268 95.1571436,398.939296 L0.613456291,247.637769 C-1.52232989,244.219796 -0.48291261,239.717585 2.93505976,237.581799 Z" id="Rectangle-61-Copy-3" fill="#FFFFFF" opacity="0.100000001"></path>
        <path d="M37.8648197,177.890374 L170.400319,144.845562 C174.295799,143.87431 178.241066,146.244865 179.212318,150.140346 L222.20622,322.579466 C223.177472,326.474946 220.806917,330.420213 216.911436,331.391465 L84.3759371,364.436276 C80.4804566,365.407529 76.5351901,363.036973 75.5639377,359.141493 L32.5700363,186.702373 C31.598784,182.806892 33.9693392,178.861626 37.8648197,177.890374 Z" id="Rectangle-61-Copy-4" fill="#FFFFFF" opacity="0.200000003"></path>
        <path d="M413.849366,185.128279 C417.7982,186.335559 420.020669,190.515415 418.81339,194.46425 L365.371391,369.265151 C364.164111,373.213985 359.984255,375.436454 356.035421,374.229174 L221.684673,333.154029 C217.735839,331.946749 215.51337,327.766893 216.720649,323.818059 L270.162648,149.017157 C271.369928,145.068323 275.549784,142.845854 279.498618,144.053134 L413.849366,185.128279 Z" id="Rectangle-61-Copy-9" fill="#FFFFFF" opacity="0.099999994"></path>
        <path d="M82.500174,141.923916 L217.069949,141.923916 C221.025221,141.923916 224.231602,145.130297 224.231602,149.085569 L224.231602,324.171443 C224.231602,328.126714 221.025221,331.333096 217.069949,331.333096 L82.500174,331.333096 C78.5449021,331.333096 75.3385207,328.126714 75.3385207,324.171443 L75.3385207,149.085569 C75.3385207,145.130297 78.5449021,141.923916 82.500174,141.923916 Z" id="Rectangle-61-Copy-5" fill="#FFFFFF" opacity="0.300000012"></path>
        <path d="M127.218024,100.088274 C165.46543,105.991431 192.130568,111.012571 207.21344,115.151693 C223.161202,119.528163 241.844724,127.040237 263.264006,137.687917 L219.297117,331.333096 C189.459003,319.051663 166.249861,310.550882 149.669691,305.830752 C134.373265,301.476087 110.926239,296.797263 79.3286112,291.794282 C75.2501568,291.14852 72.4674064,287.318788 73.1131649,283.240333 C73.1502365,283.006197 73.1984224,282.773957 73.257559,282.544399 L118.837257,105.612292 C119.795979,101.89071 123.419908,99.5020676 127.218024,100.088274 Z" id="Rectangle-Copy-2" fill="#FFFFFF" opacity="0.900000036"></path>
        <path d="M262.762459,138.119947 C278.094199,136.267482 298.40896,136.267482 323.706742,138.119947 C346.921526,139.819882 373.192082,142.99627 402.518411,147.649112 C406.596662,148.29616 409.378204,152.12677 408.731159,156.205022 C408.70121,156.393783 408.664035,156.581326 408.619715,156.767239 L364.986308,339.799485 C364.036564,343.783447 360.058336,346.261798 356.063679,345.358092 C332.745806,340.082918 310.524403,336.325897 289.39947,334.08703 C266.11076,331.618841 242.701617,330.841739 219.172042,331.755726 L262.762459,138.119947 Z" id="Rectangle-Copy-3" fill="#FFFFFF"></path>
    </g>
</svg>