<?xml version="1.0" encoding="UTF-8"?>
<svg width="420px" height="480px" viewBox="0 0 420 480" version="1.1" xmlns="http://www.w3.org/2000/svg" xmlns:xlink="http://www.w3.org/1999/xlink">
    <!-- Generator: Sketch 55.2 (78181) - https://sketchapp.com -->
    <title>lsb-guide-cover/master</title>
    <desc>Created with Sketch.</desc>
    <g id="lsb-guide-cover/master" stroke="none" stroke-width="1" fill="none" fill-rule="evenodd">
        <path d="M211.490664,411.993675 C211.434383,412 211.377528,412 211.320175,412 L208.679825,412 C208.622472,412 208.565617,412 208.509336,411.993675 C166.471453,411.636807 128.030812,396.199244 98.3333333,370.826906 L98.3333333,409.736842 C98.3333333,410.98675 97.320083,412 96.0701754,412 L93.4298246,412 C92.179917,412 91.1666667,410.98675 91.1666667,409.736842 L91.1666667,364.5 L40.2631579,364.5 C39.0132503,364.5 38,363.48675 38,362.236842 L38,359.596491 C38,358.346584 39.0132503,357.333333 40.2631579,357.333333 L84.2339076,357.333333 C55.8667123,326.940467 38.3863386,286.255064 38.0063251,241.490664 C38,241.434383 38,241.377528 38,241.320175 L38,238.679825 C38,238.622472 38,238.565617 38.0063251,238.509336 C38.3625254,196.550051 53.7430823,158.174568 79.0308836,128.5 L40.2631579,128.5 C39.0132503,128.5 38,127.48675 38,126.236842 L38,123.596491 C38,122.346584 39.0132503,121.333333 40.2631579,121.333333 L85.4916527,121.333333 C87.3391006,119.395519 89.2313252,117.500775 91.1666667,115.650759 L91.1666667,70.2631579 C91.1666667,69.0132503 92.179917,68 93.4298246,68 L96.0701754,68 C97.320083,68 98.3333333,69.0132503 98.3333333,70.2631579 L98.3333333,109.173094 C128.030812,83.8007564 166.471453,68.3631927 208.509336,68.0063251 C208.565617,68 208.622472,68 208.679825,68 L211.320175,68 C211.377528,68 211.434383,68 211.490664,68.0063251 C253.371438,68.3618589 291.681808,83.6855767 321.333333,108.889037 L321.333333,70.2631579 C321.333333,69.0132503 322.346584,68 323.596491,68 L326.236842,68 C327.48675,68 328.5,69.0132503 328.5,70.2631579 L328.5,115.33297 C330.551533,117.283633 332.55497,119.284408 334.508347,121.333333 L379.736842,121.333333 C380.98675,121.333333 382,122.346584 382,123.596491 L382,126.236842 C382,127.48675 380.98675,128.5 379.736842,128.5 L340.969116,128.5 C366.256918,158.174568 381.637475,196.550051 381.993675,238.509336 C382,238.565617 382,238.622472 382,238.679825 L382,241.320175 C382,241.377528 382,241.434383 381.993675,241.490664 C381.613661,286.255064 364.133288,326.940467 335.766092,357.333333 L379.736842,357.333333 C380.98675,357.333333 382,358.346584 382,359.596491 L382,362.236842 C382,363.48675 380.98675,364.5 379.736842,364.5 L328.675422,364.5 C328.616987,364.555718 328.558513,364.611394 328.5,364.66703 L328.5,409.736842 C328.5,410.98675 327.48675,412 326.236842,412 L323.596491,412 C322.346584,412 321.333333,410.98675 321.333333,409.736842 L321.333333,371.110963 C291.681808,396.314423 253.371438,411.638141 211.490664,411.993675 L211.490664,411.993675 Z M206.416667,403.961627 L206.416667,364.5 L103.244603,364.5 C131.090421,388.399219 167.045666,403.117652 206.416667,403.961627 L206.416667,403.961627 Z M91.1666667,353.025413 L91.1666667,243.583333 L46.0383729,243.583333 C46.9471652,285.978007 63.9433511,324.412121 91.1666667,353.025413 L91.1666667,353.025413 Z M46.0383729,236.416667 L91.1666667,236.416667 L91.1666667,128.5 L89.7336756,128.5 C63.3479382,156.946895 46.9311126,194.770842 46.0383729,236.416667 L46.0383729,236.416667 Z M98.3333333,119.88848 L98.3333333,121.333333 L206.416667,121.333333 L206.416667,76.0383729 C164.689457,76.9328572 126.799077,93.4121616 98.3333333,119.88848 L98.3333333,119.88848 Z M213.583333,76.0383729 L213.583333,121.333333 L321.333333,121.333333 L321.333333,119.579298 C292.905449,93.2839159 255.147878,76.9293702 213.583333,76.0383729 L213.583333,76.0383729 Z M330.266324,128.5 L328.5,128.5 L328.5,236.416667 L373.961627,236.416667 C373.068887,194.770842 356.652062,156.946895 330.266324,128.5 L330.266324,128.5 Z M373.961627,243.583333 L328.5,243.583333 L328.5,353.374741 C355.917855,324.725311 373.049131,286.150775 373.961627,243.583333 L373.961627,243.583333 Z M316.755397,364.5 L213.583333,364.5 L213.583333,403.961627 C252.954334,403.117652 288.909579,388.399219 316.755397,364.5 L316.755397,364.5 Z M321.333333,128.5 L213.583333,128.5 L213.583333,236.416667 L321.333333,236.416667 L321.333333,128.5 Z M321.333333,243.583333 L213.583333,243.583333 L213.583333,357.333333 L321.333333,357.333333 L321.333333,243.583333 Z M206.416667,357.333333 L206.416667,243.583333 L98.3333333,243.583333 L98.3333333,357.333333 L206.416667,357.333333 L206.416667,357.333333 Z M206.416667,236.416667 L206.416667,128.5 L98.3333333,128.5 L98.3333333,236.416667 L206.416667,236.416667 L206.416667,236.416667 Z" id="Shape-Copy" fill="#FFFFFF" fill-rule="nonzero" opacity="0.300000012"></path>
        <path d="M176.749898,274.953403 L119.19091,217.394415 C115.655637,213.859143 115.655637,208.127333 119.19091,204.592061 L239.6389,84.1440706 C243.174172,80.6087981 248.905982,80.6087981 252.441254,84.1440706 L303.599065,135.301882 C307.134338,138.837154 307.134338,144.568963 303.599065,148.104236 L176.749898,274.953403 Z" id="Combined-Shape-Copy-7" fill="#FFFFFF" opacity="0.900000036"></path>
        <path d="M243.37507,208.328231 L300.934058,265.887219 C304.469331,269.422492 304.469331,275.154301 300.934058,278.689574 L180.486068,399.137564 C176.950796,402.672836 171.218986,402.672836 167.683714,399.137564 L116.525903,347.979753 C112.99063,344.44448 112.99063,338.712671 116.525903,335.177398 L243.37507,208.328231 Z" id="Combined-Shape-Copy-8" fill="#FFFFFF"></path>
    </g>
</svg>