<?xml version="1.0" encoding="UTF-8"?>
<svg width="420px" height="480px" viewBox="0 0 420 480" version="1.1" xmlns="http://www.w3.org/2000/svg" xmlns:xlink="http://www.w3.org/1999/xlink">
    <!-- Generator: Sketch 55.2 (78181) - https://sketchapp.com -->
    <title>lsb-guide-cover/production</title>
    <desc>Created with Sketch.</desc>
    <defs>
        <linearGradient x1="2.96069232%" y1="50%" x2="98.8595873%" y2="50%" id="linearGradient-1">
            <stop stop-color="#FFFFFF" stop-opacity="0.4" offset="0%"></stop>
            <stop stop-color="#FFFFFF" offset="100%"></stop>
        </linearGradient>
        <path d="M385.113229,188.645308 L13.1972883,324.011641 C11.8894845,324.487642 10.4434246,323.813333 9.96742294,322.50553 C9.49142131,321.197726 10.1657301,319.751666 11.4735339,319.275664 L383.389475,183.909332 L380.849548,176.930939 C380.532213,176.059069 380.981752,175.095029 381.853621,174.777695 C382.135085,174.67638 382.438819,174.64992 382.733364,174.704328 L403.102927,178.466934 C404.015316,178.635468 404.61833,179.511729 404.449796,180.424118 C404.39791,180.70501 404.27526,180.968034 404.093436,181.188334 L390.908002,197.163961 C390.317403,197.879538 389.258538,197.980852 388.542962,197.390254 C388.311954,197.199592 388.136121,196.950636 388.033677,196.669172 L385.113229,188.645308 Z" id="path-2"></path>
        <filter x="-1.8%" y="-3.3%" width="103.5%" height="109.4%" filterUnits="objectBoundingBox" id="filter-3">
            <feOffset dx="0" dy="2" in="SourceAlpha" result="shadowOffsetOuter1"></feOffset>
            <feGaussianBlur stdDeviation="2" in="shadowOffsetOuter1" result="shadowBlurOuter1"></feGaussianBlur>
            <feColorMatrix values="0 0 0 0 0   0 0 0 0 0   0 0 0 0 0  0 0 0 0.05 0" type="matrix" in="shadowBlurOuter1"></feColorMatrix>
        </filter>
    </defs>
    <g id="lsb-guide-cover/production" stroke="none" stroke-width="1" fill="none" fill-rule="evenodd">
        <path d="M384.145284,305.477396 L397.585073,305.477396 C401.296368,305.477396 404.304967,308.485995 404.304967,312.197291 L404.304967,325.637079 C404.304967,329.348374 401.296368,332.356973 397.585073,332.356973 L384.145284,332.356973 C380.433989,332.356973 377.42539,329.348374 377.42539,325.637079 L377.42539,312.197291 C377.42539,308.485995 380.433989,305.477396 384.145284,305.477396 Z M297.626645,140 L297.626645,166.879577 L270.747068,166.879577 C270.747068,152.034397 282.781465,140 297.626645,140 Z M140.447809,420.879577 L113.568232,420.879577 L113.568232,394 C128.413413,394 140.447809,406.034397 140.447809,420.879577 Z M87.6299495,320.037167 L87.6299495,302.117449 C87.6299495,301.189625 88.3820992,300.437476 89.309923,300.437476 L96.8698041,300.437476 C97.7976279,300.437476 98.5497776,301.189625 98.5497776,302.117449 L98.5497776,330.677 C98.5497776,331.604824 97.7976279,332.356973 96.8698041,332.356973 L78.3900948,332.356973 C77.4622711,332.356973 76.7101213,331.604824 76.7101213,330.677 L76.7101213,323.397114 C76.7101213,322.469291 77.4622711,321.717141 78.3900948,321.717141 L85.9499759,321.717141 C86.8777997,321.717141 87.6299495,320.964991 87.6299495,320.037167 Z M366.505562,93.3198062 L366.505562,111.239524 C366.505562,112.167348 365.753412,112.919498 364.825588,112.919498 L357.265707,112.919498 C356.337883,112.919498 355.585733,112.167348 355.585733,111.239524 L355.585733,82.6799736 C355.585733,81.7521498 356.337883,81 357.265707,81 L375.745416,81 C376.67324,81 377.42539,81.7521498 377.42539,82.6799736 L377.42539,89.959859 C377.42539,90.8876828 376.67324,91.6398326 375.745416,91.6398326 L368.185535,91.6398326 C367.257711,91.6398326 366.505562,92.3919824 366.505562,93.3198062 Z M140.447809,109.867145 C148.211615,109.867145 154.505424,103.573336 154.505424,95.8095303 C154.505424,88.0457243 148.211615,81.7519159 140.447809,81.7519159 C132.684003,81.7519159 126.390195,88.0457243 126.390195,95.8095303 C126.390195,103.573336 132.684003,109.867145 140.447809,109.867145 Z M42.8306543,179.479379 L42.8306543,187.03926 C42.8306543,187.967084 42.0785046,188.719233 41.1506808,188.719233 L33.3108041,188.719233 C32.3829804,188.719233 31.6308306,187.967084 31.6308306,187.03926 L31.6308306,179.479379 C31.6308306,178.551555 30.8786808,177.799405 29.950857,177.799405 L22.1109804,177.799405 C21.1831566,177.799405 20.4310068,177.047255 20.4310068,176.119432 L20.4310068,168.559551 C20.4310068,167.631727 21.1831566,166.879577 22.1109804,166.879577 L52.3505046,166.879577 C53.2783283,166.879577 54.0304781,167.631727 54.0304781,168.559551 L54.0304781,176.119432 C54.0304781,177.047255 53.2783283,177.799405 52.3505046,177.799405 L44.5106279,177.799405 C43.5828041,177.799405 42.8306543,178.551555 42.8306543,179.479379 Z M355.025742,381.400198 L355.025742,373.840317 C355.025742,372.912493 355.777892,372.160344 356.705716,372.160344 L364.545592,372.160344 C365.473416,372.160344 366.225566,372.912493 366.225566,373.840317 L366.225566,381.400198 C366.225566,382.328022 366.977716,383.080172 367.90554,383.080172 L375.745416,383.080172 C376.67324,383.080172 377.42539,383.832322 377.42539,384.760145 L377.42539,392.320026 C377.42539,393.24785 376.67324,394 375.745416,394 L345.505892,394 C344.578068,394 343.825918,393.24785 343.825918,392.320026 L343.825918,384.760145 C343.825918,383.832322 344.578068,383.080172 345.505892,383.080172 L353.345769,383.080172 C354.273592,383.080172 355.025742,382.328022 355.025742,381.400198 Z M285.634883,261.739769 L299.497325,285.30592 C299.967751,286.105643 299.700802,287.135302 298.901079,287.605727 C298.642906,287.757593 298.348826,287.837674 298.049299,287.837674 L270.324415,287.837674 C269.396591,287.837674 268.644441,287.085524 268.644441,286.1577 C268.644441,285.858173 268.724522,285.564093 268.876388,285.30592 L282.73883,261.739769 C283.209255,260.940046 284.238914,260.673097 285.038637,261.143522 C285.284843,261.28835 285.490056,261.493562 285.634883,261.739769 Z M176.668548,219.798744 C169.245958,219.798744 163.22876,213.781546 163.22876,206.358956 C163.22876,198.936366 169.245958,192.919167 176.668548,192.919167 C184.091139,192.919167 190.108337,198.936366 190.108337,206.358956 C190.108337,213.781546 184.091139,219.798744 176.668548,219.798744 Z M176.668548,211.734871 C179.637585,211.734871 182.044464,209.327992 182.044464,206.358956 C182.044464,203.38992 179.637585,200.98304 176.668548,200.98304 C173.699512,200.98304 171.292633,203.38992 171.292633,206.358956 C171.292633,209.327992 173.699512,211.734871 176.668548,211.734871 Z" id="Shape-Copy" fill="#FFFFFF" opacity="0.300000012"></path>
        <path d="M20.6125606,289.967453 C22.676553,289.052175 24.7252384,288.149032 26.7586159,287.258025 C28.0333412,286.699452 28.6138976,285.21327 28.0553248,283.938545 C27.496752,282.66382 26.0105702,282.083263 24.7358449,282.641836 C22.695662,283.535825 20.6402071,284.441953 18.5694794,285.360218 C17.2972264,285.924399 16.7232209,287.413123 17.2874022,288.685376 C17.8515835,289.957629 19.3403076,290.531635 20.6125606,289.967453 Z M42.151051,280.621016 C44.2316802,279.739038 46.2949544,278.870814 48.3408723,278.016345 C49.6251045,277.479991 50.2313794,276.004114 49.6950251,274.719882 C49.1586709,273.435649 47.682794,272.829375 46.3985618,273.365729 C44.3443676,274.223654 42.2728666,275.09534 40.1840577,275.980786 C38.9026934,276.523956 38.304269,278.003034 38.8474392,279.284398 C39.3906094,280.565762 40.8696868,281.164187 42.151051,280.621016 Z M63.844355,271.671547 C65.9402528,270.832204 68.0162132,270.008654 70.0722342,269.200898 C71.3675871,268.691988 72.0051253,267.229345 71.4962156,265.933992 C70.9873059,264.638639 69.5246621,264.001101 68.2293092,264.51001 C66.1629691,265.32182 64.0767607,266.149435 61.970682,266.992856 C60.6786971,267.510256 60.0507724,268.977053 60.568173,270.269038 C61.0855735,271.561023 62.5523702,272.188947 63.844355,271.671547 Z M85.7222016,263.214229 C87.8441384,262.425615 89.942492,261.655667 92.0172589,260.904387 C93.325846,260.430543 94.0025391,258.985597 93.5286952,257.67701 C93.0548514,256.368423 91.6099056,255.69173 90.3013185,256.165574 C88.2131771,256.921697 86.1015573,257.696512 83.9664557,258.49002 C82.6619012,258.974856 81.997388,260.425443 82.4822238,261.729997 C82.9670596,263.034552 84.4176471,263.699065 85.7222016,263.214229 Z M107.810179,255.393446 C109.956189,254.674605 112.073624,253.978354 114.162477,253.304692 C115.487034,252.877518 116.214507,251.45746 115.787333,250.132903 C115.360159,248.808346 113.940101,248.080874 112.615544,248.508047 C110.508568,249.187554 108.373187,249.889706 106.209394,250.614504 C104.889725,251.056548 104.178271,252.484699 104.620315,253.804367 C105.06236,255.124036 106.49051,255.835491 107.810179,255.393446 Z M130.169081,248.424266 C132.351346,247.800304 134.49724,247.205028 136.606747,246.638436 C137.950845,246.277426 138.747795,244.895162 138.386784,243.551064 C138.025773,242.206966 136.64351,241.410016 135.299412,241.771027 C133.163535,242.344701 130.991592,242.947203 128.783569,243.57853 C127.445456,243.961128 126.670858,245.356041 127.053457,246.694154 C127.436055,248.032267 128.830968,248.806864 130.169081,248.424266 Z M152.814179,242.694314 C155.03888,242.214793 157.214151,241.774067 159.339954,241.372123 C160.707459,241.113556 161.606432,239.795365 161.347866,238.427859 C161.0893,237.060353 159.771108,236.16138 158.403602,236.419946 C156.235295,236.829927 154.018188,237.27913 151.752242,237.767541 C150.391751,238.060787 149.526578,239.401405 149.819824,240.761896 C150.11307,242.122387 151.453688,242.98756 152.814179,242.694314 Z M175.724161,238.938837 C177.992722,238.707397 180.186313,238.534068 182.304812,238.418761 C183.694491,238.343123 184.759731,237.155248 184.684092,235.76557 C184.608454,234.375891 183.42058,233.310651 182.030901,233.386289 C179.831623,233.505993 177.55891,233.685574 175.21264,233.924942 C173.828091,234.066194 172.8202,235.303101 172.961453,236.68765 C173.102705,238.072199 174.339612,239.08009 175.724161,238.938837 Z M198.649266,238.853241 C200.892582,239.140877 202.999109,239.530418 204.968756,240.020965 C206.319239,240.357307 207.68668,239.535184 208.023022,238.184702 C208.359364,236.83422 207.537241,235.466779 206.186759,235.130437 C204.021988,234.591293 201.723176,234.166195 199.290233,233.854245 C197.909798,233.677247 196.64725,234.652825 196.470251,236.033259 C196.293253,237.413694 197.268831,238.676243 198.649266,238.853241 Z M218.825447,246.972963 C219.358539,247.466568 219.863914,247.981235 220.341803,248.517117 C221.240231,249.527276 222.053454,250.576421 222.79979,251.685393 C223.576839,252.840002 225.142758,253.146075 226.297367,252.369025 C227.451976,251.591976 227.758049,250.026057 226.980999,248.871448 C226.10865,247.575234 225.156738,246.347165 224.10551,245.165207 C223.518224,244.506649 222.900258,243.877322 222.249615,243.274872 C221.228415,242.329314 219.634043,242.390634 218.688485,243.411833 C217.742928,244.433033 217.804247,246.027405 218.825447,246.972963 Z M228.23599,266.320122 C228.539163,268.372634 228.702608,270.497648 228.726783,272.67946 C228.742203,274.07111 229.882859,275.186765 231.274509,275.171346 C232.666159,275.155926 233.781814,274.01527 233.766394,272.62362 C233.739733,270.217407 233.558812,267.865183 233.221815,265.583674 C233.01845,264.206877 231.737476,263.255622 230.360678,263.458986 C228.983881,263.662351 228.032626,264.943325 228.23599,266.320122 Z M226.626314,288.649872 C226.075873,290.721599 225.421676,292.787874 224.668876,294.833109 C224.188143,296.139181 224.857213,297.587673 226.163285,298.068405 C227.469357,298.549138 228.917848,297.880068 229.398581,296.573996 C230.205105,294.382801 230.906488,292.167491 231.497242,289.944037 C231.854616,288.598968 231.05393,287.218865 229.708861,286.861491 C228.363791,286.504117 226.983688,287.304802 226.626314,288.649872 Z M217.355739,309.377662 C216.160598,311.201291 214.890135,312.952682 213.552474,314.619182 C212.681294,315.704527 212.854908,317.290604 213.940253,318.161784 C215.025598,319.032964 216.611675,318.85935 217.482855,317.774005 C218.922463,315.980495 220.287909,314.098165 221.571066,312.140237 C222.33393,310.976207 222.00872,309.41415 220.84469,308.651286 C219.68066,307.888422 218.118603,308.213631 217.355739,309.377662 Z M201.955937,325.639795 C200.182171,326.885423 198.362169,327.988419 196.504689,328.940784 C195.266247,329.575757 194.777039,331.09446 195.412012,332.332901 C196.046985,333.571343 197.565687,334.060551 198.804129,333.425578 C200.871524,332.365585 202.890637,331.14192 204.852368,329.764293 C205.991317,328.964466 206.266229,327.392777 205.466402,326.253829 C204.666574,325.11488 203.094886,324.839967 201.955937,325.639795 Z M181.244065,333.195291 C179.165834,333.312348 177.071718,333.247887 174.966105,332.997828 C173.584081,332.8337 172.330678,333.821001 172.16655,335.203025 C172.002423,336.585049 172.989723,337.838452 174.371747,338.002579 C176.768938,338.287266 179.156764,338.360768 181.527493,338.227235 C182.917026,338.148969 183.980018,336.959082 183.901751,335.569549 C183.823485,334.180016 182.633598,333.117024 181.244065,333.195291 Z M159.963236,328.092956 C158.135535,327.111643 156.309186,325.988636 154.486289,324.722158 C153.343329,323.928074 151.773044,324.210894 150.97896,325.353855 C150.184875,326.496815 150.467696,328.0671 151.610656,328.861184 C153.589726,330.236165 155.57997,331.459949 157.579148,332.533331 C158.805323,333.191678 160.333031,332.731363 160.991379,331.505187 C161.649727,330.279012 161.189411,328.751304 159.963236,328.092956 Z M142.331795,314.050728 C140.818618,312.433439 139.466508,310.790003 138.273338,309.121693 C137.463726,307.989679 135.889726,307.728321 134.757712,308.537934 C133.625699,309.347547 133.364341,310.921546 134.173953,312.05356 C135.49745,313.904094 136.989782,315.717965 138.651544,317.494063 C139.602395,318.510336 141.197064,318.563372 142.213337,317.612521 C143.22961,316.66167 143.282645,315.067001 142.331795,314.050728 Z M131.984162,294.785947 C131.604198,292.743344 131.420508,290.669397 131.430502,288.564641 C131.437111,287.172921 130.314256,286.039352 128.922536,286.032715 C127.530816,286.026135 126.397247,287.14899 126.390638,288.54071 C126.379148,290.960578 126.590879,293.351125 127.02924,295.707658 C127.283764,297.075921 128.599293,297.978786 129.967556,297.724263 C131.33582,297.469739 132.238685,296.15421 131.984162,294.785947 Z M134.731452,273.106927 C135.517241,271.181483 136.441206,269.2389 137.500941,267.281796 C138.163625,266.057958 137.708721,264.52863 136.484883,263.865946 C135.261046,263.203262 133.731718,263.658166 133.069034,264.882003 C131.923852,266.996912 130.921413,269.104479 130.065163,271.202577 C129.539291,272.491137 130.157572,273.962025 131.446132,274.487896 C132.734692,275.013768 134.20558,274.395487 134.731452,273.106927 Z M146.736297,253.824711 C148.097316,252.178979 149.54337,250.530818 151.072029,248.882161 C152.018293,247.861615 151.958076,246.267202 150.937531,245.320937 C149.916986,244.374673 148.322572,244.43489 147.376308,245.455435 C145.783871,247.172877 144.27508,248.892544 142.852452,250.612772 C141.9655,251.685267 142.115911,253.273712 143.188405,254.160664 C144.260899,255.047617 145.849345,254.897205 146.736297,253.824711 Z M162.955738,237.475447 C164.597931,236.055658 166.295364,234.641103 168.045709,233.23333 C169.130203,232.361091 169.302269,230.774845 168.43003,229.690352 C167.55779,228.605858 165.971545,228.433792 164.887051,229.306031 C163.090648,230.750847 161.347357,232.203618 159.659509,233.662879 C158.606698,234.573107 158.491111,236.164466 159.40134,237.217278 C160.311568,238.270089 161.902926,238.385676 162.955738,237.475447 Z M181.448833,223.292299 C183.257707,222.050038 185.103204,220.818265 186.98295,219.598356 C188.150389,218.840717 188.482597,217.280134 187.724959,216.112696 C186.96732,214.945258 185.406737,214.61305 184.239299,215.370688 C182.322974,216.614335 180.44097,217.870475 178.595661,219.137758 C177.448417,219.92564 177.157095,221.494369 177.944976,222.641614 C178.732858,223.788859 180.301588,224.080181 181.448833,223.292299 Z M201.294281,210.915268 C203.215864,209.824398 205.160272,208.748677 207.12499,207.68938 C208.350016,207.028896 208.807668,205.500388 208.147184,204.275362 C207.486699,203.050336 205.958191,202.592684 204.733165,203.253169 C202.73626,204.329819 200.759743,205.423304 198.806131,206.532356 C197.595824,207.21944 197.171667,208.757579 197.85875,209.967887 C198.545834,211.178194 200.083973,211.602351 201.294281,210.915268 Z M221.923965,200.204217 C223.931633,199.253031 225.95017,198.321937 227.97686,197.412134 C229.24653,196.842165 229.813751,195.350842 229.243782,194.081172 C228.673813,192.811501 227.18249,192.244281 225.912819,192.81425 C223.854725,193.738151 221.804911,194.683672 219.766101,195.649612 C218.508382,196.24549 217.971853,197.748127 218.567731,199.005846 C219.163608,200.263566 220.666246,200.800095 221.923965,200.204217 Z M243.32767,190.991037 C245.410152,190.183135 247.491198,189.401414 249.567826,188.646998 C250.875916,188.171784 251.551095,186.72613 251.075881,185.41804 C250.600666,184.10995 249.155012,183.434771 247.846922,183.909985 C245.736072,184.676833 243.621036,185.471322 241.504796,186.292321 C240.207281,186.795694 239.563502,188.255602 240.066875,189.553116 C240.570248,190.850631 242.030156,191.49441 243.32767,190.991037 Z M265.370621,183.411418 C267.521659,182.769294 269.656259,182.161794 271.771082,181.589944 C273.114568,181.226664 273.909183,179.843057 273.545903,178.49957 C273.182623,177.156084 271.799016,176.361469 270.455529,176.724749 C268.298234,177.308083 266.121611,177.927543 263.928978,178.582084 C262.595394,178.980182 261.837033,180.383988 262.235132,181.717572 C262.633231,183.051156 264.037037,183.809516 265.370621,183.411418 Z M287.998101,177.834097 C290.215462,177.41338 292.393964,177.040983 294.529666,176.717788 C295.905734,176.509549 296.852447,175.225214 296.644208,173.849145 C296.435968,172.473077 295.151633,171.526364 293.775564,171.734604 C291.577095,172.067296 289.336825,172.450253 287.058601,172.882517 C285.69126,173.141953 284.793125,174.460716 285.052561,175.828057 C285.311997,177.195398 286.63076,178.093532 287.998101,177.834097 Z M310.99028,175.188531 C313.256034,175.130482 315.438778,175.147991 317.533194,175.241535 C318.923544,175.303633 320.100985,174.226872 320.163083,172.836523 C320.225181,171.446173 319.148421,170.268731 317.758071,170.206633 C315.543143,170.107707 313.242551,170.089253 310.861198,170.150264 C309.469919,170.185909 308.370961,171.342659 308.406605,172.733938 C308.44225,174.125218 309.599001,175.224176 310.99028,175.188531 Z M333.071125,178.437589 C334.996592,179.26999 336.838818,180.266406 338.598439,181.423572 C339.761264,182.188272 341.323832,181.865527 342.088532,180.702702 C342.853231,179.539876 342.530487,177.977309 341.367661,177.212609 C339.365415,175.895887 337.265948,174.760335 335.071052,173.811458 C333.793582,173.259193 332.310288,173.847089 331.758023,175.124559 C331.205758,176.40203 331.793654,177.885324 333.071125,178.437589 Z M349.844556,192.494221 C351.056303,194.193846 352.199391,196.011232 353.272838,197.941743 C353.949177,199.158087 355.4835,199.595848 356.699845,198.919508 C357.916189,198.243169 358.353949,196.708846 357.67761,195.492501 C356.514337,193.400445 355.271185,191.423969 353.948301,189.56846 C353.140375,188.435242 351.566766,188.171541 350.433548,188.979468 C349.30033,189.787394 349.03663,191.361003 349.844556,192.494221 Z M359.582488,213.075093 C360.210464,215.122183 360.784775,217.235836 361.304987,219.411057 C361.628698,220.764622 362.988398,221.599485 364.341964,221.275775 C365.695529,220.952064 366.530392,219.592363 366.206682,218.238798 C365.662223,215.962195 365.060215,213.746607 364.400793,211.597006 C363.992631,210.266468 362.583135,209.518735 361.252597,209.926897 C359.922059,210.33506 359.174326,211.744555 359.582488,213.075093 Z M364.058706,235.604442 C364.29352,237.768592 364.483711,239.96544 364.629322,242.189548 C364.720243,243.578311 365.919763,244.630419 367.308526,244.539498 C368.697288,244.448577 369.749397,243.249057 369.658476,241.860294 C369.508218,239.565203 369.31184,237.296892 369.06922,235.060794 C368.919095,233.677179 367.675754,232.677237 366.292139,232.827361 C364.908524,232.977486 363.908582,234.220827 364.058706,235.604442 Z M364.901959,258.764778 C364.8348,260.968828 364.727542,263.177859 364.580793,265.38547 C364.488482,266.77414 365.53939,267.974713 366.928061,268.067024 C368.316732,268.159335 369.517304,267.108427 369.609615,265.719756 C369.760356,263.452103 369.87054,261.182801 369.939542,258.918276 C369.981929,257.527186 368.88859,256.365123 367.497499,256.322735 C366.106409,256.280348 364.944346,257.373688 364.901959,258.764778 Z M362.735444,281.898111 C362.386861,284.100958 361.999888,286.27673 361.576046,288.417577 C361.305757,289.782814 362.193389,291.108669 363.558626,291.378958 C364.923863,291.649246 366.249718,290.761615 366.520007,289.396377 C366.956474,287.191761 367.354776,284.95229 367.713424,282.685837 C367.930949,281.311206 366.992928,280.020509 365.618297,279.802984 C364.243666,279.58546 362.952968,280.52348 362.735444,281.898111 Z M357.498775,304.426331 C356.811816,306.578826 356.085855,308.649903 355.324261,310.629418 C354.824519,311.928336 355.472378,313.386437 356.771295,313.886179 C358.070212,314.385922 359.528314,313.738062 360.028056,312.439145 C360.825453,310.366571 361.583815,308.203058 362.300106,305.958655 C362.723246,304.632804 361.991454,303.214967 360.665603,302.791827 C359.339752,302.368688 357.921915,303.10048 357.498775,304.426331 Z M348.03911,325.064251 C346.759781,326.943977 345.443744,328.581668 344.102809,329.962461 C343.133219,330.960872 343.156582,332.556251 344.154992,333.525841 C345.153403,334.495432 346.748782,334.472068 347.718372,333.473658 C349.271276,331.874595 350.768729,330.011149 352.205604,327.899941 C352.988658,326.749396 352.690747,325.181904 351.540202,324.398849 C350.389657,323.615795 348.822165,323.913706 348.03911,325.064251 Z M331.30971,335.018448 C329.606654,334.643615 327.856708,333.857342 326.063586,332.633398 C324.914102,331.848787 323.346208,332.144575 322.561597,333.294059 C321.776986,334.443543 322.072773,336.011436 323.222257,336.796048 C325.528633,338.370326 327.868266,339.421554 330.226381,339.940561 C331.585585,340.239714 332.929949,339.380373 333.229102,338.021169 C333.528255,336.661965 332.668914,335.317601 331.30971,335.018448 Z M315.442937,321.12253 C314.398546,319.222281 313.778677,317.406255 313.56512,315.669679 C313.395249,314.28835 312.137752,313.306268 310.756422,313.476139 C309.375092,313.64601 308.393011,314.903507 308.562882,316.284836 C308.858345,318.687434 309.685503,321.110757 311.026146,323.550031 C311.696482,324.769694 313.228629,325.215012 314.448292,324.544676 C315.667955,323.87434 316.113273,322.342193 315.442937,321.12253 Z M319.702098,303.209806 C321.155998,301.955373 322.864494,300.715379 324.82776,299.492874 C326.009175,298.757219 326.370535,297.203127 325.63488,296.021713 C324.899225,294.840298 323.345134,294.478938 322.163719,295.214593 C319.987927,296.569437 318.06987,297.961526 316.409723,299.39391 C315.355992,300.303075 315.238798,301.894315 316.147963,302.948046 C317.057127,304.001777 318.648368,304.11897 319.702098,303.209806 Z M339.410124,292.486942 C341.375023,291.729813 343.449298,290.983238 345.632811,290.247374 C346.951666,289.802908 347.660498,288.373454 347.216032,287.0546 C346.771566,285.735745 345.342112,285.026912 344.023257,285.471378 C341.773128,286.229692 339.631416,287.000539 337.597982,287.784077 C336.299322,288.284486 335.652211,289.74292 336.152621,291.04158 C336.65303,292.340241 338.111464,292.987351 339.410124,292.486942 Z M361.653956,285.541228 C363.745103,285.001231 365.903029,284.468103 368.127701,283.941869 C369.482062,283.621502 370.32028,282.263867 369.999913,280.909506 C369.679546,279.555145 368.321911,278.716928 366.96755,279.037295 C364.709926,279.571324 362.518698,280.112679 360.393833,280.661383 C359.046301,281.009356 358.235998,282.383835 358.583972,283.731367 C358.931945,285.078899 360.306424,285.889202 361.653956,285.541228 Z M384.526111,280.422605 C386.669218,280.004008 388.860011,279.590407 391.098478,279.181809 C392.467592,278.931898 393.374885,277.619419 393.124974,276.250305 C392.875063,274.881191 391.562584,273.973898 390.19347,274.223809 C387.934803,274.636094 385.723636,275.053542 383.559958,275.476157 C382.194034,275.742952 381.303015,277.066533 381.569811,278.432457 C381.836606,279.798381 383.160187,280.689401 384.526111,280.422605 Z M407.683451,276.381949 C407.868082,276.353097 407.868082,276.353097 408.052951,276.324271 C409.428088,276.109964 410.369126,274.821465 410.154819,273.446329 C409.940512,272.071192 408.652013,271.130154 407.276877,271.344461 C407.090782,271.373478 407.090782,271.373478 406.904923,271.402521 C405.529892,271.617506 404.589489,272.906468 404.804473,274.281499 C405.019458,275.65653 406.30842,276.596933 407.683451,276.381949 Z" id="Path-2-Copy" fill="#FFFFFF" fill-rule="nonzero" opacity="0.300000012" transform="translate(213.627832, 255.057594) scale(1, -1) translate(-213.627832, -255.057594) "></path>
        <g id="Path-Copy">
            <use fill="black" fill-opacity="1" filter="url(#filter-3)" xlink:href="#path-2"></use>
            <use fill="url(#linearGradient-1)" fill-rule="evenodd" xlink:href="#path-2"></use>
        </g>
        <path d="M36.085563,453.722137 C38.1495555,452.806859 40.1982409,451.903716 42.2316184,451.012709 C43.5063437,450.454136 44.0869,448.967954 43.5283272,447.693229 C42.9697544,446.418503 41.4835726,445.837947 40.2088473,446.39652 C38.1686644,447.290509 36.1132095,448.196636 34.0424819,449.114902 C32.7702289,449.679083 32.1962234,451.167807 32.7604046,452.44006 C33.3245859,453.712313 34.8133101,454.286319 36.085563,453.722137 Z M57.6240535,444.3757 C59.7046827,443.493722 61.7679568,442.625498 63.8138747,441.771029 C65.0981069,441.234675 65.7043818,439.758798 65.1680276,438.474565 C64.6316734,437.190333 63.1557965,436.584058 61.8715643,437.120413 C59.81737,437.978338 57.745869,438.850024 55.6570601,439.73547 C54.3756959,440.27864 53.7772714,441.757718 54.3204416,443.039082 C54.8636118,444.320446 56.3426893,444.918871 57.6240535,444.3757 Z M79.3173575,435.426231 C81.4132552,434.586888 83.4892156,433.763338 85.5452367,432.955582 C86.8405895,432.446672 87.4781277,430.984028 86.969218,429.688675 C86.4603083,428.393323 84.9976645,427.755784 83.7023116,428.264694 C81.6359715,429.076504 79.5497631,429.904119 77.4436844,430.74754 C76.1516995,431.26494 75.5237749,432.731737 76.0411754,434.023722 C76.5585759,435.315706 78.0253726,435.943631 79.3173575,435.426231 Z M101.195204,426.968913 C103.317141,426.180298 105.415494,425.410351 107.490261,424.659071 C108.798848,424.185227 109.475542,422.740281 109.001698,421.431694 C108.527854,420.123107 107.082908,419.446414 105.774321,419.920258 C103.68618,420.676381 101.57456,421.451196 99.4394582,422.244704 C98.1349037,422.729539 97.4703904,424.180127 97.9552262,425.484681 C98.4400621,426.789236 99.8906495,427.453749 101.195204,426.968913 Z M123.283181,419.14813 C125.429191,418.429289 127.546626,417.733038 129.63548,417.059376 C130.960036,416.632202 131.687509,415.212144 131.260335,413.887587 C130.833161,412.56303 129.413103,411.835557 128.088546,412.262731 C125.98157,412.942238 123.846189,413.64439 121.682396,414.369188 C120.362728,414.811232 119.651273,416.239383 120.093318,417.559051 C120.535362,418.87872 121.963513,419.590175 123.283181,419.14813 Z M145.642083,412.17895 C147.824349,411.554987 149.970242,410.959712 152.079749,410.39312 C153.423847,410.03211 154.220797,408.649846 153.859786,407.305748 C153.498776,405.96165 152.116512,405.1647 150.772414,405.525711 C148.636537,406.099385 146.464595,406.701887 144.256571,407.333214 C142.918458,407.715812 142.143861,409.110725 142.526459,410.448838 C142.909058,411.786951 144.30397,412.561548 145.642083,412.17895 Z M178.42874,401.230131 C180.070933,399.810342 181.768366,398.395787 183.518712,396.988014 C184.603205,396.115775 184.775271,394.529529 183.903032,393.445036 C183.030793,392.360542 181.444547,392.188476 180.360053,393.060715 C178.563651,394.505531 176.82036,395.958302 175.132512,397.417563 C174.0797,398.327791 173.964114,399.91915 174.874342,400.971961 C175.78457,402.024773 177.375929,402.14036 178.42874,401.230131 Z M196.921835,387.046983 C198.730709,385.804722 200.576206,384.572949 202.455953,383.35304 C203.623391,382.595401 203.955599,381.034818 203.197961,379.86738 C202.440322,378.699942 200.879739,378.367733 199.712301,379.125372 C197.795976,380.369019 195.913972,381.625159 194.068664,382.892442 C192.921419,383.680323 192.630097,385.249053 193.417979,386.396298 C194.20586,387.543543 195.77459,387.834865 196.921835,387.046983 Z M216.767283,374.669952 C218.688867,373.579082 220.633274,372.50336 222.597993,371.444064 C223.823019,370.78358 224.28067,369.255072 223.620186,368.030046 C222.959702,366.80502 221.431194,366.347368 220.206168,367.007853 C218.209263,368.084503 216.232745,369.177988 214.279134,370.28704 C213.068826,370.974123 212.644669,372.512263 213.331753,373.72257 C214.018836,374.932878 215.556975,375.357035 216.767283,374.669952 Z M237.396968,363.958901 C239.404636,363.007715 241.423173,362.07662 243.449862,361.166818 C244.719533,360.596849 245.286753,359.105526 244.716784,357.835855 C244.146815,356.566185 242.655493,355.998964 241.385822,356.568933 C239.327727,357.492835 237.277914,358.438356 235.239104,359.404296 C233.981384,360.000174 233.444856,361.502811 234.040733,362.76053 C234.636611,364.01825 236.139248,364.554778 237.396968,363.958901 Z M258.800673,354.745721 C260.883155,353.937818 262.964201,353.156097 265.040828,352.401682 C266.348918,351.926467 267.024098,350.480814 266.548883,349.172724 C266.073669,347.864634 264.628015,347.189455 263.319925,347.664669 C261.209075,348.431517 259.094038,349.226006 256.977798,350.047005 C255.680284,350.550378 255.036505,352.010286 255.539878,353.3078 C256.043251,354.605315 257.503158,355.249094 258.800673,354.745721 Z M280.843623,347.166101 C282.994661,346.523978 285.129261,345.916478 287.244084,345.344628 C288.587571,344.981348 289.382185,343.597741 289.018906,342.254254 C288.655626,340.910768 287.272018,340.116153 285.928532,340.479433 C283.771237,341.062767 281.594613,341.682227 279.40198,342.336767 C278.068396,342.734866 277.310036,344.138672 277.708135,345.472256 C278.106233,346.80584 279.510039,347.5642 280.843623,347.166101 Z M303.471103,341.58878 C305.688465,341.168064 307.866966,340.795667 310.002668,340.472472 C311.378737,340.264233 312.325449,338.979898 312.11721,337.603829 C311.908971,336.227761 310.624635,335.281048 309.248567,335.489288 C307.050097,335.82198 304.809827,336.204936 302.531603,336.637201 C301.164262,336.896637 300.266128,338.2154 300.525564,339.582741 C300.784999,340.950082 302.103763,341.848216 303.471103,341.58878 Z M326.463282,338.943215 C328.729036,338.885166 330.911781,338.902674 333.006197,338.996219 C334.396546,339.058317 335.573988,337.981556 335.636086,336.591206 C335.698184,335.200857 334.621423,334.023415 333.231074,333.961317 C331.016146,333.862391 328.715553,333.843937 326.334201,333.904948 C324.942922,333.940593 323.843963,335.097343 323.879608,336.488622 C323.915253,337.879901 325.072003,338.97886 326.463282,338.943215 Z M348.544127,342.192273 C350.469595,343.024674 352.31182,344.02109 354.071441,345.178256 C355.234267,345.942956 356.796834,345.620211 357.561534,344.457386 C358.326234,343.29456 358.003489,341.731993 356.840664,340.967293 C354.838417,339.650571 352.73895,338.515019 350.544055,337.566142 C349.266584,337.013877 347.78329,337.601772 347.231025,338.879243 C346.678761,340.156714 347.266656,341.640008 348.544127,342.192273 Z M365.317559,356.248905 C366.529305,357.94853 367.672394,359.765916 368.74584,361.696427 C369.42218,362.912771 370.956503,363.350531 372.172847,362.674192 C373.389191,361.997853 373.826952,360.463529 373.150612,359.247185 C371.987339,357.155129 370.744188,355.178653 369.421304,353.323143 C368.613377,352.189926 367.039769,351.926225 365.906551,352.734152 C364.773333,353.542078 364.509632,355.115687 365.317559,356.248905 Z M375.055491,376.829777 C375.683466,378.876867 376.257777,380.99052 376.77799,383.165741 C377.1017,384.519306 378.461401,385.354169 379.814966,385.030458 C381.168532,384.706748 382.003395,383.347047 381.679684,381.993482 C381.135226,379.716879 380.533218,377.501291 379.873796,375.35169 C379.465633,374.021152 378.056138,373.273419 376.7256,373.681581 C375.395062,374.089744 374.647328,375.499239 375.055491,376.829777 Z" id="Path-2-Copy-2" fill="#FFFFFF" fill-rule="nonzero" opacity="0.300000012" transform="translate(207.146402, 393.904491) scale(-1, 1) rotate(5.000000) translate(-207.146402, -393.904491) "></path>
        <path d="M49.1681155,137.024324 C50.8103084,135.604535 52.5077414,134.189979 54.2580867,132.782207 C55.3425804,131.909967 55.5146465,130.323722 54.642407,129.239228 C53.7701676,128.154734 52.183922,127.982668 51.0994283,128.854908 C49.3030258,130.299723 47.5597346,131.752494 45.8718869,133.211755 C44.8190752,134.121984 44.7034886,135.713342 45.613717,136.766154 C46.5239454,137.818966 48.1153039,137.934552 49.1681155,137.024324 Z M67.6612102,122.841176 C69.4700844,121.598914 71.3155815,120.367141 73.1953279,119.147232 C74.3627662,118.389594 74.6949745,116.829011 73.937336,115.661573 C73.1796975,114.494134 71.6191144,114.161926 70.4516762,114.919564 C68.5353513,116.163212 66.653347,117.419351 64.8080389,118.686634 C63.660794,119.474516 63.3694724,121.043246 64.1573539,122.190491 C64.9452353,123.337736 66.5139653,123.629057 67.6612102,122.841176 Z M87.506658,110.464144 C89.4282417,109.373274 91.3726495,108.297553 93.3373677,107.238257 C94.5623937,106.577773 95.0200453,105.049265 94.359561,103.824238 C93.6990768,102.599212 92.1705688,102.141561 90.9455427,102.802045 C88.9486376,103.878695 86.9721201,104.972181 85.0185088,106.081233 C83.8082012,106.768316 83.3840441,108.306455 84.0711276,109.516763 C84.758211,110.727071 86.2963504,111.151228 87.506658,110.464144 Z M108.136343,99.7530933 C110.144011,98.8019077 112.162548,97.870813 114.189237,96.9610101 C115.458908,96.3910412 116.026128,94.8997186 115.456159,93.630048 C114.88619,92.3603773 113.394868,91.793157 112.125197,92.363126 C110.067102,93.2870271 108.017289,94.2325486 105.978479,95.1984885 C104.720759,95.7943662 104.184231,97.2970034 104.780108,98.5547228 C105.375986,99.8124422 106.878623,100.348971 108.136343,99.7530933 Z M129.540048,90.5399134 C131.62253,89.732011 133.703576,88.95029 135.780203,88.1958745 C137.088293,87.72066 137.763473,86.2750062 137.288258,84.9669162 C136.813044,83.6588262 135.36739,82.9836471 134.0593,83.4588615 C131.94845,84.2257097 129.833413,85.0201988 127.717173,85.8411977 C126.419659,86.3445707 125.77588,87.8044784 126.279253,89.1019929 C126.782626,90.3995074 128.242533,91.0432863 129.540048,90.5399134 Z M151.582998,82.9602939 C153.734036,82.3181704 155.868636,81.7106703 157.983459,81.1388205 C159.326946,80.7755407 160.12156,79.3919332 159.758281,78.0484467 C159.395001,76.7049602 158.011393,75.9103457 156.667907,76.2736255 C154.510612,76.8569597 152.333988,77.4764197 150.141355,78.13096 C148.807771,78.5290588 148.049411,79.9328648 148.44751,81.2664485 C148.845608,82.6000322 150.249414,83.3583927 151.582998,82.9602939 Z M174.210479,77.382973 C176.42784,76.9622565 178.606341,76.5898592 180.742043,76.2666649 C182.118112,76.0584255 183.064824,74.7740901 182.856585,73.3980216 C182.648346,72.0219531 181.36401,71.0752406 179.987942,71.28348 C177.789472,71.6161728 175.549203,71.9991289 173.270978,72.4313934 C171.903637,72.6908292 171.005503,74.0095923 171.264939,75.3769333 C171.524374,76.7442742 172.843138,77.6424088 174.210479,77.382973 Z M197.202657,74.7374078 C199.468411,74.6793587 201.651156,74.6968669 203.745572,74.7904111 C205.135921,74.8525092 206.313363,73.7757485 206.375461,72.3853989 C206.437559,70.9950493 205.360798,69.8176079 203.970449,69.7555098 C201.755521,69.6565832 199.454928,69.6381296 197.073576,69.6991404 C195.682297,69.7347852 194.583338,70.8915357 194.618983,72.2828148 C194.654628,73.674094 195.811378,74.7730527 197.202657,74.7374078 Z M219.283502,77.9864653 C221.20897,78.8188661 223.051195,79.8152828 224.810816,80.9724485 C225.973642,81.7371481 227.536209,81.4144035 228.300909,80.2515782 C229.065609,79.0887529 228.742864,77.5261852 227.580039,76.7614856 C225.577792,75.4447638 223.478325,74.3092116 221.28343,73.3603341 C220.005959,72.8080693 218.522665,73.395965 217.9704,74.6734359 C217.418136,75.9509068 218.006031,77.4342006 219.283502,77.9864653 Z M236.056934,92.0430972 C237.26868,93.7427222 238.411769,95.5601088 239.485215,97.4906194 C240.161555,98.7069636 241.695878,99.144724 242.912222,98.4683846 C244.128566,97.7920452 244.566327,96.257722 243.889987,95.0413778 C242.726714,92.9493217 241.483563,90.9728453 240.160679,89.117336 C239.352752,87.9841181 237.779144,87.7204175 236.645926,88.5283441 C235.512708,89.3362708 235.249007,90.9098793 236.056934,92.0430972 Z M245.794866,112.62397 C246.422841,114.67106 246.997152,116.784712 247.517365,118.959933 C247.841075,120.313499 249.200776,121.148361 250.554341,120.824651 C251.907907,120.500941 252.74277,119.14124 252.419059,117.787674 C251.874601,115.511072 251.272593,113.295483 250.613171,111.145883 C250.205008,109.815345 248.795513,109.067611 247.464975,109.475774 C246.134437,109.883936 245.386703,111.293431 245.794866,112.62397 Z M250.271084,135.153319 C250.505897,137.317468 250.696089,139.514317 250.841699,141.738424 C250.93262,143.127187 252.132141,144.179295 253.520903,144.088375 C254.909666,143.997454 255.961774,142.797933 255.870853,141.40917 C255.720596,139.114079 255.524217,136.845769 255.281597,134.60967 C255.131473,133.226055 253.888131,132.226113 252.504516,132.376238 C251.120901,132.526362 250.120959,133.769703 250.271084,135.153319 Z" id="Path-2-Copy-3" fill="#FFFFFF" fill-rule="nonzero" opacity="0.300000012" transform="translate(150.438165, 106.878958) rotate(165.000000) translate(-150.438165, -106.878958) "></path>
    </g>
</svg>