<?xml version="1.0" encoding="utf-8"?>
<!-- Generator: Adobe Illustrator 22.1.0, SVG Export Plug-In . SVG Version: 6.00 Build 0)  -->
<svg version="1.1" id="svg4725" xmlns:svg="http://www.w3.org/2000/svg"
	 xmlns="http://www.w3.org/2000/svg" xmlns:xlink="http://www.w3.org/1999/xlink" x="0px" y="0px" viewBox="0 0 613.5 617.6"
	 style="enable-background:new 0 0 613.5 617.6;" xml:space="preserve">
<style type="text/css">
	.st0{fill:#FFFFFF;}
</style>
<polygon points="0,308.8 0,617.6 306.7,617.6 613.5,617.6 613.5,308.8 613.5,0 306.7,0 0,0 "/>
<path class="st0" d="M540.2,178v102.8l-13.9,13.9l-14,14l14,14l13.9,13.9v102.8v102.7H306.7H73.3V439.6V336.7l13.9-13.9l14-14
	l-14-14l-13.9-13.9V178V75.3h233.5h233.5V178z M95.9,184.4v86.5l18.9,18.9l19,19l-19,19l-18.9,18.9v86.5v86.5h210.8h210.8v-86.5
	v-86.5l-18.9-18.9l-19-19l19-19l18.9-18.9v-86.5V97.9H306.7H95.9V184.4z"/>
<path class="st0" d="M265.1,166.4l14.7,14.7v35v35l-14.6,14.6l-14.7,14.7h-39.1h-39.1v-64.4v-64.4h39.1h39.1L265.1,166.4z
	 M195,216.1v41.7h22.9h22.9l7.5-8.1l7.5-8v-25.6v-25.7l-7.6-8.1l-7.6-8.1h-22.9H195V216.1z"/>
<path class="st0" d="M425.3,216c14.6,35.2,26.5,64,26.5,64.2s-5.5,0.3-12.3,0.3h-12.3l-3.2-7.6l-3.2-7.6h-32.7h-32.7l-3,7.4l-3,7.4
	l-12.5,0.2c-9.9,0.1-12.5,0-12.2-0.7c0.2-0.5,12-29.1,26.3-63.5c14.3-34.5,26.1-63,26.3-63.5c0.3-0.6,2.9-0.8,11-0.7l10.5,0.2
	L425.3,216z M377,213.8c-5.9,14.3-11,26.5-11.2,27.2c-0.4,1.2,0.9,1.3,22.4,1.3c18.3,0,22.7-0.2,22.5-0.9
	c-0.5-2-22.1-53.6-22.5-53.6C387.9,187.8,383,199.6,377,213.8z"/>
<polygon class="st0" points="270,348.3 270,359.6 236.3,401.3 202.8,442.9 236.3,443.1 270,443.2 270,454.6 270,465.9 221.1,465.9 
	172.3,465.9 172.3,454.3 172.4,442.9 206.2,401.5 240,360.1 206.1,359.9 172.3,359.7 172.3,348.4 172.3,337.1 221.1,337.1 
	270,337.1 "/>
<polygon class="st0" points="386.1,382.9 418.2,428.9 418.4,382.9 418.5,337.1 429.9,337.1 441.2,337.1 441.2,401.5 441.2,465.9 
	428.3,465.9 415.4,465.9 386.7,424.2 358,382.6 357.8,424.3 357.7,465.9 345.7,465.9 333.6,465.9 333.6,401.5 333.6,337.1 
	343.8,337.1 353.9,337.1 "/>
</svg>
