<?xml version="1.0" encoding="UTF-8"?>
<svg width="73px" height="31px" viewBox="0 0 73 31" version="1.1" xmlns="http://www.w3.org/2000/svg" xmlns:xlink="http://www.w3.org/1999/xlink">
    <!-- Generator: Sketch 55.2 (78181) - https://sketchapp.com -->
    <title>logo-meteor</title>
    <desc>Created with Sketch.</desc>
    <g id="logo-meteor" stroke="none" stroke-width="1" fill="none" fill-rule="evenodd">
        <path d="M58.7747745,19.5602299 L44.3521513,4.23414417 L59.678014,18.6567674 C59.9349835,18.8984637 59.9473582,19.3028144 59.705439,19.5600069 C59.4635197,19.8168649 59.0593919,19.8291281 58.8021995,19.5872089 C58.7932808,19.5788476 58.7832473,19.5687026 58.7747745,19.5598954 L58.7747745,19.5602299 Z M56.6550268,20.6409511 L45.7798093,8.86271703 L57.5580434,19.7379346 C57.817354,19.9771782 57.8334077,20.381529 57.594164,20.6409511 C57.3546974,20.9003733 56.9501237,20.9166499 56.6907016,20.6769603 C56.6786613,20.665812 56.6659522,20.6529914 56.6546924,20.6409511 L56.6550268,20.6409511 Z M54.451332,20.6726125 L47.2243013,12.8433477 L55.0534546,20.07049 C55.2265885,20.2301344 55.2371794,20.4997015 55.0776465,20.672501 C54.918225,20.8453004 54.6484349,20.8564488 54.4756355,20.6968044 C54.4673857,20.6890005 54.4589129,20.6806393 54.4514435,20.6726125 L54.451332,20.6726125 Z M60.5067825,15.2536214 L52.9615777,7.10640563 L61.1087935,14.6516104 C61.281593,14.8114778 61.291961,15.0811564 61.1318706,15.2536214 C60.9720033,15.4264209 60.7026591,15.4366774 60.5298596,15.2766985 C60.5220558,15.269675 60.5139175,15.2613138 60.5067825,15.2537329 L60.5067825,15.2536214 Z M59.8557187,17.5347972 L48.9336781,5.7095171 L60.7587353,16.6315577 C61.0181574,16.8710244 61.0343225,17.2752636 60.7947445,17.5347972 C60.5552778,17.7941079 60.1509271,17.8101615 59.891505,17.570472 C59.8792418,17.5593236 59.8669786,17.546726 59.8558302,17.5347972 L59.8557187,17.5347972 Z M52.1983616,20.0310248 L48.7602097,16.2918675 L52.4993671,19.7300193 C52.5858783,19.80973 52.5915639,19.9445136 52.5120762,20.0310248 C52.4323655,20.1176475 52.2975819,20.1232217 52.2110707,20.0437339 C52.2066113,20.039609 52.202152,20.0352612 52.1983616,20.0310248 Z M60.2369924,12.5468015 L56.7990635,8.80764417 L60.5382209,12.245796 C60.6247321,12.3255067 60.6304177,12.4601788 60.550707,12.5468015 C60.4709963,12.6334242 60.3362127,12.6389984 60.2497015,12.5595106 C60.2454651,12.5553857 60.2407828,12.5509264 60.2369924,12.5468015 Z" id="Shape" fill="#DE4F4F" fill-rule="nonzero"></path>
        <path d="M1,10.3360833 L3.4498504,10.3360833 L6.16536603,14.7046766 L8.88110462,10.3361947 L11.3310665,10.3361947 L11.3310665,20.6673727 L9.0875721,20.6673727 L9.0875721,13.9226196 L6.18008185,18.3354719 L6.12133003,18.3354719 L3.24327143,13.9669901 L3.24327143,20.6672612 L1,20.6672612 L1,10.3360833 Z M15.2297568,10.3360833 L23.0076276,10.3360833 L23.0076276,12.3581714 L17.4731397,12.3581714 L17.4731397,14.4540616 L22.3436318,14.4540616 L22.3436318,16.4757038 L17.4732511,16.4757038 L17.4732511,18.6451731 L23.0814297,18.6451731 L23.0814297,20.6672612 L15.2299797,20.6672612 L15.2297568,10.3360833 Z M28.9995325,12.4319735 L25.8561431,12.4319735 L25.8561431,10.3360833 L34.4158479,10.3360833 L34.4158479,12.4319735 L31.2724585,12.4319735 L31.2724585,20.6672612 L28.9993095,20.6672612 L28.9995325,12.4319735 Z M37.6331509,10.3360833 L45.4107988,10.3360833 L45.4107988,12.3581714 L39.8767568,12.3581714 L39.8767568,14.4540616 L44.7470259,14.4540616 L44.7470259,16.4757038 L39.8765338,16.4757038 L39.8765338,18.6451731 L45.4847124,18.6451731 L45.4847124,20.6672612 L37.6331509,20.6672612 L37.6331509,10.3360833 Z M63.7555238,10.3360833 L68.4780773,10.3360833 C69.7865594,10.3360833 70.7902456,10.6855841 71.4886898,11.3840284 C72.079218,11.9743336 72.3742034,12.7616302 72.3742034,13.7452494 L72.3742034,13.7750155 C72.3742034,14.6114763 72.1699656,15.2927521 71.7619359,15.8191773 C71.3534603,16.345714 70.8195657,16.7317814 70.1604751,16.9778256 L72.6844621,20.6673727 L70.0278097,20.6673727 L67.8138585,17.3617748 L66.0281154,17.3617748 L66.0281154,20.6672612 L63.7555238,20.6672612 L63.7555238,10.3360833 Z M68.3306961,15.354291 C68.8914582,15.354291 69.3217846,15.2214027 69.6220097,14.9558489 C69.9219004,14.6900722 70.0720687,14.3360005 70.0720687,13.8930765 L70.0720687,13.8635334 C70.0720687,13.3716681 69.914431,13.0028806 69.5996015,12.756502 C69.2847721,12.5107923 68.8470878,12.3874915 68.2863256,12.3874915 L66.0282269,12.3874915 L66.0282269,15.354291 L68.3306961,15.354291 Z" id="Shape" fill="#333333" fill-rule="nonzero"></path>
    </g>
</svg>