<?xml version="1.0" encoding="UTF-8"?>
<svg width="89px" height="30px" viewBox="0 0 89 30" version="1.1" xmlns="http://www.w3.org/2000/svg" xmlns:xlink="http://www.w3.org/1999/xlink">
    <!-- Generator: Sketch 55.2 (78181) - https://sketchapp.com -->
    <title>logo-invision</title>
    <desc>Created with Sketch.</desc>
    <g id="logo-invision" stroke="none" stroke-width="1" fill="none" fill-rule="evenodd">
        <path d="M29.5161695,10.553652 L31.1759766,10.553652 L34.4710699,20.2407618 L37.7661633,10.5839243 L40.7259152,10.5839243 L35.7103749,23.8128836 L33.1880248,23.8128836 L29.5161695,14.1619676 L29.5161695,27.4635954 C29.5161695,28.9656258 28.3201666,30.202592 26.8436199,30.202592 L2.67254961,30.202592 C1.21076833,30.202592 -2.20268248e-13,28.9656258 -2.20268248e-13,27.4635954 L-2.20268248e-13,2.73899664 C-2.20268248e-13,1.23696623 1.19600286,-2.82440737e-13 2.67254961,-2.82440737e-13 L26.8436199,-2.82440737e-13 C28.3054011,-2.82440737e-13 29.5161695,1.23696623 29.5161695,2.73899664 L29.5161695,10.553652 Z M42.1256009,23.737203 L42.1256009,10.5839243 L44.9395522,10.5839243 L44.9395522,23.737203 L42.1256009,23.737203 Z M52.4191224,15.957243 C54.2124697,16.5626873 56.2390979,17.4254456 56.2974181,19.8018147 L56.2974181,19.8320869 C56.2974181,22.617131 54.28537,23.9793808 51.7338597,23.9793808 C49.9842526,23.9793808 48.0742649,23.313392 46.5433587,22.0268227 C47.6806033,20.3315785 48.9782285,20.815934 49.2406696,20.9218867 C50.1300532,21.3608339 51.0194368,21.5878755 51.80676,21.5878755 C53.0023248,21.5878755 53.7021676,21.0429756 53.7021676,20.1650813 L53.7021676,20.119673 C53.7021676,19.0904176 52.4045424,18.742287 50.9611166,18.2730677 C49.1240291,17.7281677 47.111981,16.9410901 47.111981,14.4133599 L47.111981,14.3679515 C47.111981,11.8704935 49.0365488,10.3568826 51.4859987,10.3568826 C53.0314849,10.3568826 54.7081917,10.9320548 56.0058169,11.8553574 C54.9706328,13.5506016 53.789648,13.3386961 53.3376662,13.187335 C53.2647659,13.1570628 53.2064456,13.1419267 53.1627055,13.1116545 L53.1335453,13.1116545 C52.5066028,12.8846128 51.9088204,12.7483879 51.3839383,12.7483879 C50.2758538,12.7483879 49.6489113,13.2932878 49.6489113,14.0652293 L49.6489113,14.1106377 C49.6489113,15.0490764 50.9756966,15.4728875 52.4191224,15.957243 Z M69.3028307,10.2963382 C73.0499058,10.2963382 75.834697,13.3689683 75.8492771,17.1529956 C75.8492771,20.9067506 73.0499058,24.0247891 69.2590905,24.0247891 C65.5120153,24.0247891 62.7418042,20.952159 62.7418042,17.1984039 C62.7418042,13.4143767 65.5265954,10.2963382 69.3028307,10.2963382 Z M69.3028307,21.4213783 C71.5627398,21.4213783 73.0061656,19.5142286 73.0353257,17.1984039 C73.0353257,14.8674431 71.4752594,12.9300212 69.2590905,12.9300212 C66.9991814,12.9300212 65.5557555,14.8371709 65.5557555,17.1529956 C65.5557555,19.4839564 67.1158218,21.4213783 69.3028307,21.4213783 Z M84.1744907,10.2963382 C86.9447019,10.2963382 88.5485084,12.3094407 88.5485084,15.3820708 L88.5485084,23.7220669 L85.719977,23.7220669 L85.719977,16.2599652 C85.719977,14.2014543 84.7722732,13.0359739 83.0955664,13.0359739 C81.4480197,13.0359739 80.3253552,14.2771349 80.3253552,16.3053735 L80.3253552,23.737203 L77.5114038,23.737203 L77.5114038,10.5839243 L80.3253552,10.5839243 L80.3253552,12.6121629 C81.1272584,11.3710019 82.2790831,10.2963382 84.1744907,10.2963382 Z M58.0907654,23.737203 L58.0907654,10.5839243 L60.9047167,10.5839243 L60.9047167,23.737203 L58.0907654,23.737203 Z" id="Shape" fill="#FF3366" fill-rule="nonzero"></path>
        <path d="M10.9827607,9.60991564 C9.85795068,9.60991564 8.9234931,8.7100676 8.9234931,7.550648 C8.9234931,6.39122841 9.85795068,5.49138037 10.9827607,5.49138037 C12.1075708,5.49138037 13.0420284,6.37392364 13.0420284,7.550648 C13.0420284,8.7100676 12.1075708,9.60991564 10.9827607,9.60991564 Z M6.24092794,18.8292805 L7.58146495,13.4976709 L5.49138037,13.4976709 L6.14002731,11.2270663 L11.1274015,11.2270663 L9.16704635,18.8580224 C9.02290259,19.3466335 8.97965946,19.7346482 8.97965946,20.0220665 C8.97965946,20.5106776 9.21028948,20.6400159 9.59947764,20.7406123 C9.81569329,20.783725 11.6751478,20.7549832 12.712983,18.5418622 L14.0102768,13.4689291 L11.9057779,13.4689291 L12.5544248,11.1983245 L17.0661246,11.1983245 L16.4895496,13.7850892 C17.2823403,12.3336268 18.8679217,10.9827607 20.4246743,10.9827607 C22.0823276,10.9827607 23.4516934,12.132434 23.4516934,14.3455549 C23.4516934,14.9060206 23.3796215,15.5095991 23.1634059,16.2137739 L22.2697145,19.1598116 C22.1976426,19.4616008 22.1543995,19.7202773 22.1543995,19.9502119 C22.1543995,20.4675649 22.3706151,20.7262414 22.7598033,20.7262414 C23.1634059,20.7262414 23.667909,20.453194 24.2444841,18.8867642 L25.3976342,19.3322626 C24.7345729,21.6747218 23.4805221,22.651944 21.9237695,22.651944 C20.1075581,22.651944 19.2426955,21.6028672 19.2426955,20.1514047 C19.2426955,19.7346482 19.3147673,19.3178916 19.4300824,18.8723933 L20.2949449,15.8401301 C20.3814312,15.4952282 20.41026,15.1934389 20.41026,14.9060206 C20.41026,13.9287984 19.8048561,13.3395909 18.8246785,13.3395909 C17.6138709,13.3395909 16.7922515,14.2305876 16.3598202,15.8832429 L14.6733381,22.479493 L11.718391,22.479493 L12.2517229,20.3957103 C11.3868603,21.7753182 10.1904671,22.6375731 8.70578631,22.6375731 C6.90398926,22.6375731 6.06795542,21.631609 6.06795542,20.108292 C6.06795542,19.7346482 6.14002731,19.2747789 6.24092794,18.8292805 Z" id="Shape" fill="#FFFFFF" fill-rule="nonzero"></path>
    </g>
</svg>