<?xml version="1.0" encoding="UTF-8" standalone="no"?><!DOCTYPE svg PUBLIC "-//W3C//DTD SVG 1.1//EN" "http://www.w3.org/Graphics/SVG/1.1/DTD/svg11.dtd"><svg width="100%" height="100%" viewBox="0 0 1281 347" version="1.1" xmlns="http://www.w3.org/2000/svg" xmlns:xlink="http://www.w3.org/1999/xlink" xml:space="preserve" style="fill-rule:evenodd;clip-rule:evenodd;stroke-linejoin:round;stroke-miterlimit:1.41421;"><g><g><path d="M608.044,240.104L638.964,240.104L638.964,208.086C638.964,180.073 651.561,168.796 671.836,168.796C676.959,168.796 680.211,169.352 680.211,169.352L680.211,138.821C677.995,138.285 676.08,138.084 673.26,138.084C658.272,138.084 647.119,145.34 638.964,159.656L638.964,139.494L608.044,139.494L608.044,240.104Z" style="fill:#030405;fill-rule:nonzero;"/><path d="M827.159,240.075L857.882,240.075L857.882,179.044C857.882,152.886 842.783,136.441 820.46,136.441C805.567,136.441 793.329,142.459 784.834,153.813C778.176,142.691 766.72,136.441 752.514,136.441C740.105,136.441 730.268,140.641 722.919,149.241L722.919,139.466L691.994,139.466L691.994,240.075L722.919,240.075L722.919,190.78C722.919,174.308 729.623,164.861 742.119,164.861C753.577,164.861 759.473,171.444 759.473,183.923L759.473,240.075L790.401,240.075L790.401,190.78C790.401,174.308 797.716,164.861 810.472,164.861C820.625,164.861 827.159,173.164 827.159,184.387L827.159,240.075Z" style="fill:#030405;fill-rule:nonzero;"/><path d="M1059.27,240.075L1089.98,240.075L1089.98,178.276C1089.98,165.904 1086.28,155.396 1079.26,147.886C1072.25,140.399 1063.2,136.441 1051.7,136.441C1039.37,136.441 1028.17,141.36 1020.34,149.609L1020.34,139.466L989.415,139.466L989.415,240.075L1020.34,240.075L1020.34,193.402C1020.34,174.997 1027.89,164.861 1041.61,164.861C1052.17,164.861 1059.27,173.008 1059.27,185.133L1059.27,240.075Z" style="fill:#030405;fill-rule:nonzero;"/><path d="M376.258,164.49L419.39,164.49L419.39,203.112C419.39,228.92 432.879,243.133 458.688,243.133C469.757,243.133 478.842,241.015 486.414,237.226L478.566,212.71C473.811,215.122 469.618,216.268 465.048,216.268C455.215,216.268 450.313,210.544 450.313,199.724L450.313,164.49L480.768,164.49L480.753,139.497L450.294,139.497L450.294,104.794L419.371,114.979L419.371,139.49L376.258,139.497L376.258,104.802L345.338,114.979L345.338,203.112C345.338,228.92 358.826,243.133 384.635,243.133C395.705,243.133 404.79,241.015 412.362,237.226L404.513,212.71C399.759,215.122 395.566,216.268 390.996,216.268C381.163,216.268 376.26,210.544 376.26,199.724L376.26,164.49L376.258,164.49Z" style="fill:#030405;fill-rule:nonzero;"/><path d="M169.567,213.888L137.691,213.888L137.691,186.667L169.567,186.667C176.785,186.667 184.091,191.404 184.091,200.46C184.091,208.367 178.119,213.888 169.567,213.888ZM137.691,134.042L165.555,134.042C175.715,134.042 180.26,140.786 180.26,147.471C180.26,156.949 172.638,161.264 165.555,161.264L137.691,161.264L137.691,134.042ZM197.081,170.528C197.081,170.528 213.043,162.117 213.043,141.678C213.043,125.498 199.15,107.619 171.254,107.619L106.572,107.619L106.572,240.309L171.388,240.309C206.947,240.309 216.873,218.241 216.873,202.965C216.873,178.709 197.081,170.528 197.081,170.528Z" style="fill:#030405;fill-rule:nonzero;"/><path d="M1106.32,203.112C1106.32,228.92 1119.81,243.133 1145.62,243.133C1156.69,243.133 1165.77,241.015 1173.34,237.226L1165.5,212.71C1160.74,215.122 1156.55,216.268 1151.98,216.268C1142.15,216.268 1137.24,210.544 1137.24,199.724L1137.24,164.49L1167.7,164.49L1167.68,139.497L1137.22,139.497L1137.22,104.794L1106.3,114.979L1106.32,203.112Z" style="fill:#030405;fill-rule:nonzero;"/><path d="M902.302,178.586C905.379,167.405 915.292,162.039 924.089,162.039C934.208,162.039 942.149,167.918 944.857,178.586L902.302,178.586ZM976.008,189.772C975.435,158.375 954.084,136.442 924.089,136.442C893.686,136.442 870.758,159.369 870.758,189.772C870.758,218.631 891.833,243.103 923.884,243.103C946.954,243.103 967.994,228.555 974.083,208.453L944.162,208.387C939.652,214.792 933.018,217.907 923.884,217.907C912.907,217.907 904.243,210.212 901.724,197.731L976.008,197.731L976.008,189.772Z" style="fill:#030405;fill-rule:nonzero;"/><path d="M520.922,178.586C523.999,167.405 533.912,162.039 542.709,162.039C552.828,162.039 560.769,167.918 563.477,178.586L520.922,178.586ZM594.629,189.772C594.055,158.375 572.704,136.442 542.709,136.442C512.306,136.442 489.378,159.369 489.378,189.772C489.378,218.631 510.453,243.103 542.504,243.103C565.575,243.103 586.614,228.555 592.704,208.453L562.783,208.387C558.272,214.792 551.638,217.907 542.504,217.907C531.527,217.907 522.864,210.212 520.344,197.731L594.629,197.731L594.629,189.772Z" style="fill:#030405;fill-rule:nonzero;"/><path d="M258.777,178.586C261.854,167.405 271.767,162.039 280.563,162.039C290.683,162.039 298.624,167.918 301.331,178.586L258.777,178.586ZM332.483,189.772C331.909,158.375 310.559,136.442 280.563,136.442C250.161,136.442 227.232,159.369 227.232,189.772C227.232,218.631 248.308,243.103 280.359,243.103C303.429,243.103 324.469,228.555 330.558,208.453L300.637,208.387C296.126,214.792 289.492,217.907 280.359,217.907C269.382,217.907 260.717,210.212 258.198,197.731L332.483,197.731L332.483,189.772Z" style="fill:#030405;fill-rule:nonzero;"/></g></g></svg>