<?xml version="1.0" encoding="UTF-8"?>
<svg width="250px" height="170px" viewBox="0 0 250 170" version="1.1" xmlns="http://www.w3.org/2000/svg" xmlns:xlink="http://www.w3.org/1999/xlink">
    <!-- Generator: Sketch 55.2 (78181) - https://sketchapp.com -->
    <title>lsb-guide-thumb/cdd</title>
    <desc>Created with Sketch.</desc>
    <defs>
        <linearGradient x1="44.5583776%" y1="30.1513966%" x2="87.5922318%" y2="72.2344266%" id="linearGradient-1">
            <stop stop-color="#FFFFFF" offset="0%"></stop>
            <stop stop-color="#FFFFFF" stop-opacity="0.3" offset="100%"></stop>
        </linearGradient>
    </defs>
    <g id="lsb-guide-thumb/cdd" stroke="none" stroke-width="1" fill="none" fill-rule="evenodd">
        <path d="M217.240558,118.455993 L238.365908,154.060515 L196.115208,154.060515 L217.240558,118.455993 Z M178.416465,35.6884036 L152.612376,61.4924926 L126.808287,35.6884036 C141.059492,21.4371988 164.16526,21.4371988 178.416465,35.6884036 Z M130.171572,155 L130.171572,95.2278139 L189.943758,95.2278139 L189.943758,155 L130.171572,155 Z M189.943758,86.2660338 L147.218331,86.2660338 C147.218331,74.467733 156.782744,64.9033205 168.581044,64.9033205 C180.379345,64.9033205 189.943758,74.467733 189.943758,86.2660338 Z M98.4246279,77.4377009 L128.104203,46.7036011 L143.983488,62.0380483 L99.4641252,108.139198 L67.7055554,77.4703037 L82.545343,62.1032538 L98.4246279,77.4377009 L98.4246279,77.4377009 Z M58.0701927,118.231763 L73.1759121,133.337483 L57.5107216,149.002673 L42.4050022,133.896954 L26.7398116,149.562144 L11.6340922,134.456425 L58.6296638,87.4608534 L73.7353832,102.566573 L58.0701927,118.231763 Z M98.5588175,155 C86.891609,155 77.4334678,145.541859 77.4334678,133.87465 C77.4334678,122.207442 86.891609,112.7493 98.5588175,112.7493 C110.226026,112.7493 119.684167,122.207442 119.684167,133.87465 C119.684167,145.541859 110.226026,155 98.5588175,155 Z M98.5588175,142.182372 C103.147046,142.182372 106.866539,138.462878 106.866539,133.87465 C106.866539,129.286422 103.147046,125.566928 98.5588175,125.566928 C93.9705895,125.566928 90.2510957,129.286422 90.2510957,133.87465 C90.2510957,138.462878 93.9705895,142.182372 98.5588175,142.182372 Z M98.5588175,55.0885429 C90.5666161,55.0885429 84.0876567,48.6095835 84.0876567,40.617382 C84.0876567,32.6251806 90.5666161,26.1462212 98.5588175,26.1462212 C106.551019,26.1462212 113.029978,32.6251806 113.029978,40.617382 C113.029978,48.6095835 106.551019,55.0885429 98.5588175,55.0885429 Z" id="Shape" fill="url(#linearGradient-1)"></path>
    </g>
</svg>