<svg width="250" height="170" viewBox="0 0 250 170" fill="none" xmlns="http://www.w3.org/2000/svg">
<g id="lsb-guide-thumb/addons">
<path id="Path 2" fill-rule="evenodd" clip-rule="evenodd" d="M125.824 49.5075C125.187 49.8371 124.061 50.1621 122.732 50.4932H74.1531C69.5475 50.4932 65.8139 54.2281 65.8139 58.8355V92.1544C65.4366 94.6627 65.0011 96.8841 64.3743 97.836C62.5463 100.612 59.1404 101.949 55.4324 101.949C51.3614 101.949 47.7363 100.039 45.403 97.0669C42.4966 94.4755 38.6648 92.9007 34.4652 92.9007C25.3829 92.9007 18.0203 100.266 18.0203 109.352C18.0203 118.437 25.3829 125.803 34.4652 125.803C38.1244 125.803 42.1004 125.103 44.2364 122.585C47.21 119.08 50.6011 115.932 55.4324 115.932C59.1404 115.932 63.4934 117.505 64.8075 120.045C65.144 120.695 65.4757 121.856 65.8139 123.222V158.943C65.8139 163.551 69.5475 167.286 74.1531 167.286H201.681C206.287 167.286 210.02 163.551 210.02 158.943V58.8355C210.02 54.2281 206.287 50.4932 201.681 50.4932H153.572C151.121 50.1206 148.964 49.6896 148.03 49.0743C145.254 47.2461 143.918 43.8397 143.918 40.1312C143.918 36.0597 145.827 32.4341 148.799 30.1005C151.39 27.1938 152.965 23.3614 152.965 19.1613C152.965 10.0779 145.6 2.71436 136.516 2.71436C127.431 2.71436 120.067 10.0779 120.067 19.1613C120.067 22.821 120.767 26.7975 123.284 28.9338C126.788 31.9077 129.936 35.2993 129.936 40.1312C129.936 43.8397 128.364 48.1933 125.824 49.5075ZM93.7841 69.4985H124.452C127.162 69.4985 129.358 71.7096 129.358 74.437C129.358 77.1645 127.162 79.3755 124.452 79.3755H93.7841C91.0742 79.3755 88.8773 77.1645 88.8773 74.437C88.8773 71.7096 91.0742 69.4985 93.7841 69.4985ZM114.638 104.068H164.933C167.643 104.068 169.84 106.279 169.84 109.007C169.84 111.734 167.643 113.945 164.933 113.945H114.638C111.928 113.945 109.731 111.734 109.731 109.007C109.731 106.279 111.928 104.068 114.638 104.068ZM145.514 86.7833H102.579C99.869 86.7833 97.6722 88.9943 97.6722 91.7218C97.6722 94.4492 99.869 96.6603 102.579 96.6603H145.514C148.223 96.6603 150.42 94.4492 150.42 91.7218C150.42 88.9943 148.223 86.7833 145.514 86.7833ZM114.638 121.353H185.787C188.497 121.353 190.694 123.564 190.694 126.291C190.694 129.019 188.497 131.23 185.787 131.23H114.638C111.928 131.23 109.731 129.019 109.731 126.291C109.731 123.564 111.928 121.353 114.638 121.353ZM119.753 138.638H102.579C99.869 138.638 97.6722 140.849 97.6722 143.576C97.6722 146.304 99.869 148.515 102.579 148.515H119.753C122.463 148.515 124.66 146.304 124.66 143.576C124.66 140.849 122.463 138.638 119.753 138.638ZM134.799 138.638H145.839C148.549 138.638 150.746 140.849 150.746 143.576C150.746 146.304 148.549 148.515 145.839 148.515H134.799C132.089 148.515 129.892 146.304 129.892 143.576C129.892 140.849 132.089 138.638 134.799 138.638Z" fill="white"/>
</g>
</svg>
