<?xml version="1.0" encoding="UTF-8"?>
<svg width="250px" height="170px" viewBox="0 0 250 170" version="1.1" xmlns="http://www.w3.org/2000/svg" xmlns:xlink="http://www.w3.org/1999/xlink">
    <!-- Generator: Sketch 55.2 (78181) - https://sketchapp.com -->
    <title>lsb-guide-thumb/design-system</title>
    <desc>Created with Sketch.</desc>
    <defs>
        <linearGradient x1="44.5583776%" y1="31.6941112%" x2="87.5922318%" y2="70.506276%" id="linearGradient-1">
            <stop stop-color="#FFFFFF" offset="0%"></stop>
            <stop stop-color="#FFFFFF" stop-opacity="0.3" offset="100%"></stop>
        </linearGradient>
    </defs>
    <g id="lsb-guide-thumb/design-system" stroke="none" stroke-width="1" fill="none" fill-rule="evenodd">
        <path d="M19.2641509,97.5 L229.264151,97.5 C232.301717,97.5 234.764151,99.9624339 234.764151,103 L234.764151,110.849057 C234.764151,113.886623 232.301717,116.349057 229.264151,116.349057 L19.2641509,116.349057 C16.2265848,116.349057 13.7641509,113.886623 13.7641509,110.849057 L13.7641509,103 C13.7641509,99.9624339 16.2265848,97.5 19.2641509,97.5 Z M19.2641509,100.5 C17.8834391,100.5 16.7641509,101.619288 16.7641509,103 L16.7641509,110.849057 C16.7641509,112.229768 17.8834391,113.349057 19.2641509,113.349057 L229.264151,113.349057 C230.644863,113.349057 231.764151,112.229768 231.764151,110.849057 L231.764151,103 C231.764151,101.619288 230.644863,100.5 229.264151,100.5 L19.2641509,100.5 Z M184.652516,44.462963 C178.725682,44.462963 173.921034,39.658315 173.921034,33.7314815 C173.921034,27.8046479 178.725682,23 184.652516,23 C190.579349,23 195.383997,27.8046479 195.383997,33.7314815 C195.383997,39.658315 190.579349,44.462963 184.652516,44.462963 Z M184.652516,38.0240741 C187.023249,38.0240741 188.945108,36.1022149 188.945108,33.7314815 C188.945108,31.3607481 187.023249,29.4388889 184.652516,29.4388889 C182.281782,29.4388889 180.359923,31.3607481 180.359923,33.7314815 C180.359923,36.1022149 182.281782,38.0240741 184.652516,38.0240741 Z M231.615479,67.691358 L231.615479,80 C231.615479,80.5522847 231.167763,81 230.615479,81 L225.272886,81 C224.720601,81 224.272886,80.5522847 224.272886,80 L224.272886,74.845679 C224.272886,74.2933943 223.825171,73.845679 223.272886,73.845679 L217.930294,73.845679 C217.378009,73.845679 216.930294,73.3979638 216.930294,72.845679 L216.930294,60.537037 C216.930294,59.9847523 217.378009,59.537037 217.930294,59.537037 L223.272886,59.537037 C223.825171,59.537037 224.272886,59.9847523 224.272886,60.537037 L224.272886,65.691358 C224.272886,66.2436428 224.720601,66.691358 225.272886,66.691358 L230.615479,66.691358 C231.167763,66.691358 231.615479,67.1390733 231.615479,67.691358 Z M154.633997,60.6666667 L154.633997,79.8703704 L135.430294,79.8703704 C135.430294,69.2644577 144.028085,60.6666667 154.633997,60.6666667 Z M186.64408,62.1319548 L196.191959,78.3633502 C196.471979,78.8393834 196.313078,79.4522851 195.837045,79.7323046 C195.683368,79.8227026 195.508318,79.8703704 195.330025,79.8703704 L176.234266,79.8703704 C175.681981,79.8703704 175.234266,79.4226551 175.234266,78.8703704 C175.234266,78.6920776 175.281933,78.5170269 175.372331,78.3633502 L184.920211,62.1319548 C185.200231,61.6559217 185.813132,61.4970213 186.289165,61.7770407 C186.435719,61.8632488 186.557872,61.9854012 186.64408,62.1319548 Z M137.735849,23 L151.198812,23 C153.407951,23 155.198812,24.790861 155.198812,27 L155.198812,40.462963 C155.198812,42.672102 153.407951,44.462963 151.198812,44.462963 L137.735849,44.462963 C135.52671,44.462963 133.735849,42.672102 133.735849,40.462963 L133.735849,27 C133.735849,24.790861 135.52671,23 137.735849,23 Z M213.97659,23 L233.439553,23 C233.991838,23 234.439553,23.4477153 234.439553,24 L234.439553,43.462963 C234.439553,44.0152477 233.991838,44.462963 233.439553,44.462963 L213.97659,44.462963 C213.424305,44.462963 212.97659,44.0152477 212.97659,43.462963 L212.97659,24 C212.97659,23.4477153 213.424305,23 213.97659,23 Z M19.2641509,126.474843 L115.264151,126.474843 C118.301717,126.474843 120.764151,128.937277 120.764151,131.974843 L120.764151,139.823899 C120.764151,142.861465 118.301717,145.323899 115.264151,145.323899 L19.2641509,145.323899 C16.2265848,145.323899 13.7641509,142.861465 13.7641509,139.823899 L13.7641509,131.974843 C13.7641509,128.937277 16.2265848,126.474843 19.2641509,126.474843 Z M19.2641509,129.474843 C17.8834391,129.474843 16.7641509,130.594131 16.7641509,131.974843 L16.7641509,139.823899 C16.7641509,141.204611 17.8834391,142.323899 19.2641509,142.323899 L115.264151,142.323899 C116.644863,142.323899 117.764151,141.204611 117.764151,139.823899 L117.764151,131.974843 C117.764151,130.594131 116.644863,129.474843 115.264151,129.474843 L19.2641509,129.474843 Z M163.235849,126.474843 L199.735849,126.474843 C202.773415,126.474843 205.235849,128.937277 205.235849,131.974843 L205.235849,139.823899 C205.235849,142.861465 202.773415,145.323899 199.735849,145.323899 L163.235849,145.323899 C160.198283,145.323899 157.735849,142.861465 157.735849,139.823899 L157.735849,131.974843 C157.735849,128.937277 160.198283,126.474843 163.235849,126.474843 Z M163.235849,129.474843 C161.855137,129.474843 160.735849,130.594131 160.735849,131.974843 L160.735849,139.823899 C160.735849,141.204611 161.855137,142.323899 163.235849,142.323899 L199.735849,142.323899 C201.116561,142.323899 202.235849,141.204611 202.235849,139.823899 L202.235849,131.974843 C202.235849,130.594131 201.116561,129.474843 199.735849,129.474843 L163.235849,129.474843 Z M136.360849,145.5 C131.114144,145.5 126.860849,141.246705 126.860849,136 C126.860849,130.753295 131.114144,126.5 136.360849,126.5 C141.607554,126.5 145.860849,130.753295 145.860849,136 C145.860849,141.246705 141.607554,145.5 136.360849,145.5 Z M136.360849,142.5 C139.9507,142.5 142.860849,139.589851 142.860849,136 C142.860849,132.410149 139.9507,129.5 136.360849,129.5 C132.770998,129.5 129.860849,132.410149 129.860849,136 C129.860849,139.589851 132.770998,142.5 136.360849,142.5 Z M226.735849,145.5 C221.489144,145.5 217.235849,141.246705 217.235849,136 C217.235849,130.753295 221.489144,126.5 226.735849,126.5 C231.982554,126.5 236.235849,130.753295 236.235849,136 C236.235849,141.246705 231.982554,145.5 226.735849,145.5 Z M226.735849,142.5 C230.3257,142.5 233.235849,139.589851 233.235849,136 C233.235849,132.410149 230.3257,129.5 226.735849,129.5 C223.145998,129.5 220.235849,132.410149 220.235849,136 C220.235849,139.589851 223.145998,142.5 226.735849,142.5 Z M33.0678834,58.4203628 L40.7763627,36.4291869 L42.3529386,36.4291869 L49.8127572,58.4203628 L33.0678834,58.4203628 Z M35.8882452,56.4203628 L47.0223829,56.4203628 L41.5465775,40.2779596 L35.8882452,56.4203628 Z M41.559605,37.4551656 L41.4854915,37.4803063 L41.4854915,38.4291869 L41.6361889,38.4291869 L41.6361889,37.4820102 L41.559605,37.4551656 Z M32.0997247,67.34772 L27.8801987,79.4797695 L13.8232766,79.4797695 L34.9142715,23 L48.4361598,23 L69.2928102,79.4797695 L54.8563321,79.4797695 L50.7875034,67.34772 L32.0997247,67.34772 Z M36.3023175,25 L16.7050253,77.4797695 L26.458286,77.4797695 L30.6778121,65.34772 L52.2262285,65.34772 L56.2950572,77.4797695 L66.4222487,77.4797695 L47.0427042,25 L36.3023175,25 Z M90.3799184,79.3591101 C87.9738708,80.1006522 85.5136954,80.4716981 83.0026141,80.4716981 C81.0537209,80.4716981 79.2286967,80.2306391 77.529639,79.7467319 C75.7965618,79.2531357 74.2702307,78.4803124 72.9585328,77.4287439 C71.6300921,76.3637529 70.5920981,75.018307 69.8498597,73.4036918 C69.107635,71.7891063 68.7412465,69.8927561 68.7412465,67.7211596 C68.7412465,65.32864 69.1643676,63.3244797 70.0281662,61.7161057 C70.8788682,60.1321172 71.9868489,58.8558401 73.348177,57.8992914 C74.675597,56.9665686 76.1876025,56.2693533 77.8790322,55.8071599 C79.496613,55.3651462 81.1272988,55.0140778 82.7709824,54.7540022 C84.3977461,54.4966037 85.999636,54.290615 87.5767007,54.1360645 C89.0865342,53.9881025 90.4190585,53.7672937 91.5729886,53.4751605 C92.6432738,53.2042032 93.4639183,52.8214922 94.0421604,52.3404968 C94.4893349,51.9685265 94.6991409,51.4210307 94.6611924,50.553165 C94.6611924,49.5381898 94.5054395,48.7706005 94.2193484,48.2491196 C93.9255686,47.7136241 93.5452989,47.3092881 93.0698446,47.0204055 C92.5585237,46.7097305 91.9551335,46.499032 91.2523342,46.3911997 C90.4754079,46.2719939 89.6342963,46.2120111 88.7291138,46.2120111 C86.8221649,46.2120111 85.3748797,46.6117202 84.3609273,47.3818081 C83.4033279,48.1090963 82.8187088,49.3777047 82.6419445,51.2572173 L82.5567027,52.1635826 L69.8858214,52.1635826 L69.948576,51.1044361 C70.1090869,48.3954007 70.7871321,46.1158036 71.9952944,44.2806266 C73.1832606,42.4761272 74.7002168,41.0222682 76.5383047,39.9273574 C78.3454302,38.8508902 80.3728124,38.0860328 82.6157417,37.6317702 C84.8158321,37.1861838 87.0297418,36.9633023 89.2565546,36.9633023 C91.2621764,36.9633023 93.2924004,37.1064357 95.3470098,37.3925195 C97.4591523,37.6866143 99.3948491,38.2639313 101.150281,39.1258207 C102.952792,40.0108248 104.435685,41.2483028 105.58698,42.8305467 C106.777035,44.4660607 107.360705,46.5910465 107.360705,49.1797254 L107.360705,69.7050167 C107.360705,71.4452645 107.45876,73.1084793 107.654567,74.6947559 C107.83941,76.1922115 108.153674,77.2833239 108.567953,77.9545585 L109.509298,79.4797695 L96.1431563,79.4797695 L95.9169076,78.7924341 C95.7031254,78.1429714 95.5294673,77.4801304 95.3959554,76.8041236 C95.3891554,76.7696931 95.3824596,76.7352291 95.3758681,76.7007315 C93.8907601,77.9034192 92.2236405,78.7908763 90.3799184,79.3591101 Z M80.7695364,50.1635826 C81.1012731,48.2222757 81.8875374,46.7488904 83.1512746,45.7890933 C84.548492,44.7279192 86.4165156,44.2120111 88.7291138,44.2120111 C89.7327741,44.2120111 90.6748967,44.2791974 91.5556497,44.4143335 C92.5105296,44.5608432 93.363866,44.8588208 94.1083628,45.3111717 C94.8887261,45.7853149 95.5130954,46.449199 95.9728062,47.2871499 C96.4402055,48.1391155 96.6611924,49.2281944 96.6601865,50.5083236 C96.7237092,51.9235083 96.2804999,53.0800778 95.3211586,53.8780804 C94.492885,54.5670579 93.4047154,55.0745304 92.0638308,55.4139937 C90.806591,55.7322811 89.376358,55.9692809 87.7717639,56.1265293 C86.2344009,56.2771891 84.6716779,56.4781413 83.0835485,56.7294268 C81.512339,56.978035 79.953296,57.3136795 78.4062164,57.7364284 C76.9329857,58.1389976 75.632002,58.7389066 74.4980195,59.5357089 C73.397945,60.3086855 72.4966477,61.3468852 71.7901358,62.6623948 C71.0967206,63.9535188 70.7412465,65.6372612 70.7412465,67.7211596 C70.7412465,69.619034 71.0529893,71.2325498 71.6670476,72.5683307 C72.2810922,73.9040819 73.1267964,75.000282 74.2095255,75.8682897 C75.3089974,76.7497198 76.5956555,77.40119 78.0774714,77.8232248 C79.5933068,78.2549485 81.2342873,78.4716981 83.0026141,78.4716981 C85.3138725,78.4716981 87.5755005,78.1305973 89.7908617,77.4478246 C91.9382567,76.785999 93.8007865,75.630763 95.3916408,73.9723949 L96.9409008,72.3573863 L97.1104118,74.588916 C97.1576518,75.2108079 97.2402166,75.8199636 97.3580542,76.4166078 C97.4289228,76.775435 97.5125625,77.1298041 97.6089803,77.4797695 L106.190792,77.4797695 C105.961435,76.7556414 105.789363,75.9097373 105.669632,74.9397722 C105.463577,73.270472 105.360705,71.5255561 105.360705,69.7050167 L105.360705,49.1797254 C105.360705,46.986776 104.889503,45.2712563 103.969786,44.0072722 C103.011307,42.6900181 101.781674,41.6638868 100.268826,40.9211026 C98.7089002,40.1552036 96.9776646,39.6388667 95.0711907,39.3734092 C93.1071838,39.0999408 91.1690837,38.9633023 89.2565546,38.9633023 C87.1633548,38.9633023 85.0824326,39.1727955 83.0127432,39.5919717 C80.9858926,40.0024717 79.1705306,40.6873416 77.5618321,41.6456099 C75.9840961,42.5854345 74.6880631,43.8275595 73.6657903,45.3803736 C72.816772,46.6700173 72.2723529,48.2613573 72.0401632,50.1635826 L80.7695364,50.1635826 Z M94.9921711,58.4320701 L96.6611924,56.9297214 L96.6611924,63.2193299 C96.6611924,63.8769613 96.5954657,64.7289095 96.4652882,65.7835084 C96.3234834,66.9323021 95.9429318,68.0598588 95.3292148,69.1615794 C94.6892429,70.3104317 93.7132523,71.2842388 92.4184817,72.0823335 C91.0840151,72.9048968 89.2757796,73.2992915 86.9960942,73.2992915 C86.080207,73.2992915 85.1889426,73.2172421 84.3230477,73.0528323 C83.3996439,72.877503 82.5781908,72.5655599 81.8650284,72.1141928 C81.1136451,71.6386354 80.5173652,70.9871393 80.0852607,70.1745042 C79.6510966,69.3579959 79.440759,68.3842847 79.440759,67.2633464 C79.440759,66.0929384 79.6498537,65.094732 80.0852607,64.2758863 C80.5053021,63.4859377 81.0663183,62.8256951 81.7629274,62.3042944 C82.4309973,61.8042548 83.2067891,61.4114502 84.0860494,61.1242285 C84.9052456,60.8566276 85.7378083,60.6425073 86.5941312,60.4799743 C87.4671645,60.32396 88.3403209,60.1939297 89.213604,60.0898904 C90.0432226,59.991053 90.834829,59.8677263 91.5883972,59.7200286 C92.3248655,59.5756826 93.0107162,59.3960627 93.6460245,59.1816134 C94.1999955,58.9946196 94.6459051,58.7437571 94.9921711,58.4320701 Z M94.2856696,61.0765683 C93.5646949,61.3199345 92.793819,61.5218218 91.9730735,61.6826861 C91.1694278,61.8401988 90.3284959,61.9712101 89.4502025,62.0758463 C88.6155736,62.1752806 87.7808437,62.2995884 86.9565881,62.4468267 C86.1948414,62.5914617 85.4450977,62.7842824 84.7070801,63.0253653 C84.0291265,63.2468275 83.4486557,63.5407358 82.9613733,63.9054588 C82.5026302,64.2488206 82.1343553,64.6822319 81.8511389,65.2148614 C81.583288,65.7185938 81.440759,66.3990189 81.440759,67.2633464 C81.440759,68.0754067 81.5820451,68.7294595 81.8511389,69.2355292 C82.1222922,69.7454723 82.4804194,70.1367624 82.934621,70.4242308 C83.4270435,70.7358895 84.012085,70.9580564 84.6961277,71.0879375 C85.4376794,71.228738 86.2040694,71.2992915 86.9960942,71.2992915 C88.9359559,71.2992915 90.3927972,70.9815394 91.369035,70.3797879 C92.3849689,69.7535677 93.1168645,69.0233095 93.5820122,68.1882947 C94.0734147,67.3061482 94.3709943,66.4244338 94.4803531,65.5384921 C94.6013392,64.5583555 94.6611924,63.7825397 94.6611924,63.2193299 L94.6611924,60.9379909 C94.5390537,60.9871064 94.413868,61.0332947 94.2856696,61.0765683 Z" id="Shape" fill="url(#linearGradient-1)"></path>
    </g>
</svg>