<?xml version="1.0" encoding="UTF-8"?>
<svg width="250px" height="170px" viewBox="0 0 250 170" version="1.1" xmlns="http://www.w3.org/2000/svg" xmlns:xlink="http://www.w3.org/1999/xlink">
    <!-- Generator: Sketch 55.2 (78181) - https://sketchapp.com -->
    <title>lsb-guide-thumb/intro</title>
    <desc>Created with Sketch.</desc>
    <g id="lsb-guide-thumb/intro" stroke="none" stroke-width="1" fill="none" fill-rule="evenodd">
        <path d="M7.78634061,75.1544875 L72.8779274,37.5738423 C74.7910979,36.4692728 77.2374595,37.1247734 78.342029,39.0379439 L127.237407,123.727224 C128.341977,125.640394 127.686476,128.086756 125.773306,129.191325 L60.681719,166.77197 C58.7685485,167.87654 56.3221869,167.221039 55.2176174,165.307869 L6.322239,80.6185891 C5.2176695,78.7054186 5.87317012,76.259057 7.78634061,75.1544875 Z" id="Rectangle-61-Copy-2" fill="#FFFFFF" opacity="0.100000001"></path>
        <path d="M26.7146532,42.7283394 L99.643332,24.5451776 C101.78685,24.0107385 103.957763,25.3151548 104.492202,27.4586729 L128.149928,122.344626 C128.684367,124.488144 127.379951,126.659058 125.236432,127.193497 L52.3077536,145.376659 C50.1642355,145.911098 47.9933223,144.606681 47.4588832,142.463163 L23.8011579,47.5772099 C23.2667188,45.4336918 24.5711351,43.2627785 26.7146532,42.7283394 Z" id="Rectangle-61-Copy" fill="#FFFFFF" opacity="0.200000003"></path>
        <path d="M49.5896867,19.8912066 L124.750977,19.8912066 C126.960116,19.8912066 128.750977,21.6820676 128.750977,23.8912066 L128.750977,121.681963 C128.750977,123.891102 126.960116,125.681963 124.750977,125.681963 L49.5896867,125.681963 C47.3805477,125.681963 45.5896867,123.891102 45.5896867,121.681963 L45.5896867,23.8912066 C45.5896867,21.6820676 47.3805477,19.8912066 49.5896867,19.8912066 Z" id="Rectangle-61" fill="#FFFFFF" opacity="0.300000012"></path>
        <path d="M79.5559542,1.96693147 C100.01816,5.12509633 114.2839,7.81138541 122.353174,10.0257987 C130.885161,12.3671922 140.880769,16.3861214 152.339997,22.0825865 L128.817892,125.681963 C112.854623,119.111447 100.437827,114.563564 91.5675039,112.038314 C83.3839789,109.708586 70.8399159,107.205434 53.9353147,104.52886 C51.7533584,104.18338 50.2645983,102.134489 50.6100764,99.9525324 C50.6299096,99.8272706 50.6556888,99.703023 50.6873267,99.5802105 L75.0722784,4.92225832 C75.5851905,2.93122712 77.5239779,1.65331346 79.5559542,1.96693147 Z" id="Rectangle" fill="#FFFFFF" opacity="0.900000036"></path>
        <path d="M152.071671,22.3137209 C160.27409,21.3226596 171.142403,21.3226596 184.676613,22.3137209 C197.096428,23.223179 211.151067,24.9225337 226.840533,27.411785 C229.02238,27.757953 230.510494,29.8073136 230.164328,31.9891614 C230.148305,32.0901479 230.128417,32.190483 230.104706,32.2899454 L206.761012,130.211447 C206.252903,132.34285 204.124567,133.668758 201.987442,133.185279 C189.512475,130.363082 177.624116,128.353092 166.322363,127.155307 C153.862999,125.834836 141.339203,125.41909 128.750977,125.908069 L152.071671,22.3137209 Z" id="Rectangle-Copy" fill="#FFFFFF"></path>
    </g>
</svg>