<?xml version="1.0" encoding="UTF-8"?>
<svg width="250px" height="170px" viewBox="0 0 250 170" version="1.1" xmlns="http://www.w3.org/2000/svg" xmlns:xlink="http://www.w3.org/1999/xlink">
    <!-- Generator: Sketch 55.2 (78181) - https://sketchapp.com -->
    <title>lsb-guide-thumb/master</title>
    <desc>Created with Sketch.</desc>
    <g id="lsb-guide-thumb/master" stroke="none" stroke-width="1" fill="none" fill-rule="evenodd">
        <path d="M125.658666,160.997205 C125.633797,161 125.608675,161 125.583333,161 L124.416667,161 C124.391325,161 124.366203,161 124.341334,160.997205 C105.766456,160.83952 88.7810563,154.01827 75.6589147,142.807237 L75.6589147,160 C75.6589147,160.552285 75.2111995,161 74.6589147,161 L73.4922481,161 C72.9399633,161 72.4922481,160.552285 72.4922481,160 L72.4922481,140.011628 L50,140.011628 C49.4477153,140.011628 49,139.563913 49,139.011628 L49,137.844961 C49,137.292676 49.4477153,136.844961 50,136.844961 L69.4289359,136.844961 C56.8945938,123.415555 49.1707077,105.438284 49.0027948,85.6586655 C49,85.6337971 49,85.6086753 49,85.5833333 L49,84.4166667 C49,84.3913247 49,84.3662029 49.0027948,84.3413345 C49.1601857,65.8011852 55.9562457,48.8445766 67.1299253,35.7325581 L50,35.7325581 C49.4477153,35.7325581 49,35.2848429 49,34.7325581 L49,33.5658915 C49,33.0136067 49.4477153,32.5658915 50,32.5658915 L69.9846838,32.5658915 C70.800998,31.7096481 71.6370972,30.8724354 72.4922481,30.0549866 L72.4922481,10 C72.4922481,9.44771525 72.9399633,9 73.4922481,9 L74.6589147,9 C75.2111995,9 75.6589147,9.44771525 75.6589147,10 L75.6589147,27.1927627 C88.7810563,15.9817296 105.766456,9.16048048 124.341334,9.00279483 C124.366203,9 124.391325,9 124.416667,9 L125.583333,9 C125.608675,9 125.633797,9 125.658666,9.00279483 C144.164124,9.15989115 161.091962,15.9308362 174.193798,27.0672489 L174.193798,10 C174.193798,9.44771525 174.641514,9 175.193798,9 L176.360465,9 C176.91275,9 177.360465,9.44771525 177.360465,10 L177.360465,29.914568 C178.266957,30.776489 179.152196,31.6605525 180.015316,32.5658915 L200,32.5658915 C200.552285,32.5658915 201,33.0136067 201,33.5658915 L201,34.7325581 C201,35.2848429 200.552285,35.7325581 200,35.7325581 L182.870075,35.7325581 C194.043754,48.8445766 200.839814,65.8011852 200.997205,84.3413345 C201,84.3662029 201,84.3913247 201,84.4166667 L201,85.5833333 C201,85.6086753 201,85.6337971 200.997205,85.6586655 C200.829292,105.438284 193.105406,123.415555 180.571064,136.844961 L200,136.844961 C200.552285,136.844961 201,137.292676 201,137.844961 L201,139.011628 C201,139.563913 200.552285,140.011628 200,140.011628 L177.437977,140.011628 C177.412157,140.036247 177.38632,140.060849 177.360465,140.085432 L177.360465,160 C177.360465,160.552285 176.91275,161 176.360465,161 L175.193798,161 C174.641514,161 174.193798,160.552285 174.193798,160 L174.193798,142.932751 C161.091962,154.069164 144.164124,160.840109 125.658666,160.997205 L125.658666,160.997205 Z M123.416667,157.448161 L123.416667,140.011628 L77.8290105,140.011628 C90.1329768,150.571748 106.020178,157.075241 123.416667,157.448161 L123.416667,157.448161 Z M72.4922481,134.941462 L72.4922481,86.5833333 L52.5518392,86.5833333 C52.9533986,105.315863 60.4633412,122.298379 72.4922481,134.941462 L72.4922481,134.941462 Z M52.5518392,83.4166667 L72.4922481,83.4166667 L72.4922481,35.7325581 L71.859066,35.7325581 C60.2002518,48.3021162 52.9463056,65.015023 52.5518392,83.4166667 L52.5518392,83.4166667 Z M75.6589147,31.9274679 L75.6589147,32.5658915 L123.416667,32.5658915 L123.416667,12.5518392 C104.979062,12.9470764 88.2368014,20.2286295 75.6589147,31.9274679 L75.6589147,31.9274679 Z M126.583333,12.5518392 L126.583333,32.5658915 L174.193798,32.5658915 L174.193798,31.7908527 C161.63264,20.1719628 144.949062,12.9455357 126.583333,12.5518392 L126.583333,12.5518392 Z M178.140934,35.7325581 L177.360465,35.7325581 L177.360465,83.4166667 L197.448161,83.4166667 C197.053694,65.015023 189.799748,48.3021162 178.140934,35.7325581 L178.140934,35.7325581 Z M197.448161,86.5833333 L177.360465,86.5833333 L177.360465,135.095816 C189.475331,122.436765 197.044965,105.392203 197.448161,86.5833333 L197.448161,86.5833333 Z M172.170989,140.011628 L126.583333,140.011628 L126.583333,157.448161 C143.979822,157.075241 159.867023,150.571748 172.170989,140.011628 L172.170989,140.011628 Z M174.193798,35.7325581 L126.583333,35.7325581 L126.583333,83.4166667 L174.193798,83.4166667 L174.193798,35.7325581 Z M174.193798,86.5833333 L126.583333,86.5833333 L126.583333,136.844961 L174.193798,136.844961 L174.193798,86.5833333 Z M123.416667,136.844961 L123.416667,86.5833333 L75.6589147,86.5833333 L75.6589147,136.844961 L123.416667,136.844961 L123.416667,136.844961 Z M123.416667,83.4166667 L123.416667,35.7325581 L75.6589147,35.7325581 L75.6589147,83.4166667 L123.416667,83.4166667 L123.416667,83.4166667 Z" id="Shape" fill="#FFFFFF" fill-rule="nonzero" opacity="0.300000012"></path>
        <path d="M110.308094,100.444527 L84.8750531,75.0114858 C83.3129559,73.4493886 83.3129559,70.9167287 84.8750531,69.3546315 L138.096258,16.1334265 C139.658355,14.5713294 142.191015,14.5713294 143.753112,16.1334265 L166.357726,38.7380407 C167.919824,40.3001379 167.919824,42.8327978 166.357726,44.394895 L110.308094,100.444527 Z" id="Combined-Shape-Copy-5" fill="#FFFFFF" opacity="0.900000036"></path>
        <path d="M139.747124,71.0054975 L165.180165,96.4385388 C166.742262,98.0006359 166.742262,100.533296 165.180165,102.095393 L111.95896,155.316598 C110.396863,156.878695 107.864203,156.878695 106.302106,155.316598 L83.6974919,132.711984 C82.1353947,131.149887 82.1353947,128.617227 83.6974919,127.05513 L139.747124,71.0054975 Z" id="Combined-Shape-Copy-6" fill="#FFFFFF"></path>
    </g>
</svg>