<?xml version="1.0" encoding="UTF-8"?>
<svg width="250px" height="170px" viewBox="0 0 250 170" version="1.1" xmlns="http://www.w3.org/2000/svg" xmlns:xlink="http://www.w3.org/1999/xlink">
    <!-- Generator: Sketch 55.2 (78181) - https://sketchapp.com -->
    <title>lsb-guide-thumb/production</title>
    <desc>Created with Sketch.</desc>
    <defs>
        <linearGradient x1="2.96069232%" y1="50%" x2="98.8595873%" y2="50%" id="linearGradient-1">
            <stop stop-color="#FFFFFF" stop-opacity="0.4" offset="0%"></stop>
            <stop stop-color="#FFFFFF" offset="100%"></stop>
        </linearGradient>
        <path d="M229.235705,46.4699474 L7.85368555,127.046413 C7.0752187,127.329752 6.21445517,126.928371 5.93111641,126.149904 C5.64777764,125.371437 6.04915827,124.510674 6.82762512,124.227335 L228.209645,43.6508696 L226.697759,39.4969985 C226.508867,38.9780206 226.776454,38.4041783 227.295432,38.2152858 C227.462972,38.1549782 227.643769,38.1392282 227.819096,38.1716141 L239.944027,40.4112962 C240.487124,40.5116155 240.846067,41.0332076 240.745747,41.5763047 C240.714862,41.743505 240.641855,41.9000692 240.533625,42.0312026 L232.685029,51.540654 C232.333476,51.9665992 231.70319,52.0269063 231.277245,51.6753538 C231.139738,51.5618629 231.035074,51.4136724 230.974094,51.246132 L229.235705,46.4699474 Z" id="path-2"></path>
        <filter x="-3.0%" y="-5.6%" width="106.0%" height="115.7%" filterUnits="objectBoundingBox" id="filter-3">
            <feOffset dx="0" dy="2" in="SourceAlpha" result="shadowOffsetOuter1"></feOffset>
            <feGaussianBlur stdDeviation="2" in="shadowOffsetOuter1" result="shadowBlurOuter1"></feGaussianBlur>
            <feColorMatrix values="0 0 0 0 0   0 0 0 0 0   0 0 0 0 0  0 0 0 0.05 0" type="matrix" in="shadowBlurOuter1"></feColorMatrix>
        </filter>
    </defs>
    <g id="lsb-guide-thumb/production" stroke="none" stroke-width="1" fill="none" fill-rule="evenodd">
        <path d="M228.659538,116.013951 L236.659538,116.013951 C238.868677,116.013951 240.659538,117.804812 240.659538,120.013951 L240.659538,128.013951 C240.659538,130.22309 238.868677,132.013951 236.659538,132.013951 L228.659538,132.013951 C226.450399,132.013951 224.659538,130.22309 224.659538,128.013951 L224.659538,120.013951 C224.659538,117.804812 226.450399,116.013951 228.659538,116.013951 Z M177.159538,17.5139511 L177.159538,33.5139511 L161.159538,33.5139511 C161.159538,24.6773951 168.322982,17.5139511 177.159538,17.5139511 Z M52.1595381,124.680618 L52.1595381,114.013951 C52.1595381,113.461666 52.6072534,113.013951 53.1595381,113.013951 L57.6595381,113.013951 C58.2118229,113.013951 58.6595381,113.461666 58.6595381,114.013951 L58.6595381,131.013951 C58.6595381,131.566236 58.2118229,132.013951 57.6595381,132.013951 L46.6595381,132.013951 C46.1072534,132.013951 45.6595381,131.566236 45.6595381,131.013951 L45.6595381,126.680618 C45.6595381,126.128333 46.1072534,125.680618 46.6595381,125.680618 L51.1595381,125.680618 C51.7118229,125.680618 52.1595381,125.232903 52.1595381,124.680618 Z M25.4928715,41.0139511 L25.4928715,45.5139511 C25.4928715,46.0662359 25.0451562,46.5139511 24.4928715,46.5139511 L19.8262048,46.5139511 C19.27392,46.5139511 18.8262048,46.0662359 18.8262048,45.5139511 L18.8262048,41.0139511 C18.8262048,40.4616664 18.3784895,40.0139511 17.8262048,40.0139511 L13.1595381,40.0139511 C12.6072534,40.0139511 12.1595381,39.5662359 12.1595381,39.0139511 L12.1595381,34.5139511 C12.1595381,33.9616664 12.6072534,33.5139511 13.1595381,33.5139511 L31.1595381,33.5139511 C31.7118229,33.5139511 32.1595381,33.9616664 32.1595381,34.5139511 L32.1595381,39.0139511 C32.1595381,39.5662359 31.7118229,40.0139511 31.1595381,40.0139511 L26.4928715,40.0139511 C25.9405867,40.0139511 25.4928715,40.4616664 25.4928715,41.0139511 Z M170.021472,89.9792393 L178.273056,104.006931 C178.553075,104.482964 178.394175,105.095866 177.918142,105.375885 C177.764465,105.466283 177.589414,105.513951 177.411121,105.513951 L160.907955,105.513951 C160.35567,105.513951 159.907955,105.066236 159.907955,104.513951 C159.907955,104.335658 159.955623,104.160608 160.046021,104.006931 L168.297604,89.9792393 C168.577623,89.5032062 169.190525,89.3443057 169.666558,89.6243252 C169.813112,89.7105332 169.935264,89.8326856 170.021472,89.9792393 Z M105.159538,65.0139511 C100.74126,65.0139511 97.1595381,61.4322291 97.1595381,57.0139511 C97.1595381,52.5956731 100.74126,49.0139511 105.159538,49.0139511 C109.577816,49.0139511 113.159538,52.5956731 113.159538,57.0139511 C113.159538,61.4322291 109.577816,65.0139511 105.159538,65.0139511 Z M105.159538,60.2139511 C106.926849,60.2139511 108.359538,58.7812623 108.359538,57.0139511 C108.359538,55.2466399 106.926849,53.8139511 105.159538,53.8139511 C103.392227,53.8139511 101.959538,55.2466399 101.959538,57.0139511 C101.959538,58.7812623 103.392227,60.2139511 105.159538,60.2139511 Z" id="Shape" fill="#FFFFFF" opacity="0.300000012"></path>
        <path d="M12.2676076,106.781697 C13.4961938,106.23688 14.7156686,105.699286 15.9260314,105.168916 C16.6848084,104.836427 17.0303831,103.951781 16.697894,103.193004 C16.365405,102.434227 15.4807591,102.088653 14.7219821,102.421142 C13.5075684,102.953287 12.2840641,103.492657 11.0514687,104.039252 C10.2941633,104.375079 9.95248799,105.261238 10.2883155,106.018544 C10.624143,106.775849 11.5103022,107.117524 12.2676076,106.781697 Z M25.0883393,101.218254 C26.3268286,100.693259 27.5549872,100.176451 28.7728147,99.66783 C29.5372506,99.3485665 29.8981342,98.4700545 29.5788707,97.7056186 C29.2596073,96.9411826 28.3810953,96.580299 27.6166593,96.8995625 C26.3939054,97.4102406 25.1608497,97.9291093 23.9174915,98.4561688 C23.1547627,98.7794895 22.798552,99.6599066 23.1218727,100.422635 C23.4451934,101.185364 24.3256105,101.541575 25.0883393,101.218254 Z M38.0012234,95.891105 C39.2488012,95.3914882 40.4845114,94.9012723 41.7083527,94.4204576 C42.4794082,94.1175304 42.8589012,93.2468954 42.555974,92.4758399 C42.2530468,91.7047844 41.3824118,91.3252914 40.6113563,91.6282186 C39.3813726,92.1114465 38.1395623,92.6040823 36.8859243,93.1061261 C36.1168736,93.4141074 35.743103,94.2872144 36.0510844,95.0562651 C36.3590657,95.8253158 37.2321727,96.1990864 38.0012234,95.891105 Z M51.023956,90.8569083 C52.2870335,90.3874874 53.5360732,89.9291781 54.7710729,89.4819804 C55.5500061,89.1999261 55.9528059,88.3398258 55.6707516,87.5608926 C55.3886972,86.7819595 54.5285969,86.3791596 53.7496638,86.661214 C52.5067029,87.1112944 51.2497666,87.5725012 49.9788528,88.0448345 C49.20232,88.3334318 48.8067702,89.1968903 49.0953675,89.9734231 C49.3839648,90.7499558 50.2474233,91.1455056 51.023956,90.8569083 Z M64.1717683,86.201607 C65.4491754,85.7737186 66.7095733,85.3592768 67.9529579,84.9582812 C68.741397,84.7040071 69.1744232,83.8587211 68.9201491,83.070282 C68.665875,82.2818429 67.8205889,81.8488167 67.0321498,82.1030908 C65.7779777,82.5075653 64.5068975,82.9255197 63.2189052,83.3569538 C62.4333759,83.6200796 62.0098843,84.4701826 62.2730102,85.2557119 C62.536136,86.0412412 63.386239,86.4647329 64.1717683,86.201607 Z M77.480848,82.05322 C78.779836,81.6818081 80.0571737,81.3274718 81.3128524,80.9902097 C82.1129233,80.775319 82.5873057,79.95253 82.372415,79.1524591 C82.1575243,78.3523882 81.3347353,77.8780058 80.5346644,78.0928965 C79.2632892,78.4343746 77.9704458,78.7930122 76.6561254,79.168808 C75.859617,79.3965488 75.3985398,80.2268669 75.6262807,81.0233753 C75.8540216,81.8198837 76.6843397,82.2809608 77.480848,82.05322 Z M90.9602851,78.6424807 C92.2845326,78.357047 93.5793571,78.0947059 94.844736,77.8554497 C95.6587402,77.7015388 96.1938516,76.9168885 96.0399408,76.1028843 C95.8860299,75.28888 95.1013796,74.7537686 94.2873754,74.9076795 C92.9966961,75.1517194 91.6769685,75.4191061 90.3281699,75.7098317 C89.5183412,75.8843855 89.0033492,76.6823851 89.177903,77.4922138 C89.3524568,78.3020425 90.1504564,78.8170345 90.9602851,78.6424807 Z M104.597394,76.4070427 C105.947749,76.2692785 107.253479,76.166105 108.51451,76.0974687 C109.341712,76.0524451 109.975794,75.345366 109.93077,74.5181632 C109.885747,73.6909605 109.178668,73.056879 108.351465,73.1019026 C107.04235,73.173156 105.689523,73.280051 104.292912,73.4225342 C103.468763,73.5066145 102.868818,74.24288 102.952899,75.0670293 C103.036979,75.8911786 103.773245,76.491123 104.597394,76.4070427 Z M118.243504,76.3560918 C119.578833,76.5273065 120.832737,76.7591795 122.005165,77.0511766 C122.809036,77.2513835 123.623002,76.7620169 123.823209,75.9581458 C124.023416,75.1542747 123.534049,74.3403088 122.730178,74.1401019 C121.441604,73.8191781 120.073242,73.5661396 118.625038,73.3804521 C117.803338,73.2750944 117.051809,73.8558047 116.946452,74.6775049 C116.841094,75.4992051 117.421804,76.2507341 118.243504,76.3560918 Z M130.253325,81.1893356 C130.570646,81.4831526 130.87147,81.7895072 131.155932,82.1084893 C131.690719,82.709784 132.174788,83.3342851 132.619042,83.9943979 C133.081579,84.681676 134.013688,84.8638649 134.700966,84.4013281 C135.388244,83.9387913 135.570433,83.0066821 135.107897,82.319404 C134.588633,81.5478363 134.02201,80.8168309 133.396269,80.1132734 C133.046688,79.7212686 132.678846,79.346663 132.291552,78.9880564 C131.683686,78.4252155 130.73464,78.4617159 130.171799,79.0695824 C129.608958,79.6774488 129.645458,80.6264947 130.253325,81.1893356 Z M135.854927,92.7056832 C136.03539,93.9274356 136.13268,95.1923447 136.14707,96.4910629 C136.156249,97.3194392 136.835221,97.98353 137.663598,97.9743513 C138.491974,97.9651726 139.156065,97.2862002 139.146886,96.4578239 C139.131016,95.025532 139.023323,93.6253764 138.822726,92.2673145 C138.701674,91.4477793 137.939177,90.881547 137.119642,91.0025992 C136.300107,91.1236513 135.733875,91.886148 135.854927,92.7056832 Z M134.896771,105.99741 C134.569123,107.2306 134.179713,108.460545 133.731611,109.677966 C133.445456,110.455402 133.843718,111.317613 134.621154,111.603768 C135.39859,111.889923 136.260801,111.491661 136.546956,110.714225 C137.027038,109.409921 137.444534,108.091264 137.796179,106.767759 C138.008905,105.967109 137.532299,105.145607 136.731649,104.932881 C135.931,104.720155 135.109497,105.196761 134.896771,105.99741 Z M129.378485,118.335574 C128.66708,119.421085 127.91084,120.463596 127.114601,121.455576 C126.596033,122.101625 126.699377,123.045733 127.345426,123.564301 C127.991474,124.082869 128.935583,123.979525 129.45415,123.333476 C130.311073,122.265894 131.123852,121.145442 131.887647,119.97999 C132.34174,119.287104 132.14816,118.357294 131.455274,117.903201 C130.762388,117.449108 129.832578,117.642688 129.378485,118.335574 Z M120.211792,128.015568 C119.155962,128.757025 118.072611,129.41358 116.96695,129.980473 C116.229771,130.358439 115.938571,131.262443 116.316537,131.999622 C116.694503,132.736802 117.598507,133.028002 118.335686,132.650036 C119.566298,132.019077 120.76817,131.290694 121.935885,130.470665 C122.613841,129.99457 122.777482,129.059026 122.301387,128.38107 C121.825292,127.703113 120.889748,127.539472 120.211792,128.015568 Z M107.883103,132.512957 C106.646041,132.582636 105.399524,132.544265 104.146163,132.395418 C103.323517,132.297722 102.577431,132.88541 102.479735,133.708056 C102.382039,134.530702 102.969727,135.276787 103.792373,135.374484 C105.219294,135.543943 106.640642,135.587695 108.051812,135.50821 C108.878929,135.461622 109.511672,134.753345 109.465084,133.926229 C109.418496,133.099113 108.710219,132.466369 107.883103,132.512957 Z M95.2157432,129.475806 C94.1278089,128.891681 93.0406793,128.223214 91.9556046,127.469347 C91.2752603,126.99667 90.3405522,127.165018 89.8678756,127.845362 C89.395199,128.525707 89.5635469,129.460415 90.2438912,129.933091 C91.4219275,130.751545 92.6066153,131.48 93.7966208,132.118927 C94.5264987,132.510807 95.435863,132.236806 95.8277428,131.506928 C96.2196226,130.77705 95.9456211,129.867686 95.2157432,129.475806 Z M84.7206726,121.117205 C83.8199582,120.154518 83.0151182,119.176267 82.3048868,118.183209 C81.8229669,117.509381 80.8860477,117.353808 80.2122193,117.835728 C79.538391,118.317648 79.3828184,119.254567 79.8647383,119.928396 C80.6525462,121.029922 81.540853,122.109624 82.5300128,123.166842 C83.0960043,123.771776 84.0452269,123.803345 84.6501609,123.237353 C85.2550949,122.671362 85.2866641,121.722139 84.7206726,121.117205 Z M78.5612704,109.649893 C78.3350981,108.434039 78.2257568,107.199527 78.2317059,105.946677 C78.2356397,105.118259 77.5672633,104.443505 76.7388455,104.439554 C75.9104277,104.435637 75.2356735,105.104014 75.2317397,105.932431 C75.2248999,107.372852 75.3509328,108.795819 75.6118658,110.198539 C75.7633703,111.012995 76.5464356,111.550423 77.3608912,111.398918 C78.1753468,111.247414 78.7127748,110.464348 78.5612704,109.649893 Z M80.1965877,96.7455112 C80.6643265,95.5993955 81.2143147,94.4430784 81.845119,93.2781168 C82.2395802,92.5496308 81.9687996,91.6393022 81.2403136,91.244841 C80.5118275,90.8503799 79.601499,91.1211605 79.2070378,91.8496465 C78.5253709,93.1085406 77.9286719,94.3630644 77.4189909,95.6119521 C77.1059672,96.3789642 77.4739976,97.2545063 78.2410097,97.56753 C79.0080219,97.8805537 79.883564,97.5125234 80.1965877,96.7455112 Z M87.3424413,85.2678213 C88.1525848,84.2882037 89.0133447,83.3071397 89.9232748,82.3257808 C90.4865361,81.7183038 90.4506922,80.769233 89.8432153,80.2059717 C89.2357384,79.6427104 88.2866676,79.6785542 87.7234063,80.2860312 C86.7755125,81.308334 85.8774083,82.3319616 85.0305924,83.3559231 C84.5026363,83.9943225 84.5921683,84.9398405 85.2305678,85.4677966 C85.8689672,85.9957527 86.8144852,85.9062207 87.3424413,85.2678213 Z M96.9970225,75.5359637 C97.9745336,74.6908378 98.9849263,73.8488272 100.026815,73.0108543 C100.672357,72.491656 100.774779,71.5474473 100.255581,70.9019052 C99.7363823,70.2563631 98.7921737,70.1539412 98.1466316,70.6731395 C97.0773275,71.5331622 96.0396379,72.3979207 95.0349508,73.2665421 C94.4082673,73.8083532 94.3394647,74.7556053 94.8812758,75.3822887 C95.423087,76.0089722 96.3703391,76.0777748 96.9970225,75.5359637 Z M108.00499,67.0934809 C109.081718,66.3540277 110.180245,65.620818 111.29916,64.8946704 C111.994074,64.443688 112.191821,63.5147549 111.740838,62.8198402 C111.289856,62.1249256 110.360923,61.9271794 109.666008,62.3781618 C108.52532,63.1184397 107.405062,63.8661536 106.306647,64.6205007 C105.623753,65.0894851 105.450344,66.0232676 105.919329,66.7061623 C106.388313,67.3890569 107.322096,67.5624654 108.00499,67.0934809 Z M119.817943,59.7260842 C120.96176,59.0767465 122.119164,58.4364263 123.288658,57.8058829 C124.017851,57.4127314 124.290267,56.5028908 123.897116,55.7736972 C123.503964,55.0445036 122.594124,54.7720876 121.86493,55.1652392 C120.676277,55.8061124 119.49976,56.4570069 118.336878,57.1171672 C117.616446,57.5261518 117.363967,58.4417254 117.772952,59.1621579 C118.181936,59.8825905 119.09751,60.1350688 119.817943,59.7260842 Z M132.09771,53.3503584 C133.292769,52.7841675 134.494298,52.2299358 135.70068,51.688378 C136.456448,51.3491054 136.794085,50.4613994 136.454812,49.7056312 C136.11554,48.949863 135.227834,48.6122265 134.472065,48.9514991 C133.24699,49.5014489 132.026844,50.0642682 130.813247,50.6392414 C130.064593,50.9939361 129.745225,51.8883771 130.09992,52.6370314 C130.454615,53.3856856 131.349056,53.705053 132.09771,53.3503584 Z M144.838211,47.8662364 C146.077803,47.3853346 147.316541,46.9200171 148.552648,46.4709532 C149.331285,46.188083 149.733184,45.3275612 149.450314,44.548924 C149.167443,43.7702867 148.306922,43.3683881 147.528284,43.6512583 C146.271806,44.1077227 145.012836,44.5806403 143.75315,45.0693379 C142.980807,45.3689693 142.5976,46.2379757 142.897231,47.0103179 C143.196863,47.7826601 144.065869,48.1658679 144.838211,47.8662364 Z M157.959221,43.3544872 C159.239621,42.9722648 160.510236,42.6106519 161.76908,42.2702597 C162.568787,42.0540184 163.041779,41.2304295 162.825537,40.4307226 C162.609296,39.6310157 161.785707,39.1580234 160.986,39.3742648 C159.701876,39.721493 158.406246,40.0902249 157.101087,40.4798384 C156.307275,40.7168057 155.855862,41.5524177 156.09283,42.34623 C156.329797,43.1400423 157.165409,43.5914545 157.959221,43.3544872 Z M171.428172,40.034601 C172.74805,39.7841706 174.044798,39.5625021 175.316069,39.3701215 C176.13517,39.2461675 176.698699,38.4816701 176.574745,37.6625689 C176.450791,36.8434676 175.686293,36.2799394 174.867192,36.4038934 C173.558559,36.6019279 172.225044,36.8298816 170.868937,37.0871859 C170.05503,37.2416144 169.520418,38.0266048 169.674846,38.840511 C169.829275,39.6544172 170.614265,40.1890295 171.428172,40.034601 Z M185.114208,38.4598351 C186.462892,38.4252815 187.762165,38.4357032 189.008861,38.4913852 C189.836463,38.5283489 190.537332,37.8874099 190.574296,37.0598078 C190.611259,36.2322057 189.97032,35.5313367 189.142718,35.494373 C187.824288,35.4354871 186.454866,35.4245027 185.037372,35.4608192 C184.209217,35.4820367 183.555065,36.1705895 183.576282,36.9987449 C183.5975,37.8269002 184.286052,38.4810526 185.114208,38.4598351 Z M198.257775,40.3938283 C199.403904,40.8893128 200.500484,41.4824273 201.547894,42.1712272 C202.240063,42.6264127 203.170178,42.4342998 203.625363,41.742131 C204.080549,41.0499622 203.888436,40.1198478 203.196267,39.6646623 C202.004435,38.880887 200.754732,38.2049524 199.448226,37.6401355 C198.687815,37.3114013 197.804888,37.6613447 197.476154,38.421756 C197.14742,39.1821673 197.497363,40.0650941 198.257775,40.3938283 Z M208.242117,48.7610028 C208.963406,49.7727002 209.643827,50.854495 210.282793,52.0036266 C210.685382,52.7276523 211.598684,52.9882281 212.32271,52.5856388 C213.046736,52.1830495 213.307312,51.2697475 212.904722,50.5457217 C212.212287,49.3004306 211.472304,48.1239381 210.684861,47.0194508 C210.203945,46.3449058 209.267258,46.1879386 208.592713,46.6688549 C207.918168,47.1497712 207.761201,48.0864577 208.242117,48.7610028 Z M214.038596,61.0117148 C214.412397,62.2302401 214.754254,63.4883863 215.063909,64.7831811 C215.256597,65.5888876 216.065956,66.0858374 216.871662,65.8931496 C217.677369,65.7004618 218.174318,64.8911033 217.981631,64.0853968 C217.657543,62.7302551 217.299199,61.4114316 216.90668,60.1318873 C216.663722,59.3398879 215.824724,58.8948016 215.032725,59.1377593 C214.240725,59.3807169 213.795639,60.2197154 214.038596,61.0117148 Z M216.703054,74.4222526 C216.842826,75.7104572 216.956037,77.0181258 217.042711,78.3420201 C217.096832,79.1686775 217.810843,79.7949424 218.6375,79.740822 C219.464158,79.6867015 220.090423,78.9726899 220.036302,78.1460325 C219.946862,76.7798854 219.829968,75.4296791 219.685549,74.0986473 C219.596188,73.2750539 218.856092,72.679841 218.032499,72.7692022 C217.208905,72.8585633 216.613692,73.5986592 216.703054,74.4222526 Z M217.204998,88.2083834 C217.165022,89.5203386 217.101177,90.8352591 217.013825,92.1493335 C216.958877,92.9759364 217.584427,93.6905743 218.41103,93.7455221 C219.237632,93.8004698 219.95227,93.1749198 220.007218,92.348317 C220.096946,90.9985019 220.162533,89.6477055 220.203606,88.299753 C220.228837,87.4717102 219.578029,86.7799951 218.749987,86.7547641 C217.921944,86.729533 217.230229,87.3803406 217.204998,88.2083834 Z M215.915385,101.978442 C215.707892,103.289681 215.477548,104.584803 215.225256,105.859137 C215.064368,106.671791 215.592728,107.461003 216.405382,107.621891 C217.218036,107.78278 218.007248,107.254419 218.168136,106.441765 C218.427943,105.129473 218.665031,103.796434 218.878515,102.447334 C219.007996,101.629088 218.449642,100.860803 217.631396,100.731323 C216.81315,100.601842 216.044866,101.160196 215.915385,101.978442 Z M212.798271,115.388307 C212.38936,116.669574 211.957234,117.902378 211.503897,119.080679 C211.206427,119.853856 211.592064,120.721788 212.365241,121.019258 C213.138418,121.316728 214.006349,120.931091 214.303819,120.157914 C214.778468,118.92422 215.229881,117.636394 215.656252,116.300419 C215.908124,115.51121 215.472527,114.667246 214.683318,114.415373 C213.894108,114.1635 213.050144,114.599098 212.798271,115.388307 Z M207.16743,127.672977 C206.405912,128.791879 205.622545,129.76671 204.824356,130.588624 C204.24721,131.182925 204.261117,132.132571 204.855419,132.709717 C205.44972,133.286863 206.399365,133.272956 206.976511,132.678655 C207.900874,131.726817 208.792228,130.617605 209.647524,129.360914 C210.113635,128.676055 209.936305,127.743009 209.251446,127.276898 C208.566587,126.810787 207.633541,126.988118 207.16743,127.672977 Z M197.209297,133.598187 C196.195557,133.375069 195.153906,132.907042 194.086555,132.178492 C193.402327,131.711454 192.469043,131.887521 192.002005,132.571749 C191.534967,133.255976 191.711034,134.189261 192.395261,134.656299 C193.768125,135.593384 195.160786,136.219125 196.564448,136.528063 C197.373511,136.706133 198.17374,136.194612 198.35181,135.385549 C198.52988,134.576486 198.018359,133.776257 197.209297,133.598187 Z M187.764641,125.326677 C187.142969,124.195559 186.773994,123.114574 186.646875,122.080882 C186.545759,121.258649 185.797238,120.674067 184.975005,120.775182 C184.152771,120.876298 183.56819,121.624819 183.669305,122.447052 C183.845179,123.877193 184.337543,125.319669 185.135557,126.771641 C185.534573,127.497642 186.446579,127.762717 187.172581,127.363701 C187.898582,126.964685 188.163656,126.052679 187.764641,125.326677 Z M190.299896,114.664174 C191.165326,113.917476 192.182304,113.179373 193.350933,112.451679 C194.054167,112.013783 194.269265,111.088713 193.831369,110.385479 C193.393472,109.682245 192.468403,109.467147 191.765169,109.905044 C190.470034,110.711511 189.328316,111.540148 188.340117,112.392771 C187.712887,112.933949 187.643127,113.881131 188.184305,114.508362 C188.725483,115.135592 189.672665,115.205352 190.299896,114.664174 Z M202.031048,108.281416 C203.200649,107.830737 204.435356,107.38634 205.735086,106.948319 C206.520131,106.683752 206.942062,105.832873 206.677494,105.047828 C206.412927,104.262783 205.562048,103.840853 204.777003,104.10542 C203.43762,104.556804 202.162771,105.015649 200.952375,105.482048 C200.179351,105.779915 199.79416,106.648044 200.092027,107.421068 C200.389894,108.194093 201.258024,108.579283 202.031048,108.281416 Z M215.271632,104.146998 C216.516382,103.825566 217.800882,103.508223 219.125113,103.194983 C219.931293,103.004285 220.430239,102.196157 220.239542,101.389977 C220.048844,100.583797 219.240715,100.08485 218.434536,100.275548 C217.090691,100.593427 215.786368,100.915667 214.521547,101.242282 C213.719432,101.449413 213.237102,102.267568 213.444232,103.069683 C213.651362,103.871798 214.469517,104.354128 215.271632,104.146998 Z M228.886225,101.10015 C230.161904,100.850981 231.465967,100.604786 232.798409,100.361569 C233.613371,100.212811 234.153435,99.4315608 234.004676,98.6165993 C233.855917,97.8016377 233.074667,97.2615737 232.259706,97.4103326 C230.915239,97.6557445 229.599048,97.9042289 228.311124,98.1557894 C227.498062,98.3145989 226.967685,99.1024571 227.126494,99.9155198 C227.285304,100.728583 228.073162,101.25896 228.886225,101.10015 Z M242.670572,98.6949597 C242.780473,98.6777861 242.780473,98.6777861 242.890516,98.6606273 C243.709063,98.5330616 244.269214,97.766086 244.141648,96.9475395 C244.014082,96.1289929 243.247107,95.5688422 242.42856,95.6964079 C242.317787,95.7136805 242.317787,95.7136805 242.207155,95.7309684 C241.388672,95.8589375 240.828899,96.626189 240.956868,97.4446726 C241.084837,98.2631562 241.852089,98.8229288 242.670572,98.6949597 Z" id="Path-2" fill="#FFFFFF" fill-rule="nonzero" opacity="0.300000012" transform="translate(127.159458, 86.001692) scale(1, -1) translate(-127.159458, -86.001692) "></path>
        <g id="Path">
            <use fill="black" fill-opacity="1" filter="url(#filter-3)" xlink:href="#path-2"></use>
            <use fill="url(#linearGradient-1)" fill-rule="evenodd" xlink:href="#path-2"></use>
        </g>
    </g>
</svg>