<svg width="108" height="108" viewBox="0 0 108 108" fill="none" xmlns="http://www.w3.org/2000/svg">
<g id="logos/octocat">
<g id="octocat">
<path id="puddle" d="M89 92.5059C89 98.8602 73.7772 104.011 55.0016 104.011C36.2228 104.011 21 98.8602 21 92.5059C21 86.1517 36.2221 81 55.0016 81C73.7772 81 89 86.1526 89 92.5059Z" fill="#9CDAF1"/>
<g id="shadow-legs">
<path id="Shape" d="M46.14 97.6639C46.14 96.614 45.9489 95.736 45.6297 94.9944C47.7452 96.6272 47.8881 100.73 47.8881 100.73V103.947C49.7915 104.095 51.7572 104.184 53.7695 104.211L53.7164 101.02C53.425 93.9236 47.3053 93.0551 47.3053 93.0551C45.0689 92.5504 45.1022 93.6659 45.3269 94.3866C43.1328 90.6675 37.2523 91.1479 37.2523 91.1479C35.2116 91.8711 37.1057 93.175 37.1057 93.175C40.312 94.3332 40.6031 95.8094 40.6031 97.8094V103.057C42.3688 103.357 44.2178 103.606 46.1409 103.793L46.14 97.6639Z" fill="#7DBBE6"/>
<path id="Shape_2" d="M71.9309 89.1472C71.9309 91.1472 66.0495 90.6668 63.8557 94.3868C64.0804 93.6658 64.1147 92.5493 61.8776 93.0543C61.8776 93.0543 55.7582 93.9232 55.4668 101.019L55.4131 104.219C57.4223 104.211 59.3877 104.141 61.2948 104.013V100.73C61.2948 100.73 61.4383 96.6268 63.5532 94.994C63.234 95.7355 63.0429 96.6133 63.0429 97.6635V103.878C64.9611 103.711 66.8123 103.486 68.5798 103.207V97.809C68.5798 97.809 68.8712 94.3328 72.0772 93.1746C72.0772 93.1715 73.9695 91.8676 71.9291 91.1435L71.9309 89.1472Z" fill="#7DBBE6"/>
</g>
<path id="cat" d="M107.934 47.7135C98.2458 45.7922 93.6563 46.2075 87.6414 46.4554C88.6295 42.9246 88.9267 38.8618 88.9267 34.3313C88.9267 27.8336 86.4653 22.6355 82.4692 18.6801C83.1675 16.4446 84.1002 11.4799 81.5377 5.12433C81.5377 5.12433 77.0168 3.7007 66.791 10.4883C62.7853 9.49541 58.5221 9.00515 54.2527 9.00515C49.5552 9.00515 44.8086 9.5984 40.3815 10.8028C29.8293 3.66339 25.171 5.12587 25.171 5.12587C22.1303 12.667 24.0104 18.2509 24.5815 19.6375C21.0076 23.4628 18.8257 28.346 18.8257 34.3329C18.8257 38.8526 19.3446 42.9073 20.6118 46.4314C14.5457 46.2124 9.34279 46.2966 0 48.1495L0.0858106 48.5777C9.48487 46.7135 14.7481 46.6487 20.7772 46.8751C21.0564 47.6046 21.3676 48.3123 21.7165 48.9962C15.7542 49.1867 9.9503 49.9403 0.193696 52.6701L0.314017 53.0894C10.1477 50.3396 16.0399 49.6048 21.9444 49.4257C25.5068 56.0113 32.5302 60.2646 45.0249 61.6004C43.2515 62.7822 41.4424 64.7914 40.7092 68.1909C38.2925 69.3373 30.6423 72.1356 26.0524 64.3061C26.0524 64.3061 23.4831 59.6473 18.5651 59.2825C18.5651 59.2825 13.7945 59.2101 18.2359 62.2309C18.2359 62.2309 21.428 63.7227 23.6304 69.3287C23.6304 69.3287 26.5035 78.8905 40.3682 75.8227V85.6996C40.3682 85.6996 40.075 89.1932 36.8456 90.3572C36.8456 90.3572 34.9375 91.6673 36.9933 92.3941C36.9933 92.3941 45.9449 93.1221 45.9449 85.8455V75.0753C45.9449 75.0753 45.5899 70.8041 47.7056 69.3195V87.0095C47.7056 87.0095 47.5595 91.2301 45.3579 92.8313C45.3579 92.8313 43.8895 95.4504 47.1186 94.7236C47.1186 94.7236 53.282 93.8504 53.5759 86.7187L53.7155 68.8162H55.1969L55.3378 86.7187C55.631 93.8504 61.7947 94.7236 61.7947 94.7236C65.0229 95.4504 63.5554 92.8313 63.5554 92.8313C61.3542 91.2301 61.2077 87.0095 61.2077 87.0095V69.4721C63.3222 71.1051 62.9684 75.075 62.9684 75.075V85.8452C62.9684 93.1221 71.9204 92.3938 71.9204 92.3938C73.9742 91.667 72.0677 90.3569 72.0677 90.3569C68.8386 89.1929 68.5452 85.6993 68.5452 85.6993V71.5815C68.5452 66.0763 66.2077 63.1609 63.9219 61.6219C77.2472 60.3115 83.6416 56.0443 86.5881 49.4143C92.4248 49.5734 97.5755 49.8438 107.623 52.6547L107.742 52.2353C97.7524 49.4408 92.671 49.1525 86.7752 48.9823C87.0544 48.3126 87.2982 47.616 87.5146 46.8994C93.4996 46.6528 98.1361 46.2211 107.861 48.1482L107.934 47.7135Z" fill="black"/>
<path id="face" d="M74.9902 33.8463C77.8437 36.395 79.5129 39.4728 79.5129 42.7889C79.5129 58.2718 67.8059 58.6915 53.366 58.6915C38.9236 58.6915 27.2178 56.5475 27.2178 42.7889C27.2178 39.4947 28.8635 36.4362 31.6818 33.8978C36.3829 29.6675 44.339 31.9075 53.3657 31.9075C62.3518 31.9062 70.2807 29.6434 74.9886 33.8448L74.9902 33.8463Z" fill="#F4CBB2"/>
<path id="eyes" fill-rule="evenodd" clip-rule="evenodd" d="M39.2279 52.1171C42.2505 52.1171 44.701 48.4377 44.701 43.898C44.701 39.3596 42.2505 35.6842 39.2279 35.6809C36.2053 35.6809 33.7549 39.359 33.7549 43.898C33.7549 48.4377 36.2053 52.1171 39.2279 52.1171ZM68.5927 52.1171C71.6153 52.1171 74.0657 48.4377 74.0657 43.898C74.0657 39.3596 71.6153 35.6842 68.5927 35.6809C65.5701 35.6809 63.1196 39.359 63.1196 43.898C63.1196 48.4377 65.5701 52.1171 68.5927 52.1171Z" fill="white"/>
<path id="pupils" fill-rule="evenodd" clip-rule="evenodd" d="M39.1523 49.8493C41.1675 49.8493 42.8048 47.4216 42.8048 44.4258L42.8036 44.4245C42.8036 41.428 41.1662 39 39.1523 39C37.1358 39 35.5 41.429 35.5 44.4258C35.5 47.4216 37.137 49.8493 39.1523 49.8493ZM68.5434 49.8493C70.5586 49.8493 72.196 47.4216 72.196 44.4258L72.1947 44.4245C72.1947 41.428 70.5574 39 68.5434 39C66.5269 39 64.8911 41.429 64.8911 44.4258C64.8911 47.4216 66.5282 49.8493 68.5434 49.8493Z" fill="#AD5C51"/>
<ellipse id="nose" cx="54.1444" cy="51.6735" rx="1.36995" ry="1.41345" fill="#AD5C51"/>
<path id="mouth" d="M50.9471 55.2479C50.8661 55.0109 50.9869 54.7517 51.2151 54.6682C51.4445 54.5847 51.6963 54.7093 51.7769 54.9448C52.1299 55.9719 53.074 56.6617 54.1274 56.6617C55.1808 56.6617 56.1249 55.9722 56.4779 54.9448C56.5588 54.7077 56.81 54.5847 57.0397 54.6682C57.2695 54.7517 57.3887 55.0109 57.3081 55.2479C56.8321 56.6367 55.5528 57.5697 54.1274 57.5697C52.7021 57.5697 51.4255 56.6415 50.9492 55.2508L50.9471 55.2479Z" fill="#AD5C51"/>
<path id="octo" fill-rule="evenodd" clip-rule="evenodd" d="M21.4996 60.4583C21.4992 60.8281 21.0718 61.1267 20.5457 61.1267C20.0197 61.1267 19.5918 60.8279 19.5918 60.4578C19.5918 60.0874 20.0197 59.7874 20.5457 59.7874C21.0718 59.7874 21.4992 60.0865 21.4996 60.4583ZM21.4996 60.4583L21.4996 60.4578V60.4587L21.4996 60.4583ZM24.1407 61.946C24.1403 62.3159 23.7129 62.6144 23.1868 62.6144C22.6607 62.6144 22.2329 62.3156 22.2329 61.9456C22.2329 61.5752 22.6607 61.2751 23.1868 61.2751C23.7129 61.2751 24.1403 61.5743 24.1407 61.946ZM24.8003 64.5498C25.3264 64.5498 25.7539 64.2513 25.7542 63.8814C25.7539 63.5097 25.3264 63.2105 24.8003 63.2105C24.2743 63.2105 23.8464 63.5106 23.8464 63.8809C23.8464 64.251 24.2743 64.5498 24.8003 64.5498ZM27.2208 66.1131C27.2204 66.4829 26.793 66.7815 26.2669 66.7815C25.7409 66.7815 25.313 66.4827 25.313 66.1126C25.313 65.7422 25.7409 65.4422 26.2669 65.4422C26.793 65.4422 27.2204 65.7414 27.2208 66.1131ZM27.8789 68.865C28.405 68.865 28.8324 68.5664 28.8328 68.1966C28.8324 67.8249 28.405 67.5257 27.8789 67.5257C27.3528 67.5257 26.925 67.8258 26.925 68.1961C26.925 68.5662 27.3528 68.865 27.8789 68.865ZM31.0358 69.9807C31.0354 70.3505 30.608 70.6491 30.0819 70.6491C29.5558 70.6491 29.128 70.3502 29.128 69.9802C29.128 69.6098 29.5558 69.3097 30.0819 69.3097C30.608 69.3097 31.0354 69.6089 31.0358 69.9807ZM33.161 71.8405C33.6872 71.8405 34.1146 71.542 34.1149 71.1721C34.1146 70.8004 33.6872 70.5012 33.161 70.5012C32.635 70.5012 32.2072 70.8013 32.2072 71.1717C32.2072 71.5417 32.635 71.8405 33.161 71.8405ZM37.1817 71.1721C37.1813 71.542 36.7539 71.8405 36.2278 71.8405C35.7018 71.8405 35.2739 71.5417 35.2739 71.1717C35.2739 70.8013 35.7018 70.5012 36.2278 70.5012C36.7539 70.5012 37.1813 70.8004 37.1817 71.1721ZM39.3381 71.3236C39.8642 71.3236 40.2916 71.025 40.292 70.6552C40.292 70.6554 40.292 70.6555 40.292 70.6557V70.6547C40.292 70.6549 40.292 70.6551 40.292 70.6552C40.2916 70.2835 39.8642 69.9843 39.3381 69.9843C38.812 69.9843 38.3842 70.2844 38.3842 70.6547C38.3842 71.0248 38.812 71.3236 39.3381 71.3236Z" fill="#C3E4D8"/>
<path id="drop" d="M17.4129 63.0745L16.3491 66.1491C16.3491 66.1491 16.0715 67.2603 17.3345 67.4574C18.653 67.4361 18.5441 66.4136 18.4528 66.0814L17.4129 63.0745Z" fill="#9CDAF1"/>
</g>
<circle id="Oval" cx="37.5" cy="42.5" r="1.5" fill="white" fill-opacity="0.9"/>
<circle id="Oval Copy" cx="67.5" cy="42.5" r="1.5" fill="white" fill-opacity="0.9"/>
</g>
</svg>
