<svg xmlns="http://www.w3.org/2000/svg" xmlns:xlink="http://www.w3.org/1999/xlink" width="96" height="96" version="1.1" viewBox="0 0 96 96"><title>logo/marko</title><desc>Created with Sketch.</desc><defs><linearGradient id="linearGradient-1" x1="49.911%" x2="49.911%" y1="99.908%" y2="-.09%"><stop offset="0%" stop-color="#8AC23E"/><stop offset="100%" stop-color="#8AC23E" stop-opacity="0"/></linearGradient><linearGradient id="linearGradient-2" x1="49.984%" x2="49.984%" y1=".064%" y2="100.062%"><stop offset="0%" stop-color="#698932"/><stop offset="100%" stop-color="#698932" stop-opacity="0"/></linearGradient><linearGradient id="linearGradient-3" x1="50.06%" x2="50.06%" y1=".064%" y2="100.062%"><stop offset="0%" stop-color="#FFED01"/><stop offset="100%" stop-color="#FFED01" stop-opacity="0"/></linearGradient><linearGradient id="linearGradient-4" x1="50.017%" x2="50.017%" y1=".064%" y2="100.093%"><stop offset="0%" stop-color="#E02A89"/><stop offset="100%" stop-color="#E02A89" stop-opacity="0"/></linearGradient><linearGradient id="linearGradient-5" x1="49.963%" x2="49.963%" y1="-.092%" y2="99.907%"><stop offset="0%" stop-color="#7F1E4F"/><stop offset="100%" stop-color="#7F1E4F" stop-opacity="0"/></linearGradient><linearGradient id="linearGradient-6" x1="49.965%" x2="49.965%" y1="-.092%" y2="99.907%"><stop offset="0%" stop-color="#E95506"/><stop offset="100%" stop-color="#E95506" stop-opacity="0"/></linearGradient><linearGradient id="linearGradient-7" x1="49.977%" x2="49.977%" y1="99.908%" y2="-.027%"><stop offset="0%" stop-color="#88D0F1"/><stop offset="100%" stop-color="#88D0F1" stop-opacity="0"/></linearGradient><linearGradient id="linearGradient-8" x1="50.021%" x2="50.021%" y1=".064%" y2="99.999%"><stop offset="0%" stop-color="#00828B"/><stop offset="83.25%" stop-color="#00828B" stop-opacity="0"/></linearGradient><linearGradient id="linearGradient-9" x1="50.078%" x2="50.078%" y1="99.975%" y2=".071%"><stop offset="0%" stop-color="#2073BA"/><stop offset="100%" stop-color="#2073BA" stop-opacity="0"/></linearGradient><linearGradient id="linearGradient-10" x1="50.018%" x2="50.018%" y1=".064%" y2="99.999%"><stop offset="0%" stop-color="#8ED0E1"/><stop offset="100%" stop-color="#88D0F1" stop-opacity="0"/></linearGradient></defs><g id="logo/marko" fill="none" fill-rule="evenodd" stroke="none" stroke-width="1"><g id="marko" transform="translate(0.000000, 20.058824)"><path id="Path" fill="#8DC220" d="M48.0375,0 L61.575,0 C56.5875,8.175 51.075,17.175 45.5625,26.1375 L32.025,26.1375 C37.5375,17.175 43.05,8.175 48.0375,0 Z"/><path id="Path" fill="#44BFEF" d="M16.0125,0 L29.55,0 C26.8875,4.35 24.1875,8.7375 21.525,13.0875 C18.8625,17.4375 16.2,21.7875 13.5375,26.1375 C16.2,30.4875 18.8625,34.875 21.525,39.225 C24.1875,43.575 26.85,47.925 29.55,52.275 L16.0125,52.275 C13.35,47.925 10.65,43.575 7.9875,39.225 C5.325,34.9125 2.6625,30.525 0,26.175 C2.6625,21.825 5.325,17.475 7.9875,13.125 C10.65,8.7375 13.35,4.3875 16.0125,0 Z"/><path id="Path" fill="#00AC71" d="M16.0125,0 C21.525,9 27.0375,18 32.025,26.1375 L45.5625,26.1375 C40.575,18 35.0625,9 29.55,0 L16.0125,0 Z"/><path id="Path" fill="#F9BC00" d="M61.575,0 L48.0375,0 C50.7,4.35 53.3625,8.7375 56.0625,13.0875 C58.725,17.4375 61.3875,21.7875 64.0875,26.1375 C61.425,30.4875 58.725,34.875 56.0625,39.225 C53.4,43.575 50.7375,47.925 48.0375,52.275 L61.575,52.275 C64.2375,47.925 66.9,43.575 69.6,39.225 C72.2625,34.875 74.925,30.525 77.625,26.1375 C74.925,21.7875 72.2625,17.4375 69.6,13.0875 C66.9375,8.7375 64.2375,4.3875 61.575,0 Z"/><path id="Path" fill="url(#linearGradient-1)" d="M55.9875,9.225 L42.45,9.225 C40.725,12.0375 39,14.8875 37.275,17.7 C35.55,20.5125 33.825,23.3625 32.0625,26.175 L45.6,26.175 C47.325,23.3625 49.0875,20.5125 50.8125,17.7 C52.5,14.85 54.225,12.0375 55.9875,9.225 Z"/><path id="Path" fill="url(#linearGradient-2)" d="M37.6875,16.95 L51.225,16.95 C52.95,14.1375 54.675,11.2875 56.4,8.475 C58.125,5.6625 59.85,2.8125 61.575,0 L48.0375,0 C46.3125,2.8125 44.5875,5.6625 42.8625,8.475 C41.1375,11.325 39.4125,14.1375 37.6875,16.95 Z"/><path id="Path" fill="url(#linearGradient-3)" d="M71.9625,16.95 L58.425,16.95 C56.7,14.1375 54.9375,11.2875 53.2125,8.475 C51.4875,5.6625 49.7625,2.8125 48.0375,0 L61.575,0 C63.3,2.8125 65.025,5.6625 66.75,8.475 C68.5125,11.325 70.2375,14.1375 71.9625,16.95 Z"/><path id="Path" fill="#DF1B1C" d="M79.95,0 L66.4125,0 C69.075,4.3875 71.7375,8.7375 74.4,13.0875 C77.0625,17.4375 79.7625,21.7875 82.425,26.1375 C79.7625,30.4875 77.0625,34.875 74.4,39.225 C71.7375,43.575 69.075,47.925 66.375,52.275 L79.9125,52.275 C82.575,47.925 85.2375,43.575 87.9375,39.225 C90.6,34.875 93.2625,30.525 95.9625,26.1375 C93.3,21.7875 90.6375,17.4375 87.9375,13.0875 C85.3125,8.7375 82.6125,4.3875 79.95,0 Z"/><path id="Path" fill="url(#linearGradient-4)" d="M90.3375,16.95 L76.8,16.95 C75.0375,14.1375 73.3125,11.2875 71.5875,8.475 C69.8625,5.6625 68.1375,2.8125 66.4125,0 L79.95,0 C81.675,2.8125 83.4,5.6625 85.125,8.475 C86.85,11.325 88.6125,14.1375 90.3375,16.95 Z"/><path id="Path" fill="url(#linearGradient-5)" d="M72.075,43.125 L85.6125,43.125 C87.3375,40.3125 89.0625,37.5 90.7875,34.65 C92.5125,31.8375 94.2375,28.9875 96,26.175 L82.425,26.175 C80.7,28.9875 78.975,31.8375 77.25,34.65 C75.525,37.4625 73.8,40.275 72.075,43.125 Z"/><path id="Path" fill="url(#linearGradient-6)" d="M53.7,43.125 L67.2375,43.125 C68.9625,40.3125 70.6875,37.4625 72.4125,34.65 C74.1375,31.8375 75.8625,28.9875 77.625,26.175 L64.0875,26.175 C62.3625,28.9875 60.6375,31.8375 58.9125,34.65 C57.15,37.4625 55.425,40.275 53.7,43.125 Z"/><path id="Path" fill="url(#linearGradient-7)" d="M23.925,9.225 L10.3875,9.225 C8.6625,12.0375 6.9375,14.8875 5.2125,17.7 C3.45,20.5125 1.725,23.3625 0,26.175 L13.5375,26.175 C15.2625,23.3625 16.9875,20.55 18.7125,17.7 C20.4375,14.8875 22.1625,12.0375 23.925,9.225 Z"/><path id="Path" fill="url(#linearGradient-8)" d="M5.625,16.95 L19.1625,16.95 C20.8875,14.1375 22.6125,11.2875 24.3375,8.475 C26.1,5.6625 27.825,2.8125 29.55,0 L16.0125,0 C14.2875,2.8125 12.5625,5.625 10.8375,8.475 C9.1125,11.2875 7.3875,14.1375 5.625,16.95 Z"/><path id="Path" fill="url(#linearGradient-9)" d="M5.625,35.3625 L19.1625,35.3625 C20.8875,38.175 22.6125,41.025 24.3375,43.8375 C26.0625,46.65 27.7875,49.5 29.5125,52.3125 L15.975,52.3125 C14.25,49.5 12.4875,46.6875 10.7625,43.8375 C9.075,41.025 7.35,38.2125 5.625,35.3625 Z"/><path id="Path" fill="url(#linearGradient-10)" d="M39.9375,16.95 L26.4,16.95 C24.675,14.1375 22.95,11.2875 21.225,8.475 C19.4625,5.6625 17.7375,2.8125 16.0125,0 L29.55,0 C31.275,2.8125 33,5.625 34.725,8.475 C36.4875,11.2875 38.2125,14.1375 39.9375,16.95 Z"/></g></g></svg>