<svg xmlns="http://www.w3.org/2000/svg" xmlns:xlink="http://www.w3.org/1999/xlink" width="96" height="96" version="1.1" viewBox="0 0 96 96"><title>logo/mithril</title><desc>Created with Sketch.</desc><g id="logo/mithril" fill="none" fill-rule="evenodd" stroke="none" stroke-width="1"><g id="mithril" fill="#010002" fill-rule="nonzero" transform="translate(47.403608, 48.067244) rotate(-180.000000) translate(-47.403608, -48.067244) translate(6.403608, 8.567244)"><path id="Shape" d="M67.8195339,28.02114 C67.7831822,12.9886225 55.541196,0.768019798 40.5001252,0.768019798 C25.4355327,0.768019798 13.1785782,13.0249743 13.1785782,28.0895668 C13.1785782,28.1366102 13.1871316,28.1815153 13.1871316,28.2285588 C5.29666369,33.0248513 0,41.678706 0,51.5663817 C0,66.6331126 12.2548161,78.8879287 27.321547,78.8879287 C32.171298,78.8879287 36.7195433,77.6027875 40.6733306,75.3767774 C44.6271179,77.6027875 49.1775016,78.8879287 54.0272526,78.8879287 C69.0939835,78.8879287 81.3487996,66.6309743 81.3487996,51.5663817 C81.3487996,41.5354373 75.9003139,32.7725274 67.8195339,28.02114 Z M40.6733306,69.6353394 C35.7294927,65.9723661 32.3209817,60.3528133 31.6495435,53.9142771 C34.4293831,54.8722526 37.3995349,55.4153905 40.5001252,55.4153905 C43.7375693,55.4153905 46.8296063,54.8209325 49.7099478,53.7817001 C49.072723,60.2758332 45.6513819,65.946706 40.6733306,69.6353394 Z M18.2122263,31.0105368 C20.998481,29.7724389 24.077688,29.0667873 27.321547,29.0667873 C30.4755958,29.0667873 33.4778226,29.7232572 36.2042038,30.9014815 C31.6837569,34.806087 28.4441745,40.1497942 27.2338751,46.2269513 C22.3948158,42.6730332 19.0269332,37.2459309 18.2122263,31.0105368 Z M40.5001252,50.5912995 C37.3845665,50.5912995 34.4144148,49.9540747 31.7136936,48.8015105 C32.4856337,42.5404563 35.838548,37.0791405 40.6733306,33.4974241 C45.4696232,37.0513421 48.8032924,42.4506461 49.6115842,48.6475501 C46.8231913,49.8899246 43.7439843,50.5912995 40.5001252,50.5912995 Z M45.1424574,30.8993432 C47.8688386,29.7232572 50.8710654,29.064649 54.0251143,29.064649 C57.140673,29.064649 60.1108247,29.7018738 62.8136842,30.8544381 C62.0524358,37.0235437 58.7871934,42.4100176 54.0700194,45.9981491 C52.8255065,40.0129405 49.6073076,34.7569053 45.1424574,30.8993432 Z M40.5001252,5.58997241 C52.1155783,5.58997241 61.7017483,14.4362775 62.8799727,25.7438098 C60.100133,24.7879726 57.1299813,24.2426964 54.0272526,24.2426964 C49.1775016,24.2426964 44.6271179,25.5278377 40.6733306,27.7538477 C36.7216817,25.5278377 32.1734363,24.2426964 27.321547,24.2426964 C24.084103,24.2426964 20.992066,24.8371544 18.1117244,25.8742484 C19.2300753,14.5047043 28.8419054,5.58997241 40.5001252,5.58997241 Z M27.321547,74.0681145 C14.9127705,74.0681145 4.81981427,63.9751582 4.81981427,51.5663817 C4.81981427,44.2575418 8.33738059,37.7719621 13.7516529,33.6577994 C15.3425765,41.3151885 20.1645291,47.7857998 26.7078439,51.6369469 C26.7313657,59.8631339 30.4178607,67.2318473 36.2063422,72.231282 C33.4778226,73.4116446 30.4777342,74.0681145 27.321547,74.0681145 Z M54.0272526,74.0681145 C50.8732038,74.0681145 47.870977,73.4116446 45.1445958,72.2334203 C50.950184,67.2190173 54.6473707,59.8225055 54.6473707,51.5685201 C54.6473707,51.5214766 54.6388173,51.4744332 54.6388173,51.4295281 C61.0688002,47.5185076 65.7774209,41.0543112 67.2935027,33.4332739 C72.8809804,37.5324682 76.5289853,44.1228265 76.5289853,51.5663817 C76.526847,63.9730199 66.4338908,74.0681145 54.0272526,74.0681145 Z"/></g></g></svg>