<svg width="96" height="96" xmlns="http://www.w3.org/2000/svg"><g fill="none" fill-rule="nonzero"><path d="M81.7 14.2A27.8 27.8 0 0044.4 6L23.1 19.7a24.6 24.6 0 00-11 16.5 26 26 0 002.5 16.6 26.3 26.3 0 00.8 29A27.8 27.8 0 0052.8 90L74 76.3c5.9-3.7 9.9-9.7 11-16.5a26 26 0 00-2.5-16.6c1.9-2.8 3.1-6 3.7-9.2 1.2-7-.4-14-4.5-19.8" fill="#FF3E00"/><path d="M42.4 83.5a16.6 16.6 0 01-20-20.7l.3-1.2 1.1.8a27 27 0 008.2 4.1l.8.3v.8c-.2 1.1.1 2.2.8 3.2a5 5 0 005.4 2c.4-.1.9-.3 1.3-.6l21-13.6c1-.7 1.8-1.8 2-3 .2-1.3 0-2.5-.8-3.6a5 5 0 00-5.4-2l-1.3.5-8 5.3c-1.4.8-2.8 1.5-4.3 1.9A16.6 16.6 0 0122.9 39c.7-4 3.1-7.7 6.6-9.9l21-13.6c1.3-.9 2.8-1.5 4.3-2a16.6 16.6 0 0120 20.7l-.4 1.2-1-.8a27 27 0 00-8.3-4.1l-.7-.3v-.8c.1-1.1-.2-2.2-.8-3.2a5 5 0 00-5.4-2c-.5.1-.9.3-1.3.6l-21 13.6c-1 .7-1.8 1.8-2 3-.2 1.3 0 2.5.8 3.6a5 5 0 005.4 2l1.3-.5 8-5.3A16.6 16.6 0 0174.2 58c-.7 4-3 7.7-6.5 9.9l-21 13.6c-1.4.9-2.8 1.5-4.3 2" fill="#FFF"/></g></svg>