<svg xmlns="http://www.w3.org/2000/svg" xmlns:xlink="http://www.w3.org/1999/xlink" width="96" height="96" version="1.1" viewBox="0 0 96 96"><title>logo/riotjs</title><desc>Created with Sketch.</desc><g id="logo/riotjs" fill="none" fill-rule="evenodd" stroke="none" stroke-width="1"><g id="riot-logo" transform="translate(0.000000, 24.774194)"><path id="Rectangle" fill="#ED1846" d="M3.09677419,0 L92.9032258,-5.50097602e-16 C94.613527,8.25004066e-15 96,1.38647303 96,3.09677419 L96,43.2079277 C96,44.9182289 94.613527,46.3047019 92.9032258,46.3047019 L3.09677419,46.3047019 C1.38647303,46.3047019 2.09451484e-16,44.9182289 0,43.2079277 L0,3.09677419 C-2.09451484e-16,1.38647303 1.38647303,-2.35920376e-16 3.09677419,0 Z"/><path id="Shape" fill="#FFF" fill-rule="nonzero" d="M33.7023484,20.9899355 L33.7023484,20.9412232 C33.7023484,19.1853523 33.1655535,17.91744 32.14176,16.893089 C30.9469626,15.6982916 29.0205832,14.9423381 25.9968,14.9423381 L17.6571871,14.9423381 L17.6571871,32.011169 L23.3633032,32.011169 L23.3633032,27.1345548 L24.5824723,27.1345548 L27.8010426,32.0113548 L34.3116387,32.0113548 L30.3371148,26.2082477 C32.4096,25.2082374 33.7023484,23.4769239 33.7023484,20.9899355 Z M28.0207277,21.4043768 C28.0207277,22.4530684 27.1916594,23.0623587 25.825951,23.0623587 L23.3633032,23.0623587 L23.3633032,19.7214658 L25.8508181,19.7214658 C27.1673806,19.7214658 28.0207277,20.2582606 28.0207277,21.3556645 L28.0207277,21.4043768 Z M37.3327277,32.011169 L43.0383174,32.011169 L43.0383174,14.9423071 L37.3328826,14.9423071 L37.3327277,32.011169 Z M55.6920155,14.5765161 C50.4253006,14.5765161 46.3528258,18.5266994 46.3528258,23.4768619 L46.3528258,23.5255742 C46.3528258,28.475489 50.3765574,32.376991 55.6433032,32.3770219 C60.9105755,32.3770219 64.9824929,28.4268077 64.9824929,23.4768929 L64.9824929,23.4281806 C64.9825239,18.4779561 60.9592877,14.5765161 55.6920155,14.5765161 Z M59.2282529,23.5255742 C59.2282529,25.5253161 57.8625755,27.3294039 55.6920465,27.329249 C53.4977961,27.329249 52.1076542,25.5003871 52.1076542,23.4768619 L52.1076542,23.4281497 C52.1076542,21.4287174 53.4733316,19.6240723 55.6433342,19.6240723 C57.838111,19.6240723 59.2282529,21.4530581 59.2282529,23.4768619 L59.2282529,23.5255742 Z M66.6129445,14.9423071 L66.6129445,19.7707045 L71.63616,19.7707045 L71.63616,32.0111381 L77.3417187,32.0111381 L77.3417187,19.7707045 L82.3649032,19.7707045 L82.3649032,14.9423071 L66.6129445,14.9423071 Z"/></g></g></svg>