<?xml version="1.0" encoding="UTF-8"?>
<svg width="96px" height="96px" viewBox="0 0 96 96" version="1.1" xmlns="http://www.w3.org/2000/svg" xmlns:xlink="http://www.w3.org/1999/xlink">
    <!-- Generator: Sketch 50.2 (55047) - http://www.bohemiancoding.com/sketch -->
    <title>/logo/react</title>
    <desc>Created with Sketch.</desc>
    <defs></defs>
    <g id="/logo/react" stroke="none" stroke-width="1" fill="none" fill-rule="evenodd">
        <g id="logo-reactjs" transform="translate(0.000000, 6.000000)" fill="#00D8FF" fill-rule="nonzero">
            <ellipse id="Oval" cx="47.9583095" cy="42.4356929" rx="8.55821631" ry="8.52833333"></ellipse>
            <path d="M90.9493777,33.9368071 C87.9885524,31.4746723 83.8003328,29.2737453 78.8377238,27.5711985 C77.8429018,27.2299251 76.8124592,26.9072753 75.7524659,26.602294 C75.9275341,25.8923689 76.0875874,25.1924719 76.2294309,24.5056273 C78.607228,13.0037266 76.9190017,4.03956929 71.8236539,1.11152622 C70.5782097,0.396029963 69.1051448,0.0331086142 67.4458303,0.0331086142 C62.6651581,0.0331086142 56.6072546,3.00301498 50.3891381,8.3957397 C49.5944626,9.08497191 48.7981897,9.8141573 48.0025557,10.5780431 C47.4716007,10.0715449 46.9420832,9.58287453 46.414802,9.11617041 C39.9574043,3.40270599 33.3851581,0.12590824 28.3827754,0.12590824 C26.6696306,0.12590824 25.1532779,0.499494382 23.8758869,1.2364794 C21.3757338,2.67877341 19.6772845,5.62098315 18.9640732,9.74555243 C18.3094842,13.5325094 18.4960532,18.2473034 19.5036539,23.3799345 C19.7066755,24.4142603 19.9441997,25.4697566 20.2117537,26.5421255 C18.9873943,26.8892884 17.8026489,27.2600094 16.6648652,27.6552434 C6.25357737,31.2720412 0.0380166389,36.7975187 0.0380166389,42.4356929 C0.0380166389,45.3806086 1.77000998,48.4151404 5.04630948,51.2113858 C8.12901165,53.842088 12.4573178,56.1520506 17.563208,57.8912079 C18.3966988,58.1750187 19.2613378,58.4440262 20.152812,58.6990262 C19.864812,59.8573502 19.61403,60.9949813 19.4020632,62.1079401 C17.3454908,72.901985 19.0434609,81.0282397 23.9447321,83.8451779 C25.2355408,84.5869382 26.7747354,84.962912 28.5201464,84.962912 C33.4950549,84.962912 39.9153943,81.8556367 46.1351082,76.4377622 C46.7991215,75.8594757 47.46601,75.2460112 48.1344958,74.6029401 C48.9986556,75.4309738 49.863614,76.2166667 50.7260166,76.9568352 C56.7738569,82.1429494 62.7001398,84.9990449 67.4124459,84.9990449 C69.1108952,84.9990449 70.6183028,84.6262547 71.8932978,83.8907022 C74.4511148,82.4148221 76.2187288,79.4011423 77.0055774,75.1745412 C77.7457837,71.1981648 77.5831747,66.3079588 76.5354809,61.0331835 C76.3696772,60.1994195 76.1775175,59.347191 75.9610782,58.4795225 C76.568386,58.300927 77.1632346,58.1167603 77.7427488,57.9254307 C88.9292246,54.2320693 95.8784426,48.2965543 95.8784426,42.4355337 C95.8781231,39.556676 94.1737637,36.617809 90.9493777,33.9368071 Z M67.4458303,4.11294944 C68.3781963,4.11294944 69.1628087,4.29218165 69.7782629,4.64587079 C71.2634676,5.49937266 72.3630749,7.64904494 72.8748619,10.6988577 C73.4695507,14.2424345 73.2428885,18.7318352 72.2193145,23.6820506 C72.0908885,24.3039513 71.9456905,24.9377903 71.7886722,25.5802247 C67.8033145,24.6638483 63.482995,23.9846442 58.9706755,23.5629869 C56.3313943,19.8205993 53.5991481,16.4213951 50.8705757,13.4885768 C51.6063095,12.7837453 52.3428419,12.109794 53.0768186,11.4729307 C58.3914809,6.86430712 63.7631681,4.11294944 67.4458303,4.11294944 Z M61.3323394,50.2063483 C59.825411,52.810309 58.2910083,55.278015 56.7409517,57.5973689 C53.8951348,57.8007959 50.9547554,57.9056929 47.9581498,57.9056929 C44.9601065,57.9056929 42.0655707,57.8152809 39.2908353,57.6376404 C37.6537238,55.260824 36.0773111,52.7776779 34.5967388,50.2287921 C33.1153677,47.6789513 31.7491647,45.1045974 30.5094709,42.5405899 C31.7526789,39.9557303 33.1164859,37.3707116 34.5839601,34.8348783 C36.0608586,32.2831273 37.6161864,29.8182865 39.2259834,27.4678933 C42.0933644,27.2498221 45.0211248,27.1360112 47.9581498,27.1360112 C50.9204126,27.1360112 53.8467354,27.247912 56.6999002,27.4642322 C58.2854176,29.7955243 59.8330782,32.2544757 61.319401,34.812912 C62.8311215,37.4148034 64.2102629,39.972603 65.4528319,42.4695974 C64.2077072,45.0278745 62.8295241,47.6191011 61.3323394,50.2063483 Z M67.6629085,47.1746816 C68.950203,50.0954026 70.0276073,52.9089981 70.8817038,55.5837921 C68.105371,56.2149251 65.1041331,56.72397 61.9399667,57.1029682 C62.9303161,55.5382678 63.9109218,53.9181742 64.8789085,52.2450749 C65.8569584,50.555103 66.7853311,48.8619476 67.6629085,47.1746816 Z M48.1242729,68.7530618 C46.1843062,66.6645131 44.2484925,64.3539139 42.3621963,61.8790449 C44.1866755,61.9494007 46.0531647,61.9853745 47.95799,61.9853745 C49.9144093,61.9853745 51.8491048,61.9411236 53.7532912,61.8556461 C51.8818502,64.3921161 49.9987488,66.7000094 48.1242729,68.7530618 Z M34.0648253,57.1849438 C30.9159933,56.83603 27.9615574,56.3623221 25.2334642,55.7684363 C26.082609,53.0441386 27.1272679,50.2116011 28.3407654,47.3397472 C29.198376,48.9896067 30.1031082,50.6370787 31.0533644,52.2732491 C32.0271015,53.948736 33.0331048,55.5876124 34.0648253,57.1849438 Z M28.3294243,37.7353839 C27.1406855,34.9264045 26.1207854,32.1578558 25.2866556,29.4768539 C28.0227354,28.8688015 30.9402729,28.3712172 33.9702629,27.993015 C32.964579,29.5567603 31.9846123,31.1596629 31.0372313,32.7963109 C30.0884126,34.4359831 29.1854376,36.085206 28.3294243,37.7353839 Z M48.0027155,16.4045225 C49.8894908,18.4418165 51.7808985,20.7185112 53.6425957,23.1901966 C51.7666822,23.1016948 49.8693644,23.0558521 47.9584692,23.0558521 C46.0603527,23.0558521 44.1766123,23.100103 42.3152346,23.1855805 C44.1722995,20.7447753 46.0790416,18.4715824 48.0027155,16.4045225 Z M64.8626156,32.7684551 C63.913797,31.1356273 62.9392612,29.5408427 61.9455574,27.9896723 C64.9971115,28.3739232 67.9271082,28.8847191 70.6866689,29.5129869 C69.8611647,32.1478277 68.8316805,34.9057116 67.6196206,37.7347472 C66.7535441,36.0976217 65.8345957,34.4409176 64.8626156,32.7684551 Z M23.5217571,22.5959925 C22.6085591,17.9453464 22.4277404,13.74103 22.9989484,10.4376498 C23.4918869,7.58569288 24.5317537,5.5721161 25.927188,4.76700375 C26.5731514,4.39437266 27.3994542,4.20543071 28.3829351,4.20543071 C32.337624,4.20543071 38.0623228,7.18154494 43.6964526,12.166779 C44.1738968,12.589073 44.6534176,13.0314232 45.1342163,13.4892135 C42.3452646,16.4736049 39.5954476,19.8654869 36.9740566,23.5521629 C32.4673278,23.9657022 28.1567521,24.6331273 24.179381,25.5339045 C23.9308353,24.5371442 23.7104027,23.5564607 23.5217571,22.5959925 Z M18.8875607,54.0303933 C14.2675807,52.4564607 10.402183,50.4102528 7.70955075,48.1123876 C5.40283527,46.1438577 4.13231281,44.1280524 4.13231281,42.4353745 C4.13231281,38.2173689 11.1038935,33.9073596 18.0126988,31.506985 C19.0639068,31.1418352 20.1663894,30.7976966 21.312,30.4744101 C22.5130383,34.3675375 24.0867354,38.4297097 25.9797404,42.5284925 C24.054629,46.6977903 22.4600067,50.8223596 21.2481065,54.7683333 C20.4357005,54.5346629 19.6472546,54.2890543 18.8875607,54.0303933 Z M28.5201464,80.882912 C27.5020033,80.882912 26.650782,80.690309 25.9899634,80.3108333 C22.3234343,78.203661 22.0593943,70.0322004 23.4243195,62.8689607 C23.6203128,61.8410019 23.8543228,60.7829588 24.1249118,59.7011985 C28.0292845,60.5629775 32.3620632,61.1885393 37.0357138,61.5645131 C39.6842596,65.2819101 42.4564393,68.6952809 45.2642396,71.6939981 C44.6540566,72.2797659 44.0457903,72.8381554 43.4403993,73.365824 C38.0370849,78.0726592 32.4593411,80.882912 28.5201464,80.882912 Z M72.5188153,61.8252434 C74.5990283,72.2983895 72.5894176,78.7741479 69.8416772,80.359382 C69.1982696,80.7304213 68.3809118,80.9187266 67.4124459,80.9187266 C65.671827,80.9187266 60.82199,80.2312453 53.3967654,73.8637266 C52.6000133,73.1805431 51.7962329,72.4492884 50.9898968,71.6744195 C53.6794942,68.7458989 56.3761198,65.3336423 59.027381,61.5052996 C63.6670083,61.0931929 68.0457903,60.4216292 72.0007987,59.5124157 C72.1956739,60.2985861 72.368985,61.0701124 72.5188153,61.8252434 Z M76.4548153,54.0526779 C75.9320067,54.2253839 75.3951414,54.3920412 74.8477338,54.5539232 C73.642223,50.7442041 72.0122995,46.6810768 69.9924659,42.4474719 C71.9051181,38.337706 73.4781764,34.3191479 74.6542962,30.5323502 C75.6337837,30.8150468 76.5861165,31.1133427 77.5055441,31.4288296 C82.0018902,32.9714045 85.7439734,34.9217884 88.3265491,37.0692322 C90.5562729,38.9233146 91.7841464,40.8291292 91.7841464,42.4355337 C91.783827,45.5932678 86.9870216,50.5751592 76.4548153,54.0526779 Z" id="Shape"></path>
        </g>
    </g>
</svg>