<svg width="1200" height="462" xmlns="http://www.w3.org/2000/svg">
  <defs>
    <linearGradient x1="52.3%" y1="-21.6%" x2="52.3%" y2="94.3%" id="a">
      <stop stop-color="#FFF" offset="0%"/>
      <stop stop-color="#F1F5F9" offset="100%"/>
    </linearGradient>
  </defs>
  <path d="M15.8 217.8a3.6 3.6 0 1 1 0-7.1 3.6 3.6 0 0 1 0 7.1zm50.2 0a3.6 3.6 0 1 1 0-7.1 3.6 3.6 0 0 1 0 7.1zm-25.1 0a3.6 3.6 0 1 1 0-7.1 3.6 3.6 0 0 1 0 7.1zm50.3 0a3.6 3.6 0 1 1 0-7.1 3.6 3.6 0 0 1 0 7.1zm326.7 0a3.6 3.6 0 1 1 0-7.1 3.6 3.6 0 0 1 0 7.1zm50.2 0a3.6 3.6 0 1 1 0-7.1 3.6 3.6 0 0 1 0 7.1zm-25.1 0a3.6 3.6 0 1 1 0-7.1 3.6 3.6 0 0 1 0 7.1zm50.2 0a3.6 3.6 0 1 1 0-7.1 3.6 3.6 0 0 1 0 7.1zm326.7 0a3.6 3.6 0 1 1 0-7.1 3.6 3.6 0 0 1 0 7.1zm50.3 0a3.6 3.6 0 1 1 0-7.1 3.6 3.6 0 0 1 0 7.1zm-25.1 0a3.6 3.6 0 1 1 0-7.1 3.6 3.6 0 0 1 0 7.1zm50.2 0a3.6 3.6 0 1 1 0-7.1 3.6 3.6 0 0 1 0 7.1zm-678.5 0a3.6 3.6 0 1 1 0-7.1 3.6 3.6 0 0 1 0 7.1zm50.3 0a3.6 3.6 0 1 1 0-7.1 3.6 3.6 0 0 1 0 7.1zm-25.2 0a3.6 3.6 0 1 1 0-7.1 3.6 3.6 0 0 1 0 7.1zm50.3 0a3.6 3.6 0 1 1 0-7.1 3.6 3.6 0 0 1 0 7.1zm326.7 0a3.6 3.6 0 1 1 0-7.1 3.6 3.6 0 0 1 0 7.1zm50.3 0a3.6 3.6 0 1 1 0-7.1 3.6 3.6 0 0 1 0 7.1zm-25.2 0a3.6 3.6 0 1 1 0-7.1 3.6 3.6 0 0 1 0 7.1zm50.3 0a3.6 3.6 0 1 1 0-7.1 3.6 3.6 0 0 1 0 7.1zm326.7 0a3.6 3.6 0 1 1 0-7.1 3.6 3.6 0 0 1 0 7.1zm50.3 0a3.6 3.6 0 1 1 0-7.1 3.6 3.6 0 0 1 0 7.1zm-25.2 0a3.6 3.6 0 1 1 0-7.1 3.6 3.6 0 0 1 0 7.1zm50.3 0a3.6 3.6 0 1 1 0-7.1 3.6 3.6 0 0 1 0 7.1zm-980.1 0a3.6 3.6 0 1 1 0-7.1 3.6 3.6 0 0 1 0 7.1zm50.2 0a3.6 3.6 0 1 1 0-7.1 3.6 3.6 0 0 1 0 7.1zm-25 0a3.6 3.6 0 1 1 0-7.1 3.6 3.6 0 0 1 0 7.1zm50.2 0a3.6 3.6 0 1 1 0-7.1 3.6 3.6 0 0 1 0 7.1zm326.7 0a3.6 3.6 0 1 1 0-7.1 3.6 3.6 0 0 1 0 7.1zm50.2 0a3.6 3.6 0 1 1 0-7.1 3.6 3.6 0 0 1 0 7.1zm-25 0a3.6 3.6 0 1 1 0-7.1 3.6 3.6 0 0 1 0 7.1zm50.2 0a3.6 3.6 0 1 1 0-7.1 3.6 3.6 0 0 1 0 7.1zm326.7 0a3.6 3.6 0 1 1 0-7.1 3.6 3.6 0 0 1 0 7.1zm50.2 0a3.6 3.6 0 1 1 0-7.1 3.6 3.6 0 0 1 0 7.1zm-25.1 0a3.6 3.6 0 1 1 0-7.1 3.6 3.6 0 0 1 0 7.1zm50.3 0a3.6 3.6 0 1 1 0-7.1 3.6 3.6 0 0 1 0 7.1zm-678.6 0a3.6 3.6 0 1 1 0-7.1 3.6 3.6 0 0 1 0 7.1zm50.3 0a3.6 3.6 0 1 1 0-7.1 3.6 3.6 0 0 1 0 7.1zm-25.1 0a3.6 3.6 0 1 1 0-7.1 3.6 3.6 0 0 1 0 7.1zm50.2 0a3.6 3.6 0 1 1 0-7.1 3.6 3.6 0 0 1 0 7.1zm326.7 0a3.6 3.6 0 1 1 0-7.1 3.6 3.6 0 0 1 0 7.1zm50.3 0a3.6 3.6 0 1 1 0-7.1 3.6 3.6 0 0 1 0 7.1zm-25.1 0a3.6 3.6 0 1 1 0-7.1 3.6 3.6 0 0 1 0 7.1zm50.2 0a3.6 3.6 0 1 1 0-7.1 3.6 3.6 0 0 1 0 7.1zm326.7 0a3.6 3.6 0 1 1 0-7.1 3.6 3.6 0 0 1 0 7.1zm50.3 0a3.6 3.6 0 1 1 0-7.1 3.6 3.6 0 0 1 0 7.1zm-25.2 0a3.6 3.6 0 1 1 0-7.1 3.6 3.6 0 0 1 0 7.1zm50.3 0a3.6 3.6 0 1 1 0-7.1 3.6 3.6 0 0 1 0 7.1zM15.8 257.3a3.6 3.6 0 1 1 0-7.1 3.6 3.6 0 0 1 0 7.1zm50.2 0a3.6 3.6 0 1 1 0-7.1 3.6 3.6 0 0 1 0 7.1zm-25.1 0a3.6 3.6 0 1 1 0-7.1 3.6 3.6 0 0 1 0 7.1zm50.3 0a3.6 3.6 0 1 1 0-7.1 3.6 3.6 0 0 1 0 7.1zm326.7 0a3.6 3.6 0 1 1 0-7.1 3.6 3.6 0 0 1 0 7.1zm50.2 0a3.6 3.6 0 1 1 0-7.1 3.6 3.6 0 0 1 0 7.1zm-25.1 0a3.6 3.6 0 1 1 0-7.1 3.6 3.6 0 0 1 0 7.1zm50.2 0a3.6 3.6 0 1 1 0-7.1 3.6 3.6 0 0 1 0 7.1zm326.7 0a3.6 3.6 0 1 1 0-7.1 3.6 3.6 0 0 1 0 7.1zm50.3 0a3.6 3.6 0 1 1 0-7.1 3.6 3.6 0 0 1 0 7.1zm-25.1 0a3.6 3.6 0 1 1 0-7.1 3.6 3.6 0 0 1 0 7.1zm50.2 0a3.6 3.6 0 1 1 0-7.1 3.6 3.6 0 0 1 0 7.1zm-678.5 0a3.6 3.6 0 1 1 0-7.1 3.6 3.6 0 0 1 0 7.1zm50.3 0a3.6 3.6 0 1 1 0-7.1 3.6 3.6 0 0 1 0 7.1zm-25.2 0a3.6 3.6 0 1 1 0-7.1 3.6 3.6 0 0 1 0 7.1zm50.3 0a3.6 3.6 0 1 1 0-7.1 3.6 3.6 0 0 1 0 7.1zm326.7 0a3.6 3.6 0 1 1 0-7.1 3.6 3.6 0 0 1 0 7.1zm50.3 0a3.6 3.6 0 1 1 0-7.1 3.6 3.6 0 0 1 0 7.1zm-25.2 0a3.6 3.6 0 1 1 0-7.1 3.6 3.6 0 0 1 0 7.1zm50.3 0a3.6 3.6 0 1 1 0-7.1 3.6 3.6 0 0 1 0 7.1zm326.7 0a3.6 3.6 0 1 1 0-7.1 3.6 3.6 0 0 1 0 7.1zm50.3 0a3.6 3.6 0 1 1 0-7.1 3.6 3.6 0 0 1 0 7.1zm-25.2 0a3.6 3.6 0 1 1 0-7.1 3.6 3.6 0 0 1 0 7.1zm50.3 0a3.6 3.6 0 1 1 0-7.1 3.6 3.6 0 0 1 0 7.1zm-980.1 0a3.6 3.6 0 1 1 0-7.1 3.6 3.6 0 0 1 0 7.1zm50.2 0a3.6 3.6 0 1 1 0-7.1 3.6 3.6 0 0 1 0 7.1zm-25 0a3.6 3.6 0 1 1 0-7.1 3.6 3.6 0 0 1 0 7.1zm50.2 0a3.6 3.6 0 1 1 0-7.1 3.6 3.6 0 0 1 0 7.1zm326.7 0a3.6 3.6 0 1 1 0-7.1 3.6 3.6 0 0 1 0 7.1zm50.2 0a3.6 3.6 0 1 1 0-7.1 3.6 3.6 0 0 1 0 7.1zm-25 0a3.6 3.6 0 1 1 0-7.1 3.6 3.6 0 0 1 0 7.1zm50.2 0a3.6 3.6 0 1 1 0-7.1 3.6 3.6 0 0 1 0 7.1zm326.7 0a3.6 3.6 0 1 1 0-7.1 3.6 3.6 0 0 1 0 7.1zm50.2 0a3.6 3.6 0 1 1 0-7.1 3.6 3.6 0 0 1 0 7.1zm-25.1 0a3.6 3.6 0 1 1 0-7.1 3.6 3.6 0 0 1 0 7.1zm50.3 0a3.6 3.6 0 1 1 0-7.1 3.6 3.6 0 0 1 0 7.1zm-678.6 0a3.6 3.6 0 1 1 0-7.1 3.6 3.6 0 0 1 0 7.1zm50.3 0a3.6 3.6 0 1 1 0-7.1 3.6 3.6 0 0 1 0 7.1zm-25.1 0a3.6 3.6 0 1 1 0-7.1 3.6 3.6 0 0 1 0 7.1zm50.2 0a3.6 3.6 0 1 1 0-7.1 3.6 3.6 0 0 1 0 7.1zm326.7 0a3.6 3.6 0 1 1 0-7.1 3.6 3.6 0 0 1 0 7.1zm50.3 0a3.6 3.6 0 1 1 0-7.1 3.6 3.6 0 0 1 0 7.1zm-25.1 0a3.6 3.6 0 1 1 0-7.1 3.6 3.6 0 0 1 0 7.1zm50.2 0a3.6 3.6 0 1 1 0-7.1 3.6 3.6 0 0 1 0 7.1zm326.7 0a3.6 3.6 0 1 1 0-7.1 3.6 3.6 0 0 1 0 7.1zm50.3 0a3.6 3.6 0 1 1 0-7.1 3.6 3.6 0 0 1 0 7.1zm-25.2 0a3.6 3.6 0 1 1 0-7.1 3.6 3.6 0 0 1 0 7.1zm50.3 0a3.6 3.6 0 1 1 0-7.1 3.6 3.6 0 0 1 0 7.1zM15.8 296.8a3.6 3.6 0 1 1 0-7.1 3.6 3.6 0 0 1 0 7.1zm50.2 0a3.6 3.6 0 1 1 0-7.1 3.6 3.6 0 0 1 0 7.1zm-25.1 0a3.6 3.6 0 1 1 0-7.1 3.6 3.6 0 0 1 0 7.1zm50.3 0a3.6 3.6 0 1 1 0-7.1 3.6 3.6 0 0 1 0 7.1zm326.7 0a3.6 3.6 0 1 1 0-7.1 3.6 3.6 0 0 1 0 7.1zm50.2 0a3.6 3.6 0 1 1 0-7.1 3.6 3.6 0 0 1 0 7.1zm-25.1 0a3.6 3.6 0 1 1 0-7.1 3.6 3.6 0 0 1 0 7.1zm50.2 0a3.6 3.6 0 1 1 0-7.1 3.6 3.6 0 0 1 0 7.1zm326.7 0a3.6 3.6 0 1 1 0-7.1 3.6 3.6 0 0 1 0 7.1zm50.3 0a3.6 3.6 0 1 1 0-7.1 3.6 3.6 0 0 1 0 7.1zm-25.1 0a3.6 3.6 0 1 1 0-7.1 3.6 3.6 0 0 1 0 7.1zm50.2 0a3.6 3.6 0 1 1 0-7.1 3.6 3.6 0 0 1 0 7.1zm-678.5 0a3.6 3.6 0 1 1 0-7.1 3.6 3.6 0 0 1 0 7.1zm50.3 0a3.6 3.6 0 1 1 0-7.1 3.6 3.6 0 0 1 0 7.1zm-25.2 0a3.6 3.6 0 1 1 0-7.1 3.6 3.6 0 0 1 0 7.1zm50.3 0a3.6 3.6 0 1 1 0-7.1 3.6 3.6 0 0 1 0 7.1zm326.7 0a3.6 3.6 0 1 1 0-7.1 3.6 3.6 0 0 1 0 7.1zm50.3 0a3.6 3.6 0 1 1 0-7.1 3.6 3.6 0 0 1 0 7.1zm-25.2 0a3.6 3.6 0 1 1 0-7.1 3.6 3.6 0 0 1 0 7.1zm50.3 0a3.6 3.6 0 1 1 0-7.1 3.6 3.6 0 0 1 0 7.1zm326.7 0a3.6 3.6 0 1 1 0-7.1 3.6 3.6 0 0 1 0 7.1zm50.3 0a3.6 3.6 0 1 1 0-7.1 3.6 3.6 0 0 1 0 7.1zm-25.2 0a3.6 3.6 0 1 1 0-7.1 3.6 3.6 0 0 1 0 7.1zm50.3 0a3.6 3.6 0 1 1 0-7.1 3.6 3.6 0 0 1 0 7.1zm-980.1 0a3.6 3.6 0 1 1 0-7.1 3.6 3.6 0 0 1 0 7.1zm50.2 0a3.6 3.6 0 1 1 0-7.1 3.6 3.6 0 0 1 0 7.1zm-25 0a3.6 3.6 0 1 1 0-7.1 3.6 3.6 0 0 1 0 7.1zm50.2 0a3.6 3.6 0 1 1 0-7.1 3.6 3.6 0 0 1 0 7.1zm326.7 0a3.6 3.6 0 1 1 0-7.1 3.6 3.6 0 0 1 0 7.1zm50.2 0a3.6 3.6 0 1 1 0-7.1 3.6 3.6 0 0 1 0 7.1zm-25 0a3.6 3.6 0 1 1 0-7.1 3.6 3.6 0 0 1 0 7.1zm50.2 0a3.6 3.6 0 1 1 0-7.1 3.6 3.6 0 0 1 0 7.1zm326.7 0a3.6 3.6 0 1 1 0-7.1 3.6 3.6 0 0 1 0 7.1zm50.2 0a3.6 3.6 0 1 1 0-7.1 3.6 3.6 0 0 1 0 7.1zm-25.1 0a3.6 3.6 0 1 1 0-7.1 3.6 3.6 0 0 1 0 7.1zm50.3 0a3.6 3.6 0 1 1 0-7.1 3.6 3.6 0 0 1 0 7.1zm-678.6 0a3.6 3.6 0 1 1 0-7.1 3.6 3.6 0 0 1 0 7.1zm50.3 0a3.6 3.6 0 1 1 0-7.1 3.6 3.6 0 0 1 0 7.1zm-25.1 0a3.6 3.6 0 1 1 0-7.1 3.6 3.6 0 0 1 0 7.1zm50.2 0a3.6 3.6 0 1 1 0-7.1 3.6 3.6 0 0 1 0 7.1zm326.7 0a3.6 3.6 0 1 1 0-7.1 3.6 3.6 0 0 1 0 7.1zm50.3 0a3.6 3.6 0 1 1 0-7.1 3.6 3.6 0 0 1 0 7.1zm-25.1 0a3.6 3.6 0 1 1 0-7.1 3.6 3.6 0 0 1 0 7.1zm50.2 0a3.6 3.6 0 1 1 0-7.1 3.6 3.6 0 0 1 0 7.1zm326.7 0a3.6 3.6 0 1 1 0-7.1 3.6 3.6 0 0 1 0 7.1zm50.3 0a3.6 3.6 0 1 1 0-7.1 3.6 3.6 0 0 1 0 7.1zm-25.2 0a3.6 3.6 0 1 1 0-7.1 3.6 3.6 0 0 1 0 7.1zm50.3 0a3.6 3.6 0 1 1 0-7.1 3.6 3.6 0 0 1 0 7.1zM4.1 237.6a3.6 3.6 0 1 1 0-7.2 3.6 3.6 0 0 1 0 7.2zm50.3 0a3.6 3.6 0 1 1 0-7.2 3.6 3.6 0 0 1 0 7.2zm-25.2 0a3.6 3.6 0 1 1 0-7.2 3.6 3.6 0 0 1 0 7.2zm50.3 0a3.6 3.6 0 1 1 0-7.2 3.6 3.6 0 0 1 0 7.2zm326.7 0a3.6 3.6 0 1 1 0-7.2 3.6 3.6 0 0 1 0 7.2zm50.2 0a3.6 3.6 0 1 1 0-7.2 3.6 3.6 0 0 1 0 7.2zm-25 0a3.6 3.6 0 1 1 0-7.2 3.6 3.6 0 0 1 0 7.2zm50.2 0a3.6 3.6 0 1 1 0-7.2 3.6 3.6 0 0 1 0 7.2zm326.7 0a3.6 3.6 0 1 1 0-7.2 3.6 3.6 0 0 1 0 7.2zm50.2 0a3.6 3.6 0 1 1 0-7.2 3.6 3.6 0 0 1 0 7.2zm-25 0a3.6 3.6 0 1 1 0-7.2 3.6 3.6 0 0 1 0 7.2zm50.2 0a3.6 3.6 0 1 1 0-7.2 3.6 3.6 0 0 1 0 7.2zm-678.6 0a3.6 3.6 0 1 1 0-7.2 3.6 3.6 0 0 1 0 7.2zm50.3 0a3.6 3.6 0 1 1 0-7.2 3.6 3.6 0 0 1 0 7.2zm-25.1 0a3.6 3.6 0 1 1 0-7.2 3.6 3.6 0 0 1 0 7.2zm50.2 0a3.6 3.6 0 1 1 0-7.2 3.6 3.6 0 0 1 0 7.2zm326.7 0a3.6 3.6 0 1 1 0-7.2 3.6 3.6 0 0 1 0 7.2zm50.3 0a3.6 3.6 0 1 1 0-7.2 3.6 3.6 0 0 1 0 7.2zm-25.1 0a3.6 3.6 0 1 1 0-7.2 3.6 3.6 0 0 1 0 7.2zm50.2 0a3.6 3.6 0 1 1 0-7.2 3.6 3.6 0 0 1 0 7.2zm326.7 0a3.6 3.6 0 1 1 0-7.2 3.6 3.6 0 0 1 0 7.2zm50.3 0a3.6 3.6 0 1 1 0-7.2 3.6 3.6 0 0 1 0 7.2zm-25.1 0a3.6 3.6 0 1 1 0-7.2 3.6 3.6 0 0 1 0 7.2zm50.2 0a3.6 3.6 0 1 1 0-7.2 3.6 3.6 0 0 1 0 7.2zm-980 0a3.6 3.6 0 1 1 0-7.2 3.6 3.6 0 0 1 0 7.2zm50.2 0a3.6 3.6 0 1 1 0-7.2 3.6 3.6 0 0 1 0 7.2zm-25.2 0a3.6 3.6 0 1 1 0-7.2 3.6 3.6 0 0 1 0 7.2zm50.3 0a3.6 3.6 0 1 1 0-7.2 3.6 3.6 0 0 1 0 7.2zm326.7 0a3.6 3.6 0 1 1 0-7.2 3.6 3.6 0 0 1 0 7.2zm50.3 0a3.6 3.6 0 1 1 0-7.2 3.6 3.6 0 0 1 0 7.2zm-25.2 0a3.6 3.6 0 1 1 0-7.2 3.6 3.6 0 0 1 0 7.2zm50.3 0a3.6 3.6 0 1 1 0-7.2 3.6 3.6 0 0 1 0 7.2zm326.7 0a3.6 3.6 0 1 1 0-7.2 3.6 3.6 0 0 1 0 7.2zm50.3 0a3.6 3.6 0 1 1 0-7.2 3.6 3.6 0 0 1 0 7.2zm-25.2 0a3.6 3.6 0 1 1 0-7.2 3.6 3.6 0 0 1 0 7.2zm50.3 0a3.6 3.6 0 1 1 0-7.2 3.6 3.6 0 0 1 0 7.2zm-678.5 0a3.6 3.6 0 1 1 0-7.2 3.6 3.6 0 0 1 0 7.2zm50.2 0a3.6 3.6 0 1 1 0-7.2 3.6 3.6 0 0 1 0 7.2zm-25.1 0a3.6 3.6 0 1 1 0-7.2 3.6 3.6 0 0 1 0 7.2zm50.3 0a3.6 3.6 0 1 1 0-7.2 3.6 3.6 0 0 1 0 7.2zm326.7 0a3.6 3.6 0 1 1 0-7.2 3.6 3.6 0 0 1 0 7.2zm50.2 0a3.6 3.6 0 1 1 0-7.2 3.6 3.6 0 0 1 0 7.2zm-25.1 0a3.6 3.6 0 1 1 0-7.2 3.6 3.6 0 0 1 0 7.2zm50.2 0a3.6 3.6 0 1 1 0-7.2 3.6 3.6 0 0 1 0 7.2zm326.7 0a3.6 3.6 0 1 1 0-7.2 3.6 3.6 0 0 1 0 7.2zm50.3 0a3.6 3.6 0 1 1 0-7.2 3.6 3.6 0 0 1 0 7.2zm-25.1 0a3.6 3.6 0 1 1 0-7.2 3.6 3.6 0 0 1 0 7.2zm50.2 0a3.6 3.6 0 1 1 0-7.2 3.6 3.6 0 0 1 0 7.2zM4.1 277a3.6 3.6 0 1 1 0-7.2 3.6 3.6 0 0 1 0 7.2zm50.3 0a3.6 3.6 0 1 1 0-7.2 3.6 3.6 0 0 1 0 7.2zm-25.2 0a3.6 3.6 0 1 1 0-7.2 3.6 3.6 0 0 1 0 7.2zm50.3 0a3.6 3.6 0 1 1 0-7.2 3.6 3.6 0 0 1 0 7.2zm326.7 0a3.6 3.6 0 1 1 0-7.2 3.6 3.6 0 0 1 0 7.2zm50.2 0a3.6 3.6 0 1 1 0-7.2 3.6 3.6 0 0 1 0 7.2zm-25 0a3.6 3.6 0 1 1 0-7.2 3.6 3.6 0 0 1 0 7.2zm50.2 0a3.6 3.6 0 1 1 0-7.2 3.6 3.6 0 0 1 0 7.2zm326.7 0a3.6 3.6 0 1 1 0-7.2 3.6 3.6 0 0 1 0 7.2zm50.2 0a3.6 3.6 0 1 1 0-7.2 3.6 3.6 0 0 1 0 7.2zm-25 0a3.6 3.6 0 1 1 0-7.2 3.6 3.6 0 0 1 0 7.2zm50.2 0a3.6 3.6 0 1 1 0-7.2 3.6 3.6 0 0 1 0 7.2zM205 277a3.6 3.6 0 1 1 0-7.2 3.6 3.6 0 0 1 0 7.2zm50.3 0a3.6 3.6 0 1 1 0-7.2 3.6 3.6 0 0 1 0 7.2zm-25.1 0a3.6 3.6 0 1 1 0-7.2 3.6 3.6 0 0 1 0 7.2zm50.2 0a3.6 3.6 0 1 1 0-7.2 3.6 3.6 0 0 1 0 7.2zm326.7 0a3.6 3.6 0 1 1 0-7.2 3.6 3.6 0 0 1 0 7.2zm50.3 0a3.6 3.6 0 1 1 0-7.2 3.6 3.6 0 0 1 0 7.2zm-25.1 0a3.6 3.6 0 1 1 0-7.2 3.6 3.6 0 0 1 0 7.2zm50.2 0a3.6 3.6 0 1 1 0-7.2 3.6 3.6 0 0 1 0 7.2zm326.7 0a3.6 3.6 0 1 1 0-7.2 3.6 3.6 0 0 1 0 7.2zm50.3 0a3.6 3.6 0 1 1 0-7.2 3.6 3.6 0 0 1 0 7.2zm-25.1 0a3.6 3.6 0 1 1 0-7.2 3.6 3.6 0 0 1 0 7.2zm50.2 0a3.6 3.6 0 1 1 0-7.2 3.6 3.6 0 0 1 0 7.2zm-980 0a3.6 3.6 0 1 1 0-7.2 3.6 3.6 0 0 1 0 7.2zm50.2 0a3.6 3.6 0 1 1 0-7.2 3.6 3.6 0 0 1 0 7.2zm-25.2 0a3.6 3.6 0 1 1 0-7.2 3.6 3.6 0 0 1 0 7.2zm50.3 0a3.6 3.6 0 1 1 0-7.2 3.6 3.6 0 0 1 0 7.2zm326.7 0a3.6 3.6 0 1 1 0-7.2 3.6 3.6 0 0 1 0 7.2zm50.3 0a3.6 3.6 0 1 1 0-7.2 3.6 3.6 0 0 1 0 7.2zm-25.2 0a3.6 3.6 0 1 1 0-7.2 3.6 3.6 0 0 1 0 7.2zm50.3 0a3.6 3.6 0 1 1 0-7.2 3.6 3.6 0 0 1 0 7.2zm326.7 0a3.6 3.6 0 1 1 0-7.2 3.6 3.6 0 0 1 0 7.2zm50.3 0a3.6 3.6 0 1 1 0-7.2 3.6 3.6 0 0 1 0 7.2zm-25.2 0a3.6 3.6 0 1 1 0-7.2 3.6 3.6 0 0 1 0 7.2zm50.3 0a3.6 3.6 0 1 1 0-7.2 3.6 3.6 0 0 1 0 7.2zm-678.5 0a3.6 3.6 0 1 1 0-7.2 3.6 3.6 0 0 1 0 7.2zm50.2 0a3.6 3.6 0 1 1 0-7.2 3.6 3.6 0 0 1 0 7.2zm-25.1 0a3.6 3.6 0 1 1 0-7.2 3.6 3.6 0 0 1 0 7.2zm50.3 0a3.6 3.6 0 1 1 0-7.2 3.6 3.6 0 0 1 0 7.2zm326.7 0a3.6 3.6 0 1 1 0-7.2 3.6 3.6 0 0 1 0 7.2zm50.2 0a3.6 3.6 0 1 1 0-7.2 3.6 3.6 0 0 1 0 7.2zm-25.1 0a3.6 3.6 0 1 1 0-7.2 3.6 3.6 0 0 1 0 7.2zm50.2 0a3.6 3.6 0 1 1 0-7.2 3.6 3.6 0 0 1 0 7.2zm326.7 0a3.6 3.6 0 1 1 0-7.2 3.6 3.6 0 0 1 0 7.2zm50.3 0a3.6 3.6 0 1 1 0-7.2 3.6 3.6 0 0 1 0 7.2zm-25.1 0a3.6 3.6 0 1 1 0-7.2 3.6 3.6 0 0 1 0 7.2zm50.2 0a3.6 3.6 0 1 1 0-7.2 3.6 3.6 0 0 1 0 7.2zM4.1 316.6a3.6 3.6 0 1 1 0-7.2 3.6 3.6 0 0 1 0 7.2zm50.3 0a3.6 3.6 0 1 1 0-7.2 3.6 3.6 0 0 1 0 7.2zm-25.2 0a3.6 3.6 0 1 1 0-7.2 3.6 3.6 0 0 1 0 7.2zm50.3 0a3.6 3.6 0 1 1 0-7.2 3.6 3.6 0 0 1 0 7.2zm326.7 0a3.6 3.6 0 1 1 0-7.2 3.6 3.6 0 0 1 0 7.2zm50.2 0a3.6 3.6 0 1 1 0-7.2 3.6 3.6 0 0 1 0 7.2zm-25 0a3.6 3.6 0 1 1 0-7.2 3.6 3.6 0 0 1 0 7.2zm50.2 0a3.6 3.6 0 1 1 0-7.2 3.6 3.6 0 0 1 0 7.2zm326.7 0a3.6 3.6 0 1 1 0-7.2 3.6 3.6 0 0 1 0 7.2zm50.2 0a3.6 3.6 0 1 1 0-7.2 3.6 3.6 0 0 1 0 7.2zm-25 0a3.6 3.6 0 1 1 0-7.2 3.6 3.6 0 0 1 0 7.2zm50.2 0a3.6 3.6 0 1 1 0-7.2 3.6 3.6 0 0 1 0 7.2zm-678.6 0a3.6 3.6 0 1 1 0-7.2 3.6 3.6 0 0 1 0 7.2zm50.3 0a3.6 3.6 0 1 1 0-7.2 3.6 3.6 0 0 1 0 7.2zm-25.1 0a3.6 3.6 0 1 1 0-7.2 3.6 3.6 0 0 1 0 7.2zm50.2 0a3.6 3.6 0 1 1 0-7.2 3.6 3.6 0 0 1 0 7.2zm326.7 0a3.6 3.6 0 1 1 0-7.2 3.6 3.6 0 0 1 0 7.2zm50.3 0a3.6 3.6 0 1 1 0-7.2 3.6 3.6 0 0 1 0 7.2zm-25.1 0a3.6 3.6 0 1 1 0-7.2 3.6 3.6 0 0 1 0 7.2zm50.2 0a3.6 3.6 0 1 1 0-7.2 3.6 3.6 0 0 1 0 7.2zm326.7 0a3.6 3.6 0 1 1 0-7.2 3.6 3.6 0 0 1 0 7.2zm50.3 0a3.6 3.6 0 1 1 0-7.2 3.6 3.6 0 0 1 0 7.2zm-25.1 0a3.6 3.6 0 1 1 0-7.2 3.6 3.6 0 0 1 0 7.2zm50.2 0a3.6 3.6 0 1 1 0-7.2 3.6 3.6 0 0 1 0 7.2zm-980 0a3.6 3.6 0 1 1 0-7.2 3.6 3.6 0 0 1 0 7.2zm50.2 0a3.6 3.6 0 1 1 0-7.2 3.6 3.6 0 0 1 0 7.2zm-25.2 0a3.6 3.6 0 1 1 0-7.2 3.6 3.6 0 0 1 0 7.2zm50.3 0a3.6 3.6 0 1 1 0-7.2 3.6 3.6 0 0 1 0 7.2zm326.7 0a3.6 3.6 0 1 1 0-7.2 3.6 3.6 0 0 1 0 7.2zm50.3 0a3.6 3.6 0 1 1 0-7.2 3.6 3.6 0 0 1 0 7.2zm-25.2 0a3.6 3.6 0 1 1 0-7.2 3.6 3.6 0 0 1 0 7.2zm50.3 0a3.6 3.6 0 1 1 0-7.2 3.6 3.6 0 0 1 0 7.2zm326.7 0a3.6 3.6 0 1 1 0-7.2 3.6 3.6 0 0 1 0 7.2zm50.3 0a3.6 3.6 0 1 1 0-7.2 3.6 3.6 0 0 1 0 7.2zm-25.2 0a3.6 3.6 0 1 1 0-7.2 3.6 3.6 0 0 1 0 7.2zm50.3 0a3.6 3.6 0 1 1 0-7.2 3.6 3.6 0 0 1 0 7.2zm-678.5 0a3.6 3.6 0 1 1 0-7.2 3.6 3.6 0 0 1 0 7.2zm50.2 0a3.6 3.6 0 1 1 0-7.2 3.6 3.6 0 0 1 0 7.2zm-25.1 0a3.6 3.6 0 1 1 0-7.2 3.6 3.6 0 0 1 0 7.2zm50.3 0a3.6 3.6 0 1 1 0-7.2 3.6 3.6 0 0 1 0 7.2zm326.7 0a3.6 3.6 0 1 1 0-7.2 3.6 3.6 0 0 1 0 7.2zm50.2 0a3.6 3.6 0 1 1 0-7.2 3.6 3.6 0 0 1 0 7.2zm-25.1 0a3.6 3.6 0 1 1 0-7.2 3.6 3.6 0 0 1 0 7.2zm50.2 0a3.6 3.6 0 1 1 0-7.2 3.6 3.6 0 0 1 0 7.2zm326.7 0a3.6 3.6 0 1 1 0-7.2 3.6 3.6 0 0 1 0 7.2zm50.3 0a3.6 3.6 0 1 1 0-7.2 3.6 3.6 0 0 1 0 7.2zm-25.1 0a3.6 3.6 0 1 1 0-7.2 3.6 3.6 0 0 1 0 7.2zm50.2 0a3.6 3.6 0 1 1 0-7.2 3.6 3.6 0 0 1 0 7.2zM15.8 336.3a3.6 3.6 0 1 1 0-7.2 3.6 3.6 0 0 1 0 7.2zm50.2 0a3.6 3.6 0 1 1 0-7.2 3.6 3.6 0 0 1 0 7.2zm-25.1 0a3.6 3.6 0 1 1 0-7.2 3.6 3.6 0 0 1 0 7.2zm50.3 0a3.6 3.6 0 1 1 0-7.2 3.6 3.6 0 0 1 0 7.2zm326.7 0a3.6 3.6 0 1 1 0-7.2 3.6 3.6 0 0 1 0 7.2zm50.2 0a3.6 3.6 0 1 1 0-7.2 3.6 3.6 0 0 1 0 7.2zm-25.1 0a3.6 3.6 0 1 1 0-7.2 3.6 3.6 0 0 1 0 7.2zm50.2 0a3.6 3.6 0 1 1 0-7.2 3.6 3.6 0 0 1 0 7.2zm326.7 0a3.6 3.6 0 1 1 0-7.2 3.6 3.6 0 0 1 0 7.2zm50.3 0a3.6 3.6 0 1 1 0-7.2 3.6 3.6 0 0 1 0 7.2zm-25.1 0a3.6 3.6 0 1 1 0-7.2 3.6 3.6 0 0 1 0 7.2zm50.2 0a3.6 3.6 0 1 1 0-7.2 3.6 3.6 0 0 1 0 7.2zm-678.5 0a3.6 3.6 0 1 1 0-7.2 3.6 3.6 0 0 1 0 7.2zm50.3 0a3.6 3.6 0 1 1 0-7.2 3.6 3.6 0 0 1 0 7.2zm-25.2 0a3.6 3.6 0 1 1 0-7.2 3.6 3.6 0 0 1 0 7.2zm50.3 0a3.6 3.6 0 1 1 0-7.2 3.6 3.6 0 0 1 0 7.2zm326.7 0a3.6 3.6 0 1 1 0-7.2 3.6 3.6 0 0 1 0 7.2zm50.3 0a3.6 3.6 0 1 1 0-7.2 3.6 3.6 0 0 1 0 7.2zm-25.2 0a3.6 3.6 0 1 1 0-7.2 3.6 3.6 0 0 1 0 7.2zm50.3 0a3.6 3.6 0 1 1 0-7.2 3.6 3.6 0 0 1 0 7.2zm326.7 0a3.6 3.6 0 1 1 0-7.2 3.6 3.6 0 0 1 0 7.2zm50.3 0a3.6 3.6 0 1 1 0-7.2 3.6 3.6 0 0 1 0 7.2zm-25.2 0a3.6 3.6 0 1 1 0-7.2 3.6 3.6 0 0 1 0 7.2zm50.3 0a3.6 3.6 0 1 1 0-7.2 3.6 3.6 0 0 1 0 7.2zm-980.1 0a3.6 3.6 0 1 1 0-7.2 3.6 3.6 0 0 1 0 7.2zm50.2 0a3.6 3.6 0 1 1 0-7.2 3.6 3.6 0 0 1 0 7.2zm-25 0a3.6 3.6 0 1 1 0-7.2 3.6 3.6 0 0 1 0 7.2zm50.2 0a3.6 3.6 0 1 1 0-7.2 3.6 3.6 0 0 1 0 7.2zm326.7 0a3.6 3.6 0 1 1 0-7.2 3.6 3.6 0 0 1 0 7.2zm50.2 0a3.6 3.6 0 1 1 0-7.2 3.6 3.6 0 0 1 0 7.2zm-25 0a3.6 3.6 0 1 1 0-7.2 3.6 3.6 0 0 1 0 7.2zm50.2 0a3.6 3.6 0 1 1 0-7.2 3.6 3.6 0 0 1 0 7.2zm326.7 0a3.6 3.6 0 1 1 0-7.2 3.6 3.6 0 0 1 0 7.2zm50.2 0a3.6 3.6 0 1 1 0-7.2 3.6 3.6 0 0 1 0 7.2zm-25.1 0a3.6 3.6 0 1 1 0-7.2 3.6 3.6 0 0 1 0 7.2zm50.3 0a3.6 3.6 0 1 1 0-7.2 3.6 3.6 0 0 1 0 7.2zm-678.6 0a3.6 3.6 0 1 1 0-7.2 3.6 3.6 0 0 1 0 7.2zm50.3 0a3.6 3.6 0 1 1 0-7.2 3.6 3.6 0 0 1 0 7.2zm-25.1 0a3.6 3.6 0 1 1 0-7.2 3.6 3.6 0 0 1 0 7.2zm50.2 0a3.6 3.6 0 1 1 0-7.2 3.6 3.6 0 0 1 0 7.2zm326.7 0a3.6 3.6 0 1 1 0-7.2 3.6 3.6 0 0 1 0 7.2zm50.3 0a3.6 3.6 0 1 1 0-7.2 3.6 3.6 0 0 1 0 7.2zm-25.1 0a3.6 3.6 0 1 1 0-7.2 3.6 3.6 0 0 1 0 7.2zm50.2 0a3.6 3.6 0 1 1 0-7.2 3.6 3.6 0 0 1 0 7.2zm326.7 0a3.6 3.6 0 1 1 0-7.2 3.6 3.6 0 0 1 0 7.2zm50.3 0a3.6 3.6 0 1 1 0-7.2 3.6 3.6 0 0 1 0 7.2zm-25.2 0a3.6 3.6 0 1 1 0-7.2 3.6 3.6 0 0 1 0 7.2zm50.3 0a3.6 3.6 0 1 1 0-7.2 3.6 3.6 0 0 1 0 7.2zM15.8 375.8a3.6 3.6 0 1 1 0-7.2 3.6 3.6 0 0 1 0 7.2zm50.2 0a3.6 3.6 0 1 1 0-7.2 3.6 3.6 0 0 1 0 7.2zm-25.1 0a3.6 3.6 0 1 1 0-7.2 3.6 3.6 0 0 1 0 7.2zm50.3 0a3.6 3.6 0 1 1 0-7.2 3.6 3.6 0 0 1 0 7.2zm326.7 0a3.6 3.6 0 1 1 0-7.2 3.6 3.6 0 0 1 0 7.2zm50.2 0a3.6 3.6 0 1 1 0-7.2 3.6 3.6 0 0 1 0 7.2zm-25.1 0a3.6 3.6 0 1 1 0-7.2 3.6 3.6 0 0 1 0 7.2zm50.2 0a3.6 3.6 0 1 1 0-7.2 3.6 3.6 0 0 1 0 7.2zm326.7 0a3.6 3.6 0 1 1 0-7.2 3.6 3.6 0 0 1 0 7.2zm50.3 0a3.6 3.6 0 1 1 0-7.2 3.6 3.6 0 0 1 0 7.2zm-25.1 0a3.6 3.6 0 1 1 0-7.2 3.6 3.6 0 0 1 0 7.2zm50.2 0a3.6 3.6 0 1 1 0-7.2 3.6 3.6 0 0 1 0 7.2zm-678.5 0a3.6 3.6 0 1 1 0-7.2 3.6 3.6 0 0 1 0 7.2zm50.3 0a3.6 3.6 0 1 1 0-7.2 3.6 3.6 0 0 1 0 7.2zm-25.2 0a3.6 3.6 0 1 1 0-7.2 3.6 3.6 0 0 1 0 7.2zm50.3 0a3.6 3.6 0 1 1 0-7.2 3.6 3.6 0 0 1 0 7.2zm326.7 0a3.6 3.6 0 1 1 0-7.2 3.6 3.6 0 0 1 0 7.2zm50.3 0a3.6 3.6 0 1 1 0-7.2 3.6 3.6 0 0 1 0 7.2zm-25.2 0a3.6 3.6 0 1 1 0-7.2 3.6 3.6 0 0 1 0 7.2zm50.3 0a3.6 3.6 0 1 1 0-7.2 3.6 3.6 0 0 1 0 7.2zm326.7 0a3.6 3.6 0 1 1 0-7.2 3.6 3.6 0 0 1 0 7.2zm50.3 0a3.6 3.6 0 1 1 0-7.2 3.6 3.6 0 0 1 0 7.2zm-25.2 0a3.6 3.6 0 1 1 0-7.2 3.6 3.6 0 0 1 0 7.2zm50.3 0a3.6 3.6 0 1 1 0-7.2 3.6 3.6 0 0 1 0 7.2zm-980.1 0a3.6 3.6 0 1 1 0-7.2 3.6 3.6 0 0 1 0 7.2zm50.2 0a3.6 3.6 0 1 1 0-7.2 3.6 3.6 0 0 1 0 7.2zm-25 0a3.6 3.6 0 1 1 0-7.2 3.6 3.6 0 0 1 0 7.2zm50.2 0a3.6 3.6 0 1 1 0-7.2 3.6 3.6 0 0 1 0 7.2zm326.7 0a3.6 3.6 0 1 1 0-7.2 3.6 3.6 0 0 1 0 7.2zm50.2 0a3.6 3.6 0 1 1 0-7.2 3.6 3.6 0 0 1 0 7.2zm-25 0a3.6 3.6 0 1 1 0-7.2 3.6 3.6 0 0 1 0 7.2zm50.2 0a3.6 3.6 0 1 1 0-7.2 3.6 3.6 0 0 1 0 7.2zm326.7 0a3.6 3.6 0 1 1 0-7.2 3.6 3.6 0 0 1 0 7.2zm50.2 0a3.6 3.6 0 1 1 0-7.2 3.6 3.6 0 0 1 0 7.2zm-25.1 0a3.6 3.6 0 1 1 0-7.2 3.6 3.6 0 0 1 0 7.2zm50.3 0a3.6 3.6 0 1 1 0-7.2 3.6 3.6 0 0 1 0 7.2zm-678.6 0a3.6 3.6 0 1 1 0-7.2 3.6 3.6 0 0 1 0 7.2zm50.3 0a3.6 3.6 0 1 1 0-7.2 3.6 3.6 0 0 1 0 7.2zm-25.1 0a3.6 3.6 0 1 1 0-7.2 3.6 3.6 0 0 1 0 7.2zm50.2 0a3.6 3.6 0 1 1 0-7.2 3.6 3.6 0 0 1 0 7.2zm326.7 0a3.6 3.6 0 1 1 0-7.2 3.6 3.6 0 0 1 0 7.2zm50.3 0a3.6 3.6 0 1 1 0-7.2 3.6 3.6 0 0 1 0 7.2zm-25.1 0a3.6 3.6 0 1 1 0-7.2 3.6 3.6 0 0 1 0 7.2zm50.2 0a3.6 3.6 0 1 1 0-7.2 3.6 3.6 0 0 1 0 7.2zm326.7 0a3.6 3.6 0 1 1 0-7.2 3.6 3.6 0 0 1 0 7.2zm50.3 0a3.6 3.6 0 1 1 0-7.2 3.6 3.6 0 0 1 0 7.2zm-25.2 0a3.6 3.6 0 1 1 0-7.2 3.6 3.6 0 0 1 0 7.2zm50.3 0a3.6 3.6 0 1 1 0-7.2 3.6 3.6 0 0 1 0 7.2zM15.8 415.3a3.6 3.6 0 1 1 0-7.2 3.6 3.6 0 0 1 0 7.2zm50.2 0a3.6 3.6 0 1 1 0-7.2 3.6 3.6 0 0 1 0 7.2zm-25.1 0a3.6 3.6 0 1 1 0-7.2 3.6 3.6 0 0 1 0 7.2zm50.3 0a3.6 3.6 0 1 1 0-7.2 3.6 3.6 0 0 1 0 7.2zm326.7 0a3.6 3.6 0 1 1 0-7.2 3.6 3.6 0 0 1 0 7.2zm50.2 0a3.6 3.6 0 1 1 0-7.2 3.6 3.6 0 0 1 0 7.2zm-25.1 0a3.6 3.6 0 1 1 0-7.2 3.6 3.6 0 0 1 0 7.2zm50.2 0a3.6 3.6 0 1 1 0-7.2 3.6 3.6 0 0 1 0 7.2zm326.7 0a3.6 3.6 0 1 1 0-7.2 3.6 3.6 0 0 1 0 7.2zm50.3 0a3.6 3.6 0 1 1 0-7.2 3.6 3.6 0 0 1 0 7.2zm-25.1 0a3.6 3.6 0 1 1 0-7.2 3.6 3.6 0 0 1 0 7.2zm50.2 0a3.6 3.6 0 1 1 0-7.2 3.6 3.6 0 0 1 0 7.2zm-678.5 0a3.6 3.6 0 1 1 0-7.2 3.6 3.6 0 0 1 0 7.2zm50.3 0a3.6 3.6 0 1 1 0-7.2 3.6 3.6 0 0 1 0 7.2zm-25.2 0a3.6 3.6 0 1 1 0-7.2 3.6 3.6 0 0 1 0 7.2zm50.3 0a3.6 3.6 0 1 1 0-7.2 3.6 3.6 0 0 1 0 7.2zm326.7 0a3.6 3.6 0 1 1 0-7.2 3.6 3.6 0 0 1 0 7.2zm50.3 0a3.6 3.6 0 1 1 0-7.2 3.6 3.6 0 0 1 0 7.2zm-25.2 0a3.6 3.6 0 1 1 0-7.2 3.6 3.6 0 0 1 0 7.2zm50.3 0a3.6 3.6 0 1 1 0-7.2 3.6 3.6 0 0 1 0 7.2zm326.7 0a3.6 3.6 0 1 1 0-7.2 3.6 3.6 0 0 1 0 7.2zm50.3 0a3.6 3.6 0 1 1 0-7.2 3.6 3.6 0 0 1 0 7.2zm-25.2 0a3.6 3.6 0 1 1 0-7.2 3.6 3.6 0 0 1 0 7.2zm50.3 0a3.6 3.6 0 1 1 0-7.2 3.6 3.6 0 0 1 0 7.2zm-980.1 0a3.6 3.6 0 1 1 0-7.2 3.6 3.6 0 0 1 0 7.2zm50.2 0a3.6 3.6 0 1 1 0-7.2 3.6 3.6 0 0 1 0 7.2zm-25 0a3.6 3.6 0 1 1 0-7.2 3.6 3.6 0 0 1 0 7.2zm50.2 0a3.6 3.6 0 1 1 0-7.2 3.6 3.6 0 0 1 0 7.2zm326.7 0a3.6 3.6 0 1 1 0-7.2 3.6 3.6 0 0 1 0 7.2zm50.2 0a3.6 3.6 0 1 1 0-7.2 3.6 3.6 0 0 1 0 7.2zm-25 0a3.6 3.6 0 1 1 0-7.2 3.6 3.6 0 0 1 0 7.2zm50.2 0a3.6 3.6 0 1 1 0-7.2 3.6 3.6 0 0 1 0 7.2zm326.7 0a3.6 3.6 0 1 1 0-7.2 3.6 3.6 0 0 1 0 7.2zm50.2 0a3.6 3.6 0 1 1 0-7.2 3.6 3.6 0 0 1 0 7.2zm-25.1 0a3.6 3.6 0 1 1 0-7.2 3.6 3.6 0 0 1 0 7.2zm50.3 0a3.6 3.6 0 1 1 0-7.2 3.6 3.6 0 0 1 0 7.2zm-678.6 0a3.6 3.6 0 1 1 0-7.2 3.6 3.6 0 0 1 0 7.2zm50.3 0a3.6 3.6 0 1 1 0-7.2 3.6 3.6 0 0 1 0 7.2zm-25.1 0a3.6 3.6 0 1 1 0-7.2 3.6 3.6 0 0 1 0 7.2zm50.2 0a3.6 3.6 0 1 1 0-7.2 3.6 3.6 0 0 1 0 7.2zm326.7 0a3.6 3.6 0 1 1 0-7.2 3.6 3.6 0 0 1 0 7.2zm50.3 0a3.6 3.6 0 1 1 0-7.2 3.6 3.6 0 0 1 0 7.2zm-25.1 0a3.6 3.6 0 1 1 0-7.2 3.6 3.6 0 0 1 0 7.2zm50.2 0a3.6 3.6 0 1 1 0-7.2 3.6 3.6 0 0 1 0 7.2zm326.7 0a3.6 3.6 0 1 1 0-7.2 3.6 3.6 0 0 1 0 7.2zm50.3 0a3.6 3.6 0 1 1 0-7.2 3.6 3.6 0 0 1 0 7.2zm-25.2 0a3.6 3.6 0 1 1 0-7.2 3.6 3.6 0 0 1 0 7.2zm50.3 0a3.6 3.6 0 1 1 0-7.2 3.6 3.6 0 0 1 0 7.2zM4.1 356.1a3.6 3.6 0 1 1 0-7.2 3.6 3.6 0 0 1 0 7.2zm50.3 0a3.6 3.6 0 1 1 0-7.2 3.6 3.6 0 0 1 0 7.2zm-25.2 0a3.6 3.6 0 1 1 0-7.2 3.6 3.6 0 0 1 0 7.2zm50.3 0a3.6 3.6 0 1 1 0-7.2 3.6 3.6 0 0 1 0 7.2zm326.7 0a3.6 3.6 0 1 1 0-7.2 3.6 3.6 0 0 1 0 7.2zm50.2 0a3.6 3.6 0 1 1 0-7.2 3.6 3.6 0 0 1 0 7.2zm-25 0a3.6 3.6 0 1 1 0-7.2 3.6 3.6 0 0 1 0 7.2zm50.2 0a3.6 3.6 0 1 1 0-7.2 3.6 3.6 0 0 1 0 7.2zm326.7 0a3.6 3.6 0 1 1 0-7.2 3.6 3.6 0 0 1 0 7.2zm50.2 0a3.6 3.6 0 1 1 0-7.2 3.6 3.6 0 0 1 0 7.2zm-25 0a3.6 3.6 0 1 1 0-7.2 3.6 3.6 0 0 1 0 7.2zm50.2 0a3.6 3.6 0 1 1 0-7.2 3.6 3.6 0 0 1 0 7.2zM205 356a3.6 3.6 0 1 1 0-7.2 3.6 3.6 0 0 1 0 7.2zm50.3 0a3.6 3.6 0 1 1 0-7.2 3.6 3.6 0 0 1 0 7.2zm-25.1 0a3.6 3.6 0 1 1 0-7.2 3.6 3.6 0 0 1 0 7.2zm50.2 0a3.6 3.6 0 1 1 0-7.2 3.6 3.6 0 0 1 0 7.2zm326.7 0a3.6 3.6 0 1 1 0-7.2 3.6 3.6 0 0 1 0 7.2zm50.3 0a3.6 3.6 0 1 1 0-7.2 3.6 3.6 0 0 1 0 7.2zm-25.1 0a3.6 3.6 0 1 1 0-7.2 3.6 3.6 0 0 1 0 7.2zm50.2 0a3.6 3.6 0 1 1 0-7.2 3.6 3.6 0 0 1 0 7.2zm326.7 0a3.6 3.6 0 1 1 0-7.2 3.6 3.6 0 0 1 0 7.2zm50.3 0a3.6 3.6 0 1 1 0-7.2 3.6 3.6 0 0 1 0 7.2zm-25.1 0a3.6 3.6 0 1 1 0-7.2 3.6 3.6 0 0 1 0 7.2zm50.2 0a3.6 3.6 0 1 1 0-7.2 3.6 3.6 0 0 1 0 7.2zm-980 0a3.6 3.6 0 1 1 0-7.2 3.6 3.6 0 0 1 0 7.2zm50.2 0a3.6 3.6 0 1 1 0-7.2 3.6 3.6 0 0 1 0 7.2zm-25.2 0a3.6 3.6 0 1 1 0-7.2 3.6 3.6 0 0 1 0 7.2zm50.3 0a3.6 3.6 0 1 1 0-7.2 3.6 3.6 0 0 1 0 7.2zm326.7 0a3.6 3.6 0 1 1 0-7.2 3.6 3.6 0 0 1 0 7.2zm50.3 0a3.6 3.6 0 1 1 0-7.2 3.6 3.6 0 0 1 0 7.2zm-25.2 0a3.6 3.6 0 1 1 0-7.2 3.6 3.6 0 0 1 0 7.2zm50.3 0a3.6 3.6 0 1 1 0-7.2 3.6 3.6 0 0 1 0 7.2zm326.7 0a3.6 3.6 0 1 1 0-7.2 3.6 3.6 0 0 1 0 7.2zm50.3 0a3.6 3.6 0 1 1 0-7.2 3.6 3.6 0 0 1 0 7.2zm-25.2 0a3.6 3.6 0 1 1 0-7.2 3.6 3.6 0 0 1 0 7.2zm50.3 0a3.6 3.6 0 1 1 0-7.2 3.6 3.6 0 0 1 0 7.2zm-678.5 0a3.6 3.6 0 1 1 0-7.2 3.6 3.6 0 0 1 0 7.2zm50.2 0a3.6 3.6 0 1 1 0-7.2 3.6 3.6 0 0 1 0 7.2zm-25.1 0a3.6 3.6 0 1 1 0-7.2 3.6 3.6 0 0 1 0 7.2zm50.3 0a3.6 3.6 0 1 1 0-7.2 3.6 3.6 0 0 1 0 7.2zm326.7 0a3.6 3.6 0 1 1 0-7.2 3.6 3.6 0 0 1 0 7.2zm50.2 0a3.6 3.6 0 1 1 0-7.2 3.6 3.6 0 0 1 0 7.2zm-25.1 0a3.6 3.6 0 1 1 0-7.2 3.6 3.6 0 0 1 0 7.2zm50.2 0a3.6 3.6 0 1 1 0-7.2 3.6 3.6 0 0 1 0 7.2zm326.7 0a3.6 3.6 0 1 1 0-7.2 3.6 3.6 0 0 1 0 7.2zm50.3 0a3.6 3.6 0 1 1 0-7.2 3.6 3.6 0 0 1 0 7.2zm-25.1 0a3.6 3.6 0 1 1 0-7.2 3.6 3.6 0 0 1 0 7.2zm50.2 0a3.6 3.6 0 1 1 0-7.2 3.6 3.6 0 0 1 0 7.2zM4.1 395.6a3.6 3.6 0 1 1 0-7.2 3.6 3.6 0 0 1 0 7.2zm50.3 0a3.6 3.6 0 1 1 0-7.2 3.6 3.6 0 0 1 0 7.2zm-25.2 0a3.6 3.6 0 1 1 0-7.2 3.6 3.6 0 0 1 0 7.2zm50.3 0a3.6 3.6 0 1 1 0-7.2 3.6 3.6 0 0 1 0 7.2zm326.7 0a3.6 3.6 0 1 1 0-7.2 3.6 3.6 0 0 1 0 7.2zm50.2 0a3.6 3.6 0 1 1 0-7.2 3.6 3.6 0 0 1 0 7.2zm-25 0a3.6 3.6 0 1 1 0-7.2 3.6 3.6 0 0 1 0 7.2zm50.2 0a3.6 3.6 0 1 1 0-7.2 3.6 3.6 0 0 1 0 7.2zm326.7 0a3.6 3.6 0 1 1 0-7.2 3.6 3.6 0 0 1 0 7.2zm50.2 0a3.6 3.6 0 1 1 0-7.2 3.6 3.6 0 0 1 0 7.2zm-25 0a3.6 3.6 0 1 1 0-7.2 3.6 3.6 0 0 1 0 7.2zm50.2 0a3.6 3.6 0 1 1 0-7.2 3.6 3.6 0 0 1 0 7.2zm-678.6 0a3.6 3.6 0 1 1 0-7.2 3.6 3.6 0 0 1 0 7.2zm50.3 0a3.6 3.6 0 1 1 0-7.2 3.6 3.6 0 0 1 0 7.2zm-25.1 0a3.6 3.6 0 1 1 0-7.2 3.6 3.6 0 0 1 0 7.2zm50.2 0a3.6 3.6 0 1 1 0-7.2 3.6 3.6 0 0 1 0 7.2zm326.7 0a3.6 3.6 0 1 1 0-7.2 3.6 3.6 0 0 1 0 7.2zm50.3 0a3.6 3.6 0 1 1 0-7.2 3.6 3.6 0 0 1 0 7.2zm-25.1 0a3.6 3.6 0 1 1 0-7.2 3.6 3.6 0 0 1 0 7.2zm50.2 0a3.6 3.6 0 1 1 0-7.2 3.6 3.6 0 0 1 0 7.2zm326.7 0a3.6 3.6 0 1 1 0-7.2 3.6 3.6 0 0 1 0 7.2zm50.3 0a3.6 3.6 0 1 1 0-7.2 3.6 3.6 0 0 1 0 7.2zm-25.1 0a3.6 3.6 0 1 1 0-7.2 3.6 3.6 0 0 1 0 7.2zm50.2 0a3.6 3.6 0 1 1 0-7.2 3.6 3.6 0 0 1 0 7.2zm-980 0a3.6 3.6 0 1 1 0-7.2 3.6 3.6 0 0 1 0 7.2zm50.2 0a3.6 3.6 0 1 1 0-7.2 3.6 3.6 0 0 1 0 7.2zm-25.2 0a3.6 3.6 0 1 1 0-7.2 3.6 3.6 0 0 1 0 7.2zm50.3 0a3.6 3.6 0 1 1 0-7.2 3.6 3.6 0 0 1 0 7.2zm326.7 0a3.6 3.6 0 1 1 0-7.2 3.6 3.6 0 0 1 0 7.2zm50.3 0a3.6 3.6 0 1 1 0-7.2 3.6 3.6 0 0 1 0 7.2zm-25.2 0a3.6 3.6 0 1 1 0-7.2 3.6 3.6 0 0 1 0 7.2zm50.3 0a3.6 3.6 0 1 1 0-7.2 3.6 3.6 0 0 1 0 7.2zm326.7 0a3.6 3.6 0 1 1 0-7.2 3.6 3.6 0 0 1 0 7.2zm50.3 0a3.6 3.6 0 1 1 0-7.2 3.6 3.6 0 0 1 0 7.2zm-25.2 0a3.6 3.6 0 1 1 0-7.2 3.6 3.6 0 0 1 0 7.2zm50.3 0a3.6 3.6 0 1 1 0-7.2 3.6 3.6 0 0 1 0 7.2zm-678.5 0a3.6 3.6 0 1 1 0-7.2 3.6 3.6 0 0 1 0 7.2zm50.2 0a3.6 3.6 0 1 1 0-7.2 3.6 3.6 0 0 1 0 7.2zm-25.1 0a3.6 3.6 0 1 1 0-7.2 3.6 3.6 0 0 1 0 7.2zm50.3 0a3.6 3.6 0 1 1 0-7.2 3.6 3.6 0 0 1 0 7.2zm326.7 0a3.6 3.6 0 1 1 0-7.2 3.6 3.6 0 0 1 0 7.2zm50.2 0a3.6 3.6 0 1 1 0-7.2 3.6 3.6 0 0 1 0 7.2zm-25.1 0a3.6 3.6 0 1 1 0-7.2 3.6 3.6 0 0 1 0 7.2zm50.2 0a3.6 3.6 0 1 1 0-7.2 3.6 3.6 0 0 1 0 7.2zm326.7 0a3.6 3.6 0 1 1 0-7.2 3.6 3.6 0 0 1 0 7.2zm50.3 0a3.6 3.6 0 1 1 0-7.2 3.6 3.6 0 0 1 0 7.2zm-25.1 0a3.6 3.6 0 1 1 0-7.2 3.6 3.6 0 0 1 0 7.2zm50.2 0a3.6 3.6 0 1 1 0-7.2 3.6 3.6 0 0 1 0 7.2zM4.1 435a3.6 3.6 0 1 1 0-7.2 3.6 3.6 0 0 1 0 7.2zm50.3 0a3.6 3.6 0 1 1 0-7.2 3.6 3.6 0 0 1 0 7.2zm-25.2 0a3.6 3.6 0 1 1 0-7.2 3.6 3.6 0 0 1 0 7.2zm50.3 0a3.6 3.6 0 1 1 0-7.2 3.6 3.6 0 0 1 0 7.2zm326.7 0a3.6 3.6 0 1 1 0-7.2 3.6 3.6 0 0 1 0 7.2zm50.2 0a3.6 3.6 0 1 1 0-7.2 3.6 3.6 0 0 1 0 7.2zm-25 0a3.6 3.6 0 1 1 0-7.2 3.6 3.6 0 0 1 0 7.2zm50.2 0a3.6 3.6 0 1 1 0-7.2 3.6 3.6 0 0 1 0 7.2zm326.7 0a3.6 3.6 0 1 1 0-7.2 3.6 3.6 0 0 1 0 7.2zm50.2 0a3.6 3.6 0 1 1 0-7.2 3.6 3.6 0 0 1 0 7.2zm-25 0a3.6 3.6 0 1 1 0-7.2 3.6 3.6 0 0 1 0 7.2zm50.2 0a3.6 3.6 0 1 1 0-7.2 3.6 3.6 0 0 1 0 7.2zM205 435a3.6 3.6 0 1 1 0-7.2 3.6 3.6 0 0 1 0 7.2zm50.3 0a3.6 3.6 0 1 1 0-7.2 3.6 3.6 0 0 1 0 7.2zm-25.1 0a3.6 3.6 0 1 1 0-7.2 3.6 3.6 0 0 1 0 7.2zm50.2 0a3.6 3.6 0 1 1 0-7.2 3.6 3.6 0 0 1 0 7.2zm326.7 0a3.6 3.6 0 1 1 0-7.2 3.6 3.6 0 0 1 0 7.2zm50.3 0a3.6 3.6 0 1 1 0-7.2 3.6 3.6 0 0 1 0 7.2zm-25.1 0a3.6 3.6 0 1 1 0-7.2 3.6 3.6 0 0 1 0 7.2zm50.2 0a3.6 3.6 0 1 1 0-7.2 3.6 3.6 0 0 1 0 7.2zm326.7 0a3.6 3.6 0 1 1 0-7.2 3.6 3.6 0 0 1 0 7.2zm50.3 0a3.6 3.6 0 1 1 0-7.2 3.6 3.6 0 0 1 0 7.2zm-25.1 0a3.6 3.6 0 1 1 0-7.2 3.6 3.6 0 0 1 0 7.2zm50.2 0a3.6 3.6 0 1 1 0-7.2 3.6 3.6 0 0 1 0 7.2zm-980 0a3.6 3.6 0 1 1 0-7.2 3.6 3.6 0 0 1 0 7.2zm50.2 0a3.6 3.6 0 1 1 0-7.2 3.6 3.6 0 0 1 0 7.2zm-25.2 0a3.6 3.6 0 1 1 0-7.2 3.6 3.6 0 0 1 0 7.2zm50.3 0a3.6 3.6 0 1 1 0-7.2 3.6 3.6 0 0 1 0 7.2zm326.7 0a3.6 3.6 0 1 1 0-7.2 3.6 3.6 0 0 1 0 7.2zm50.3 0a3.6 3.6 0 1 1 0-7.2 3.6 3.6 0 0 1 0 7.2zm-25.2 0a3.6 3.6 0 1 1 0-7.2 3.6 3.6 0 0 1 0 7.2zm50.3 0a3.6 3.6 0 1 1 0-7.2 3.6 3.6 0 0 1 0 7.2zm326.7 0a3.6 3.6 0 1 1 0-7.2 3.6 3.6 0 0 1 0 7.2zm50.3 0a3.6 3.6 0 1 1 0-7.2 3.6 3.6 0 0 1 0 7.2zm-25.2 0a3.6 3.6 0 1 1 0-7.2 3.6 3.6 0 0 1 0 7.2zm50.3 0a3.6 3.6 0 1 1 0-7.2 3.6 3.6 0 0 1 0 7.2zm-678.5 0a3.6 3.6 0 1 1 0-7.2 3.6 3.6 0 0 1 0 7.2zm50.2 0a3.6 3.6 0 1 1 0-7.2 3.6 3.6 0 0 1 0 7.2zm-25.1 0a3.6 3.6 0 1 1 0-7.2 3.6 3.6 0 0 1 0 7.2zm50.3 0a3.6 3.6 0 1 1 0-7.2 3.6 3.6 0 0 1 0 7.2zm326.7 0a3.6 3.6 0 1 1 0-7.2 3.6 3.6 0 0 1 0 7.2zm50.2 0a3.6 3.6 0 1 1 0-7.2 3.6 3.6 0 0 1 0 7.2zm-25.1 0a3.6 3.6 0 1 1 0-7.2 3.6 3.6 0 0 1 0 7.2zm50.2 0a3.6 3.6 0 1 1 0-7.2 3.6 3.6 0 0 1 0 7.2zm326.7 0a3.6 3.6 0 1 1 0-7.2 3.6 3.6 0 0 1 0 7.2zm50.3 0a3.6 3.6 0 1 1 0-7.2 3.6 3.6 0 0 1 0 7.2zm-25.1 0a3.6 3.6 0 1 1 0-7.2 3.6 3.6 0 0 1 0 7.2zm50.2 0a3.6 3.6 0 1 1 0-7.2 3.6 3.6 0 0 1 0 7.2zM15.8 454.8a3.6 3.6 0 1 1 0-7.2 3.6 3.6 0 0 1 0 7.2zm50.2 0a3.6 3.6 0 1 1 0-7.2 3.6 3.6 0 0 1 0 7.2zm-25.1 0a3.6 3.6 0 1 1 0-7.2 3.6 3.6 0 0 1 0 7.2zm50.3 0a3.6 3.6 0 1 1 0-7.2 3.6 3.6 0 0 1 0 7.2zm326.7 0a3.6 3.6 0 1 1 0-7.2 3.6 3.6 0 0 1 0 7.2zm50.2 0a3.6 3.6 0 1 1 0-7.2 3.6 3.6 0 0 1 0 7.2zm-25.1 0a3.6 3.6 0 1 1 0-7.2 3.6 3.6 0 0 1 0 7.2zm50.2 0a3.6 3.6 0 1 1 0-7.2 3.6 3.6 0 0 1 0 7.2zm326.7 0a3.6 3.6 0 1 1 0-7.2 3.6 3.6 0 0 1 0 7.2zm50.3 0a3.6 3.6 0 1 1 0-7.2 3.6 3.6 0 0 1 0 7.2zm-25.1 0a3.6 3.6 0 1 1 0-7.2 3.6 3.6 0 0 1 0 7.2zm50.2 0a3.6 3.6 0 1 1 0-7.2 3.6 3.6 0 0 1 0 7.2zm-678.5 0a3.6 3.6 0 1 1 0-7.2 3.6 3.6 0 0 1 0 7.2zm50.3 0a3.6 3.6 0 1 1 0-7.2 3.6 3.6 0 0 1 0 7.2zm-25.2 0a3.6 3.6 0 1 1 0-7.2 3.6 3.6 0 0 1 0 7.2zm50.3 0a3.6 3.6 0 1 1 0-7.2 3.6 3.6 0 0 1 0 7.2zm326.7 0a3.6 3.6 0 1 1 0-7.2 3.6 3.6 0 0 1 0 7.2zm50.3 0a3.6 3.6 0 1 1 0-7.2 3.6 3.6 0 0 1 0 7.2zm-25.2 0a3.6 3.6 0 1 1 0-7.2 3.6 3.6 0 0 1 0 7.2zm50.3 0a3.6 3.6 0 1 1 0-7.2 3.6 3.6 0 0 1 0 7.2zm326.7 0a3.6 3.6 0 1 1 0-7.2 3.6 3.6 0 0 1 0 7.2zm50.3 0a3.6 3.6 0 1 1 0-7.2 3.6 3.6 0 0 1 0 7.2zm-25.2 0a3.6 3.6 0 1 1 0-7.2 3.6 3.6 0 0 1 0 7.2zm50.3 0a3.6 3.6 0 1 1 0-7.2 3.6 3.6 0 0 1 0 7.2zm-980.1 0a3.6 3.6 0 1 1 0-7.2 3.6 3.6 0 0 1 0 7.2zm50.2 0a3.6 3.6 0 1 1 0-7.2 3.6 3.6 0 0 1 0 7.2zm-25 0a3.6 3.6 0 1 1 0-7.2 3.6 3.6 0 0 1 0 7.2zm50.2 0a3.6 3.6 0 1 1 0-7.2 3.6 3.6 0 0 1 0 7.2zm326.7 0a3.6 3.6 0 1 1 0-7.2 3.6 3.6 0 0 1 0 7.2zm50.2 0a3.6 3.6 0 1 1 0-7.2 3.6 3.6 0 0 1 0 7.2zm-25 0a3.6 3.6 0 1 1 0-7.2 3.6 3.6 0 0 1 0 7.2zm50.2 0a3.6 3.6 0 1 1 0-7.2 3.6 3.6 0 0 1 0 7.2zm326.7 0a3.6 3.6 0 1 1 0-7.2 3.6 3.6 0 0 1 0 7.2zm50.2 0a3.6 3.6 0 1 1 0-7.2 3.6 3.6 0 0 1 0 7.2zm-25.1 0a3.6 3.6 0 1 1 0-7.2 3.6 3.6 0 0 1 0 7.2zm50.3 0a3.6 3.6 0 1 1 0-7.2 3.6 3.6 0 0 1 0 7.2zm-678.6 0a3.6 3.6 0 1 1 0-7.2 3.6 3.6 0 0 1 0 7.2zm50.3 0a3.6 3.6 0 1 1 0-7.2 3.6 3.6 0 0 1 0 7.2zm-25.1 0a3.6 3.6 0 1 1 0-7.2 3.6 3.6 0 0 1 0 7.2zm50.2 0a3.6 3.6 0 1 1 0-7.2 3.6 3.6 0 0 1 0 7.2zm326.7 0a3.6 3.6 0 1 1 0-7.2 3.6 3.6 0 0 1 0 7.2zm50.3 0a3.6 3.6 0 1 1 0-7.2 3.6 3.6 0 0 1 0 7.2zm-25.1 0a3.6 3.6 0 1 1 0-7.2 3.6 3.6 0 0 1 0 7.2zm50.2 0a3.6 3.6 0 1 1 0-7.2 3.6 3.6 0 0 1 0 7.2zm326.7 0a3.6 3.6 0 1 1 0-7.2 3.6 3.6 0 0 1 0 7.2zm50.3 0a3.6 3.6 0 1 1 0-7.2 3.6 3.6 0 0 1 0 7.2zm-25.2 0a3.6 3.6 0 1 1 0-7.2 3.6 3.6 0 0 1 0 7.2zm50.3 0a3.6 3.6 0 1 1 0-7.2 3.6 3.6 0 0 1 0 7.2zM15.8 494.3a3.6 3.6 0 1 1 0-7.2 3.6 3.6 0 0 1 0 7.2zm50.2 0a3.6 3.6 0 1 1 0-7.2 3.6 3.6 0 0 1 0 7.2zm-25.1 0a3.6 3.6 0 1 1 0-7.2 3.6 3.6 0 0 1 0 7.2zm50.3 0a3.6 3.6 0 1 1 0-7.2 3.6 3.6 0 0 1 0 7.2zm326.7 0a3.6 3.6 0 1 1 0-7.2 3.6 3.6 0 0 1 0 7.2zm50.2 0a3.6 3.6 0 1 1 0-7.2 3.6 3.6 0 0 1 0 7.2zm-25.1 0a3.6 3.6 0 1 1 0-7.2 3.6 3.6 0 0 1 0 7.2zm50.2 0a3.6 3.6 0 1 1 0-7.2 3.6 3.6 0 0 1 0 7.2zm326.7 0a3.6 3.6 0 1 1 0-7.2 3.6 3.6 0 0 1 0 7.2zm50.3 0a3.6 3.6 0 1 1 0-7.2 3.6 3.6 0 0 1 0 7.2zm-25.1 0a3.6 3.6 0 1 1 0-7.2 3.6 3.6 0 0 1 0 7.2zm50.2 0a3.6 3.6 0 1 1 0-7.2 3.6 3.6 0 0 1 0 7.2zm-678.5 0a3.6 3.6 0 1 1 0-7.2 3.6 3.6 0 0 1 0 7.2zm50.3 0a3.6 3.6 0 1 1 0-7.2 3.6 3.6 0 0 1 0 7.2zm-25.2 0a3.6 3.6 0 1 1 0-7.2 3.6 3.6 0 0 1 0 7.2zm50.3 0a3.6 3.6 0 1 1 0-7.2 3.6 3.6 0 0 1 0 7.2zm326.7 0a3.6 3.6 0 1 1 0-7.2 3.6 3.6 0 0 1 0 7.2zm50.3 0a3.6 3.6 0 1 1 0-7.2 3.6 3.6 0 0 1 0 7.2zm-25.2 0a3.6 3.6 0 1 1 0-7.2 3.6 3.6 0 0 1 0 7.2zm50.3 0a3.6 3.6 0 1 1 0-7.2 3.6 3.6 0 0 1 0 7.2zm326.7 0a3.6 3.6 0 1 1 0-7.2 3.6 3.6 0 0 1 0 7.2zm50.3 0a3.6 3.6 0 1 1 0-7.2 3.6 3.6 0 0 1 0 7.2zm-25.2 0a3.6 3.6 0 1 1 0-7.2 3.6 3.6 0 0 1 0 7.2zm50.3 0a3.6 3.6 0 1 1 0-7.2 3.6 3.6 0 0 1 0 7.2zm-980.1 0a3.6 3.6 0 1 1 0-7.2 3.6 3.6 0 0 1 0 7.2zm50.2 0a3.6 3.6 0 1 1 0-7.2 3.6 3.6 0 0 1 0 7.2zm-25 0a3.6 3.6 0 1 1 0-7.2 3.6 3.6 0 0 1 0 7.2zm50.2 0a3.6 3.6 0 1 1 0-7.2 3.6 3.6 0 0 1 0 7.2zm326.7 0a3.6 3.6 0 1 1 0-7.2 3.6 3.6 0 0 1 0 7.2zm50.2 0a3.6 3.6 0 1 1 0-7.2 3.6 3.6 0 0 1 0 7.2zm-25 0a3.6 3.6 0 1 1 0-7.2 3.6 3.6 0 0 1 0 7.2zm50.2 0a3.6 3.6 0 1 1 0-7.2 3.6 3.6 0 0 1 0 7.2zm326.7 0a3.6 3.6 0 1 1 0-7.2 3.6 3.6 0 0 1 0 7.2zm50.2 0a3.6 3.6 0 1 1 0-7.2 3.6 3.6 0 0 1 0 7.2zm-25.1 0a3.6 3.6 0 1 1 0-7.2 3.6 3.6 0 0 1 0 7.2zm50.3 0a3.6 3.6 0 1 1 0-7.2 3.6 3.6 0 0 1 0 7.2zm-678.6 0a3.6 3.6 0 1 1 0-7.2 3.6 3.6 0 0 1 0 7.2zm50.3 0a3.6 3.6 0 1 1 0-7.2 3.6 3.6 0 0 1 0 7.2zm-25.1 0a3.6 3.6 0 1 1 0-7.2 3.6 3.6 0 0 1 0 7.2zm50.2 0a3.6 3.6 0 1 1 0-7.2 3.6 3.6 0 0 1 0 7.2zm326.7 0a3.6 3.6 0 1 1 0-7.2 3.6 3.6 0 0 1 0 7.2zm50.3 0a3.6 3.6 0 1 1 0-7.2 3.6 3.6 0 0 1 0 7.2zm-25.1 0a3.6 3.6 0 1 1 0-7.2 3.6 3.6 0 0 1 0 7.2zm50.2 0a3.6 3.6 0 1 1 0-7.2 3.6 3.6 0 0 1 0 7.2zm326.7 0a3.6 3.6 0 1 1 0-7.2 3.6 3.6 0 0 1 0 7.2zm50.3 0a3.6 3.6 0 1 1 0-7.2 3.6 3.6 0 0 1 0 7.2zm-25.2 0a3.6 3.6 0 1 1 0-7.2 3.6 3.6 0 0 1 0 7.2zm50.3 0a3.6 3.6 0 1 1 0-7.2 3.6 3.6 0 0 1 0 7.2zM15.8 533.8a3.6 3.6 0 1 1 0-7.2 3.6 3.6 0 0 1 0 7.2zm50.2 0a3.6 3.6 0 1 1 0-7.2 3.6 3.6 0 0 1 0 7.2zm-25.1 0a3.6 3.6 0 1 1 0-7.2 3.6 3.6 0 0 1 0 7.2zm50.3 0a3.6 3.6 0 1 1 0-7.2 3.6 3.6 0 0 1 0 7.2zm326.7 0a3.6 3.6 0 1 1 0-7.2 3.6 3.6 0 0 1 0 7.2zm50.2 0a3.6 3.6 0 1 1 0-7.2 3.6 3.6 0 0 1 0 7.2zm-25.1 0a3.6 3.6 0 1 1 0-7.2 3.6 3.6 0 0 1 0 7.2zm50.2 0a3.6 3.6 0 1 1 0-7.2 3.6 3.6 0 0 1 0 7.2zm326.7 0a3.6 3.6 0 1 1 0-7.2 3.6 3.6 0 0 1 0 7.2zm50.3 0a3.6 3.6 0 1 1 0-7.2 3.6 3.6 0 0 1 0 7.2zm-25.1 0a3.6 3.6 0 1 1 0-7.2 3.6 3.6 0 0 1 0 7.2zm50.2 0a3.6 3.6 0 1 1 0-7.2 3.6 3.6 0 0 1 0 7.2zm-678.5 0a3.6 3.6 0 1 1 0-7.2 3.6 3.6 0 0 1 0 7.2zm50.3 0a3.6 3.6 0 1 1 0-7.2 3.6 3.6 0 0 1 0 7.2zm-25.2 0a3.6 3.6 0 1 1 0-7.2 3.6 3.6 0 0 1 0 7.2zm50.3 0a3.6 3.6 0 1 1 0-7.2 3.6 3.6 0 0 1 0 7.2zm326.7 0a3.6 3.6 0 1 1 0-7.2 3.6 3.6 0 0 1 0 7.2zm50.3 0a3.6 3.6 0 1 1 0-7.2 3.6 3.6 0 0 1 0 7.2zm-25.2 0a3.6 3.6 0 1 1 0-7.2 3.6 3.6 0 0 1 0 7.2zm50.3 0a3.6 3.6 0 1 1 0-7.2 3.6 3.6 0 0 1 0 7.2zm326.7 0a3.6 3.6 0 1 1 0-7.2 3.6 3.6 0 0 1 0 7.2zm50.3 0a3.6 3.6 0 1 1 0-7.2 3.6 3.6 0 0 1 0 7.2zm-25.2 0a3.6 3.6 0 1 1 0-7.2 3.6 3.6 0 0 1 0 7.2zm50.3 0a3.6 3.6 0 1 1 0-7.2 3.6 3.6 0 0 1 0 7.2zm-980.1 0a3.6 3.6 0 1 1 0-7.2 3.6 3.6 0 0 1 0 7.2zm50.2 0a3.6 3.6 0 1 1 0-7.2 3.6 3.6 0 0 1 0 7.2zm-25 0a3.6 3.6 0 1 1 0-7.2 3.6 3.6 0 0 1 0 7.2zm50.2 0a3.6 3.6 0 1 1 0-7.2 3.6 3.6 0 0 1 0 7.2zm326.7 0a3.6 3.6 0 1 1 0-7.2 3.6 3.6 0 0 1 0 7.2zm50.2 0a3.6 3.6 0 1 1 0-7.2 3.6 3.6 0 0 1 0 7.2zm-25 0a3.6 3.6 0 1 1 0-7.2 3.6 3.6 0 0 1 0 7.2zm50.2 0a3.6 3.6 0 1 1 0-7.2 3.6 3.6 0 0 1 0 7.2zm326.7 0a3.6 3.6 0 1 1 0-7.2 3.6 3.6 0 0 1 0 7.2zm50.2 0a3.6 3.6 0 1 1 0-7.2 3.6 3.6 0 0 1 0 7.2zm-25.1 0a3.6 3.6 0 1 1 0-7.2 3.6 3.6 0 0 1 0 7.2zm50.3 0a3.6 3.6 0 1 1 0-7.2 3.6 3.6 0 0 1 0 7.2zm-678.6 0a3.6 3.6 0 1 1 0-7.2 3.6 3.6 0 0 1 0 7.2zm50.3 0a3.6 3.6 0 1 1 0-7.2 3.6 3.6 0 0 1 0 7.2zm-25.1 0a3.6 3.6 0 1 1 0-7.2 3.6 3.6 0 0 1 0 7.2zm50.2 0a3.6 3.6 0 1 1 0-7.2 3.6 3.6 0 0 1 0 7.2zm326.7 0a3.6 3.6 0 1 1 0-7.2 3.6 3.6 0 0 1 0 7.2zm50.3 0a3.6 3.6 0 1 1 0-7.2 3.6 3.6 0 0 1 0 7.2zm-25.1 0a3.6 3.6 0 1 1 0-7.2 3.6 3.6 0 0 1 0 7.2zm50.2 0a3.6 3.6 0 1 1 0-7.2 3.6 3.6 0 0 1 0 7.2zm326.7 0a3.6 3.6 0 1 1 0-7.2 3.6 3.6 0 0 1 0 7.2zm50.3 0a3.6 3.6 0 1 1 0-7.2 3.6 3.6 0 0 1 0 7.2zm-25.2 0a3.6 3.6 0 1 1 0-7.2 3.6 3.6 0 0 1 0 7.2zm50.3 0a3.6 3.6 0 1 1 0-7.2 3.6 3.6 0 0 1 0 7.2zM4.1 474.5a3.6 3.6 0 1 1 0-7.1 3.6 3.6 0 0 1 0 7.1zm50.3 0a3.6 3.6 0 1 1 0-7.1 3.6 3.6 0 0 1 0 7.1zm-25.2 0a3.6 3.6 0 1 1 0-7.1 3.6 3.6 0 0 1 0 7.1zm50.3 0a3.6 3.6 0 1 1 0-7.1 3.6 3.6 0 0 1 0 7.1zm326.7 0a3.6 3.6 0 1 1 0-7.1 3.6 3.6 0 0 1 0 7.1zm50.2 0a3.6 3.6 0 1 1 0-7.1 3.6 3.6 0 0 1 0 7.1zm-25 0a3.6 3.6 0 1 1 0-7.1 3.6 3.6 0 0 1 0 7.1zm50.2 0a3.6 3.6 0 1 1 0-7.1 3.6 3.6 0 0 1 0 7.1zm326.7 0a3.6 3.6 0 1 1 0-7.1 3.6 3.6 0 0 1 0 7.1zm50.2 0a3.6 3.6 0 1 1 0-7.1 3.6 3.6 0 0 1 0 7.1zm-25 0a3.6 3.6 0 1 1 0-7.1 3.6 3.6 0 0 1 0 7.1zm50.2 0a3.6 3.6 0 1 1 0-7.1 3.6 3.6 0 0 1 0 7.1zm-678.6 0a3.6 3.6 0 1 1 0-7.1 3.6 3.6 0 0 1 0 7.1zm50.3 0a3.6 3.6 0 1 1 0-7.1 3.6 3.6 0 0 1 0 7.1zm-25.1 0a3.6 3.6 0 1 1 0-7.1 3.6 3.6 0 0 1 0 7.1zm50.2 0a3.6 3.6 0 1 1 0-7.1 3.6 3.6 0 0 1 0 7.1zm326.7 0a3.6 3.6 0 1 1 0-7.1 3.6 3.6 0 0 1 0 7.1zm50.3 0a3.6 3.6 0 1 1 0-7.1 3.6 3.6 0 0 1 0 7.1zm-25.1 0a3.6 3.6 0 1 1 0-7.1 3.6 3.6 0 0 1 0 7.1zm50.2 0a3.6 3.6 0 1 1 0-7.1 3.6 3.6 0 0 1 0 7.1zm326.7 0a3.6 3.6 0 1 1 0-7.1 3.6 3.6 0 0 1 0 7.1zm50.3 0a3.6 3.6 0 1 1 0-7.1 3.6 3.6 0 0 1 0 7.1zm-25.1 0a3.6 3.6 0 1 1 0-7.1 3.6 3.6 0 0 1 0 7.1zm50.2 0a3.6 3.6 0 1 1 0-7.1 3.6 3.6 0 0 1 0 7.1zm-980 0a3.6 3.6 0 1 1 0-7.1 3.6 3.6 0 0 1 0 7.1zm50.2 0a3.6 3.6 0 1 1 0-7.1 3.6 3.6 0 0 1 0 7.1zm-25.2 0a3.6 3.6 0 1 1 0-7.1 3.6 3.6 0 0 1 0 7.1zm50.3 0a3.6 3.6 0 1 1 0-7.1 3.6 3.6 0 0 1 0 7.1zm326.7 0a3.6 3.6 0 1 1 0-7.1 3.6 3.6 0 0 1 0 7.1zm50.3 0a3.6 3.6 0 1 1 0-7.1 3.6 3.6 0 0 1 0 7.1zm-25.2 0a3.6 3.6 0 1 1 0-7.1 3.6 3.6 0 0 1 0 7.1zm50.3 0a3.6 3.6 0 1 1 0-7.1 3.6 3.6 0 0 1 0 7.1zm326.7 0a3.6 3.6 0 1 1 0-7.1 3.6 3.6 0 0 1 0 7.1zm50.3 0a3.6 3.6 0 1 1 0-7.1 3.6 3.6 0 0 1 0 7.1zm-25.2 0a3.6 3.6 0 1 1 0-7.1 3.6 3.6 0 0 1 0 7.1zm50.3 0a3.6 3.6 0 1 1 0-7.1 3.6 3.6 0 0 1 0 7.1zm-678.5 0a3.6 3.6 0 1 1 0-7.1 3.6 3.6 0 0 1 0 7.1zm50.2 0a3.6 3.6 0 1 1 0-7.1 3.6 3.6 0 0 1 0 7.1zm-25.1 0a3.6 3.6 0 1 1 0-7.1 3.6 3.6 0 0 1 0 7.1zm50.3 0a3.6 3.6 0 1 1 0-7.1 3.6 3.6 0 0 1 0 7.1zm326.7 0a3.6 3.6 0 1 1 0-7.1 3.6 3.6 0 0 1 0 7.1zm50.2 0a3.6 3.6 0 1 1 0-7.1 3.6 3.6 0 0 1 0 7.1zm-25.1 0a3.6 3.6 0 1 1 0-7.1 3.6 3.6 0 0 1 0 7.1zm50.2 0a3.6 3.6 0 1 1 0-7.1 3.6 3.6 0 0 1 0 7.1zm326.7 0a3.6 3.6 0 1 1 0-7.1 3.6 3.6 0 0 1 0 7.1zm50.3 0a3.6 3.6 0 1 1 0-7.1 3.6 3.6 0 0 1 0 7.1zm-25.1 0a3.6 3.6 0 1 1 0-7.1 3.6 3.6 0 0 1 0 7.1zm50.2 0a3.6 3.6 0 1 1 0-7.1 3.6 3.6 0 0 1 0 7.1zM4.1 514a3.6 3.6 0 1 1 0-7.1 3.6 3.6 0 0 1 0 7.1zm50.3 0a3.6 3.6 0 1 1 0-7.1 3.6 3.6 0 0 1 0 7.1zm-25.2 0a3.6 3.6 0 1 1 0-7.1 3.6 3.6 0 0 1 0 7.1zm50.3 0a3.6 3.6 0 1 1 0-7.1 3.6 3.6 0 0 1 0 7.1zm326.7 0a3.6 3.6 0 1 1 0-7.1 3.6 3.6 0 0 1 0 7.1zm50.2 0a3.6 3.6 0 1 1 0-7.1 3.6 3.6 0 0 1 0 7.1zm-25 0a3.6 3.6 0 1 1 0-7.1 3.6 3.6 0 0 1 0 7.1zm50.2 0a3.6 3.6 0 1 1 0-7.1 3.6 3.6 0 0 1 0 7.1zm326.7 0a3.6 3.6 0 1 1 0-7.1 3.6 3.6 0 0 1 0 7.1zm50.2 0a3.6 3.6 0 1 1 0-7.1 3.6 3.6 0 0 1 0 7.1zm-25 0a3.6 3.6 0 1 1 0-7.1 3.6 3.6 0 0 1 0 7.1zm50.2 0a3.6 3.6 0 1 1 0-7.1 3.6 3.6 0 0 1 0 7.1zM205 514a3.6 3.6 0 1 1 0-7.1 3.6 3.6 0 0 1 0 7.1zm50.3 0a3.6 3.6 0 1 1 0-7.1 3.6 3.6 0 0 1 0 7.1zm-25.1 0a3.6 3.6 0 1 1 0-7.1 3.6 3.6 0 0 1 0 7.1zm50.2 0a3.6 3.6 0 1 1 0-7.1 3.6 3.6 0 0 1 0 7.1zm326.7 0a3.6 3.6 0 1 1 0-7.1 3.6 3.6 0 0 1 0 7.1zm50.3 0a3.6 3.6 0 1 1 0-7.1 3.6 3.6 0 0 1 0 7.1zm-25.1 0a3.6 3.6 0 1 1 0-7.1 3.6 3.6 0 0 1 0 7.1zm50.2 0a3.6 3.6 0 1 1 0-7.1 3.6 3.6 0 0 1 0 7.1zm326.7 0a3.6 3.6 0 1 1 0-7.1 3.6 3.6 0 0 1 0 7.1zm50.3 0a3.6 3.6 0 1 1 0-7.1 3.6 3.6 0 0 1 0 7.1zm-25.1 0a3.6 3.6 0 1 1 0-7.1 3.6 3.6 0 0 1 0 7.1zm50.2 0a3.6 3.6 0 1 1 0-7.1 3.6 3.6 0 0 1 0 7.1zm-980 0a3.6 3.6 0 1 1 0-7.1 3.6 3.6 0 0 1 0 7.1zm50.2 0a3.6 3.6 0 1 1 0-7.1 3.6 3.6 0 0 1 0 7.1zm-25.2 0a3.6 3.6 0 1 1 0-7.1 3.6 3.6 0 0 1 0 7.1zm50.3 0a3.6 3.6 0 1 1 0-7.1 3.6 3.6 0 0 1 0 7.1zm326.7 0a3.6 3.6 0 1 1 0-7.1 3.6 3.6 0 0 1 0 7.1zm50.3 0a3.6 3.6 0 1 1 0-7.1 3.6 3.6 0 0 1 0 7.1zm-25.2 0a3.6 3.6 0 1 1 0-7.1 3.6 3.6 0 0 1 0 7.1zm50.3 0a3.6 3.6 0 1 1 0-7.1 3.6 3.6 0 0 1 0 7.1zm326.7 0a3.6 3.6 0 1 1 0-7.1 3.6 3.6 0 0 1 0 7.1zm50.3 0a3.6 3.6 0 1 1 0-7.1 3.6 3.6 0 0 1 0 7.1zm-25.2 0a3.6 3.6 0 1 1 0-7.1 3.6 3.6 0 0 1 0 7.1zm50.3 0a3.6 3.6 0 1 1 0-7.1 3.6 3.6 0 0 1 0 7.1zm-678.5 0a3.6 3.6 0 1 1 0-7.1 3.6 3.6 0 0 1 0 7.1zm50.2 0a3.6 3.6 0 1 1 0-7.1 3.6 3.6 0 0 1 0 7.1zm-25.1 0a3.6 3.6 0 1 1 0-7.1 3.6 3.6 0 0 1 0 7.1zm50.3 0a3.6 3.6 0 1 1 0-7.1 3.6 3.6 0 0 1 0 7.1zm326.7 0a3.6 3.6 0 1 1 0-7.1 3.6 3.6 0 0 1 0 7.1zm50.2 0a3.6 3.6 0 1 1 0-7.1 3.6 3.6 0 0 1 0 7.1zm-25.1 0a3.6 3.6 0 1 1 0-7.1 3.6 3.6 0 0 1 0 7.1zm50.2 0a3.6 3.6 0 1 1 0-7.1 3.6 3.6 0 0 1 0 7.1zm326.7 0a3.6 3.6 0 1 1 0-7.1 3.6 3.6 0 0 1 0 7.1zm50.3 0a3.6 3.6 0 1 1 0-7.1 3.6 3.6 0 0 1 0 7.1zm-25.1 0a3.6 3.6 0 1 1 0-7.1 3.6 3.6 0 0 1 0 7.1zm50.2 0a3.6 3.6 0 1 1 0-7.1 3.6 3.6 0 0 1 0 7.1zM4.1 553.5a3.6 3.6 0 1 1 0-7.2 3.6 3.6 0 0 1 0 7.2zm50.3 0a3.6 3.6 0 1 1 0-7.2 3.6 3.6 0 0 1 0 7.2zm-25.2 0a3.6 3.6 0 1 1 0-7.2 3.6 3.6 0 0 1 0 7.2zm50.3 0a3.6 3.6 0 1 1 0-7.2 3.6 3.6 0 0 1 0 7.2zm326.7 0a3.6 3.6 0 1 1 0-7.2 3.6 3.6 0 0 1 0 7.2zm50.2 0a3.6 3.6 0 1 1 0-7.2 3.6 3.6 0 0 1 0 7.2zm-25 0a3.6 3.6 0 1 1 0-7.2 3.6 3.6 0 0 1 0 7.2zm50.2 0a3.6 3.6 0 1 1 0-7.2 3.6 3.6 0 0 1 0 7.2zm326.7 0a3.6 3.6 0 1 1 0-7.2 3.6 3.6 0 0 1 0 7.2zm50.2 0a3.6 3.6 0 1 1 0-7.2 3.6 3.6 0 0 1 0 7.2zm-25 0a3.6 3.6 0 1 1 0-7.2 3.6 3.6 0 0 1 0 7.2zm50.2 0a3.6 3.6 0 1 1 0-7.2 3.6 3.6 0 0 1 0 7.2zm-678.6 0a3.6 3.6 0 1 1 0-7.2 3.6 3.6 0 0 1 0 7.2zm50.3 0a3.6 3.6 0 1 1 0-7.2 3.6 3.6 0 0 1 0 7.2zm-25.1 0a3.6 3.6 0 1 1 0-7.2 3.6 3.6 0 0 1 0 7.2zm50.2 0a3.6 3.6 0 1 1 0-7.2 3.6 3.6 0 0 1 0 7.2zm326.7 0a3.6 3.6 0 1 1 0-7.2 3.6 3.6 0 0 1 0 7.2zm50.3 0a3.6 3.6 0 1 1 0-7.2 3.6 3.6 0 0 1 0 7.2zm-25.1 0a3.6 3.6 0 1 1 0-7.2 3.6 3.6 0 0 1 0 7.2zm50.2 0a3.6 3.6 0 1 1 0-7.2 3.6 3.6 0 0 1 0 7.2zm326.7 0a3.6 3.6 0 1 1 0-7.2 3.6 3.6 0 0 1 0 7.2zm50.3 0a3.6 3.6 0 1 1 0-7.2 3.6 3.6 0 0 1 0 7.2zm-25.1 0a3.6 3.6 0 1 1 0-7.2 3.6 3.6 0 0 1 0 7.2zm50.2 0a3.6 3.6 0 1 1 0-7.2 3.6 3.6 0 0 1 0 7.2zm-980 0a3.6 3.6 0 1 1 0-7.2 3.6 3.6 0 0 1 0 7.2zm50.2 0a3.6 3.6 0 1 1 0-7.2 3.6 3.6 0 0 1 0 7.2zm-25.2 0a3.6 3.6 0 1 1 0-7.2 3.6 3.6 0 0 1 0 7.2zm50.3 0a3.6 3.6 0 1 1 0-7.2 3.6 3.6 0 0 1 0 7.2zm326.7 0a3.6 3.6 0 1 1 0-7.2 3.6 3.6 0 0 1 0 7.2zm50.3 0a3.6 3.6 0 1 1 0-7.2 3.6 3.6 0 0 1 0 7.2zm-25.2 0a3.6 3.6 0 1 1 0-7.2 3.6 3.6 0 0 1 0 7.2zm50.3 0a3.6 3.6 0 1 1 0-7.2 3.6 3.6 0 0 1 0 7.2zm326.7 0a3.6 3.6 0 1 1 0-7.2 3.6 3.6 0 0 1 0 7.2zm50.3 0a3.6 3.6 0 1 1 0-7.2 3.6 3.6 0 0 1 0 7.2zm-25.2 0a3.6 3.6 0 1 1 0-7.2 3.6 3.6 0 0 1 0 7.2zm50.3 0a3.6 3.6 0 1 1 0-7.2 3.6 3.6 0 0 1 0 7.2zm-678.5 0a3.6 3.6 0 1 1 0-7.2 3.6 3.6 0 0 1 0 7.2zm50.2 0a3.6 3.6 0 1 1 0-7.2 3.6 3.6 0 0 1 0 7.2zm-25.1 0a3.6 3.6 0 1 1 0-7.2 3.6 3.6 0 0 1 0 7.2zm50.3 0a3.6 3.6 0 1 1 0-7.2 3.6 3.6 0 0 1 0 7.2zm326.7 0a3.6 3.6 0 1 1 0-7.2 3.6 3.6 0 0 1 0 7.2zm50.2 0a3.6 3.6 0 1 1 0-7.2 3.6 3.6 0 0 1 0 7.2zm-25.1 0a3.6 3.6 0 1 1 0-7.2 3.6 3.6 0 0 1 0 7.2zm50.2 0a3.6 3.6 0 1 1 0-7.2 3.6 3.6 0 0 1 0 7.2zm326.7 0a3.6 3.6 0 1 1 0-7.2 3.6 3.6 0 0 1 0 7.2zm50.3 0a3.6 3.6 0 1 1 0-7.2 3.6 3.6 0 0 1 0 7.2zm-25.1 0a3.6 3.6 0 1 1 0-7.2 3.6 3.6 0 0 1 0 7.2zm50.2 0a3.6 3.6 0 1 1 0-7.2 3.6 3.6 0 0 1 0 7.2zM15.8 573.3a3.6 3.6 0 1 1 0-7.2 3.6 3.6 0 0 1 0 7.2zm50.2 0a3.6 3.6 0 1 1 0-7.2 3.6 3.6 0 0 1 0 7.2zm-25.1 0a3.6 3.6 0 1 1 0-7.2 3.6 3.6 0 0 1 0 7.2zm50.3 0a3.6 3.6 0 1 1 0-7.2 3.6 3.6 0 0 1 0 7.2zm326.7 0a3.6 3.6 0 1 1 0-7.2 3.6 3.6 0 0 1 0 7.2zm50.2 0a3.6 3.6 0 1 1 0-7.2 3.6 3.6 0 0 1 0 7.2zm-25.1 0a3.6 3.6 0 1 1 0-7.2 3.6 3.6 0 0 1 0 7.2zm50.2 0a3.6 3.6 0 1 1 0-7.2 3.6 3.6 0 0 1 0 7.2zm326.7 0a3.6 3.6 0 1 1 0-7.2 3.6 3.6 0 0 1 0 7.2zm50.3 0a3.6 3.6 0 1 1 0-7.2 3.6 3.6 0 0 1 0 7.2zm-25.1 0a3.6 3.6 0 1 1 0-7.2 3.6 3.6 0 0 1 0 7.2zm50.2 0a3.6 3.6 0 1 1 0-7.2 3.6 3.6 0 0 1 0 7.2zm-678.5 0a3.6 3.6 0 1 1 0-7.2 3.6 3.6 0 0 1 0 7.2zm50.3 0a3.6 3.6 0 1 1 0-7.2 3.6 3.6 0 0 1 0 7.2zm-25.2 0a3.6 3.6 0 1 1 0-7.2 3.6 3.6 0 0 1 0 7.2zm50.3 0a3.6 3.6 0 1 1 0-7.2 3.6 3.6 0 0 1 0 7.2zm326.7 0a3.6 3.6 0 1 1 0-7.2 3.6 3.6 0 0 1 0 7.2zm50.3 0a3.6 3.6 0 1 1 0-7.2 3.6 3.6 0 0 1 0 7.2zm-25.2 0a3.6 3.6 0 1 1 0-7.2 3.6 3.6 0 0 1 0 7.2zm50.3 0a3.6 3.6 0 1 1 0-7.2 3.6 3.6 0 0 1 0 7.2zm326.7 0a3.6 3.6 0 1 1 0-7.2 3.6 3.6 0 0 1 0 7.2zm50.3 0a3.6 3.6 0 1 1 0-7.2 3.6 3.6 0 0 1 0 7.2zm-25.2 0a3.6 3.6 0 1 1 0-7.2 3.6 3.6 0 0 1 0 7.2zm50.3 0a3.6 3.6 0 1 1 0-7.2 3.6 3.6 0 0 1 0 7.2zm-980.1 0a3.6 3.6 0 1 1 0-7.2 3.6 3.6 0 0 1 0 7.2zm50.2 0a3.6 3.6 0 1 1 0-7.2 3.6 3.6 0 0 1 0 7.2zm-25 0a3.6 3.6 0 1 1 0-7.2 3.6 3.6 0 0 1 0 7.2zm50.2 0a3.6 3.6 0 1 1 0-7.2 3.6 3.6 0 0 1 0 7.2zm326.7 0a3.6 3.6 0 1 1 0-7.2 3.6 3.6 0 0 1 0 7.2zm50.2 0a3.6 3.6 0 1 1 0-7.2 3.6 3.6 0 0 1 0 7.2zm-25 0a3.6 3.6 0 1 1 0-7.2 3.6 3.6 0 0 1 0 7.2zm50.2 0a3.6 3.6 0 1 1 0-7.2 3.6 3.6 0 0 1 0 7.2zm326.7 0a3.6 3.6 0 1 1 0-7.2 3.6 3.6 0 0 1 0 7.2zm50.2 0a3.6 3.6 0 1 1 0-7.2 3.6 3.6 0 0 1 0 7.2zm-25.1 0a3.6 3.6 0 1 1 0-7.2 3.6 3.6 0 0 1 0 7.2zm50.3 0a3.6 3.6 0 1 1 0-7.2 3.6 3.6 0 0 1 0 7.2zm-678.6 0a3.6 3.6 0 1 1 0-7.2 3.6 3.6 0 0 1 0 7.2zm50.3 0a3.6 3.6 0 1 1 0-7.2 3.6 3.6 0 0 1 0 7.2zm-25.1 0a3.6 3.6 0 1 1 0-7.2 3.6 3.6 0 0 1 0 7.2zm50.2 0a3.6 3.6 0 1 1 0-7.2 3.6 3.6 0 0 1 0 7.2zm326.7 0a3.6 3.6 0 1 1 0-7.2 3.6 3.6 0 0 1 0 7.2zm50.3 0a3.6 3.6 0 1 1 0-7.2 3.6 3.6 0 0 1 0 7.2zm-25.1 0a3.6 3.6 0 1 1 0-7.2 3.6 3.6 0 0 1 0 7.2zm50.2 0a3.6 3.6 0 1 1 0-7.2 3.6 3.6 0 0 1 0 7.2zm326.7 0a3.6 3.6 0 1 1 0-7.2 3.6 3.6 0 0 1 0 7.2zm50.3 0a3.6 3.6 0 1 1 0-7.2 3.6 3.6 0 0 1 0 7.2zm-25.2 0a3.6 3.6 0 1 1 0-7.2 3.6 3.6 0 0 1 0 7.2zm50.3 0a3.6 3.6 0 1 1 0-7.2 3.6 3.6 0 0 1 0 7.2zM15.8 612.8a3.6 3.6 0 1 1 0-7.2 3.6 3.6 0 0 1 0 7.2zm50.2 0a3.6 3.6 0 1 1 0-7.2 3.6 3.6 0 0 1 0 7.2zm-25.1 0a3.6 3.6 0 1 1 0-7.2 3.6 3.6 0 0 1 0 7.2zm50.3 0a3.6 3.6 0 1 1 0-7.2 3.6 3.6 0 0 1 0 7.2zm326.7 0a3.6 3.6 0 1 1 0-7.2 3.6 3.6 0 0 1 0 7.2zm50.2 0a3.6 3.6 0 1 1 0-7.2 3.6 3.6 0 0 1 0 7.2zm-25.1 0a3.6 3.6 0 1 1 0-7.2 3.6 3.6 0 0 1 0 7.2zm50.2 0a3.6 3.6 0 1 1 0-7.2 3.6 3.6 0 0 1 0 7.2zm326.7 0a3.6 3.6 0 1 1 0-7.2 3.6 3.6 0 0 1 0 7.2zm50.3 0a3.6 3.6 0 1 1 0-7.2 3.6 3.6 0 0 1 0 7.2zm-25.1 0a3.6 3.6 0 1 1 0-7.2 3.6 3.6 0 0 1 0 7.2zm50.2 0a3.6 3.6 0 1 1 0-7.2 3.6 3.6 0 0 1 0 7.2zm-678.5 0a3.6 3.6 0 1 1 0-7.2 3.6 3.6 0 0 1 0 7.2zm50.3 0a3.6 3.6 0 1 1 0-7.2 3.6 3.6 0 0 1 0 7.2zm-25.2 0a3.6 3.6 0 1 1 0-7.2 3.6 3.6 0 0 1 0 7.2zm50.3 0a3.6 3.6 0 1 1 0-7.2 3.6 3.6 0 0 1 0 7.2zm326.7 0a3.6 3.6 0 1 1 0-7.2 3.6 3.6 0 0 1 0 7.2zm50.3 0a3.6 3.6 0 1 1 0-7.2 3.6 3.6 0 0 1 0 7.2zm-25.2 0a3.6 3.6 0 1 1 0-7.2 3.6 3.6 0 0 1 0 7.2zm50.3 0a3.6 3.6 0 1 1 0-7.2 3.6 3.6 0 0 1 0 7.2zm326.7 0a3.6 3.6 0 1 1 0-7.2 3.6 3.6 0 0 1 0 7.2zm50.3 0a3.6 3.6 0 1 1 0-7.2 3.6 3.6 0 0 1 0 7.2zm-25.2 0a3.6 3.6 0 1 1 0-7.2 3.6 3.6 0 0 1 0 7.2zm50.3 0a3.6 3.6 0 1 1 0-7.2 3.6 3.6 0 0 1 0 7.2zm-980.1 0a3.6 3.6 0 1 1 0-7.2 3.6 3.6 0 0 1 0 7.2zm50.2 0a3.6 3.6 0 1 1 0-7.2 3.6 3.6 0 0 1 0 7.2zm-25 0a3.6 3.6 0 1 1 0-7.2 3.6 3.6 0 0 1 0 7.2zm50.2 0a3.6 3.6 0 1 1 0-7.2 3.6 3.6 0 0 1 0 7.2zm326.7 0a3.6 3.6 0 1 1 0-7.2 3.6 3.6 0 0 1 0 7.2zm50.2 0a3.6 3.6 0 1 1 0-7.2 3.6 3.6 0 0 1 0 7.2zm-25 0a3.6 3.6 0 1 1 0-7.2 3.6 3.6 0 0 1 0 7.2zm50.2 0a3.6 3.6 0 1 1 0-7.2 3.6 3.6 0 0 1 0 7.2zm326.7 0a3.6 3.6 0 1 1 0-7.2 3.6 3.6 0 0 1 0 7.2zm50.2 0a3.6 3.6 0 1 1 0-7.2 3.6 3.6 0 0 1 0 7.2zm-25.1 0a3.6 3.6 0 1 1 0-7.2 3.6 3.6 0 0 1 0 7.2zm50.3 0a3.6 3.6 0 1 1 0-7.2 3.6 3.6 0 0 1 0 7.2zm-678.6 0a3.6 3.6 0 1 1 0-7.2 3.6 3.6 0 0 1 0 7.2zm50.3 0a3.6 3.6 0 1 1 0-7.2 3.6 3.6 0 0 1 0 7.2zm-25.1 0a3.6 3.6 0 1 1 0-7.2 3.6 3.6 0 0 1 0 7.2zm50.2 0a3.6 3.6 0 1 1 0-7.2 3.6 3.6 0 0 1 0 7.2zm326.7 0a3.6 3.6 0 1 1 0-7.2 3.6 3.6 0 0 1 0 7.2zm50.3 0a3.6 3.6 0 1 1 0-7.2 3.6 3.6 0 0 1 0 7.2zm-25.1 0a3.6 3.6 0 1 1 0-7.2 3.6 3.6 0 0 1 0 7.2zm50.2 0a3.6 3.6 0 1 1 0-7.2 3.6 3.6 0 0 1 0 7.2zm326.7 0a3.6 3.6 0 1 1 0-7.2 3.6 3.6 0 0 1 0 7.2zm50.3 0a3.6 3.6 0 1 1 0-7.2 3.6 3.6 0 0 1 0 7.2zm-25.2 0a3.6 3.6 0 1 1 0-7.2 3.6 3.6 0 0 1 0 7.2zm50.3 0a3.6 3.6 0 1 1 0-7.2 3.6 3.6 0 0 1 0 7.2zM15.8 652.3a3.6 3.6 0 1 1 0-7.2 3.6 3.6 0 0 1 0 7.2zm50.2 0a3.6 3.6 0 1 1 0-7.2 3.6 3.6 0 0 1 0 7.2zm-25.1 0a3.6 3.6 0 1 1 0-7.2 3.6 3.6 0 0 1 0 7.2zm50.3 0a3.6 3.6 0 1 1 0-7.2 3.6 3.6 0 0 1 0 7.2zm326.7 0a3.6 3.6 0 1 1 0-7.2 3.6 3.6 0 0 1 0 7.2zm50.2 0a3.6 3.6 0 1 1 0-7.2 3.6 3.6 0 0 1 0 7.2zm-25.1 0a3.6 3.6 0 1 1 0-7.2 3.6 3.6 0 0 1 0 7.2zm50.2 0a3.6 3.6 0 1 1 0-7.2 3.6 3.6 0 0 1 0 7.2zm326.7 0a3.6 3.6 0 1 1 0-7.2 3.6 3.6 0 0 1 0 7.2zm50.3 0a3.6 3.6 0 1 1 0-7.2 3.6 3.6 0 0 1 0 7.2zm-25.1 0a3.6 3.6 0 1 1 0-7.2 3.6 3.6 0 0 1 0 7.2zm50.2 0a3.6 3.6 0 1 1 0-7.2 3.6 3.6 0 0 1 0 7.2zm-678.5 0a3.6 3.6 0 1 1 0-7.2 3.6 3.6 0 0 1 0 7.2zm50.3 0a3.6 3.6 0 1 1 0-7.2 3.6 3.6 0 0 1 0 7.2zm-25.2 0a3.6 3.6 0 1 1 0-7.2 3.6 3.6 0 0 1 0 7.2zm50.3 0a3.6 3.6 0 1 1 0-7.2 3.6 3.6 0 0 1 0 7.2zm326.7 0a3.6 3.6 0 1 1 0-7.2 3.6 3.6 0 0 1 0 7.2zm50.3 0a3.6 3.6 0 1 1 0-7.2 3.6 3.6 0 0 1 0 7.2zm-25.2 0a3.6 3.6 0 1 1 0-7.2 3.6 3.6 0 0 1 0 7.2zm50.3 0a3.6 3.6 0 1 1 0-7.2 3.6 3.6 0 0 1 0 7.2zm326.7 0a3.6 3.6 0 1 1 0-7.2 3.6 3.6 0 0 1 0 7.2zm50.3 0a3.6 3.6 0 1 1 0-7.2 3.6 3.6 0 0 1 0 7.2zm-25.2 0a3.6 3.6 0 1 1 0-7.2 3.6 3.6 0 0 1 0 7.2zm50.3 0a3.6 3.6 0 1 1 0-7.2 3.6 3.6 0 0 1 0 7.2zm-980.1 0a3.6 3.6 0 1 1 0-7.2 3.6 3.6 0 0 1 0 7.2zm50.2 0a3.6 3.6 0 1 1 0-7.2 3.6 3.6 0 0 1 0 7.2zm-25 0a3.6 3.6 0 1 1 0-7.2 3.6 3.6 0 0 1 0 7.2zm50.2 0a3.6 3.6 0 1 1 0-7.2 3.6 3.6 0 0 1 0 7.2zm326.7 0a3.6 3.6 0 1 1 0-7.2 3.6 3.6 0 0 1 0 7.2zm50.2 0a3.6 3.6 0 1 1 0-7.2 3.6 3.6 0 0 1 0 7.2zm-25 0a3.6 3.6 0 1 1 0-7.2 3.6 3.6 0 0 1 0 7.2zm50.2 0a3.6 3.6 0 1 1 0-7.2 3.6 3.6 0 0 1 0 7.2zm326.7 0a3.6 3.6 0 1 1 0-7.2 3.6 3.6 0 0 1 0 7.2zm50.2 0a3.6 3.6 0 1 1 0-7.2 3.6 3.6 0 0 1 0 7.2zm-25.1 0a3.6 3.6 0 1 1 0-7.2 3.6 3.6 0 0 1 0 7.2zm50.3 0a3.6 3.6 0 1 1 0-7.2 3.6 3.6 0 0 1 0 7.2zm-678.6 0a3.6 3.6 0 1 1 0-7.2 3.6 3.6 0 0 1 0 7.2zm50.3 0a3.6 3.6 0 1 1 0-7.2 3.6 3.6 0 0 1 0 7.2zm-25.1 0a3.6 3.6 0 1 1 0-7.2 3.6 3.6 0 0 1 0 7.2zm50.2 0a3.6 3.6 0 1 1 0-7.2 3.6 3.6 0 0 1 0 7.2zm326.7 0a3.6 3.6 0 1 1 0-7.2 3.6 3.6 0 0 1 0 7.2zm50.3 0a3.6 3.6 0 1 1 0-7.2 3.6 3.6 0 0 1 0 7.2zm-25.1 0a3.6 3.6 0 1 1 0-7.2 3.6 3.6 0 0 1 0 7.2zm50.2 0a3.6 3.6 0 1 1 0-7.2 3.6 3.6 0 0 1 0 7.2zm326.7 0a3.6 3.6 0 1 1 0-7.2 3.6 3.6 0 0 1 0 7.2zm50.3 0a3.6 3.6 0 1 1 0-7.2 3.6 3.6 0 0 1 0 7.2zm-25.2 0a3.6 3.6 0 1 1 0-7.2 3.6 3.6 0 0 1 0 7.2zm50.3 0a3.6 3.6 0 1 1 0-7.2 3.6 3.6 0 0 1 0 7.2zM4.1 593a3.6 3.6 0 1 1 0-7.2 3.6 3.6 0 0 1 0 7.2zm50.3 0a3.6 3.6 0 1 1 0-7.2 3.6 3.6 0 0 1 0 7.2zm-25.2 0a3.6 3.6 0 1 1 0-7.2 3.6 3.6 0 0 1 0 7.2zm50.3 0a3.6 3.6 0 1 1 0-7.2 3.6 3.6 0 0 1 0 7.2zm326.7 0a3.6 3.6 0 1 1 0-7.2 3.6 3.6 0 0 1 0 7.2zm50.2 0a3.6 3.6 0 1 1 0-7.2 3.6 3.6 0 0 1 0 7.2zm-25 0a3.6 3.6 0 1 1 0-7.2 3.6 3.6 0 0 1 0 7.2zm50.2 0a3.6 3.6 0 1 1 0-7.2 3.6 3.6 0 0 1 0 7.2zm326.7 0a3.6 3.6 0 1 1 0-7.2 3.6 3.6 0 0 1 0 7.2zm50.2 0a3.6 3.6 0 1 1 0-7.2 3.6 3.6 0 0 1 0 7.2zm-25 0a3.6 3.6 0 1 1 0-7.2 3.6 3.6 0 0 1 0 7.2zm50.2 0a3.6 3.6 0 1 1 0-7.2 3.6 3.6 0 0 1 0 7.2zM205 593a3.6 3.6 0 1 1 0-7.2 3.6 3.6 0 0 1 0 7.2zm50.3 0a3.6 3.6 0 1 1 0-7.2 3.6 3.6 0 0 1 0 7.2zm-25.1 0a3.6 3.6 0 1 1 0-7.2 3.6 3.6 0 0 1 0 7.2zm50.2 0a3.6 3.6 0 1 1 0-7.2 3.6 3.6 0 0 1 0 7.2zm326.7 0a3.6 3.6 0 1 1 0-7.2 3.6 3.6 0 0 1 0 7.2zm50.3 0a3.6 3.6 0 1 1 0-7.2 3.6 3.6 0 0 1 0 7.2zm-25.1 0a3.6 3.6 0 1 1 0-7.2 3.6 3.6 0 0 1 0 7.2zm50.2 0a3.6 3.6 0 1 1 0-7.2 3.6 3.6 0 0 1 0 7.2zm326.7 0a3.6 3.6 0 1 1 0-7.2 3.6 3.6 0 0 1 0 7.2zm50.3 0a3.6 3.6 0 1 1 0-7.2 3.6 3.6 0 0 1 0 7.2zm-25.1 0a3.6 3.6 0 1 1 0-7.2 3.6 3.6 0 0 1 0 7.2zm50.2 0a3.6 3.6 0 1 1 0-7.2 3.6 3.6 0 0 1 0 7.2zm-980 0a3.6 3.6 0 1 1 0-7.2 3.6 3.6 0 0 1 0 7.2zm50.2 0a3.6 3.6 0 1 1 0-7.2 3.6 3.6 0 0 1 0 7.2zm-25.2 0a3.6 3.6 0 1 1 0-7.2 3.6 3.6 0 0 1 0 7.2zm50.3 0a3.6 3.6 0 1 1 0-7.2 3.6 3.6 0 0 1 0 7.2zm326.7 0a3.6 3.6 0 1 1 0-7.2 3.6 3.6 0 0 1 0 7.2zm50.3 0a3.6 3.6 0 1 1 0-7.2 3.6 3.6 0 0 1 0 7.2zm-25.2 0a3.6 3.6 0 1 1 0-7.2 3.6 3.6 0 0 1 0 7.2zm50.3 0a3.6 3.6 0 1 1 0-7.2 3.6 3.6 0 0 1 0 7.2zm326.7 0a3.6 3.6 0 1 1 0-7.2 3.6 3.6 0 0 1 0 7.2zm50.3 0a3.6 3.6 0 1 1 0-7.2 3.6 3.6 0 0 1 0 7.2zm-25.2 0a3.6 3.6 0 1 1 0-7.2 3.6 3.6 0 0 1 0 7.2zm50.3 0a3.6 3.6 0 1 1 0-7.2 3.6 3.6 0 0 1 0 7.2zm-678.5 0a3.6 3.6 0 1 1 0-7.2 3.6 3.6 0 0 1 0 7.2zm50.2 0a3.6 3.6 0 1 1 0-7.2 3.6 3.6 0 0 1 0 7.2zm-25.1 0a3.6 3.6 0 1 1 0-7.2 3.6 3.6 0 0 1 0 7.2zm50.3 0a3.6 3.6 0 1 1 0-7.2 3.6 3.6 0 0 1 0 7.2zm326.7 0a3.6 3.6 0 1 1 0-7.2 3.6 3.6 0 0 1 0 7.2zm50.2 0a3.6 3.6 0 1 1 0-7.2 3.6 3.6 0 0 1 0 7.2zm-25.1 0a3.6 3.6 0 1 1 0-7.2 3.6 3.6 0 0 1 0 7.2zm50.2 0a3.6 3.6 0 1 1 0-7.2 3.6 3.6 0 0 1 0 7.2zm326.7 0a3.6 3.6 0 1 1 0-7.2 3.6 3.6 0 0 1 0 7.2zm50.3 0a3.6 3.6 0 1 1 0-7.2 3.6 3.6 0 0 1 0 7.2zm-25.1 0a3.6 3.6 0 1 1 0-7.2 3.6 3.6 0 0 1 0 7.2zm50.2 0a3.6 3.6 0 1 1 0-7.2 3.6 3.6 0 0 1 0 7.2zM4.1 632.5a3.6 3.6 0 1 1 0-7.2 3.6 3.6 0 0 1 0 7.2zm50.3 0a3.6 3.6 0 1 1 0-7.2 3.6 3.6 0 0 1 0 7.2zm-25.2 0a3.6 3.6 0 1 1 0-7.2 3.6 3.6 0 0 1 0 7.2zm50.3 0a3.6 3.6 0 1 1 0-7.2 3.6 3.6 0 0 1 0 7.2zm326.7 0a3.6 3.6 0 1 1 0-7.2 3.6 3.6 0 0 1 0 7.2zm50.2 0a3.6 3.6 0 1 1 0-7.2 3.6 3.6 0 0 1 0 7.2zm-25 0a3.6 3.6 0 1 1 0-7.2 3.6 3.6 0 0 1 0 7.2zm50.2 0a3.6 3.6 0 1 1 0-7.2 3.6 3.6 0 0 1 0 7.2zm326.7 0a3.6 3.6 0 1 1 0-7.2 3.6 3.6 0 0 1 0 7.2zm50.2 0a3.6 3.6 0 1 1 0-7.2 3.6 3.6 0 0 1 0 7.2zm-25 0a3.6 3.6 0 1 1 0-7.2 3.6 3.6 0 0 1 0 7.2zm50.2 0a3.6 3.6 0 1 1 0-7.2 3.6 3.6 0 0 1 0 7.2zm-678.6 0a3.6 3.6 0 1 1 0-7.2 3.6 3.6 0 0 1 0 7.2zm50.3 0a3.6 3.6 0 1 1 0-7.2 3.6 3.6 0 0 1 0 7.2zm-25.1 0a3.6 3.6 0 1 1 0-7.2 3.6 3.6 0 0 1 0 7.2zm50.2 0a3.6 3.6 0 1 1 0-7.2 3.6 3.6 0 0 1 0 7.2zm326.7 0a3.6 3.6 0 1 1 0-7.2 3.6 3.6 0 0 1 0 7.2zm50.3 0a3.6 3.6 0 1 1 0-7.2 3.6 3.6 0 0 1 0 7.2zm-25.1 0a3.6 3.6 0 1 1 0-7.2 3.6 3.6 0 0 1 0 7.2zm50.2 0a3.6 3.6 0 1 1 0-7.2 3.6 3.6 0 0 1 0 7.2zm326.7 0a3.6 3.6 0 1 1 0-7.2 3.6 3.6 0 0 1 0 7.2zm50.3 0a3.6 3.6 0 1 1 0-7.2 3.6 3.6 0 0 1 0 7.2zm-25.1 0a3.6 3.6 0 1 1 0-7.2 3.6 3.6 0 0 1 0 7.2zm50.2 0a3.6 3.6 0 1 1 0-7.2 3.6 3.6 0 0 1 0 7.2zm-980 0a3.6 3.6 0 1 1 0-7.2 3.6 3.6 0 0 1 0 7.2zm50.2 0a3.6 3.6 0 1 1 0-7.2 3.6 3.6 0 0 1 0 7.2zm-25.2 0a3.6 3.6 0 1 1 0-7.2 3.6 3.6 0 0 1 0 7.2zm50.3 0a3.6 3.6 0 1 1 0-7.2 3.6 3.6 0 0 1 0 7.2zm326.7 0a3.6 3.6 0 1 1 0-7.2 3.6 3.6 0 0 1 0 7.2zm50.3 0a3.6 3.6 0 1 1 0-7.2 3.6 3.6 0 0 1 0 7.2zm-25.2 0a3.6 3.6 0 1 1 0-7.2 3.6 3.6 0 0 1 0 7.2zm50.3 0a3.6 3.6 0 1 1 0-7.2 3.6 3.6 0 0 1 0 7.2zm326.7 0a3.6 3.6 0 1 1 0-7.2 3.6 3.6 0 0 1 0 7.2zm50.3 0a3.6 3.6 0 1 1 0-7.2 3.6 3.6 0 0 1 0 7.2zm-25.2 0a3.6 3.6 0 1 1 0-7.2 3.6 3.6 0 0 1 0 7.2zm50.3 0a3.6 3.6 0 1 1 0-7.2 3.6 3.6 0 0 1 0 7.2zm-678.5 0a3.6 3.6 0 1 1 0-7.2 3.6 3.6 0 0 1 0 7.2zm50.2 0a3.6 3.6 0 1 1 0-7.2 3.6 3.6 0 0 1 0 7.2zm-25.1 0a3.6 3.6 0 1 1 0-7.2 3.6 3.6 0 0 1 0 7.2zm50.3 0a3.6 3.6 0 1 1 0-7.2 3.6 3.6 0 0 1 0 7.2zm326.7 0a3.6 3.6 0 1 1 0-7.2 3.6 3.6 0 0 1 0 7.2zm50.2 0a3.6 3.6 0 1 1 0-7.2 3.6 3.6 0 0 1 0 7.2zm-25.1 0a3.6 3.6 0 1 1 0-7.2 3.6 3.6 0 0 1 0 7.2zm50.2 0a3.6 3.6 0 1 1 0-7.2 3.6 3.6 0 0 1 0 7.2zm326.7 0a3.6 3.6 0 1 1 0-7.2 3.6 3.6 0 0 1 0 7.2zm50.3 0a3.6 3.6 0 1 1 0-7.2 3.6 3.6 0 0 1 0 7.2zm-25.1 0a3.6 3.6 0 1 1 0-7.2 3.6 3.6 0 0 1 0 7.2zm50.2 0a3.6 3.6 0 1 1 0-7.2 3.6 3.6 0 0 1 0 7.2zM4.1 672a3.6 3.6 0 1 1 0-7.2 3.6 3.6 0 0 1 0 7.2zm50.3 0a3.6 3.6 0 1 1 0-7.2 3.6 3.6 0 0 1 0 7.2zm-25.2 0a3.6 3.6 0 1 1 0-7.2 3.6 3.6 0 0 1 0 7.2zm50.3 0a3.6 3.6 0 1 1 0-7.2 3.6 3.6 0 0 1 0 7.2zm326.7 0a3.6 3.6 0 1 1 0-7.2 3.6 3.6 0 0 1 0 7.2zm50.2 0a3.6 3.6 0 1 1 0-7.2 3.6 3.6 0 0 1 0 7.2zm-25 0a3.6 3.6 0 1 1 0-7.2 3.6 3.6 0 0 1 0 7.2zm50.2 0a3.6 3.6 0 1 1 0-7.2 3.6 3.6 0 0 1 0 7.2zm326.7 0a3.6 3.6 0 1 1 0-7.2 3.6 3.6 0 0 1 0 7.2zm50.2 0a3.6 3.6 0 1 1 0-7.2 3.6 3.6 0 0 1 0 7.2zm-25 0a3.6 3.6 0 1 1 0-7.2 3.6 3.6 0 0 1 0 7.2zm50.2 0a3.6 3.6 0 1 1 0-7.2 3.6 3.6 0 0 1 0 7.2zM205 672a3.6 3.6 0 1 1 0-7.2 3.6 3.6 0 0 1 0 7.2zm50.3 0a3.6 3.6 0 1 1 0-7.2 3.6 3.6 0 0 1 0 7.2zm-25.1 0a3.6 3.6 0 1 1 0-7.2 3.6 3.6 0 0 1 0 7.2zm50.2 0a3.6 3.6 0 1 1 0-7.2 3.6 3.6 0 0 1 0 7.2zm326.7 0a3.6 3.6 0 1 1 0-7.2 3.6 3.6 0 0 1 0 7.2zm50.3 0a3.6 3.6 0 1 1 0-7.2 3.6 3.6 0 0 1 0 7.2zm-25.1 0a3.6 3.6 0 1 1 0-7.2 3.6 3.6 0 0 1 0 7.2zm50.2 0a3.6 3.6 0 1 1 0-7.2 3.6 3.6 0 0 1 0 7.2zm326.7 0a3.6 3.6 0 1 1 0-7.2 3.6 3.6 0 0 1 0 7.2zm50.3 0a3.6 3.6 0 1 1 0-7.2 3.6 3.6 0 0 1 0 7.2zm-25.1 0a3.6 3.6 0 1 1 0-7.2 3.6 3.6 0 0 1 0 7.2zm50.2 0a3.6 3.6 0 1 1 0-7.2 3.6 3.6 0 0 1 0 7.2zm-980 0a3.6 3.6 0 1 1 0-7.2 3.6 3.6 0 0 1 0 7.2zm50.2 0a3.6 3.6 0 1 1 0-7.2 3.6 3.6 0 0 1 0 7.2zm-25.2 0a3.6 3.6 0 1 1 0-7.2 3.6 3.6 0 0 1 0 7.2zm50.3 0a3.6 3.6 0 1 1 0-7.2 3.6 3.6 0 0 1 0 7.2zm326.7 0a3.6 3.6 0 1 1 0-7.2 3.6 3.6 0 0 1 0 7.2zm50.3 0a3.6 3.6 0 1 1 0-7.2 3.6 3.6 0 0 1 0 7.2zm-25.2 0a3.6 3.6 0 1 1 0-7.2 3.6 3.6 0 0 1 0 7.2zm50.3 0a3.6 3.6 0 1 1 0-7.2 3.6 3.6 0 0 1 0 7.2zm326.7 0a3.6 3.6 0 1 1 0-7.2 3.6 3.6 0 0 1 0 7.2zm50.3 0a3.6 3.6 0 1 1 0-7.2 3.6 3.6 0 0 1 0 7.2zm-25.2 0a3.6 3.6 0 1 1 0-7.2 3.6 3.6 0 0 1 0 7.2zm50.3 0a3.6 3.6 0 1 1 0-7.2 3.6 3.6 0 0 1 0 7.2zm-678.5 0a3.6 3.6 0 1 1 0-7.2 3.6 3.6 0 0 1 0 7.2zm50.2 0a3.6 3.6 0 1 1 0-7.2 3.6 3.6 0 0 1 0 7.2zm-25.1 0a3.6 3.6 0 1 1 0-7.2 3.6 3.6 0 0 1 0 7.2zm50.3 0a3.6 3.6 0 1 1 0-7.2 3.6 3.6 0 0 1 0 7.2zm326.7 0a3.6 3.6 0 1 1 0-7.2 3.6 3.6 0 0 1 0 7.2zm50.2 0a3.6 3.6 0 1 1 0-7.2 3.6 3.6 0 0 1 0 7.2zm-25.1 0a3.6 3.6 0 1 1 0-7.2 3.6 3.6 0 0 1 0 7.2zm50.2 0a3.6 3.6 0 1 1 0-7.2 3.6 3.6 0 0 1 0 7.2zm326.7 0a3.6 3.6 0 1 1 0-7.2 3.6 3.6 0 0 1 0 7.2zm50.3 0a3.6 3.6 0 1 1 0-7.2 3.6 3.6 0 0 1 0 7.2zm-25.1 0a3.6 3.6 0 1 1 0-7.2 3.6 3.6 0 0 1 0 7.2zm50.2 0a3.6 3.6 0 1 1 0-7.2 3.6 3.6 0 0 1 0 7.2z" transform="translate(0 -210)" fill="url(#a)" fill-rule="evenodd"/>
</svg>
