<?xml version="1.0" encoding="UTF-8"?>
<svg width="114px" height="29px" viewBox="0 0 114 29" version="1.1" xmlns="http://www.w3.org/2000/svg" xmlns:xlink="http://www.w3.org/1999/xlink">
    <!-- Generator: Sketch 55.2 (78181) - https://sketchapp.com -->
    <title>lsb-andcounting</title>
    <desc>Created with Sketch.</desc>
    <g id="lsb-andcounting" stroke="none" stroke-width="1" fill="none" fill-rule="evenodd">
        <path d="M4.14415294,10.3088136 L5.73500818,11.6436996 C5.85409018,11.7436213 5.86962271,11.9211588 5.76970104,12.0402408 C5.73744356,12.0786838 5.69549467,12.1078035 5.6481995,12.1245836 L0.407795456,13.9838552 C0.261292574,14.0358338 0.100391575,13.9592067 0.0484130145,13.8127038 C0.0321277608,13.7676008 0.0281728487,13.7191623 0.0358267118,13.6719322 L0.957138576,8.18831608 C0.982887506,8.03501293 1.1280379,7.9316098 1.28134106,7.95735873 C1.33083155,7.9656712 1.37719972,7.98706412 1.41564268,8.0193216 L2.94550945,9.30303224 C9.19994561,3.94312338 16.2064113,0.97212321 23.9445213,0.404063316 C31.7042893,-0.165586507 38.8641187,1.6064116 45.399955,5.71476472 C45.7609593,5.94150922 45.8692836,6.41774326 45.6425391,6.77846321 C45.4157946,7.13918316 44.9395605,7.24779173 44.5788406,7.02104723 C38.3222157,3.08820332 31.4897817,1.39723283 24.0574841,1.94284282 C16.7335386,2.48049862 10.1023389,5.26462835 4.14415294,10.3088136 Z M22.0367286,22.4550179 L21.6732274,22.4740682 C21.5334193,22.4813953 21.2589319,22.593915 20.8343191,22.7843986 C20.5877934,22.895453 20.3412677,23.0065073 20.0814939,23.1322752 C19.8106701,23.314699 19.5155481,23.5684923 19.1968608,23.9076359 L19.1732954,23.9929862 L19.5669562,24.0144129 C20.4912148,23.727648 21.2116822,23.2973519 21.7283585,22.7235248 C21.7548547,22.6940977 21.862305,22.6043512 22.0367286,22.4550179 Z M25.5012966,24.3623103 C25.383529,24.5226936 25.2260171,24.7272175 25.0302263,25.0038435 L24.7903543,24.974357 C24.7645908,25.0177648 24.7402927,25.0891343 24.688033,25.1619692 C24.6166635,25.1376711 24.5298478,25.086144 24.3996242,25.0088535 C24.2752623,25.0434094 24.015548,24.9028092 23.5932522,24.6024988 C23.5005749,24.4391253 23.2740105,24.1285571 22.9290053,23.6980233 L21.1965526,25.1486809 C21.1972853,25.1626617 21.2119988,25.1759099 21.227445,25.2031388 C21.256872,25.229635 21.2715855,25.2428831 21.2723182,25.2568639 C21.2340393,25.3289661 21.153818,25.4032664 21.0176733,25.4804975 C20.9087576,25.5422824 20.8138228,25.6033345 20.6909263,25.6658521 C19.6864463,26.0269174 19.1919295,26.2210645 19.2198911,26.2195991 C18.5208505,26.2562342 17.9469638,26.0059261 17.498964,25.4826555 C17.2753899,24.9616424 17.1570085,24.5753085 17.1445525,24.3376347 C17.1364928,24.1838458 17.2918661,23.6710113 17.6121377,22.8270931 C17.9153788,22.4607205 18.1302794,22.2812275 18.2833357,22.259187 C18.32308,22.2150464 18.6454309,21.9458069 19.2525864,21.4934108 C19.5395891,21.3521967 19.9906981,21.1322861 20.6331423,20.8182328 C21.3233905,20.6138279 21.640553,20.5130908 21.5846297,20.5160216 C21.6265722,20.5138235 21.7391514,20.5219427 21.9356155,20.5256657 C22.1600412,20.5279232 22.300582,20.534577 22.3697534,20.5169327 C22.655964,20.6281059 22.7883857,20.7473389 22.7964454,20.9011279 L22.7993762,20.9570511 C22.8869246,21.022559 22.9619576,21.1167612 23.0244752,21.2396577 C23.102439,21.3897831 23.1487777,21.4714699 23.1649566,21.5126796 C23.2061663,21.4965007 23.2481088,21.4943026 23.2900512,21.4921045 C23.4997634,21.4811139 23.699891,21.554741 23.890434,21.7129856 C24.2082103,22.1589656 24.4965596,22.5784495 24.7562145,22.9854179 C25.1063486,23.5138175 25.3549536,23.9774419 25.5012966,24.3623103 Z M33.3893387,21.4815341 L33.4067452,22.6161781 L33.3149983,24.8780796 L33.0771461,25.6896401 C33.0219555,25.7065517 32.9410015,25.7668712 32.8335512,25.8566177 L32.7217047,25.8625569 C32.6937431,25.8639447 32.6356217,25.8249331 32.5620541,25.7586925 L32.4781692,25.7630888 L32.35454,25.8116255 C32.2522781,25.7328696 32.0771813,25.6018539 31.8439631,25.4318266 C31.7799802,25.2809684 31.6983528,25.0609389 31.5851004,24.7724708 L31.533019,24.0462012 L31.5555351,22.0683121 L31.5284251,21.551022 C31.5129789,21.5237931 31.4688383,21.4840488 31.4239651,21.4303236 C31.0008177,21.6487688 30.7012995,21.8186773 30.5254106,21.9400489 L29.2049958,23.4952855 C28.6507733,24.1551956 28.2481416,24.7651036 27.9956354,25.2970478 C27.8734716,25.3735462 27.7218807,25.4235483 27.5680918,25.4316081 C27.5261493,25.4338062 27.440799,25.4102408 27.2980601,25.3616446 L27.2340177,25.4771546 C27.2200368,25.4778873 27.1354193,25.4683027 26.9941457,25.4476681 L26.9846206,25.2659175 L26.7822949,25.1503481 C26.7550659,25.1657943 26.6866273,25.1974194 26.5777116,25.2592043 C26.5306402,25.1635367 26.4666572,25.0126786 26.3997434,24.8058972 C26.3924164,24.6660891 26.3718412,24.5409944 26.3534642,24.4578423 C26.349068,24.3739574 26.3314237,24.304786 26.3299582,24.2768244 L26.3292255,24.2628436 L26.3949117,23.3761907 C26.4022982,23.2496307 26.4185366,23.0244723 26.4708558,22.6852692 C26.4981442,22.4034548 26.5504633,22.0642518 26.5998517,21.6691255 C26.624942,21.3453687 26.7405709,20.8766748 26.9327577,20.2637766 L27.2874664,20.0769565 C27.3581031,20.0872738 27.4567015,20.0961257 27.584727,20.1314738 C27.5898559,20.2293395 27.6361946,20.3110263 27.723743,20.3765341 L27.9444457,20.5752558 C27.9951806,20.7408274 28.0724117,20.876972 28.1481774,20.985155 C28.1827333,21.1095169 28.2349336,21.3030502 28.3202245,21.5929838 C29.0789708,21.0905856 29.5882606,20.6433184 29.8473612,20.2372016 C29.9297807,20.2048437 30.0504791,20.1003837 30.2241699,19.9370696 C30.5899286,19.6935936 30.9704008,19.4633657 31.3508731,19.2331378 C31.5709026,19.1515105 31.750455,19.1000429 31.8762824,19.0934486 C31.9461864,19.0897851 32.1617603,19.190641 32.5237366,19.4099973 C32.8415128,19.8559773 33.1298027,20.5418293 33.3893387,21.4815341 Z M43.9763191,22.7491983 C43.9783901,22.7911408 43.9253977,22.8499948 43.7892531,22.9272259 C43.6538411,23.0184378 43.589066,23.119967 43.596393,23.2597752 C43.5993239,23.3156984 43.6169682,23.3848698 43.6633068,23.4665566 C43.6242952,23.5246779 43.489616,23.6298707 43.2585365,23.7681539 C43.0134762,23.9071699 42.8508354,24.0138281 42.7985756,24.0866629 C42.5255537,24.2271443 42.1156544,24.430876 41.5696105,24.7118388 C41.5696105,24.7118388 41.4997065,24.7155023 41.3473829,24.7515237 C41.2083075,24.7728315 41.1111745,24.7919413 41.0552513,24.7948721 L40.3914992,24.96985 C40.0979022,24.9852367 39.8469802,25.0124062 39.6799432,25.0351795 L39.402525,25.091776 L38.7292478,25.0850033 C38.7012862,25.0864687 38.6600765,25.1026476 38.6203322,25.1467882 C38.5092183,25.1666306 38.3282005,25.1901366 38.0912593,25.2165733 L37.7005293,25.2510699 C37.4216457,25.2797047 36.841838,25.1839182 35.9633043,25.0056528 C35.7646421,24.9599874 35.493145,24.8620623 35.1340996,24.6986293 C34.9303084,24.5550982 34.7809752,24.3806747 34.701546,24.2025876 C34.5117356,24.0583238 34.4175929,23.8669886 34.4058697,23.6432956 C34.3948791,23.4335834 34.4457329,23.0664187 34.5724118,22.5410689 C34.637187,22.4395397 34.7417064,22.2938699 34.899951,22.1033269 C35.8824499,21.3228373 37.3203944,20.6726901 39.2299637,20.194095 C39.4926683,20.1242504 39.9643525,20.0294344 40.6435507,19.8816855 C40.7406837,19.8625757 40.8223705,19.8162371 40.8753629,19.757383 L40.7670224,13.9450875 C40.7670224,13.9450875 40.7920532,13.8876989 40.8141532,13.774387 C40.8414416,13.4925726 40.87978,13.1541023 40.9585954,12.7854722 C41.2795403,12.2219029 41.6048219,12.0085866 41.9536096,11.9762882 C42.4980692,12.2001001 42.762853,12.7049343 42.7604766,13.4620963 C42.7773882,13.5172868 42.780319,13.5732101 42.798696,13.6563623 C42.8273904,13.6688777 42.8582828,13.7233355 42.9053542,13.8190031 L43.2018612,20.5467052 L43.0243285,21.4392197 L42.6328658,21.4597354 C42.5158309,21.6340995 42.3524573,21.7267768 42.1707068,21.736302 C42.1567259,21.7370347 42.0581275,21.7281828 41.8881597,21.6950328 C41.704211,21.6626155 41.6056126,21.6537636 41.5916318,21.6544963 C40.8013197,21.8220877 40.0154634,21.8071959 39.2155667,22.0594048 C38.5260512,22.2777906 37.1808434,22.8249432 37.199161,23.1744635 C37.2145478,23.4680606 39.4367644,23.33758 40.8098744,23.0553301 C41.7120329,22.8818771 43.0572407,22.3347245 43.0572407,22.3347245 C43.2124951,22.3546264 43.3390551,22.3620129 43.4509016,22.3561512 C43.5208057,22.3524877 43.5767289,22.3495569 43.6319195,22.3326453 L43.7503603,22.452611 L43.6612871,22.6255097 C43.7194084,22.6645213 43.820205,22.7153156 43.9763191,22.7491983 Z M55.3648282,19.2395057 C55.2913006,19.2857606 54.6517137,19.6130305 53.4595235,20.2334313 C53.4190465,20.2635911 53.325577,20.3526049 53.1798478,20.5144535 C52.9053604,20.6269733 52.4932631,20.7887625 51.9597346,21.041031 C51.5630834,21.2300492 51.2708923,21.5397657 51.0956766,21.9414863 C51.1103901,21.9547344 51.1258364,21.9819634 51.1273018,22.009925 C51.4024624,22.1777542 51.7983214,22.2411234 52.2876498,22.2154788 L55.4289961,21.7003675 L56.2788355,21.8661175 L56.3567993,22.0162429 C56.3781071,22.1553183 56.3876322,22.3370689 56.384642,22.5475138 C56.3088168,22.705699 56.1616222,22.839586 55.9577716,22.9624231 C55.6450054,23.147045 55.4551356,23.2691494 55.4153913,23.3132899 C55.4197875,23.3971748 55.3682605,23.4839905 55.2593448,23.5457754 C54.9738074,23.7149511 54.5330157,23.864225 53.9237216,24.0083104 C53.6801267,24.175288 53.4461163,24.257648 53.2364041,24.2686386 C53.1665001,24.2723021 53.0958633,24.2619848 53.0531882,24.2502021 C52.9597187,24.3392159 52.8088606,24.4031989 52.5998811,24.4281703 C52.4468248,24.4502108 52.2937686,24.4722514 52.141445,24.5082727 L51.338677,24.4381903 C51.3246962,24.438923 51.2974673,24.4543692 51.2422767,24.4712809 C51.1870862,24.4881925 51.1451437,24.4903906 51.1311629,24.4911233 L50.6345074,24.3769598 C50.5373744,24.3960695 50.4821839,24.4129812 50.4821839,24.4129812 C50.3703374,24.4188428 50.2136176,24.3709793 49.9855284,24.2988176 C49.7280121,24.2001598 49.5712924,24.1522963 49.5286172,24.1405136 C49.0107133,23.6209065 48.7326813,23.1307858 48.7085021,22.669419 C48.6975116,22.4597068 48.7505635,22.1344846 48.8691232,21.7217139 C48.9869502,21.2949625 49.1003216,21.0506943 49.1937911,20.9616805 C49.8944755,20.1539025 51.0167824,19.3660858 52.5732273,18.5695362 C52.6828757,18.5217321 52.8594974,18.4143413 53.1192712,18.2885734 C53.1472328,18.287108 53.3812431,18.204748 53.848531,18.0260471 C54.1921898,17.895883 54.482856,17.824573 54.7205299,17.812117 C54.7345107,17.8113843 54.7764531,17.8091862 54.8750515,17.8180381 C54.9736499,17.82689 55.0295732,17.8239592 55.0715156,17.8217611 C55.1414197,17.8180975 55.1966102,17.8011859 55.2518008,17.7842743 L55.6217179,18.6901558 C55.5598736,18.8476083 55.4553541,18.993278 55.3368538,19.1396805 C55.3482534,19.1912611 55.3588071,19.2267027 55.3648282,19.2395057 L55.3648282,19.2395057 Z M63.8009405,20.0279217 L63.7914153,19.8461712 C63.3824271,19.2647792 63.0315008,18.988767 62.7239229,19.0048864 C62.7099421,19.0056191 62.6827132,19.0210654 62.6687324,19.0217981 C62.6554843,19.0365116 62.6422362,19.0512251 62.6282554,19.0519578 L62.5443705,19.056354 C62.438445,18.907694 62.1971077,18.8502459 61.8063776,18.8847424 L61.0528791,18.95227 L59.3920337,19.3617531 L59.3140104,19.4779958 L59.3271991,19.7296505 C59.3293972,19.7715929 59.3610223,19.8400316 59.4080937,19.9356992 C59.3955783,19.9643935 59.3418531,20.0092668 59.2756126,20.0828343 C59.322684,20.1785019 59.3535764,20.2329598 59.3543091,20.2469406 C59.2740877,20.3212409 59.2063818,20.3668468 59.1519239,20.3977393 C59.1526566,20.4117201 59.0886142,20.5272301 58.9737774,20.7435366 C58.8596734,20.973824 58.7970963,21.1172956 58.8014925,21.2011805 C58.8007598,21.1871997 58.8176715,21.2423903 58.850762,21.3387906 C58.9993626,21.4992333 59.2303826,21.6273182 59.5732492,21.7495414 C59.9014022,21.8585166 60.1707012,21.9144993 60.408375,21.9020433 C60.934517,21.7763349 61.2531449,21.7035594 61.3510106,21.6984305 L62.4327811,21.2071417 C62.9663096,20.9548733 63.3195529,20.7400916 63.492511,20.5627967 C63.7059462,20.3553421 63.8082675,20.1677299 63.8009405,20.0279217 Z M65.3902381,20.393245 C65.4085557,20.7427653 65.3260768,21.0414913 65.1288205,21.2901557 C65.1170378,21.3328308 65.0942051,21.4321619 65.0595897,21.5741682 C64.9028105,21.7926728 64.6665426,22.0994586 64.3647669,22.4937927 C63.8783098,22.8417288 63.4190816,23.1742186 62.9863497,23.4772813 C61.970087,23.8810217 61.1966866,24.1038037 60.6514349,24.1323791 L60.1900681,24.1565583 C60.1481256,24.1587565 60.0914697,24.1477065 60.0193675,24.1094275 C59.9222345,24.1285373 59.5396236,24.0504546 58.886981,23.9024083 C58.6272667,23.7618081 58.2498441,23.5152229 57.7819424,23.1472066 C57.705444,23.0250428 57.5833397,22.8351731 57.4156294,22.5775973 C57.233265,22.0404053 57.1413798,21.6246445 57.125993,21.3310474 L57.1621927,20.6842664 L57.1094152,19.6776479 C57.1087054,19.6636671 57.1425881,19.50768 57.2118189,19.2236675 C57.2942978,18.9249415 57.3399632,18.7262793 57.3495478,18.6416617 C57.4349576,18.398859 57.7676257,18.0589827 58.348285,17.6360136 C58.4446853,17.6029231 58.610257,17.5521882 58.8310192,17.4845417 C58.8847443,17.4396684 58.9524503,17.3940625 59.0481178,17.3469911 C59.0628314,17.3602392 59.0915257,17.3727546 59.1334681,17.3705565 C59.1334681,17.3705565 59.2570973,17.3220198 59.5183366,17.2242135 C59.7795758,17.1264073 60.0010707,17.0727416 60.1968021,17.0624837 L61.5109986,16.9936096 C61.6647875,16.9855499 61.8200419,17.0054518 62.0194368,17.065098 C62.326282,17.0349977 62.9708054,17.2956231 63.9677204,17.8602224 L63.9750475,18.0000305 C64.1361635,18.1317789 64.3532027,18.2605965 64.6129171,18.4011968 C64.7159117,18.4939336 64.9314261,18.8611577 65.2587275,19.4888883 C65.3315029,19.8075162 65.375584,20.1136287 65.3902381,20.393245 Z M73.1668692,18.864152 C73.11455,19.203355 73.0430616,19.7117932 72.9089962,20.3637031 C72.8434289,20.7176197 72.6556978,21.1480346 72.4017261,21.6520172 C72.1036139,22.1162554 71.8680788,22.4370219 71.7091014,22.6135841 C71.3918795,22.9806893 71.0673305,23.2079864 70.7487026,23.2807619 C70.6250734,23.3292986 70.4337383,23.4234414 70.1746971,23.56319 C69.7449554,23.6558079 69.4954989,23.710939 69.411614,23.7153352 C68.363053,23.770288 67.4265169,23.0202746 66.5740439,21.4667606 C66.4821588,21.0509997 66.4226314,20.7176583 66.4087101,20.4520228 C66.4006503,20.2982339 66.4279387,20.0164195 66.5060214,19.6338086 C66.7878952,19.3947288 66.9784977,19.2866053 67.0623826,19.2822091 C67.6362692,19.5325172 67.9518474,19.9365548 67.9944036,20.4810739 C68.0208404,20.718015 68.1760353,21.004285 68.4739692,21.3391513 C68.8175684,21.4753554 68.9897344,21.5504478 68.9904671,21.5644286 L69.2141601,21.5527054 C69.2833315,21.535061 69.4753994,21.4548991 69.7918291,21.3401812 C70.2510573,21.0076914 70.5461793,20.7538981 70.706622,20.6052976 C71.0400229,20.2794021 71.2196348,19.9615663 71.244725,19.6378095 C71.2697558,19.5804209 71.3058367,19.4663762 71.3397194,19.3103892 C71.3979002,19.0830326 71.4914291,18.7276507 71.6077907,18.2729376 C71.7359351,17.7755494 71.8728718,17.445931 72.0038875,17.2708342 C72.0178683,17.2701015 72.04583,17.268636 72.0885051,17.2804188 C72.1451611,17.2914688 72.1871035,17.2892706 72.2150651,17.2878052 L72.4387581,17.276082 C72.4549371,17.3172917 72.5145238,17.384265 72.6167857,17.4630209 C72.7234439,17.6256618 72.8749753,17.8420277 73.0721126,18.1260997 C73.1066686,18.2504616 73.1132629,18.3762889 73.0940937,18.5455241 C73.0734591,18.6867976 73.1065497,18.7831979 73.1668692,18.864152 Z M80.9600551,18.9884585 L80.9774617,20.1231025 L80.8857147,22.385004 L80.6478625,23.1965645 C80.592672,23.2134761 80.5117179,23.2737956 80.4042676,23.3635421 L80.2924211,23.3694813 C80.2644595,23.3708691 80.2063381,23.3318575 80.1327705,23.2656169 L80.0488857,23.2700132 L79.9252565,23.3185499 C79.8229945,23.239794 79.6478977,23.1087783 79.4146796,22.938751 C79.3506966,22.7878928 79.2690693,22.5678633 79.1558168,22.2793952 L79.1037354,21.5531256 L79.1262516,19.5752365 L79.0991415,19.0579464 C79.0836953,19.0307175 79.0395548,18.9909732 78.9946815,18.937248 C78.5715341,19.1556932 78.272016,19.3256016 78.096127,19.4469733 L76.7757122,21.0022099 C76.2214897,21.66212 75.818858,22.272028 75.5663518,22.8039722 C75.444188,22.8804706 75.2925972,22.9304727 75.1388082,22.9385325 C75.0968658,22.9407306 75.0115155,22.9171652 74.8687765,22.868569 L74.8047341,22.984079 C74.7907533,22.9848117 74.7061357,22.9752271 74.5648622,22.9545925 L74.555337,22.7728419 L74.3530113,22.6572724 C74.3257824,22.6727187 74.2573437,22.7043438 74.148428,22.7661287 C74.1013567,22.6704611 74.0373737,22.519603 73.9704599,22.3128216 C73.9631328,22.1730134 73.9425577,22.0479188 73.9241806,21.9647667 C73.9197844,21.8808818 73.9021401,21.8117104 73.9006747,21.7837488 L73.899942,21.769768 L73.9656282,20.8831151 C73.9730147,20.7565551 73.989253,20.5313966 74.0415722,20.1921936 C74.0688606,19.9103792 74.1211798,19.5711762 74.1705682,19.1760499 C74.1956584,18.8522931 74.3112873,18.3835992 74.5034741,17.770701 L74.8581828,17.5838809 C74.9288196,17.5941982 75.027418,17.6030501 75.1554434,17.6383982 C75.1605723,17.7362639 75.206911,17.8179507 75.2944594,17.8834585 L75.5151622,18.0821802 C75.565897,18.2477518 75.6431281,18.3838964 75.7188938,18.4920794 C75.7534498,18.6164413 75.8056501,18.8099746 75.8909409,19.0999082 C76.6496873,18.5975099 77.1589771,18.1502428 77.4180776,17.744126 C77.5004971,17.7117681 77.6211955,17.6073081 77.7948864,17.443994 C78.1606451,17.200518 78.5411173,16.9702901 78.9215895,16.7400622 C79.141619,16.6584349 79.3211715,16.6069673 79.4469988,16.600373 C79.5169029,16.5967095 79.7324767,16.6975654 80.094453,16.9169217 C80.4122293,17.3629017 80.7005191,18.0487537 80.9600551,18.9884585 Z M88.6993729,12.2062158 L88.3058358,15.9258128 L88.3336785,16.4570837 L89.2983546,16.4065272 C89.3130681,16.4197753 89.3535452,16.3896156 89.3932895,16.345475 L89.6030017,16.3344845 C89.6169825,16.3337518 89.658925,16.3315536 89.7155809,16.3426036 C89.7722369,16.3536536 89.8141793,16.3514555 89.8421409,16.3499901 C89.8561218,16.3492574 89.9392739,16.3308804 90.0629031,16.2823436 C90.2012459,16.247055 90.2704172,16.2294106 90.2983789,16.2279452 C90.3403213,16.2257471 90.4116908,16.2500452 90.5117546,16.2868587 C90.6493646,16.2375893 90.9974195,16.19131 91.5286905,16.1634673 C91.5147096,16.1642 91.8391992,16.2032711 92.5154071,16.265967 C92.6883058,16.3550403 92.9171278,16.4411827 93.2026057,16.5383752 C93.2062692,16.6082792 93.1959519,16.678916 93.1562075,16.7230566 C93.1907635,16.8474185 93.2665292,16.9556015 93.3695238,17.0483382 C93.4386952,17.0306939 93.5100647,17.054992 93.5542052,17.0947363 L93.3165314,17.1071923 C93.2922333,17.1785618 93.2672025,17.2359504 93.2694006,17.2778929 C93.2701333,17.2918737 93.2848468,17.3051218 93.2855795,17.3191026 C93.1906446,17.3801548 93.1222059,17.4117799 93.0802635,17.413978 C92.8557783,17.6780886 92.7085837,17.8119757 92.6666413,17.8141738 L92.0794471,17.8449474 L91.4716183,18.0169944 C91.4149624,18.0059444 91.3443256,17.9956271 91.2604407,18.0000234 L90.4024227,18.2132207 C90.3884419,18.2139534 90.3604803,18.2154188 90.3038243,18.2043688 C90.2611492,18.1925861 90.2192068,18.1947842 90.1912451,18.1962497 C90.1353219,18.1991805 89.9550367,18.2366672 89.6496569,18.2947292 C89.3722388,18.3513257 89.0940879,18.3939414 88.8313833,18.463786 C88.6371173,18.5020055 88.4192859,18.6255752 88.1749583,18.778572 C88.0311894,20.0478358 87.9552453,20.7387573 87.961107,20.8506038 L87.9889497,21.3818747 C87.9918805,21.4377979 87.9579978,21.593785 87.9027478,21.8770648 C87.8467651,22.1463638 87.8283286,22.3295797 87.8327248,22.4134646 C87.6546378,22.4928938 87.4095775,22.6319098 87.0688496,22.8179972 L86.8084025,22.6634161 C86.6347711,22.560362 86.5486881,22.5228158 86.5207265,22.5242812 C86.3243218,22.2541901 86.1816423,21.9392257 86.1199169,21.5639418 C86.1184515,21.5359802 86.0743704,21.2298677 85.9884063,20.6595852 L86.0703309,19.5477739 L86.0490825,19.1423303 L85.9894957,19.075357 L85.8496876,19.082684 L84.2587462,19.4885036 C84.2035557,19.5054153 84.1468997,19.4943653 84.0887783,19.4553536 L82.829713,19.7736843 C82.7576108,19.7354054 82.6281199,19.6720956 82.4125461,19.5712397 C82.3124823,19.5344262 82.2227358,19.4269759 82.1300585,19.2636023 L81.9447038,18.9368553 C81.8653341,18.4924 81.8271146,18.2981341 81.8307781,18.3680381 C81.8234511,18.22823 81.8720473,18.085491 81.9611206,17.9125924 C82.0641746,17.738961 82.1576441,17.6499472 82.2702233,17.6580663 L84.7500157,17.3598754 L86.3659879,16.8966671 C86.4346049,16.0659375 86.5386294,14.8408143 86.690577,13.1926031 C86.8658521,12.5245144 87.0322754,11.955024 87.1773313,11.5128263 C87.3480913,11.293589 87.5217822,11.1302749 87.7109192,10.9941897 C87.7683079,11.0192205 88.0420031,11.1590881 88.5194894,11.4424868 C88.6394437,11.9548997 88.6952172,12.2057054 88.6993729,12.2062158 L88.6993729,12.2062158 Z M96.0903081,18.8263801 L96.135003,19.6792098 C96.1335376,19.6512481 96.1210222,19.6799425 96.1114376,19.76456 C96.1165665,19.8624257 96.1084473,19.9750049 96.1017935,20.1155458 C96.0980706,20.3120099 96.1083284,20.5077413 96.1200517,20.7314343 L96.1566868,21.430475 L95.9733519,21.9447748 L95.8180976,21.9248729 C95.7776206,21.9550326 95.7371435,21.9851924 95.6834184,22.0300656 C95.6407432,22.0182829 95.5973354,21.9925194 95.5399467,21.9674886 C95.498737,21.9836675 95.45826,22.0138273 95.4038021,22.0447197 C95.3603943,22.0189562 95.1757129,21.9725581 94.8217963,21.9069908 C94.6401052,21.6501478 94.4761178,21.1961079 94.3158535,20.545604 C94.2798321,20.3932805 94.2555934,20.1982818 94.2549202,19.9179328 L94.2323847,18.6854231 L94.3576577,17.8657435 C94.4916042,17.74657 94.5556466,17.63106 94.5909947,17.5030345 L94.9500997,17.4000994 C95.0060229,17.3971685 95.0773924,17.4214667 95.1789216,17.4862418 C95.3267895,17.6327037 95.5489577,17.859387 95.8299799,18.1390627 C95.9976902,18.3966384 96.0793175,18.6166679 96.0903081,18.8263801 Z M96.2568309,14.5137547 C96.2310674,14.5571625 96.2053039,14.6005704 96.1523114,14.6594245 C96.2001155,14.7690729 96.2339387,14.879454 96.2390677,14.9773196 C96.2007887,15.0494218 96.0793576,15.139901 95.8887552,15.2480246 C95.8740417,15.2347765 95.8173857,15.2237265 95.7474816,15.22739 C95.6775776,15.2310535 95.622387,15.2479651 95.6091389,15.2626786 C95.4082786,15.1750708 95.1809221,15.11689 94.9270693,15.0881362 C94.7387839,14.7054659 94.6284622,14.472921 94.6373141,14.3743226 L94.6669195,13.6017143 C94.7081292,13.5855354 94.7883506,13.5112351 94.8810873,13.4082405 L95.3144926,13.3855267 C95.4586969,13.4620845 95.6212783,13.6217945 95.801504,13.8506759 C95.9155486,13.8867567 96.0038298,13.9662454 96.0678127,14.1171035 C96.1634209,14.3364003 96.2259385,14.4592968 96.2568309,14.5137547 Z M104.214142,17.7697634 L104.231549,18.9044074 L104.139802,21.166309 L103.90195,21.9778694 C103.846759,21.994781 103.765805,22.0551005 103.658355,22.144847 L103.546508,22.1507863 C103.518547,22.152174 103.460425,22.1131624 103.386858,22.0469219 L103.302973,22.0513181 L103.179344,22.0998548 C103.077082,22.0210989 102.901985,21.8900832 102.668767,21.7200559 C102.604784,21.5691977 102.523157,21.3491682 102.409904,21.0607001 L102.357823,20.3344305 L102.380339,18.3565415 L102.353229,17.8392514 C102.337783,17.8120224 102.293642,17.7722781 102.248769,17.718553 C101.825621,17.9369982 101.526103,18.1069066 101.350214,18.2282782 L100.0298,19.7835148 C99.475577,20.4434249 99.0729454,21.0533329 98.8204391,21.5852771 C98.6982753,21.6617755 98.5466845,21.7117777 98.3928955,21.7198374 C98.3509531,21.7220355 98.2656028,21.6984701 98.1228638,21.6498739 L98.0588214,21.7653839 C98.0448406,21.7661166 97.960223,21.756532 97.8189495,21.7358974 L97.8094243,21.5541468 L97.6070986,21.4385774 C97.5798697,21.4540236 97.511431,21.4856487 97.4025153,21.5474336 C97.355444,21.451766 97.291461,21.3009079 97.2245472,21.0941265 C97.2172201,20.9543184 97.196645,20.8292238 97.178268,20.7460716 C97.1738717,20.6621867 97.1562274,20.5930153 97.154762,20.5650537 L97.1540293,20.5510729 L97.2197155,19.66442 C97.227102,19.53786 97.2433403,19.3127016 97.2956595,18.9734985 C97.3229479,18.6916841 97.3752671,18.3524811 97.4246555,17.9573548 C97.4497457,17.633598 97.5653746,17.1649041 97.7575614,16.5520059 L98.1122701,16.3651858 C98.1829069,16.3755031 98.2815053,16.384355 98.4095307,16.4197031 C98.4146596,16.5175688 98.4609983,16.5992556 98.5485467,16.6647634 L98.7692495,16.8634851 C98.8199843,17.0290567 98.8972154,17.1652014 98.9729811,17.2733843 C99.0075371,17.3977463 99.0597374,17.5912795 99.1450282,17.8812131 C99.9037746,17.3788149 100.413064,16.9315477 100.672165,16.5254309 C100.754584,16.493073 100.875283,16.388613 101.048974,16.2252989 C101.414732,15.9818229 101.795205,15.751595 102.175677,15.5213671 C102.395706,15.4397398 102.575259,15.3882722 102.701086,15.3816779 C102.77099,15.3780144 102.986564,15.4788703 103.34854,15.6982266 C103.666317,16.1442067 103.954606,16.8300587 104.214142,17.7697634 Z M110.523956,17.6774067 L109.835966,17.6573859 L108.499669,17.839572 C108.569573,17.8359084 108.22738,17.9940342 107.444395,18.3014337 C107.404651,18.3455743 107.324429,18.4198746 107.231692,18.5228692 C107.232425,18.53685 107.247871,18.5640789 107.278031,18.6045559 C107.787935,18.7040059 108.140386,18.7416116 108.336117,18.7313538 C108.685638,18.7130362 109.100666,18.6071702 109.567221,18.4144885 C110.116196,18.189449 110.440012,17.9481711 110.523956,17.6774067 Z M112.211556,17.6359816 C112.183866,17.6270067 112.145876,17.6204439 112.091273,17.6233056 L112.03828,17.6821596 C112.116977,17.8462659 112.240547,18.0640973 112.409722,18.3496346 C112.425901,18.3908444 112.427367,18.418806 112.415584,18.4614811 C112.495686,18.9199172 112.638247,19.7676179 112.869029,20.9611754 L113.125516,22.3776932 L113.154645,23.7360302 C113.092623,24.6925872 112.841522,25.5188611 112.414593,26.2001386 C112.363066,26.2869543 112.191573,26.4922108 111.90158,26.8438698 C111.833141,26.8754949 111.671966,27.0101147 111.431302,27.2330156 C111.200955,27.3852797 110.969143,27.5095821 110.74838,27.5772286 C110.626949,27.6677078 110.423099,27.7905449 110.138294,27.9737014 C109.987436,28.0376844 109.754891,28.1480061 109.453908,28.2899529 L107.250008,28.7699539 L106.175684,28.8683461 C106.161703,28.8690472 106.090334,28.8447491 105.94906,28.8241145 C105.69594,28.8093415 105.384699,28.7555569 104.986642,28.6502453 C104.689381,28.595728 104.462757,28.551528 104.289858,28.4624547 C104.289858,28.4624547 104.028679,28.2938928 103.521033,27.9700171 C103.445267,27.8618341 103.326826,27.7418684 103.137748,27.6115854 C102.824428,26.9831221 102.666302,26.6409288 102.664104,26.5989863 L102.612815,25.6203294 L103.050795,24.882396 C103.171493,24.7779359 103.401107,24.611691 103.697694,24.3858594 C103.755816,24.424871 103.772727,24.4800615 103.775658,24.5359848 C103.778589,24.5919081 103.767539,24.648564 103.715279,24.7213989 C103.743974,24.7339143 103.771935,24.7324489 103.799897,24.7309835 C103.827126,24.7155373 103.838908,24.6728621 103.835245,24.6029581 C103.903684,24.5713329 104.027313,24.5227961 104.192884,24.4720613 L104.19136,24.7104678 L104.070661,24.8149278 C104.100821,24.8554048 104.133179,24.9378243 104.196429,25.0747016 C104.30681,25.0408784 104.375982,25.0232341 104.403943,25.0217687 C104.36713,25.1218325 104.291305,25.2800176 104.175002,25.4683625 L104.182329,25.6081707 C104.211024,25.6206861 104.22647,25.647915 104.241916,25.6751439 C104.24851,25.8009712 104.258768,25.9967026 104.300651,26.2608727 C104.316098,26.2881016 104.362436,26.3697884 104.452915,26.4912195 C104.758236,26.6995257 104.946581,26.8158279 105.032664,26.8533741 C105.218078,26.913753 105.541835,26.9388433 105.990686,26.9433584 L106.607307,26.9390811 C106.635269,26.9376157 106.70444,26.9199714 106.842783,26.8846827 C106.994374,26.8346805 107.063545,26.8170362 107.077526,26.8163035 C107.091507,26.8155708 107.120201,26.8280862 107.148163,26.8266208 C107.190838,26.8384035 107.218799,26.8369381 107.23278,26.8362054 C107.386569,26.8281456 107.650007,26.7722818 108.038539,26.6958429 C108.25637,26.5722731 108.502896,26.4612188 108.736173,26.3648779 C109.1755,26.1876425 109.557437,25.9853762 109.897432,25.785308 C110.005615,25.7095423 110.153543,25.5896361 110.325768,25.3983604 C111.042572,24.8981603 111.361378,24.0262803 111.2969,22.7959688 L110.722816,20.1343664 L110.663962,20.0813739 L110.524154,20.088701 L108.66825,20.7887909 C108.568919,20.7659582 108.400417,20.7607698 108.175991,20.7585123 C107.688861,20.8260993 107.106122,20.6743896 106.398349,20.2768868 C105.661881,19.8668687 105.2742,19.4245521 105.250754,18.9771661 L105.306004,18.6938863 C105.289092,18.6386958 105.27218,18.5835052 105.268517,18.5136011 C105.251665,18.1920424 105.399651,17.805768 105.699229,17.3694914 C105.973043,16.9766227 106.226955,16.7390083 106.44845,16.6853426 C106.814942,16.4558474 107.268249,16.2778793 107.794391,16.1521709 C108.071809,16.0955743 108.48757,16.0036892 109.042406,15.8904962 L109.948961,15.800928 C110.14689,15.8326126 110.430903,15.9018434 110.813514,15.9799261 C111.140201,16.0609396 111.427145,16.1860937 111.674344,16.3553883 L111.683136,16.5231581 C111.897977,16.6100332 112.048043,16.7984376 112.120086,17.1030847 C112.165692,17.1707906 112.226011,17.2517447 112.301777,17.3599277 C112.245854,17.3628585 112.204644,17.3790374 112.191396,17.3937509 C112.198523,17.5297338 112.202761,17.6106074 112.211556,17.6359816 L112.211556,17.6359816 Z" id="Shape" fill="#FF4785" fill-rule="nonzero"></path>
    </g>
</svg>