<svg width="226" height="167" xmlns="http://www.w3.org/2000/svg"><g fill="#FFF" fill-rule="evenodd"><path d="M2.736 74.154l65.091-37.58a4 4 0 0 1 5.464 1.464l48.896 84.69a4 4 0 0 1-1.464 5.463L55.63 165.772a4 4 0 0 1-5.464-1.464L1.272 79.618a4 4 0 0 1 1.464-5.464z" opacity=".1"/><path d="M21.664 41.728l72.929-18.183a4 4 0 0 1 4.849 2.914l23.657 94.886a4 4 0 0 1-2.913 4.848l-72.929 18.184a4 4 0 0 1-4.849-2.914L18.751 46.577a4 4 0 0 1 2.913-4.849z" opacity=".2"/><path d="M44.54 18.891h75.16a4 4 0 0 1 4 4v97.791a4 4 0 0 1-4 4H44.54a4 4 0 0 1-4-4v-97.79a4 4 0 0 1 4-4z" opacity=".3"/><path d="M74.505.967c20.463 3.158 34.728 5.844 42.798 8.059 8.532 2.341 18.527 6.36 29.986 12.057l-23.522 103.599c-15.963-6.57-28.38-11.118-37.25-13.644-8.184-2.33-20.728-4.833-37.632-7.51a4 4 0 0 1-3.248-4.948L70.022 3.922A4 4 0 0 1 74.505.967z" opacity=".9"/><path d="M147.021 21.314c8.203-.991 19.07-.991 32.605 0 12.42.91 26.474 2.609 42.164 5.098a4 4 0 0 1 3.264 4.878L201.71 129.21a4 4 0 0 1-4.773 2.974c-12.475-2.822-24.363-4.832-35.665-6.03a260.199 260.199 0 0 0-37.572-1.247l23.321-103.594z"/></g></svg>