<svg xmlns="http://www.w3.org/2000/svg" width="40" height="40"><path fill="#768AD4" fill-rule="nonzero" d="M14.479428 5.83337189c-.530206.00211963-4.9164444.1256556-9.5436972 3.53761135 0 0-4.9357308 8.80949926-4.9357308 19.65973156 0 0 2.87912996 4.8978586 10.4541124 5.1359519 0 0 1.2682044-1.4965903 2.2964824-2.7890935-4.3530444-1.2925052-5.9982808-3.97945-5.9982808-3.97945s.342832.238052.9597992.5781852c.0342756 0 .0684488.033961.1370008.0679751.1028276.0680255.205688.1020443.308516.1700702.8568984.4761858 1.7137692.85038 2.502116 1.1565011 1.4053132.5782261 3.084886 1.0883752 5.0386144 1.4625218 2.5706944.4761866 5.5869224.646227 8.8774128.0339875 1.6109696-.3061191 3.2563176-.7482427 4.9701144-1.4625218 1.1996568-.4421728 2.53637-1.0883605 3.941682-2.0067191 0 0-1.7137668 2.7550786-6.2039144 4.0135697 1.0282788 1.2584894 2.2622324 2.7209858 2.2622324 2.7209858C37.1208692 33.8945882 40 28.9967007 40 29.0307148c0-10.8502323-4.9357316-19.65973156-4.9357316-19.65973156-4.9014572-3.63941912-9.5973288-3.53734739-9.5973288-3.53734739l-.4797668.54419655c5.8269108 1.73467644 8.5346464 4.2857341 8.5346464 4.2857341-3.5646984-1.90474294-7.0607656-2.85718116-10.3169792-3.23132695-2.4678676-.27210621-4.8329996-.20399938-6.9238304.06810643-.2056548 0-.3769936.03396292-.5826492.06797505-1.1996576.1360541-4.1130884.54417868-7.780614 2.14280182-1.2682092.54421185-2.0223484.95244365-2.0223484.95244365s2.8106272-2.68713914 8.9802956-4.42181598l-.3427664-.40811467s-.018152-.00040487-.0534992-.00027785v.00001389zM12.9163726 18.3333333c2.0954117 0 3.7864655 1.6703962 3.7497059 3.7499336 0 2.0795402-1.6542942 3.7500664-3.7497059 3.7500664-2.0586509 0-3.74970593-1.6705262-3.74970593-3.7500664 0-2.0795374 1.65429333-3.7499336 3.74970593-3.7499336zm14.1669607 0c2.0588119 0 3.75 1.6703962 3.75 3.7499336 0 2.0795402-1.6544222 3.7500664-3.75 3.7500664-2.0588114 0-3.75-1.6705262-3.75-3.7500664 0-2.0795374 1.6544231-3.7499336 3.75-3.7499336z"/></svg>