<svg xmlns="http://www.w3.org/2000/svg" width="40" height="40"><path fill="#161514" fill-rule="evenodd" d="M19.8605967.9875C9.16995286.9875.5 9.65626422.5 20.350474c0 8.5546546 5.54739101 15.8113124 13.241469 18.3716467.968743.1782963 1.3217696-.4195905 1.3217696-.9330837 0-.4588158-.016641-1.6771735-.0261501-3.2925377-5.38573573 1.1696235-6.52207724-2.5959935-6.52207724-2.5959935-.88078353-2.2370238-2.15025291-2.8325333-2.15025291-2.8325333-1.75800113-1.2005282.13312788-1.1767553.13312788-1.1767553 1.94342925.1366938 2.96566114 1.9957295 2.96566114 1.9957295 1.72709643 2.9585293 4.53229093 2.1038958 5.63535053 1.6082322.1759189-1.2504511.6763371-2.1038958 1.2290555-2.587673-4.2993171-.4885318-8.81972169-2.1502529-8.81972169-9.5697547 0-2.113405.7547875-3.8428787 1.9933522-5.195553-.19969181-.4897204-.86414255-2.4592998.19018268-5.12423459 0 0 1.62487321-.52062509 5.32392631 1.98503169 1.5440457-.4302883 3.2010123-.64424381 4.8472811-.6525643 1.6450801.00832049 3.3008581.222276 4.847281.6525643 3.6966758-2.50565678 5.3191718-1.98503169 5.3191718-1.98503169 1.0567025 2.66493479.3922518 4.63451419.1937486 5.12423459 1.240942 1.3526743 1.9897863 3.082148 1.9897863 5.195553 0 7.43852-4.5275364 9.0752797-8.8399287 9.5543023.6941668.5978868 1.3134492 1.7793967 1.3134492 3.5861322 0 2.587673-.0237729 4.6761166-.0237729 5.3108513 0 .5182478.3494607 1.1208891 1.3312788.9318951 7.6881348-2.5662775 13.2307712-9.8181808 13.2307712-18.3704581C39.2247593 9.65626422 30.5548064.9875 19.8605967.9875"/></svg>