<?xml version="1.0" encoding="UTF-8"?>
<svg width="80px" height="80px" viewBox="0 0 80 80" version="1.1" xmlns="http://www.w3.org/2000/svg" xmlns:xlink="http://www.w3.org/1999/xlink">
    <!-- Generator: Sketch 55.2 (78181) - https://sketchapp.com -->
    <title>icon-chroma</title>
    <desc>Created with Sketch.</desc>
    <defs>
        <path d="M49.4001036,58.3957167 L43.0440107,54.7285843 L62.1660028,43.6986588 C62.8986351,43.2750818 63.5891676,42.7905794 64.2322774,42.2490198 C66.7176138,45.7880152 66.9619858,50.4492962 64.7461846,54.2856659 C62.7442694,57.7487463 59.0094902,59.8999952 55.004208,59.8999952 C53.0443926,59.8999952 51.1078045,59.3797111 49.4001036,58.3957167 Z M47.8689796,61.0456839 C48.6025797,61.4697445 49.3671497,61.8256265 50.1588183,62.1118794 C48.3340124,66.0314172 44.4172849,68.5714286 39.9808433,68.5714286 C33.7883104,68.5714286 28.7474714,63.5358911 28.7474714,57.3476054 L28.7474714,35.2863037 L38.4497677,40.8846763 L38.4497677,54.7287778 C38.4497677,55.2751727 38.7420464,55.7804672 39.2148216,56.0536647 L47.8689796,61.0456839 Z M24.9874324,59.8982545 C20.9811824,59.8982545 17.252694,57.7489397 15.249811,54.28731 C13.7516409,51.6912085 13.3509675,48.6671782 14.1290869,45.7698343 C14.9067223,42.8724903 16.7629821,40.4519122 19.3630039,38.953436 L25.7171612,35.2872708 L25.718129,57.3437371 C25.718129,58.189924 25.7907147,59.0293414 25.9383058,59.8595717 C25.6218319,59.8861661 25.3039063,59.8982545 24.9874324,59.8982545 Z M49.7138676,32.6360947 L40.0154425,38.2315661 L28.015565,31.3102407 C27.7794193,31.1743672 27.5152072,31.1052217 27.2490594,31.1052217 C26.986299,31.1052217 26.7220868,31.1743672 26.4844894,31.3102407 L17.8317832,36.3022599 C17.098667,36.7234192 16.4061989,37.2069546 15.763089,37.7509319 C13.2787205,34.21242 13.0362841,29.5516225 15.2496658,25.7138022 C17.2525488,22.2512053 20.9834568,20.0980223 24.9911584,20.0980223 C26.9485544,20.0980223 28.8861102,20.6202405 30.5952629,21.6047185 L49.7138676,32.6360947 Z M39.9809401,11.4285714 C46.1763765,11.4285714 51.2138281,16.4641089 51.2138281,22.6548123 L51.2138281,29.9881099 L32.0976429,18.9601185 C31.3640428,18.5350909 30.5989889,18.1782418 29.8049007,17.8910218 C31.6297067,13.9700334 35.547402,11.4285714 39.9809401,11.4285714 Z M64.7460878,25.7173803 C67.8411445,31.0778535 65.9974663,37.9561443 60.6324109,41.0498037 L41.5138062,52.0802127 L41.5138062,40.8873358 L53.512232,33.9650433 C53.9864589,33.6918458 54.2787376,33.1865513 54.2787376,32.6396728 L54.2787376,22.6556343 C54.2797054,21.8123486 54.2032484,20.9719641 54.0585608,20.1446351 C54.3726152,20.1170736 54.6890891,20.1040181 55.0065308,20.1040181 C59.0132646,20.1040181 62.7451404,22.255267 64.7460878,25.7173803 Z" id="path-1"></path>
    </defs>
    <g id="icon-chroma" stroke="none" stroke-width="1" fill="none" fill-rule="evenodd">
        <g id="logo/chromatic/icon-only">
            <circle id="Oval" fill="#FC521F" fill-rule="evenodd" cx="40" cy="40" r="40"></circle>
            <mask id="mask-2" fill="white">
                <use xlink:href="#path-1"></use>
            </mask>
            <use id="Logo" fill="#FFFFFF" fill-rule="evenodd" xlink:href="#path-1"></use>
        </g>
    </g>
</svg>