<?xml version="1.0" encoding="UTF-8"?>
<svg width="100px" height="31px" viewBox="0 0 100 31" version="1.1" xmlns="http://www.w3.org/2000/svg" xmlns:xlink="http://www.w3.org/1999/xlink">
    <!-- Generator: Sketch 55.2 (78181) - https://sketchapp.com -->
    <title>logo-apollo</title>
    <desc>Created with Sketch.</desc>
    <g id="logo-apollo" stroke="none" stroke-width="1" fill="none" fill-rule="evenodd">
        <path d="M16.2286168,9.07570268 L20.5731387,20.3510868 L17.8516394,20.3510868 L14.7239203,11.4761374 L12.9656149,16.3276295 L15.6686722,16.3276295 L16.4117994,18.4409131 L12.3067764,18.4409131 L11.5966963,20.350963 L8.87494941,20.350963 L13.2197189,9.07570268 L16.2286168,9.07570268 Z M61.9378739,20.350963 L61.9378739,9.07570268 L64.354894,9.07570268 L64.354894,18.2378032 L69.1222212,18.2378032 L69.1222212,20.3508392 L61.9378739,20.3508392 L61.9378739,20.350963 Z M75.8702721,20.350963 L75.8702721,9.07570268 L78.2875397,9.07570268 L78.2875397,18.2378032 L83.0547431,18.2378032 L83.0547431,20.3508392 L75.8702721,20.3508392 L75.8702721,20.350963 Z M48.549825,11.096281 L48.5499488,11.0961572 C46.550783,11.0961572 44.9244186,12.7221504 44.9244186,14.7216875 C44.9244186,16.7207295 46.5510306,18.3473414 48.5499488,18.3473414 C50.5491146,18.3473414 52.175479,16.7207295 52.175479,14.7218112 C52.175479,12.7226455 50.5489908,11.096281 48.549825,11.096281 Z M48.5499488,8.88992087 C51.7708683,8.88992087 54.3820867,11.500768 54.3820867,14.7216875 C54.3820867,17.9426069 51.7707445,20.5538254 48.5499488,20.5538254 C45.3291531,20.5538254 42.7180585,17.9426069 42.7180585,14.7216875 C42.7180585,11.5010155 45.3291531,8.88992087 48.5499488,8.88992087 Z M94.1674908,11.096281 L94.1676146,11.0961572 C92.1686963,11.0961572 90.5423319,12.7221504 90.5423319,14.7216875 C90.5423319,16.7207295 92.1686963,18.3473414 94.1676146,18.3473414 C96.1671516,18.3473414 97.7935161,16.7207295 97.7935161,14.7218112 C97.7935161,12.7226455 96.1670279,11.096281 94.1674908,11.096281 Z M94.1676146,8.88992087 L94.1678621,8.88992087 C97.3887816,8.88992087 100,11.500768 100,14.7216875 C100,17.9426069 97.3886578,20.5538254 94.1678621,20.5538254 C90.947314,20.5538254 88.3357242,17.9426069 88.3357242,14.7216875 C88.3357242,11.5010155 90.9470664,8.88992087 94.1676146,8.88992087 Z M27.6061129,9.07570268 L32.8638248,9.07570268 C34.8675701,9.07570268 36.492078,10.7691516 36.492078,12.7730207 C36.492078,14.776766 34.8676939,16.4705862 32.8638248,16.4705862 L30.0067951,16.4705862 L30.0067951,20.3513343 L27.6061129,20.3513343 L27.6061129,9.07570268 Z M32.8635772,14.2639785 L32.8634535,14.2639785 C33.6477968,14.2639785 34.2852227,13.557364 34.2852227,12.7732682 C34.2852227,11.9892962 33.6477968,11.2823104 32.8635772,11.2823104 L30.0065475,11.2823104 L30.0065475,14.2639785 L32.8635772,14.2639785 Z M25.5331789,23.7728882 L25.5333027,23.7731358 C25.8766463,23.7731358 26.1546383,24.0508802 26.1546383,24.3944714 C26.1546383,24.5656481 26.0848309,24.7207344 25.972941,24.8329956 C23.2790428,28.0661685 19.2240237,30.1251162 14.6867887,30.1251162 C6.57538892,30.1251162 0,23.5497273 0,15.4383275 C0,7.32692772 6.57538892,0.751538796 14.6867887,0.751538796 C18.2183759,0.751538796 21.4584801,1.99878951 23.9917221,4.07568412 C24.1723055,3.99981187 24.3707121,3.95772938 24.5786491,3.95772938 C25.4167095,3.95772938 26.0958466,4.63686649 26.0958466,5.47480311 C26.0958466,6.31273973 25.4165857,6.99200061 24.5786491,6.99200061 C23.74096,6.99200061 23.0616991,6.31273973 23.0616991,5.47480311 C23.0616991,5.30313131 23.0910331,5.1381432 23.1430173,4.98429457 C22.1652183,4.19066833 21.0861738,3.5417316 19.9199938,3.04825252 C18.2633052,2.34770285 16.5024006,1.99247714 14.6866649,1.99247714 C12.8709293,1.99247714 11.110396,2.34770285 9.45358363,3.04825252 C7.85284001,3.72565683 6.41448529,4.69516311 5.17936423,5.93028417 C3.94424318,7.16540522 2.97461312,8.60338863 2.29733259,10.2046273 C1.59678292,11.8613159 1.24118588,13.6220968 1.24118588,15.4377086 C1.24118588,17.2533205 1.59678292,19.01373 2.29733259,20.6710375 C2.97461312,22.2716573 3.94424318,23.710012 5.17924046,24.9455044 C6.41411397,26.1801304 7.85222115,27.1496367 9.45333609,27.8269172 C11.1100247,28.5278382 12.870558,28.8830639 14.6866649,28.8830639 C16.5024006,28.8830639 18.2628101,28.5277144 19.9197462,27.8266697 C21.5204898,27.1498842 22.9587208,26.1805017 24.1939656,24.9452569 C24.4856963,24.6526598 25.0271989,24.0350374 25.0271989,24.0350374 C25.1398314,23.8763616 25.3242518,23.7728882 25.5331789,23.7728882 Z" id="Shape" fill="#220A81" fill-rule="nonzero"></path>
    </g>
</svg>