<?xml version="1.0" encoding="UTF-8"?>
<svg width="303px" height="60px" viewBox="0 0 303 60" version="1.1" xmlns="http://www.w3.org/2000/svg" xmlns:xlink="http://www.w3.org/1999/xlink">
    <!-- Generator: Sketch 52.2 (67145) - http://www.bohemiancoding.com/sketch -->
    <title>storybook-logo copy</title>
    <desc>Created with Sketch.</desc>
    <defs>
        <path d="M3.17359941,55.2235013 L1.32517613,5.97139294 C1.26412996,4.34478901 2.51135163,2.96626112 4.13593077,2.86472492 L46.0282989,0.246451916 C47.6819266,0.143100187 49.1062398,1.39984714 49.2095915,3.05347479 C49.2134854,3.1157771 49.2154338,3.17818577 49.2154338,3.24060965 L49.2154338,56.9094922 C49.2154338,58.5663464 47.872288,59.9094922 46.2154338,59.9094922 C46.1705489,59.9094922 46.1256696,59.9084848 46.0808299,59.9064709 L6.03688504,58.1079698 C4.47733175,58.0379252 3.23214697,56.7835285 3.17359941,55.2235013 Z" id="path-1"></path>
    </defs>
    <g id="storybook-logo-copy" stroke="none" stroke-width="1" fill="none" fill-rule="evenodd">
        <path d="M82.1535,47.4945 C79.5934872,47.4945 77.1295118,47.1505034 74.7615,46.4625 C72.3934882,45.7744966 70.4255078,44.8225061 68.8575,43.6065 L71.2575,38.2785 C74.5215163,40.5505114 78.1854797,41.6865 82.2495,41.6865 C84.3615106,41.6865 85.9854943,41.3425034 87.1215,40.6545 C88.2575057,39.9664966 88.8255,39.0145061 88.8255,37.7985 C88.8255,36.7104946 88.3055052,35.862503 87.2655,35.2545 C86.2254948,34.646497 84.3775133,34.0545029 81.7215,33.4785 C78.7454851,32.870497 76.3695089,32.1345043 74.5935,31.2705 C72.8174911,30.4064957 71.5215041,29.3425063 70.7055,28.0785 C69.8894959,26.8144937 69.4815,25.2545093 69.4815,23.3985 C69.4815,21.3504898 70.0494943,19.526508 71.1855,17.9265 C72.3215057,16.326492 73.9134898,15.0705046 75.9615,14.1585 C78.0095102,13.2464954 80.3774866,12.7905 83.0655,12.7905 C85.465512,12.7905 87.7774889,13.1424965 90.0015,13.8465 C92.2255111,14.5505035 93.9934934,15.4944941 95.3055,16.6785 L92.9055,22.0065 C89.8014845,19.7344886 86.5375171,18.5985 83.1135,18.5985 C81.1614902,18.5985 79.6255056,18.9744962 78.5055,19.7265 C77.3854944,20.4785038 76.8255,21.5104934 76.8255,22.8225 C76.8255,23.5905038 77.0414978,24.2224975 77.4735,24.7185 C77.9055022,25.2145025 78.625495,25.6544981 79.6335,26.0385 C80.641505,26.4225019 82.0734907,26.8224979 83.9295,27.2385 C88.2815218,28.1985048 91.4094905,29.4304925 93.3135,30.9345 C95.2175095,32.4385075 96.1695,34.5184867 96.1695,37.1745 C96.1695,40.374516 94.9375123,42.8944908 92.4735,44.7345 C90.0094877,46.5745092 86.5695221,47.4945 82.1535,47.4945 Z M113.5455,42.1185 C114.281504,42.1185 115.049496,42.0705005 115.8495,41.9745 L115.4655,47.2545 C114.537495,47.3825006 113.609505,47.4465 112.6815,47.4465 C109.097482,47.4465 106.481508,46.6625078 104.8335,45.0945 C103.185492,43.5264922 102.3615,41.142516 102.3615,37.9425 L102.3615,28.9185 L97.8975,28.9185 L97.8975,23.4945 L102.3615,23.4945 L102.3615,16.5825 L109.6095,16.5825 L109.6095,23.4945 L115.5135,23.4945 L115.5135,28.9185 L109.6095,28.9185 L109.6095,37.8945 C109.6095,40.7105141 110.921487,42.1185 113.5455,42.1185 Z M130.3935,47.4465 C127.897488,47.4465 125.705509,46.942505 123.8175,45.9345 C121.929491,44.926495 120.473505,43.5025092 119.4495,41.6625 C118.425495,39.8224908 117.9135,37.6545125 117.9135,35.1585 C117.9135,32.6624875 118.425495,30.4945092 119.4495,28.6545 C120.473505,26.8144908 121.929491,25.398505 123.8175,24.4065 C125.705509,23.414495 127.897488,22.9185 130.3935,22.9185 C132.889512,22.9185 135.081491,23.414495 136.9695,24.4065 C138.857509,25.398505 140.313495,26.8144908 141.3375,28.6545 C142.361505,30.4945092 142.8735,32.6624875 142.8735,35.1585 C142.8735,37.6545125 142.361505,39.8224908 141.3375,41.6625 C140.313495,43.5025092 138.857509,44.926495 136.9695,45.9345 C135.081491,46.942505 132.889512,47.4465 130.3935,47.4465 Z M130.3935,41.9265 C133.913518,41.9265 135.6735,39.6705226 135.6735,35.1585 C135.6735,32.8864886 135.217505,31.1905056 134.3055,30.0705 C133.393495,28.9504944 132.089508,28.3905 130.3935,28.3905 C126.873482,28.3905 125.1135,30.6464774 125.1135,35.1585 C125.1135,39.6705226 126.873482,41.9265 130.3935,41.9265 Z M162.9375,28.8705 L158.8575,29.3025 C156.84149,29.494501 155.417504,30.0624953 154.5855,31.0065 C153.753496,31.9505047 153.3375,33.2064922 153.3375,34.7745 L153.3375,47.0625 L146.0895,47.0625 L146.0895,23.4945 L153.0495,23.4945 L153.0495,27.4785 C154.233506,24.7584864 156.681481,23.2705013 160.3935,23.0145 L162.5055,22.8705 L162.9375,28.8705 Z M183.9975,23.5425 L191.1015,23.5425 L176.8935,55.7025 L169.5495,55.7025 L174.0615,45.7665 L164.3655,23.5425 L171.9015,23.5425 L177.8535,38.5185 L183.9975,23.5425 Z M207.9015,22.9185 C209.94951,22.9185 211.757492,23.414495 213.3255,24.4065 C214.893508,25.398505 216.117496,26.8144908 216.9975,28.6545 C217.877504,30.4945092 218.3175,32.6304878 218.3175,35.0625 C218.3175,37.4945122 217.877504,39.6464906 216.9975,41.5185 C216.117496,43.3905094 214.885508,44.8464948 213.3015,45.8865 C211.717492,46.9265052 209.91751,47.4465 207.9015,47.4465 C206.269492,47.4465 204.797507,47.1025034 203.4855,46.4145 C202.173493,45.7264966 201.165504,44.7745061 200.4615,43.5585 L200.4615,47.0625 L193.3095,47.0625 L193.3095,13.2225 L200.5575,13.2225 L200.5575,26.6625 C201.261504,25.4784941 202.261494,24.5585033 203.5575,23.9025 C204.853506,23.2464967 206.301492,22.9185 207.9015,22.9185 Z M205.7895,41.9265 C207.485508,41.9265 208.797495,41.326506 209.7255,40.1265 C210.653505,38.926494 211.1175,37.2385109 211.1175,35.0625 C211.1175,32.9184893 210.653505,31.2785057 209.7255,30.1425 C208.797495,29.0064943 207.485508,28.4385 205.7895,28.4385 C204.093492,28.4385 202.781505,29.0224942 201.8535,30.1905 C200.925495,31.3585058 200.4615,33.0144893 200.4615,35.1585 C200.4615,37.3345109 200.925495,39.0064942 201.8535,40.1745 C202.781505,41.3425058 204.093492,41.9265 205.7895,41.9265 Z M234.0615,47.4465 C231.565488,47.4465 229.373509,46.942505 227.4855,45.9345 C225.597491,44.926495 224.141505,43.5025092 223.1175,41.6625 C222.093495,39.8224908 221.5815,37.6545125 221.5815,35.1585 C221.5815,32.6624875 222.093495,30.4945092 223.1175,28.6545 C224.141505,26.8144908 225.597491,25.398505 227.4855,24.4065 C229.373509,23.414495 231.565488,22.9185 234.0615,22.9185 C236.557512,22.9185 238.749491,23.414495 240.6375,24.4065 C242.525509,25.398505 243.981495,26.8144908 245.0055,28.6545 C246.029505,30.4945092 246.5415,32.6624875 246.5415,35.1585 C246.5415,37.6545125 246.029505,39.8224908 245.0055,41.6625 C243.981495,43.5025092 242.525509,44.926495 240.6375,45.9345 C238.749491,46.942505 236.557512,47.4465 234.0615,47.4465 Z M234.0615,41.9265 C237.581518,41.9265 239.3415,39.6705226 239.3415,35.1585 C239.3415,32.8864886 238.885505,31.1905056 237.9735,30.0705 C237.061495,28.9504944 235.757508,28.3905 234.0615,28.3905 C230.541482,28.3905 228.7815,30.6464774 228.7815,35.1585 C228.7815,39.6705226 230.541482,41.9265 234.0615,41.9265 Z M261.0855,47.4465 C258.589488,47.4465 256.397509,46.942505 254.5095,45.9345 C252.621491,44.926495 251.165505,43.5025092 250.1415,41.6625 C249.117495,39.8224908 248.6055,37.6545125 248.6055,35.1585 C248.6055,32.6624875 249.117495,30.4945092 250.1415,28.6545 C251.165505,26.8144908 252.621491,25.398505 254.5095,24.4065 C256.397509,23.414495 258.589488,22.9185 261.0855,22.9185 C263.581512,22.9185 265.773491,23.414495 267.6615,24.4065 C269.549509,25.398505 271.005495,26.8144908 272.0295,28.6545 C273.053505,30.4945092 273.5655,32.6624875 273.5655,35.1585 C273.5655,37.6545125 273.053505,39.8224908 272.0295,41.6625 C271.005495,43.5025092 269.549509,44.926495 267.6615,45.9345 C265.773491,46.942505 263.581512,47.4465 261.0855,47.4465 Z M261.0855,41.9265 C264.605518,41.9265 266.3655,39.6705226 266.3655,35.1585 C266.3655,32.8864886 265.909505,31.1905056 264.9975,30.0705 C264.085495,28.9504944 262.781508,28.3905 261.0855,28.3905 C257.565482,28.3905 255.8055,30.6464774 255.8055,35.1585 C255.8055,39.6705226 257.565482,41.9265 261.0855,41.9265 Z M302.2335,47.0625 L293.3535,47.0625 L284.3295,36.5505 L284.3295,47.0625 L277.0815,47.0625 L277.0815,13.2225 L284.3295,13.2225 L284.3295,33.5745 L293.0175,23.5425 L301.6575,23.5425 L291.7695,34.7745 L302.2335,47.0625 Z" id="title" fill="#333333"></path>
        <mask id="mask-2" fill="white">
            <use xlink:href="#path-1"></use>
        </mask>
        <use id="path1_fill-path" fill="#EF5785" fill-rule="nonzero" xlink:href="#path-1"></use>
        <path d="M36.7657518,7.5071251 L37.2948307,0.600962316 L43.092167,0.348597209 L43.092167,7.48973754 C43.092167,7.73826567 42.8906951,7.93973754 42.642167,7.93973754 C42.5357504,7.93973754 42.4327772,7.90202437 42.3515324,7.83329474 L40.1833433,5.99910039 L37.4737195,7.90929299 C37.2705924,8.05249072 36.9898406,8.00390833 36.8466428,7.80078117 C36.7863637,7.71527473 36.7577605,7.61143744 36.7657518,7.5071251 Z" id="path2_fill-path" fill="#FFFFFF" fill-rule="nonzero" mask="url(#mask-2)" transform="translate(39.928302, 4.170067) rotate(-2.000000) translate(-39.928302, -4.170067) "></path>
        <path d="M29.4856831,23.2710706 C29.4856831,24.444721 37.3912325,23.882221 38.4524829,23.0578125 C38.4524829,15.0655334 34.1640134,10.8657166 26.3111019,10.8657166 C18.4581903,10.8657166 14.0583321,15.1308768 14.0583321,21.5286205 C14.0583321,32.6713574 29.0958223,32.8846155 29.0958223,38.962472 C29.0958223,40.668537 28.2604062,41.681513 26.4224907,41.681513 C24.0276311,41.681513 23.0808262,40.4584418 23.192215,36.2999084 C23.192215,35.3977691 14.0583321,35.1165191 13.77986,36.2999084 C13.0707568,46.377515 19.3493009,49.2842834 26.5338795,49.2842834 C33.4956805,49.2842834 38.9537325,45.5734738 38.9537325,38.8558429 C38.9537325,26.9133881 23.6934647,27.2332752 23.6934647,21.3153623 C23.6934647,18.9162085 25.4756858,18.5963213 26.5338795,18.5963213 C27.6477677,18.5963213 29.6527664,18.79265 29.4856831,23.2710706 Z" id="path9_fill-path" fill="#FFFFFF" fill-rule="nonzero" mask="url(#mask-2)"></path>
    </g>
</svg>