<svg width="2040" height="576" viewBox="0 0 2040 576" version="1.1" xmlns="http://www.w3.org/2000/svg" xmlns:xlink="http://www.w3.org/1999/xlink">
<title>storybook-logo-final</title>
<desc>Created using Figma</desc>
<g id="Canvas" transform="matrix(2 0 0 2 -4322 -506)">
<clipPath id="clip-0" clip-rule="evenodd">
<path d="M 2161 253L 3181 253L 3181 541L 2161 541L 2161 253Z" fill="#FFFFFF"/>
</clipPath>
<g id="storybook-logo-final" clip-path="url(#clip-0)">
<g id="Group">
<g id="Vector">
<use xlink:href="#path0_fill" transform="translate(2166 275)" fill="#B57EE5"/>
</g>
<g id="Vector">
<use xlink:href="#path1_fill" transform="translate(2180 261)" fill="#F1618C"/>
</g>
<g id="Vector 2">
<use xlink:href="#path2_fill" transform="translate(2326 261.5)" fill="#FFFFFF"/>
</g>
<g id="torybook">
<use xlink:href="#path3_fill" transform="translate(2393 300)" fill="#6DABF5"/>
<use xlink:href="#path4_fill" transform="translate(2393 300)" fill="#F3AD38"/>
<use xlink:href="#path5_fill" transform="translate(2393 300)" fill="#B57EE6"/>
<use xlink:href="#path6_fill" transform="translate(2393 300)" fill="#F16161"/>
<use xlink:href="#path7_fill" transform="translate(2393 300)" fill="#B57EE5"/>
<use xlink:href="#path8_fill" transform="translate(2393 300)" fill="#A2E05E"/>
</g>
<g id="S">
<use xlink:href="#path9_fill" transform="translate(2220 301)" fill="#FFFFFF"/>
</g>
</g>
</g>
</g>
<defs>
<path id="path0_fill" d="M 21 246L 9 0L 0 0L 9 246L 21 246Z"/>
<path id="path1_fill" d="M 12 260L 0 14L 196 0L 196 269L 12 260Z"/>
<path id="path2_fill" d="M 0 35.5L 2.5 2L 26 0L 26 35.5L 14.1818 24.8091L 0 35.5Z"/>
<path id="path3_fill" d="M 347.041 57.2L 314.261 57.2C 314.261 63.36 314.261 69.52 314.261 75.46C 314.261 99 314.041 117.92 314.041 117.92C 314.041 129.58 309.201 132.66 303.041 132.66C 296.661 132.66 293.361 129.8 293.361 117.48C 293.361 99.44 294.681 63.8 294.681 63.8L 261.901 62.92C 261.901 62.48 260.801 90.2 260.801 122.98C 260.801 155.76 281.481 158.18 290.941 158.18C 299.961 158.18 309.861 154.66 315.141 148.94C 315.141 167.64 309.201 173.8 296.001 173.8C 287.641 173.8 277.521 169.62 272.021 165L 272.021 195.14C 281.261 200.64 291.601 203.06 301.941 203.06C 323.941 203.06 345.501 190.3 345.941 153.56C 346.601 112.64 346.821 71.72 347.041 57.2ZM 512.591 56.98C 479.151 56.98 464.851 83.82 464.851 115.72C 464.851 142.78 478.051 163.02 509.511 163.02C 544.711 163.02 557.251 136.62 557.251 106.04C 557.251 77.66 544.931 56.98 512.591 56.98ZM 524.251 110.22C 524.251 124.52 519.411 135.52 509.511 135.52C 501.151 135.52 497.851 125.84 497.851 115.72C 497.851 99.44 503.571 86.9 512.591 86.9C 521.831 86.9 524.251 99 524.251 110.22Z"/>
<path id="path4_fill" d="M 20.68 163.24C 37.62 163.46 53.9 161.26 53.9 161.26C 53.9 132.44 53.9 105.38 54.12 84.92C 62.92 84.04 70.18 82.94 70.18 82.94C 70.62 69.08 69.52 56.54 69.52 56.54L 54.56 57.42C 55 36.52 55.44 25.74 55.44 25.74L 20.24 27.94C 20.24 27.94 20.24 40.92 20.46 60.72C 9.68 62.04 1.76 64.24 1.76 64.24C 2.2 75.9 6.38 88.44 6.38 88.44L 20.68 87.78L 20.68 163.24Z"/>
<path id="path5_fill" d="M 219.276 70.62C 219.276 67.32 219.496 63.8 219.716 60.28L 189.136 59.18C 189.136 59.18 186.276 104.06 186.496 163.02C 201.236 164.12 218.396 164.12 218.396 164.12C 218.176 164.12 218.396 144.54 219.276 115.06C 219.716 97.9 225.876 92.62 235.116 92.62C 240.616 92.62 247.436 95.04 247.436 95.04L 250.956 64.46C 236.656 59.62 223.456 63.8 219.276 70.62Z"/>
<path id="path6_fill" d="M 396.026 162.58C 396.026 157.74 396.466 153.34 396.466 151.58C 400.206 157.08 407.466 161.92 416.486 161.92C 441.786 161.92 452.786 137.06 453.446 107.58C 453.886 79.64 443.326 56.32 420.006 56.32C 411.426 56.32 404.166 60.94 400.206 65.78C 402.186 33 403.726 12.1 403.726 12.1L 370.506 9.68001C 368.526 32.56 365.446 108.24 365.886 163.46C 385.026 163.9 396.026 162.58 396.026 162.58ZM 398.006 118.8C 397.566 112.86 396.466 86.46 409.226 86.46C 418.246 86.46 420.446 97.46 420.006 108.46C 419.786 120.34 417.366 133.76 408.126 133.76C 401.746 133.76 398.666 129.14 398.006 118.8Z"/>
<path id="path7_fill" d="M 776.409 64.24L 741.869 59.62C 741.869 59.62 729.989 77.44 713.269 97.9C 715.909 51.04 719.209 19.58 719.209 19.58L 683.349 16.28C 683.349 16.28 679.389 97.68 678.509 162.36C 693.469 164.12 710.849 164.12 710.849 164.12L 711.949 125.4C 728.229 143.88 746.489 163.02 746.489 163.02L 784.549 156.86C 762.549 134.86 747.589 119.46 740.329 109.78C 748.689 98.56 763.649 80.74 776.409 64.24Z"/>
<path id="path8_fill" d="M 126.088 56.98C 92.6475 56.98 78.3475 83.82 78.3475 115.72C 78.3475 142.78 91.5475 163.02 123.008 163.02C 158.208 163.02 170.748 136.62 170.748 106.04C 170.748 77.66 158.427 56.98 126.088 56.98ZM 137.748 110.22C 137.748 124.52 132.907 135.52 123.008 135.52C 114.648 135.52 111.348 125.84 111.348 115.72C 111.348 99.44 117.067 86.9 126.088 86.9C 135.328 86.9 137.748 99 137.748 110.22ZM 617.22 56.98C 583.78 56.98 569.48 83.82 569.48 115.72C 569.48 142.78 582.68 163.02 614.14 163.02C 649.34 163.02 661.88 136.62 661.88 106.04C 661.88 77.66 649.56 56.98 617.22 56.98ZM 628.88 110.22C 628.88 124.52 624.04 135.52 614.14 135.52C 605.78 135.52 602.48 125.84 602.48 115.72C 602.48 99.44 608.2 86.9 617.22 86.9C 626.46 86.9 628.88 99 628.88 110.22Z"/>
<path id="path9_fill" d="M 74.64 65.28L 113.28 64.32C 114.24 26.88 94.8 8.40001 60.96 8.40001C 27.12 8.40001 8.16 27.6 8.16 56.4C 8.16 106.56 72.96 107.52 72.96 134.88C 72.96 142.56 69.36 147.12 61.44 147.12C 51.12 147.12 47.04 140.4 47.52 121.68L 6.96 121.68C 3.84 168 30.96 178.56 61.92 178.56C 91.92 178.56 115.44 164.64 115.44 134.4C 115.44 80.64 49.68 82.08 49.68 55.44C 49.68 44.64 57.36 43.2 61.92 43.2C 66.72 43.2 75.36 45.12 74.64 65.28Z"/>
</defs>
</svg>
