<svg xmlns="http://www.w3.org/2000/svg" xmlns:xlink="http://www.w3.org/1999/xlink" width="114" height="32" version="1.1" viewBox="0 0 114 32"><title>logo-circleci</title><desc>Created with Sketch.</desc><g id="Page-1" fill="none" fill-rule="evenodd" stroke="none" stroke-width="1"><g id="logo-circleci" fill="#161616" transform="translate(-1.000000, -1.000000)"><path id="Shape" fill-rule="nonzero" d="M47.901812,21.758923 L46.378213,21.758923 C46.276143,21.759057 46.17995,21.806683 46.117974,21.887793 C45.233015,23.195775 43.736548,24.056101 42.038386,24.056101 C39.319256,24.056101 37.11525,21.851739 37.11525,19.132965 C37.11525,16.413835 39.319256,14.209472 42.038386,14.209472 C43.736905,14.209472 45.233015,15.070512 46.118331,16.378137 C46.180121,16.459267 46.276229,16.506927 46.378213,16.507007 L47.901812,16.507007 C48.083196,16.507205 48.230395,16.360324 48.230593,16.178941 C48.230385,16.127641 48.218033,16.077117 48.194543,16.031508 C47.059341,13.782879 44.729677,12.240004 42.038747,12.240004 C38.23225,12.240004 35.145786,15.326112 35.145786,19.132965 C35.145786,22.939462 38.23225,26.025926 42.038747,26.025926 C44.729677,26.025926 47.059341,24.483051 48.194185,22.234423 C48.217745,22.188823 48.230225,22.138313 48.230595,22.08699 C48.230397,21.905607 48.083197,21.758727 47.901814,21.758924 L47.901812,21.758923 Z M52.49724,9.943183 C52.49724,11.69406 49.870924,11.69406 49.870924,9.943183 C49.870924,8.192306 52.49724,8.192306 52.49724,9.943183 Z M52.169173,25.369437 L52.169173,12.568427 L50.199705,12.568427 L50.199705,25.369081 C50.199902,25.550185 50.346667,25.69695 50.527771,25.697147 L51.841107,25.697147 C52.022235,25.697344 52.169173,25.550567 52.169173,25.369437 Z M60.70782,12.248571 C58.721574,12.342101 57.135146,13.291315 56.107396,14.740661 L56.107396,12.896493 C56.1072,12.715389 55.960434,12.568623 55.77933,12.568427 L54.466351,12.568427 C54.285247,12.568623 54.138481,12.715389 54.138284,12.896493 L54.138284,25.369081 C54.138284,25.550427 54.284647,25.697147 54.466351,25.697147 L55.77933,25.697147 C55.960597,25.697344 56.107594,25.550349 56.107396,25.369081 L56.107396,19.133322 C56.107396,16.524499 58.137195,14.390462 60.702108,14.221253 C60.883828,14.221253 61.031086,14.073836 61.030889,13.892116 L61.030889,12.576281 C61.030524,12.397247 60.886831,12.25149 60.70782,12.248571 Z M73.786562,21.758923 L72.262964,21.758923 C72.160854,21.758892 72.064592,21.806563 72.002724,21.887793 C71.117767,23.195775 69.621298,24.056101 67.923494,24.056101 C65.204006,24.056101 63.000001,21.851739 63.000001,19.132965 C63.000001,16.413835 65.204006,14.209472 67.923494,14.209472 C69.621298,14.209472 71.117767,15.070512 72.002724,16.378137 C72.064624,16.459327 72.160867,16.506984 72.262964,16.507007 L73.786562,16.507007 C73.967946,16.507205 74.115146,16.360324 74.115343,16.178941 C74.11519,16.127591 74.102703,16.077027 74.078933,16.031508 C72.944087,13.782879 70.614424,12.240004 67.923852,12.240004 C64.116999,12.240004 61.030891,15.326112 61.030891,19.132965 C61.030891,22.939462 64.116999,26.025926 67.923852,26.025926 C70.614424,26.025926 72.944087,24.483051 74.078933,22.234423 C74.102493,22.188823 74.114973,22.138313 74.115343,22.08699 C74.115146,21.905607 73.967946,21.758727 73.786562,21.758923 Z M77.725142,8.301781 L76.412164,8.301781 C76.23106,8.301977 76.084294,8.448743 76.084097,8.629847 L76.084097,25.369437 C76.084097,25.550784 76.230816,25.697504 76.412164,25.697504 L77.725142,25.697504 C77.906386,25.697504 78.053369,25.550681 78.053566,25.369437 L78.053566,8.629847 C78.053369,8.448603 77.906386,8.301781 77.725142,8.301781 Z M86.915996,12.24036 C83.109141,12.24036 80.023035,15.326468 80.023035,19.133322 C80.023035,22.939819 83.109141,26.026284 86.915996,26.026284 C89.606924,26.026284 91.935873,24.483408 93.071075,22.23478 C93.183702,22.016758 93.024095,21.757174 92.778708,21.759281 L91.255466,21.759281 C91.150668,21.759229 91.052237,21.809571 90.990942,21.894577 C90.105628,23.198631 88.611302,24.056815 86.915996,24.056815 C84.419622,24.056815 82.358409,22.198368 82.037125,19.790169 L93.471609,19.790169 C93.646223,19.789827 93.790042,19.65291 93.798962,19.478523 C93.804662,19.364289 93.808262,19.248984 93.808262,19.133679 C93.808262,15.326468 90.722512,12.24036 86.916015,12.24036 L86.915996,12.24036 Z M82.170994,17.820343 C82.745735,15.739141 84.65166,14.20983 86.915996,14.20983 C89.180331,14.20983 91.0859,15.739141 91.660998,17.820343 L82.170994,17.820343 Z M112.872853,7.973714 C110.246893,7.973714 110.246893,11.912652 112.872853,11.912652 C115.498803,11.912652 115.498803,7.973714 112.872853,7.973714 Z M114.514253,12.568427 L114.514253,25.369081 C114.514063,25.550187 114.367283,25.696953 114.186183,25.697147 L111.560233,25.697147 C111.378963,25.697347 111.231963,25.550352 111.232153,25.369081 L111.232153,12.568427 L114.514253,12.568427 Z M102.669953,26.026285 C105.887783,26.026285 108.587283,23.821564 109.347653,20.841481 C109.352653,20.819591 109.355653,20.797201 109.355653,20.774721 C109.355653,20.593479 109.208833,20.446497 109.027593,20.446298 L106.249553,20.446298 C106.121383,20.446554 106.005103,20.521428 105.951833,20.637998 L105.951113,20.63764 C105.380303,21.879937 104.126943,22.743476 102.669743,22.743476 C100.676353,22.743476 99.059593,21.12742 99.059593,19.133319 C99.059593,17.139219 100.676353,15.523162 102.669743,15.523162 C104.081213,15.523061 105.363213,16.345791 105.951113,17.628998 L105.951833,17.628284 C106.005033,17.744935 106.121323,17.819931 106.249553,17.82034 L109.027593,17.82034 C109.208833,17.820142 109.355653,17.673159 109.355653,17.491917 C109.355203,17.469817 109.352653,17.447817 109.347653,17.426237 C108.588003,14.445438 105.887433,12.240361 102.669603,12.240361 C98.863823,12.240361 95.777003,15.326827 95.777003,19.133324 C95.77736,22.940177 98.863823,26.026285 102.669603,26.026285 L102.669953,26.026285 Z"/><g id="Group" transform="translate(0.317437, 0.737845)"><circle id="Oval" cx="16.364" cy="16.262" r="3.81"/><path id="Path" d="M16.364187,0.26091199 C8.9087382,0.26091199 2.64410087,5.36074715 0.866807255,12.2618447 C0.851510147,12.3225306 0.840288546,12.3862872 0.840288546,12.4520675 C0.840288546,12.872805 1.18146708,13.2139835 1.60220454,13.2139835 L8.05400533,13.2139835 C8.36152605,13.2139835 8.62416734,13.0314092 8.74452319,12.7687679 C8.74452319,12.7687679 8.75415367,12.7509166 8.75722426,12.7422492 C10.0872617,9.87206099 12.992128,7.88057577 16.3631179,7.88057577 C20.992239,7.88057577 24.7452069,11.632525 24.7452069,16.2621541 C24.7452069,20.8917847 20.9932578,24.6437339 16.3641381,24.6437339 C12.9931469,24.6437339 10.0887914,22.6522487 8.75824453,19.7825713 C8.75461565,19.7733596 8.74498518,19.7555362 8.74498518,19.7555362 C8.6218965,19.4846797 8.35198489,19.3106486 8.0544743,19.3103262 L1.60267211,19.3103262 C1.18142521,19.3103262 0.840246675,19.6515047 0.840246675,20.0722422 C0.840246675,20.1380365 0.85099373,20.2017791 0.866765383,20.262465 C2.644059,27.1635625 8.90869633,32.2633973 16.3641451,32.2633973 C25.2016497,32.2633973 32.3653871,25.0991495 32.3653871,16.2621541 C32.3653871,7.42516022 25.2016497,0.26091199 16.3641451,0.26091199 L16.364187,0.26091199 Z"/></g></g></g></svg>