<svg width="200" height="40" viewBox="0 0 200 40" fill="none" xmlns="http://www.w3.org/2000/svg">
  <path fill-rule="evenodd" clip-rule="evenodd" d="M53.28 31.663c-1.707 0-3.35-.23-4.928-.688-1.579-.459-2.89-1.093-3.936-1.904l1.6-3.552c2.176 1.515 4.619 2.272 7.328 2.272 1.408 0 2.49-.23 3.248-.688.757-.459 1.136-1.093 1.136-1.904 0-.725-.347-1.29-1.04-1.696-.693-.405-1.925-.8-3.696-1.184-1.984-.405-3.568-.896-4.752-1.472-1.184-.576-2.048-1.285-2.592-2.128-.544-.843-.816-1.883-.816-3.12 0-1.365.379-2.581 1.136-3.648.757-1.067 1.819-1.904 3.184-2.512 1.365-.608 2.944-.912 4.736-.912 1.6 0 3.141.235 4.624.704 1.483.47 2.661 1.099 3.536 1.888l-1.6 3.552c-2.07-1.515-4.245-2.272-6.528-2.272-1.301 0-2.325.25-3.072.752-.747.501-1.12 1.19-1.12 2.064 0 .512.144.933.432 1.264.288.33.768.624 1.44.88.672.256 1.627.523 2.864.8 2.901.64 4.987 1.461 6.256 2.464 1.27 1.003 1.904 2.39 1.904 4.16 0 2.133-.821 3.813-2.464 5.04-1.643 1.227-3.936 1.84-6.88 1.84zm20.928-3.584c.49 0 1.003-.032 1.536-.096l-.256 3.52c-.619.085-1.237.128-1.856.128-2.39 0-4.133-.523-5.232-1.568-1.099-1.045-1.648-2.635-1.648-4.768v-6.016h-2.976v-3.616h2.976v-4.608h4.832v4.608h3.936v3.616h-3.936v5.984c0 1.877.875 2.816 2.624 2.816zm11.232 3.552c-1.664 0-3.125-.336-4.384-1.008a7.068 7.068 0 01-2.912-2.848c-.683-1.227-1.024-2.672-1.024-4.336 0-1.664.341-3.11 1.024-4.336a6.967 6.967 0 012.912-2.832c1.259-.661 2.72-.992 4.384-.992 1.664 0 3.125.33 4.384.992a6.968 6.968 0 012.912 2.832c.683 1.227 1.024 2.672 1.024 4.336 0 1.664-.341 3.11-1.024 4.336a7.07 7.07 0 01-2.912 2.848c-1.259.672-2.72 1.008-4.384 1.008zm0-3.68c2.347 0 3.52-1.504 3.52-4.512 0-1.515-.304-2.645-.912-3.392-.608-.747-1.477-1.12-2.608-1.12-2.347 0-3.52 1.504-3.52 4.512 0 3.008 1.173 4.512 3.52 4.512zm21.696-8.704l-2.72.288c-1.344.128-2.293.507-2.848 1.136-.555.63-.832 1.467-.832 2.512v8.192h-4.832V15.663h4.64v2.656c.789-1.813 2.421-2.805 4.896-2.976l1.408-.096.288 4zm14.04-3.552h4.736l-9.472 21.44h-4.896l3.008-6.624-6.464-14.816h5.024l3.968 9.984 4.096-9.984zm15.936-.416c1.365 0 2.571.33 3.616.992 1.045.661 1.861 1.605 2.448 2.832.587 1.227.88 2.65.88 4.272 0 1.621-.293 3.056-.88 4.304-.587 1.248-1.408 2.219-2.464 2.912-1.056.693-2.256 1.04-3.6 1.04-1.088 0-2.069-.23-2.944-.688-.875-.459-1.547-1.093-2.016-1.904v2.336h-4.768V8.815h4.832v8.96c.469-.79 1.136-1.403 2-1.84.864-.437 1.829-.656 2.896-.656zm-1.408 12.672c1.131 0 2.005-.4 2.624-1.2.619-.8.928-1.925.928-3.376 0-1.43-.309-2.523-.928-3.28-.619-.757-1.493-1.136-2.624-1.136s-2.005.39-2.624 1.168c-.619.779-.928 1.883-.928 3.312 0 1.45.309 2.565.928 3.344.619.779 1.493 1.168 2.624 1.168zm18.848 3.68c-1.664 0-3.125-.336-4.384-1.008a7.069 7.069 0 01-2.912-2.848c-.683-1.227-1.024-2.672-1.024-4.336 0-1.664.341-3.11 1.024-4.336a6.967 6.967 0 012.912-2.832c1.259-.661 2.72-.992 4.384-.992 1.664 0 3.125.33 4.384.992a6.967 6.967 0 012.912 2.832c.683 1.227 1.024 2.672 1.024 4.336 0 1.664-.341 3.11-1.024 4.336a7.069 7.069 0 01-2.912 2.848c-1.259.672-2.72 1.008-4.384 1.008zm0-3.68c2.347 0 3.52-1.504 3.52-4.512 0-1.515-.304-2.645-.912-3.392-.608-.747-1.477-1.12-2.608-1.12-2.347 0-3.52 1.504-3.52 4.512 0 3.008 1.173 4.512 3.52 4.512zm18.016 3.68c-1.664 0-3.125-.336-4.384-1.008a7.069 7.069 0 01-2.912-2.848c-.683-1.227-1.024-2.672-1.024-4.336 0-1.664.341-3.11 1.024-4.336a6.967 6.967 0 012.912-2.832c1.259-.661 2.72-.992 4.384-.992 1.664 0 3.125.33 4.384.992a6.967 6.967 0 012.912 2.832c.683 1.227 1.024 2.672 1.024 4.336 0 1.664-.341 3.11-1.024 4.336a7.069 7.069 0 01-2.912 2.848c-1.259.672-2.72 1.008-4.384 1.008zm0-3.68c2.347 0 3.52-1.504 3.52-4.512 0-1.515-.304-2.645-.912-3.392-.608-.747-1.477-1.12-2.608-1.12-2.347 0-3.52 1.504-3.52 4.512 0 3.008 1.173 4.512 3.52 4.512zM200 31.375h-5.92l-6.016-7.008v7.008h-4.832V8.815h4.832v13.568l5.792-6.688h5.76l-6.592 7.488L200 31.375zM.001 3.842l1.24 33.017a2.011 2.011 0 001.919 1.933l26.844 1.206a2.187 2.187 0 00.09.002c1.111 0 2.011-.9 2.011-2.011V2.01A2.011 2.011 0 0029.968.004l-2.207.138.161 4.616a.3.3 0 01-.486.246L25.95 3.832l-1.76 1.336a.3.3 0 01-.482-.251l.189-4.533-22.01 1.375A2.011 2.011 0 000 3.842zm18.774 11.622c0 .783 5.27.407 5.978-.142 0-5.328-2.859-8.128-8.094-8.128-5.235 0-8.169 2.843-8.169 7.108 0 4.273 3.317 6.135 6.135 7.718 2.081 1.168 3.89 2.184 3.89 3.905 0 1.137-.557 1.813-1.782 1.813-1.597 0-2.228-.816-2.154-3.588 0-.601-6.089-.789-6.274 0-.473 6.718 3.713 8.656 8.502 8.656 4.642 0 8.28-2.474 8.28-6.952 0-4.673-3.504-6.53-6.399-8.064-2.038-1.08-3.774-2-3.774-3.63 0-1.6 1.188-1.813 1.893-1.813.743 0 2.08.131 1.968 3.117z" fill="#fff"/>
</svg>
