<svg xmlns="http://www.w3.org/2000/svg" xmlns:xlink="http://www.w3.org/1999/xlink" width="200" height="40" version="1.1" viewBox="0 0 200 40"><title>storybook-logo/default</title><desc>Created with Sketch.</desc><defs><path id="path-1" d="M1.2405585,36.8586756 L0.00144018976,3.84178492 C-0.0394830275,2.75136653 0.796610749,1.82724966 1.88567179,1.75918334 L29.9688501,0.00398469995 C31.0773842,-0.0652986838 32.032194,0.777180513 32.1014774,1.88571465 C32.1040877,1.92747994 32.1053938,1.96931653 32.1053938,2.01116332 L32.1053938,37.9889049 C32.1053938,39.0996021 31.2049959,40 30.0942987,40 C30.0642095,40 30.034124,39.9993247 30.004065,39.9979747 L3.16000504,38.7923224 C2.11453506,38.745367 1.27980674,37.9044633 1.2405585,36.8586756 Z"/></defs><g id="storybook-logo/default" fill="none" fill-rule="evenodd" stroke="none" stroke-width="1"><path id="title" fill="#333" d="M53.28,31.663 C51.5733248,31.663 49.9306746,31.433669 48.352,30.975 C46.7733254,30.516331 45.4613386,29.8816707 44.416,29.071 L46.016,25.519 C48.1920109,27.0336742 50.6346531,27.791 53.344,27.791 C54.752007,27.791 55.8346629,27.561669 56.592,27.103 C57.3493371,26.644331 57.728,26.0096707 57.728,25.199 C57.728,24.473663 57.3813368,23.9083354 56.688,23.503 C55.9946632,23.0976646 54.7626755,22.7030019 52.992,22.319 C51.0079901,21.9136646 49.4240059,21.4230029 48.24,20.847 C47.0559941,20.2709971 46.1920027,19.5616709 45.648,18.719 C45.1039973,17.8763291 44.832,16.8363395 44.832,15.599 C44.832,14.2336598 45.2106629,13.017672 45.968,11.951 C46.7253371,10.884328 47.7866598,10.047003 49.152,9.439 C50.5173402,8.83099696 52.095991,8.527 53.888,8.527 C55.488008,8.527 57.0293259,8.76166432 58.512,9.231 C59.9946741,9.70033568 61.173329,10.3296627 62.048,11.119 L60.448,14.671 C58.3786563,13.1563258 56.2026781,12.399 53.92,12.399 C52.6186602,12.399 51.5946704,12.6496642 50.848,13.151 C50.1013296,13.6523358 49.728,14.340329 49.728,15.215 C49.728,15.7270026 49.8719986,16.1483317 50.16,16.479 C50.4480014,16.8096683 50.9279966,17.1029987 51.6,17.359 C52.2720034,17.6150013 53.2266605,17.8816653 54.464,18.159 C57.3653478,18.7990032 59.4506603,19.6203283 60.72,20.623 C61.9893397,21.6256717 62.624,23.0123245 62.624,24.783 C62.624,26.916344 61.8026749,28.5963272 60.16,29.823 C58.5173251,31.0496728 56.2240147,31.663 53.28,31.663 Z M74.208,28.079 C74.6986691,28.079 75.210664,28.0470003 75.744,27.983 L75.488,31.503 C74.8693302,31.5883338 74.2506698,31.631 73.632,31.631 C71.2426547,31.631 69.4986722,31.1083386 68.4,30.063 C67.3013278,29.0176614 66.752,27.428344 66.752,25.295 L66.752,19.279 L63.776,19.279 L63.776,15.663 L66.752,15.663 L66.752,11.055 L71.584,11.055 L71.584,15.663 L75.52,15.663 L75.52,19.279 L71.584,19.279 L71.584,25.263 C71.584,27.1403427 72.4586579,28.079 74.208,28.079 Z M85.44,31.631 C83.7759917,31.631 82.314673,31.2950034 81.056,30.623 C79.797327,29.9509966 78.8266701,29.0016728 78.144,27.775 C77.4613299,26.5483272 77.12,25.1030083 77.12,23.439 C77.12,21.7749917 77.4613299,20.3296728 78.144,19.103 C78.8266701,17.8763272 79.797327,16.9323366 81.056,16.271 C82.314673,15.6096634 83.7759917,15.279 85.44,15.279 C87.1040083,15.279 88.565327,15.6096634 89.824,16.271 C91.082673,16.9323366 92.0533299,17.8763272 92.736,19.103 C93.4186701,20.3296728 93.76,21.7749917 93.76,23.439 C93.76,25.1030083 93.4186701,26.5483272 92.736,27.775 C92.0533299,29.0016728 91.082673,29.9509966 89.824,30.623 C88.565327,31.2950034 87.1040083,31.631 85.44,31.631 Z M85.44,27.951 C87.7866784,27.951 88.96,26.447015 88.96,23.439 C88.96,21.9243258 88.656003,20.7936704 88.048,20.047 C87.439997,19.3003296 86.5706723,18.927 85.44,18.927 C83.0933216,18.927 81.92,20.430985 81.92,23.439 C81.92,26.447015 83.0933216,27.951 85.44,27.951 Z M107.136,19.247 L104.416,19.535 C103.071993,19.6630006 102.122669,20.0416635 101.568,20.671 C101.013331,21.3003365 100.736,22.1376614 100.736,23.183 L100.736,31.375 L95.904,31.375 L95.904,15.663 L100.544,15.663 L100.544,18.319 C101.333337,16.5056576 102.965321,15.5136675 105.44,15.343 L106.848,15.247 L107.136,19.247 Z M121.176,15.695 L125.912,15.695 L116.44,37.135 L111.544,37.135 L114.552,30.511 L108.088,15.695 L113.112,15.695 L117.08,25.679 L121.176,15.695 Z M137.112,15.279 C138.47734,15.279 139.682661,15.6096634 140.728,16.271 C141.773339,16.9323366 142.58933,17.8763272 143.176,19.103 C143.76267,20.3296728 144.056,21.7536586 144.056,23.375 C144.056,24.9963414 143.76267,26.4309938 143.176,27.679 C142.58933,28.9270062 141.768005,29.8976632 140.712,30.591 C139.655995,31.2843368 138.456007,31.631 137.112,31.631 C136.023995,31.631 135.042671,31.401669 134.168,30.943 C133.293329,30.484331 132.621336,29.8496707 132.152,29.039 L132.152,31.375 L127.384,31.375 L127.384,8.815 L132.216,8.815 L132.216,17.775 C132.685336,16.9856627 133.351996,16.3723355 134.216,15.935 C135.080004,15.4976645 136.045328,15.279 137.112,15.279 Z M135.704,27.951 C136.834672,27.951 137.70933,27.551004 138.328,26.751 C138.94667,25.950996 139.256,24.8256739 139.256,23.375 C139.256,21.9456595 138.94667,20.8523371 138.328,20.095 C137.70933,19.3376629 136.834672,18.959 135.704,18.959 C134.573328,18.959 133.69867,19.3483294 133.08,20.127 C132.46133,20.9056706 132.152,22.0096595 132.152,23.439 C132.152,24.8896739 132.46133,26.0043294 133.08,26.783 C133.69867,27.5616706 134.573328,27.951 135.704,27.951 Z M154.552,31.631 C152.887992,31.631 151.426673,31.2950034 150.168,30.623 C148.909327,29.9509966 147.93867,29.0016728 147.256,27.775 C146.57333,26.5483272 146.232,25.1030083 146.232,23.439 C146.232,21.7749917 146.57333,20.3296728 147.256,19.103 C147.93867,17.8763272 148.909327,16.9323366 150.168,16.271 C151.426673,15.6096634 152.887992,15.279 154.552,15.279 C156.216008,15.279 157.677327,15.6096634 158.936,16.271 C160.194673,16.9323366 161.16533,17.8763272 161.848,19.103 C162.53067,20.3296728 162.872,21.7749917 162.872,23.439 C162.872,25.1030083 162.53067,26.5483272 161.848,27.775 C161.16533,29.0016728 160.194673,29.9509966 158.936,30.623 C157.677327,31.2950034 156.216008,31.631 154.552,31.631 Z M154.552,27.951 C156.898678,27.951 158.072,26.447015 158.072,23.439 C158.072,21.9243258 157.768003,20.7936704 157.16,20.047 C156.551997,19.3003296 155.682672,18.927 154.552,18.927 C152.205322,18.927 151.032,20.430985 151.032,23.439 C151.032,26.447015 152.205322,27.951 154.552,27.951 Z M172.568,31.631 C170.903992,31.631 169.442673,31.2950034 168.184,30.623 C166.925327,29.9509966 165.95467,29.0016728 165.272,27.775 C164.58933,26.5483272 164.248,25.1030083 164.248,23.439 C164.248,21.7749917 164.58933,20.3296728 165.272,19.103 C165.95467,17.8763272 166.925327,16.9323366 168.184,16.271 C169.442673,15.6096634 170.903992,15.279 172.568,15.279 C174.232008,15.279 175.693327,15.6096634 176.952,16.271 C178.210673,16.9323366 179.18133,17.8763272 179.864,19.103 C180.54667,20.3296728 180.888,21.7749917 180.888,23.439 C180.888,25.1030083 180.54667,26.5483272 179.864,27.775 C179.18133,29.0016728 178.210673,29.9509966 176.952,30.623 C175.693327,31.2950034 174.232008,31.631 172.568,31.631 Z M172.568,27.951 C174.914678,27.951 176.088,26.447015 176.088,23.439 C176.088,21.9243258 175.784003,20.7936704 175.176,20.047 C174.567997,19.3003296 173.698672,18.927 172.568,18.927 C170.221322,18.927 169.048,20.430985 169.048,23.439 C169.048,26.447015 170.221322,27.951 172.568,27.951 Z M200,31.375 L194.08,31.375 L188.064,24.367 L188.064,31.375 L183.232,31.375 L183.232,8.815 L188.064,8.815 L188.064,22.383 L193.856,15.695 L199.616,15.695 L193.024,23.183 L200,31.375 Z"/><g id="storybook-icon/default"><mask id="mask-2" fill="#fff"><use xlink:href="#path-1"/></mask><use id="path1_fill-path" fill="#FF4785" fill-rule="nonzero" xlink:href="#path-1"/><path id="path2_fill-path" fill="#FFF" fill-rule="nonzero" d="M23.7074082,4.91663721 L23.8992315,0.303023661 L27.7558963,0 L27.9220445,4.75786009 C27.9278268,4.92344459 27.7982816,5.06236485 27.6326971,5.06814719 C27.5617959,5.07062311 27.4923115,5.04789212 27.4365822,5.00399056 L25.9493283,3.83238502 L24.1884561,5.168114 C24.0564522,5.26824702 23.868268,5.24241056 23.768135,5.11040663 C23.7259839,5.05483953 23.7045108,4.98632234 23.7074082,4.91663721 Z" mask="url(#mask-2)"/><path id="path9_fill-path" fill="#FFF" fill-rule="nonzero" d="M18.7751036,15.0765471 C18.7751036,15.8589807 24.0454698,15.4839807 24.7529701,14.934375 C24.7529701,9.60618896 21.8939904,6.80631104 16.6587161,6.80631104 C11.4234417,6.80631104 8.49020288,9.64975119 8.49020288,13.9149136 C8.49020288,21.3434049 18.5151963,21.485577 18.5151963,25.5374813 C18.5151963,26.674858 17.9582523,27.3501754 16.7329753,27.3501754 C15.1364023,27.3501754 14.505199,26.5347946 14.5794582,23.762439 C14.5794582,23.1610127 8.49020288,22.9735127 8.30455485,23.762439 C7.83181939,30.4808433 12.0175154,32.418689 16.8072345,32.418689 C21.4484352,32.418689 25.0871365,29.9448159 25.0871365,25.4663953 C25.0871365,17.5047587 14.9136246,17.7180168 14.9136246,13.7727416 C14.9136246,12.1733056 16.101772,11.9600475 16.8072345,11.9600475 C17.5498266,11.9600475 18.8864924,12.0909334 18.7751036,15.0765471 Z" mask="url(#mask-2)"/></g></g></svg>